G04 Layer_Color=128*
%FSLAX25Y25*%
%MOIN*%
G70*
G01*
G75*
%ADD10R,0.04000X0.05000*%
%ADD19R,0.07874X0.07874*%
%ADD44R,0.10799X0.08500*%
%ADD45R,0.04724X0.03347*%
%ADD46R,0.12992X0.05315*%
%ADD47R,0.05000X0.04000*%
%ADD48O,0.04134X0.02362*%
%ADD49R,0.04134X0.02362*%
%ADD50R,0.06299X0.13780*%
%ADD51R,0.05512X0.03937*%
D10*
X361500Y268000D02*
D03*
X369500D02*
D03*
X361500Y277000D02*
D03*
X369500D02*
D03*
X336000Y244000D02*
D03*
X328000D02*
D03*
D19*
X391000Y222626D02*
D03*
Y238374D02*
D03*
D44*
X409000Y222799D02*
D03*
Y240201D02*
D03*
D45*
X399004Y264500D02*
D03*
X386996D02*
D03*
X384996Y254500D02*
D03*
X397004D02*
D03*
D46*
X314000Y244516D02*
D03*
Y221484D02*
D03*
D47*
X357500Y225260D02*
D03*
Y233260D02*
D03*
X347500D02*
D03*
Y225260D02*
D03*
D48*
X359870Y252520D02*
D03*
Y256260D02*
D03*
Y260000D02*
D03*
X370500Y252520D02*
D03*
Y256260D02*
D03*
D49*
Y260000D02*
D03*
D50*
X599677Y331000D02*
D03*
X584323D02*
D03*
X600677Y258000D02*
D03*
X585323D02*
D03*
D51*
X376500Y233000D02*
D03*
Y225520D02*
D03*
X367000Y233000D02*
D03*
Y225520D02*
D03*
M02*
