G04 Layer_Color=32896*
%FSLAX25Y25*%
%MOIN*%
G70*
G01*
G75*
%ADD54C,0.00787*%
%ADD57C,0.01000*%
%ADD60C,0.00500*%
%ADD63C,0.00800*%
%ADD97C,0.00984*%
%ADD98R,0.10236X0.03062*%
D54*
X364250Y261870D02*
G03*
X366120Y261870I935J0D01*
G01*
X385882Y232862D02*
X396118D01*
Y227602D02*
Y232862D01*
X385882Y232862D02*
X385882Y232862D01*
X385882Y227602D02*
Y232862D01*
X416874Y222445D02*
Y240555D01*
X401126Y222445D02*
Y240555D01*
X415974Y222445D02*
X416874D01*
X415974Y240555D02*
X416874D01*
X401126Y222445D02*
X402026D01*
X401126Y240555D02*
X402026D01*
X382370Y260563D02*
Y264500D01*
Y260563D02*
X403630D01*
Y268437D01*
X382370D02*
X403630D01*
X382370Y264500D02*
Y268437D01*
X401630Y254500D02*
Y258437D01*
X380370D02*
X401630D01*
X380370Y250563D02*
Y258437D01*
Y250563D02*
X401630D01*
Y254500D01*
X307898Y225716D02*
Y240283D01*
X320102Y225716D02*
Y240283D01*
X365146Y250650D02*
Y261870D01*
Y250650D02*
X365224D01*
Y261870D01*
X364250D02*
X365224D01*
X365146D02*
X366120D01*
X589047Y337496D02*
X594953D01*
X589047Y324504D02*
X594953D01*
X590047Y264496D02*
X595953D01*
X590047Y251504D02*
X595953D01*
X374138Y229063D02*
Y229457D01*
X378862Y229063D02*
Y229457D01*
X364638Y229063D02*
Y229457D01*
X369362Y229063D02*
Y229457D01*
D57*
X375500Y261000D02*
G03*
X375500Y261000I-500J0D01*
G01*
X403630Y268437D02*
X405937D01*
X406000Y268500D01*
Y260626D02*
Y268500D01*
X405937Y260563D02*
X406000Y260626D01*
X403630Y260563D02*
X405937D01*
X378063Y250563D02*
X380370D01*
X378000Y250500D02*
X378063Y250563D01*
X378000Y250500D02*
Y258374D01*
X378063Y258437D01*
X380370D01*
D60*
X358500Y271500D02*
X372500D01*
X358500Y264500D02*
X372500Y264500D01*
X358500Y264500D02*
Y271500D01*
X372500D02*
X372500Y264500D01*
X358500Y280500D02*
X372500D01*
X358500Y273500D02*
X372500Y273500D01*
X358500Y273500D02*
Y280500D01*
X372500D02*
X372500Y273500D01*
X339000Y247500D02*
X339000Y240500D01*
X325000Y240500D02*
Y247500D01*
Y240500D02*
X339000Y240500D01*
X325000Y247500D02*
X339000D01*
X354000Y222260D02*
Y236260D01*
X361000Y222260D02*
X361000Y236260D01*
X354000Y222260D02*
X361000D01*
X354000Y236260D02*
X361000Y236260D01*
X351000Y222260D02*
Y236260D01*
X344000Y222260D02*
X344000Y236260D01*
X351000D01*
X344000Y222260D02*
X351000Y222260D01*
D63*
X354148Y270610D02*
X354814Y271277D01*
X356147D01*
X356813Y270610D01*
Y267945D01*
X356147Y267278D01*
X354814D01*
X354148Y267945D01*
X352815Y270610D02*
X352148Y271277D01*
X350815D01*
X350149Y270610D01*
Y269944D01*
X350815Y269278D01*
X350149Y268611D01*
Y267945D01*
X350815Y267278D01*
X352148D01*
X352815Y267945D01*
Y268611D01*
X352148Y269278D01*
X352815Y269944D01*
Y270610D01*
X352148Y269278D02*
X350815D01*
X338400Y250600D02*
Y254599D01*
X336401D01*
X335734Y253932D01*
Y252599D01*
X336401Y251933D01*
X338400D01*
X337067D02*
X335734Y250600D01*
X331735Y254599D02*
X334401D01*
Y252599D01*
X333068Y253266D01*
X332402D01*
X331735Y252599D01*
Y251266D01*
X332402Y250600D01*
X333735D01*
X334401Y251266D01*
X347166Y239928D02*
X346499Y239261D01*
X345166D01*
X344500Y239928D01*
Y242593D01*
X345166Y243260D01*
X346499D01*
X347166Y242593D01*
X351165Y239261D02*
X349832Y239928D01*
X348499Y241261D01*
Y242593D01*
X349165Y243260D01*
X350498D01*
X351165Y242593D01*
Y241927D01*
X350498Y241261D01*
X348499D01*
X377919Y277850D02*
X378585Y278517D01*
X379918D01*
X380585Y277850D01*
Y275185D01*
X379918Y274518D01*
X378585D01*
X377919Y275185D01*
X376586Y278517D02*
X373920D01*
Y277850D01*
X376586Y275185D01*
Y274518D01*
X601434Y272132D02*
X602101Y272799D01*
X603434D01*
X604100Y272132D01*
Y269466D01*
X603434Y268800D01*
X602101D01*
X601434Y269466D01*
X600101Y268800D02*
X598768D01*
X599435D01*
Y272799D01*
X600101Y272132D01*
X594103Y268800D02*
X596769D01*
X594103Y271466D01*
Y272132D01*
X594770Y272799D01*
X596103D01*
X596769Y272132D01*
X600434Y345132D02*
X601101Y345799D01*
X602434D01*
X603100Y345132D01*
Y342466D01*
X602434Y341800D01*
X601101D01*
X600434Y342466D01*
X599101Y341800D02*
X597768D01*
X598435D01*
Y345799D01*
X599101Y345132D01*
X595769D02*
X595103Y345799D01*
X593770D01*
X593103Y345132D01*
Y344466D01*
X593770Y343799D01*
X594436D01*
X593770D01*
X593103Y343133D01*
Y342466D01*
X593770Y341800D01*
X595103D01*
X595769Y342466D01*
X414000Y266999D02*
Y263000D01*
X412001D01*
X411334Y263666D01*
Y266332D01*
X412001Y266999D01*
X414000D01*
X410001Y263000D02*
X408668D01*
X409335D01*
Y266999D01*
X410001Y266332D01*
X388849Y246919D02*
Y242920D01*
X386849D01*
X386183Y243586D01*
Y246252D01*
X386849Y246919D01*
X388849D01*
X382184Y242920D02*
X384850D01*
X382184Y245586D01*
Y246252D01*
X382851Y246919D01*
X384184D01*
X384850Y246252D01*
X410579Y247095D02*
Y243097D01*
X408580D01*
X407913Y243763D01*
Y246429D01*
X408580Y247095D01*
X410579D01*
X406580Y246429D02*
X405914Y247095D01*
X404581D01*
X403914Y246429D01*
Y245762D01*
X404581Y245096D01*
X405247D01*
X404581D01*
X403914Y244430D01*
Y243763D01*
X404581Y243097D01*
X405914D01*
X406580Y243763D01*
X411000Y256499D02*
Y252500D01*
X409001D01*
X408334Y253166D01*
Y255832D01*
X409001Y256499D01*
X411000D01*
X405002Y252500D02*
Y256499D01*
X407001Y254499D01*
X404335D01*
X379500Y238860D02*
Y242859D01*
X377501D01*
X376834Y242192D01*
Y240859D01*
X377501Y240193D01*
X379500D01*
X378167D02*
X376834Y238860D01*
X375501D02*
X374168D01*
X374835D01*
Y242859D01*
X375501Y242192D01*
X370000Y238860D02*
Y242859D01*
X368001D01*
X367334Y242192D01*
Y240859D01*
X368001Y240193D01*
X370000D01*
X368667D02*
X367334Y238860D01*
X363335D02*
X366001D01*
X363335Y241526D01*
Y242192D01*
X364002Y242859D01*
X365335D01*
X366001Y242192D01*
X360500Y238500D02*
Y242499D01*
X358501D01*
X357834Y241832D01*
Y240499D01*
X358501Y239833D01*
X360500D01*
X359167D02*
X357834Y238500D01*
X356501Y241832D02*
X355835Y242499D01*
X354502D01*
X353836Y241832D01*
Y241166D01*
X354502Y240499D01*
X355168D01*
X354502D01*
X353836Y239833D01*
Y239166D01*
X354502Y238500D01*
X355835D01*
X356501Y239166D01*
X329580Y229498D02*
Y233497D01*
X327581D01*
X326914Y232830D01*
Y231497D01*
X327581Y230831D01*
X329580D01*
X328247D02*
X326914Y229498D01*
X323582D02*
Y233497D01*
X325581Y231497D01*
X322915D01*
X366500Y248499D02*
Y245166D01*
X365834Y244500D01*
X364501D01*
X363834Y245166D01*
Y248499D01*
D97*
X391492Y244476D02*
G03*
X391492Y244476I-492J0D01*
G01*
X417057Y219533D02*
G03*
X417057Y219533I-492J0D01*
G01*
D98*
X390998Y231237D02*
D03*
M02*
