G04 Layer_Color=65535*
%FSLAX25Y25*%
%MOIN*%
G70*
G01*
G75*
%ADD54C,0.00787*%
%ADD55C,0.02953*%
%ADD56C,0.01969*%
%ADD57C,0.01000*%
%ADD58C,0.00100*%
%ADD59C,0.03937*%
%ADD60C,0.00500*%
%ADD61C,0.00315*%
%ADD62C,0.00394*%
%ADD63C,0.00800*%
G36*
X190786Y122279D02*
X190876Y122267D01*
X190882D01*
X190894Y122260D01*
X190918D01*
X190948Y122255D01*
X191020Y122237D01*
X191098Y122219D01*
X191104D01*
X191116Y122213D01*
X191134Y122206D01*
X191158Y122201D01*
X191218Y122176D01*
X191279Y122146D01*
X191285D01*
X191291Y122140D01*
X191327Y122128D01*
X191363Y122104D01*
X191387Y122086D01*
X191393Y122080D01*
X191399Y122074D01*
X191411Y122056D01*
X191417Y122038D01*
Y122032D01*
X191423Y122026D01*
X191435Y121990D01*
Y121984D01*
X191441Y121972D01*
X191447Y121942D01*
Y121912D01*
Y121906D01*
X191453Y121882D01*
Y121846D01*
Y121804D01*
Y121798D01*
Y121792D01*
Y121756D01*
Y121714D01*
X191447Y121672D01*
Y121666D01*
X191441Y121642D01*
X191435Y121617D01*
X191429Y121587D01*
Y121581D01*
X191423Y121569D01*
X191405Y121539D01*
X191393Y121533D01*
X191381Y121527D01*
X191357D01*
X191339Y121533D01*
X191309Y121545D01*
X191267Y121563D01*
X191254Y121569D01*
X191225Y121587D01*
X191176Y121611D01*
X191116Y121642D01*
X191110D01*
X191098Y121648D01*
X191080Y121660D01*
X191056Y121666D01*
X190990Y121690D01*
X190906Y121720D01*
X190900D01*
X190888Y121726D01*
X190858Y121732D01*
X190828Y121738D01*
X190792Y121744D01*
X190744Y121750D01*
X190641Y121756D01*
X190605D01*
X190575Y121750D01*
X190515Y121744D01*
X190449Y121726D01*
X190443D01*
X190437Y121720D01*
X190401Y121708D01*
X190353Y121678D01*
X190311Y121648D01*
X190305Y121642D01*
X190281Y121617D01*
X190251Y121581D01*
X190227Y121533D01*
X190221Y121521D01*
X190215Y121491D01*
X190209Y121449D01*
X190203Y121395D01*
Y121389D01*
Y121377D01*
X190209Y121353D01*
Y121329D01*
X190227Y121263D01*
X190263Y121197D01*
Y121191D01*
X190275Y121185D01*
X190305Y121149D01*
X190359Y121101D01*
X190425Y121053D01*
X190431D01*
X190443Y121040D01*
X190467Y121028D01*
X190491Y121017D01*
X190563Y120974D01*
X190654Y120932D01*
X190659D01*
X190678Y120920D01*
X190702Y120914D01*
X190738Y120896D01*
X190774Y120878D01*
X190822Y120860D01*
X190918Y120818D01*
X190924D01*
X190942Y120806D01*
X190966Y120794D01*
X191002Y120776D01*
X191086Y120734D01*
X191182Y120674D01*
X191188Y120668D01*
X191206Y120662D01*
X191230Y120644D01*
X191261Y120620D01*
X191339Y120560D01*
X191417Y120482D01*
X191423Y120476D01*
X191435Y120464D01*
X191453Y120440D01*
X191477Y120410D01*
X191501Y120373D01*
X191531Y120325D01*
X191579Y120223D01*
X191585Y120217D01*
X191591Y120199D01*
X191603Y120169D01*
X191615Y120127D01*
X191627Y120073D01*
X191633Y120013D01*
X191645Y119947D01*
Y119875D01*
Y119863D01*
Y119833D01*
X191639Y119778D01*
X191633Y119718D01*
X191621Y119646D01*
X191603Y119568D01*
X191579Y119484D01*
X191543Y119406D01*
X191537Y119400D01*
X191525Y119376D01*
X191501Y119334D01*
X191477Y119292D01*
X191435Y119237D01*
X191393Y119183D01*
X191339Y119129D01*
X191279Y119075D01*
X191273Y119069D01*
X191249Y119051D01*
X191212Y119027D01*
X191164Y119003D01*
X191110Y118967D01*
X191038Y118937D01*
X190966Y118907D01*
X190882Y118877D01*
X190870D01*
X190840Y118865D01*
X190798Y118859D01*
X190738Y118847D01*
X190666Y118835D01*
X190581Y118823D01*
X190497Y118817D01*
X190401Y118811D01*
X190341D01*
X190293Y118817D01*
X190245D01*
X190191Y118823D01*
X190077Y118841D01*
X190071D01*
X190052Y118847D01*
X190023Y118853D01*
X189986Y118859D01*
X189902Y118883D01*
X189812Y118907D01*
X189806D01*
X189794Y118913D01*
X189770Y118919D01*
X189746Y118931D01*
X189686Y118955D01*
X189620Y118985D01*
X189614D01*
X189608Y118991D01*
X189578Y119015D01*
X189542Y119039D01*
X189506Y119069D01*
X189500Y119075D01*
X189488Y119093D01*
X189476Y119123D01*
X189464Y119165D01*
Y119171D01*
Y119177D01*
X189457Y119213D01*
X189452Y119274D01*
Y119352D01*
Y119358D01*
Y119364D01*
Y119400D01*
Y119442D01*
Y119484D01*
Y119496D01*
X189457Y119514D01*
X189464Y119544D01*
X189470Y119574D01*
Y119580D01*
X189476Y119592D01*
X189488Y119610D01*
X189500Y119622D01*
X189506Y119628D01*
X189518Y119634D01*
X189530Y119640D01*
X189554D01*
X189572Y119634D01*
X189608Y119622D01*
X189650Y119592D01*
X189656D01*
X189662Y119586D01*
X189698Y119562D01*
X189746Y119532D01*
X189818Y119496D01*
X189824D01*
X189836Y119490D01*
X189860Y119478D01*
X189890Y119466D01*
X189926Y119454D01*
X189968Y119436D01*
X190065Y119406D01*
X190071D01*
X190089Y119400D01*
X190119Y119394D01*
X190161Y119388D01*
X190209Y119376D01*
X190269Y119370D01*
X190329Y119364D01*
X190449D01*
X190479Y119370D01*
X190551Y119376D01*
X190623Y119388D01*
X190629D01*
X190641Y119394D01*
X190659Y119400D01*
X190684Y119412D01*
X190738Y119436D01*
X190792Y119472D01*
X190798D01*
X190804Y119484D01*
X190828Y119508D01*
X190864Y119550D01*
X190894Y119604D01*
Y119610D01*
X190900Y119616D01*
X190906Y119634D01*
X190918Y119658D01*
X190930Y119718D01*
X190936Y119784D01*
Y119790D01*
Y119802D01*
X190930Y119826D01*
Y119851D01*
X190906Y119917D01*
X190894Y119953D01*
X190870Y119983D01*
Y119989D01*
X190858Y119995D01*
X190828Y120031D01*
X190774Y120079D01*
X190708Y120127D01*
X190702Y120133D01*
X190690Y120139D01*
X190672Y120151D01*
X190641Y120169D01*
X190612Y120187D01*
X190569Y120205D01*
X190479Y120247D01*
X190473D01*
X190455Y120259D01*
X190431Y120265D01*
X190401Y120283D01*
X190359Y120301D01*
X190317Y120319D01*
X190221Y120361D01*
X190215Y120367D01*
X190197Y120373D01*
X190173Y120385D01*
X190137Y120404D01*
X190101Y120428D01*
X190052Y120451D01*
X189956Y120506D01*
X189950Y120512D01*
X189932Y120518D01*
X189908Y120536D01*
X189878Y120560D01*
X189806Y120620D01*
X189728Y120692D01*
X189722Y120698D01*
X189710Y120710D01*
X189692Y120734D01*
X189674Y120770D01*
X189650Y120806D01*
X189620Y120854D01*
X189572Y120956D01*
Y120962D01*
X189560Y120980D01*
X189554Y121017D01*
X189542Y121058D01*
X189530Y121113D01*
X189524Y121173D01*
X189512Y121239D01*
Y121317D01*
Y121329D01*
Y121359D01*
X189518Y121407D01*
X189524Y121461D01*
X189530Y121527D01*
X189548Y121599D01*
X189566Y121672D01*
X189596Y121744D01*
X189602Y121750D01*
X189614Y121774D01*
X189632Y121810D01*
X189662Y121852D01*
X189692Y121894D01*
X189734Y121948D01*
X189782Y121996D01*
X189836Y122044D01*
X189842Y122050D01*
X189866Y122062D01*
X189896Y122086D01*
X189938Y122116D01*
X189992Y122146D01*
X190052Y122176D01*
X190125Y122206D01*
X190197Y122231D01*
X190209D01*
X190233Y122242D01*
X190275Y122248D01*
X190329Y122260D01*
X190395Y122273D01*
X190467Y122279D01*
X190551Y122291D01*
X190714D01*
X190786Y122279D01*
D02*
G37*
G36*
X203912Y122387D02*
X203960Y122381D01*
X204062Y122363D01*
X204104Y122339D01*
X204140Y122315D01*
X204146Y122309D01*
X204152Y122303D01*
X204164Y122285D01*
X204182Y122255D01*
X204194Y122219D01*
X204206Y122170D01*
X204212Y122116D01*
X204218Y122050D01*
Y122044D01*
Y122020D01*
X204212Y121984D01*
X204206Y121942D01*
X204182Y121858D01*
X204164Y121816D01*
X204134Y121780D01*
X204128D01*
X204116Y121768D01*
X204098Y121756D01*
X204068Y121744D01*
X204026Y121732D01*
X203978Y121720D01*
X203912Y121714D01*
X203839Y121708D01*
X203803D01*
X203767Y121714D01*
X203719Y121720D01*
X203617Y121738D01*
X203575Y121756D01*
X203539Y121780D01*
Y121786D01*
X203527Y121792D01*
X203515Y121810D01*
X203503Y121840D01*
X203491Y121876D01*
X203479Y121918D01*
X203473Y121972D01*
X203467Y122038D01*
Y122044D01*
Y122068D01*
X203473Y122104D01*
X203479Y122146D01*
X203503Y122237D01*
X203521Y122279D01*
X203545Y122315D01*
X203551Y122321D01*
X203563Y122327D01*
X203581Y122339D01*
X203611Y122357D01*
X203653Y122369D01*
X203701Y122381D01*
X203767Y122387D01*
X203839Y122393D01*
X203875D01*
X203912Y122387D01*
D02*
G37*
G36*
X229550D02*
X229598Y122381D01*
X229700Y122363D01*
X229743Y122339D01*
X229779Y122315D01*
X229785Y122309D01*
X229791Y122303D01*
X229803Y122285D01*
X229821Y122255D01*
X229833Y122219D01*
X229845Y122170D01*
X229851Y122116D01*
X229857Y122050D01*
Y122044D01*
Y122020D01*
X229851Y121984D01*
X229845Y121942D01*
X229821Y121858D01*
X229803Y121816D01*
X229773Y121780D01*
X229767D01*
X229755Y121768D01*
X229737Y121756D01*
X229707Y121744D01*
X229664Y121732D01*
X229616Y121720D01*
X229550Y121714D01*
X229478Y121708D01*
X229442D01*
X229406Y121714D01*
X229358Y121720D01*
X229256Y121738D01*
X229214Y121756D01*
X229178Y121780D01*
Y121786D01*
X229166Y121792D01*
X229154Y121810D01*
X229142Y121840D01*
X229130Y121876D01*
X229117Y121918D01*
X229112Y121972D01*
X229105Y122038D01*
Y122044D01*
Y122068D01*
X229112Y122104D01*
X229117Y122146D01*
X229142Y122237D01*
X229160Y122279D01*
X229184Y122315D01*
X229190Y122321D01*
X229202Y122327D01*
X229220Y122339D01*
X229250Y122357D01*
X229292Y122369D01*
X229340Y122381D01*
X229406Y122387D01*
X229478Y122393D01*
X229514D01*
X229550Y122387D01*
D02*
G37*
G36*
X202638Y122471D02*
X202685Y122465D01*
X202698D01*
X202722Y122459D01*
X202758Y122453D01*
X202788Y122441D01*
X202794D01*
X202806Y122435D01*
X202824Y122423D01*
X202842Y122405D01*
X202848D01*
X202854Y122393D01*
X202860Y122381D01*
Y122363D01*
Y118955D01*
Y118949D01*
Y118937D01*
X202854Y118925D01*
X202842Y118907D01*
X202830Y118895D01*
X202818Y118889D01*
X202800Y118877D01*
X202794D01*
X202776Y118871D01*
X202752Y118865D01*
X202716Y118859D01*
X202679D01*
X202638Y118853D01*
X202487D01*
X202445Y118859D01*
X202439D01*
X202415Y118865D01*
X202391Y118871D01*
X202361Y118877D01*
X202355D01*
X202343Y118883D01*
X202313Y118907D01*
Y118913D01*
X202307Y118919D01*
X202301Y118955D01*
Y119213D01*
X202295Y119208D01*
X202271Y119183D01*
X202235Y119147D01*
X202187Y119105D01*
X202133Y119057D01*
X202073Y119003D01*
X202000Y118955D01*
X201928Y118913D01*
X201922Y118907D01*
X201892Y118895D01*
X201850Y118883D01*
X201802Y118865D01*
X201736Y118841D01*
X201658Y118829D01*
X201580Y118817D01*
X201490Y118811D01*
X201448D01*
X201393Y118817D01*
X201333Y118823D01*
X201261Y118835D01*
X201189Y118853D01*
X201111Y118877D01*
X201039Y118913D01*
X201033Y118919D01*
X201009Y118931D01*
X200979Y118955D01*
X200937Y118985D01*
X200889Y119027D01*
X200840Y119075D01*
X200792Y119129D01*
X200744Y119189D01*
X200738Y119195D01*
X200726Y119220D01*
X200708Y119255D01*
X200678Y119304D01*
X200654Y119364D01*
X200624Y119436D01*
X200600Y119508D01*
X200576Y119592D01*
Y119604D01*
X200570Y119634D01*
X200564Y119682D01*
X200552Y119742D01*
X200546Y119815D01*
X200534Y119899D01*
X200528Y119989D01*
Y120085D01*
Y120091D01*
Y120097D01*
Y120115D01*
Y120139D01*
X200534Y120193D01*
Y120271D01*
X200546Y120355D01*
X200558Y120446D01*
X200570Y120542D01*
X200594Y120638D01*
X200600Y120650D01*
X200606Y120680D01*
X200624Y120728D01*
X200642Y120782D01*
X200672Y120848D01*
X200702Y120920D01*
X200744Y120992D01*
X200786Y121058D01*
X200792Y121065D01*
X200810Y121089D01*
X200834Y121119D01*
X200870Y121161D01*
X200919Y121203D01*
X200973Y121245D01*
X201033Y121293D01*
X201099Y121329D01*
X201105Y121335D01*
X201135Y121347D01*
X201171Y121359D01*
X201225Y121377D01*
X201291Y121395D01*
X201363Y121413D01*
X201448Y121419D01*
X201538Y121425D01*
X201574D01*
X201610Y121419D01*
X201658Y121413D01*
X201712Y121407D01*
X201772Y121389D01*
X201832Y121371D01*
X201892Y121341D01*
X201898Y121335D01*
X201922Y121329D01*
X201952Y121311D01*
X201994Y121281D01*
X202043Y121251D01*
X202097Y121215D01*
X202151Y121167D01*
X202211Y121113D01*
Y122363D01*
Y122369D01*
Y122375D01*
X202223Y122405D01*
Y122411D01*
X202235Y122417D01*
X202247Y122429D01*
X202271Y122441D01*
X202277Y122447D01*
X202301Y122453D01*
X202331Y122459D01*
X202373Y122465D01*
X202385D01*
X202421Y122471D01*
X202469Y122477D01*
X202589D01*
X202638Y122471D01*
D02*
G37*
G36*
X215036Y121419D02*
X215090Y121413D01*
X215156Y121407D01*
X215222Y121395D01*
X215288Y121371D01*
X215355Y121347D01*
X215361Y121341D01*
X215385Y121335D01*
X215409Y121317D01*
X215451Y121293D01*
X215487Y121263D01*
X215535Y121221D01*
X215577Y121179D01*
X215613Y121131D01*
X215619Y121125D01*
X215631Y121107D01*
X215649Y121077D01*
X215667Y121040D01*
X215691Y120999D01*
X215715Y120944D01*
X215739Y120884D01*
X215757Y120818D01*
Y120812D01*
X215763Y120788D01*
X215775Y120746D01*
X215781Y120698D01*
X215793Y120632D01*
X215799Y120560D01*
X215805Y120476D01*
Y120385D01*
Y118955D01*
Y118949D01*
Y118937D01*
X215799Y118925D01*
X215787Y118907D01*
X215781D01*
X215775Y118895D01*
X215757Y118889D01*
X215733Y118877D01*
X215727D01*
X215709Y118871D01*
X215673D01*
X215631Y118865D01*
X215619D01*
X215589Y118859D01*
X215541Y118853D01*
X215427D01*
X215373Y118859D01*
X215319Y118865D01*
X215307D01*
X215283Y118871D01*
X215252D01*
X215222Y118877D01*
X215216D01*
X215204Y118883D01*
X215186Y118895D01*
X215168Y118907D01*
Y118913D01*
X215162Y118919D01*
X215156Y118955D01*
Y120277D01*
Y120283D01*
Y120307D01*
Y120337D01*
X215150Y120373D01*
X215144Y120457D01*
X215138Y120506D01*
X215126Y120542D01*
Y120548D01*
X215120Y120560D01*
X215114Y120578D01*
X215108Y120596D01*
X215084Y120650D01*
X215054Y120704D01*
Y120710D01*
X215048Y120716D01*
X215024Y120746D01*
X214988Y120782D01*
X214934Y120812D01*
X214928D01*
X214922Y120818D01*
X214886Y120836D01*
X214832Y120848D01*
X214766Y120854D01*
X214742D01*
X214718Y120848D01*
X214687Y120842D01*
X214645Y120830D01*
X214603Y120812D01*
X214555Y120788D01*
X214507Y120758D01*
X214501Y120752D01*
X214483Y120740D01*
X214459Y120722D01*
X214429Y120692D01*
X214387Y120656D01*
X214345Y120608D01*
X214297Y120554D01*
X214249Y120494D01*
Y118955D01*
Y118949D01*
Y118937D01*
X214243Y118925D01*
X214231Y118907D01*
X214225D01*
X214219Y118895D01*
X214201Y118889D01*
X214177Y118877D01*
X214171D01*
X214153Y118871D01*
X214117D01*
X214074Y118865D01*
X214062D01*
X214032Y118859D01*
X213984Y118853D01*
X213864D01*
X213810Y118859D01*
X213756Y118865D01*
X213744D01*
X213720Y118871D01*
X213690D01*
X213660Y118877D01*
X213654D01*
X213642Y118883D01*
X213624Y118895D01*
X213606Y118907D01*
Y118913D01*
X213600Y118919D01*
X213594Y118955D01*
Y121269D01*
Y121275D01*
Y121287D01*
X213606Y121317D01*
Y121323D01*
X213618Y121329D01*
X213630Y121335D01*
X213648Y121347D01*
X213654D01*
X213672Y121353D01*
X213702Y121359D01*
X213738Y121365D01*
X213750D01*
X213774Y121371D01*
X213816Y121377D01*
X213918D01*
X213966Y121371D01*
X214008Y121365D01*
X214020D01*
X214038Y121359D01*
X214069Y121353D01*
X214092Y121347D01*
X214099D01*
X214111Y121341D01*
X214123Y121329D01*
X214135Y121317D01*
X214141Y121311D01*
X214147Y121305D01*
X214153Y121287D01*
Y121269D01*
Y121004D01*
X214159Y121017D01*
X214183Y121040D01*
X214225Y121077D01*
X214273Y121125D01*
X214327Y121173D01*
X214393Y121227D01*
X214465Y121275D01*
X214537Y121317D01*
X214549Y121323D01*
X214573Y121335D01*
X214615Y121353D01*
X214664Y121371D01*
X214730Y121389D01*
X214796Y121407D01*
X214874Y121419D01*
X214952Y121425D01*
X214994D01*
X215036Y121419D01*
D02*
G37*
G36*
X217891D02*
X217945Y121413D01*
X218011Y121407D01*
X218077Y121395D01*
X218143Y121371D01*
X218209Y121347D01*
X218215Y121341D01*
X218239Y121335D01*
X218264Y121317D01*
X218305Y121293D01*
X218342Y121263D01*
X218390Y121221D01*
X218432Y121179D01*
X218468Y121131D01*
X218474Y121125D01*
X218486Y121107D01*
X218504Y121077D01*
X218522Y121040D01*
X218546Y120999D01*
X218570Y120944D01*
X218594Y120884D01*
X218612Y120818D01*
Y120812D01*
X218618Y120788D01*
X218630Y120746D01*
X218636Y120698D01*
X218648Y120632D01*
X218654Y120560D01*
X218660Y120476D01*
Y120385D01*
Y118955D01*
Y118949D01*
Y118937D01*
X218654Y118925D01*
X218642Y118907D01*
X218636D01*
X218630Y118895D01*
X218612Y118889D01*
X218588Y118877D01*
X218582D01*
X218564Y118871D01*
X218528D01*
X218486Y118865D01*
X218474D01*
X218444Y118859D01*
X218396Y118853D01*
X218282D01*
X218227Y118859D01*
X218173Y118865D01*
X218161D01*
X218137Y118871D01*
X218107D01*
X218077Y118877D01*
X218071D01*
X218059Y118883D01*
X218041Y118895D01*
X218023Y118907D01*
Y118913D01*
X218017Y118919D01*
X218011Y118955D01*
Y120277D01*
Y120283D01*
Y120307D01*
Y120337D01*
X218005Y120373D01*
X217999Y120457D01*
X217993Y120506D01*
X217981Y120542D01*
Y120548D01*
X217975Y120560D01*
X217969Y120578D01*
X217963Y120596D01*
X217939Y120650D01*
X217909Y120704D01*
Y120710D01*
X217903Y120716D01*
X217879Y120746D01*
X217843Y120782D01*
X217789Y120812D01*
X217783D01*
X217777Y120818D01*
X217741Y120836D01*
X217687Y120848D01*
X217620Y120854D01*
X217596D01*
X217572Y120848D01*
X217542Y120842D01*
X217500Y120830D01*
X217458Y120812D01*
X217410Y120788D01*
X217362Y120758D01*
X217356Y120752D01*
X217338Y120740D01*
X217314Y120722D01*
X217284Y120692D01*
X217242Y120656D01*
X217200Y120608D01*
X217152Y120554D01*
X217104Y120494D01*
Y118955D01*
Y118949D01*
Y118937D01*
X217097Y118925D01*
X217086Y118907D01*
X217079D01*
X217073Y118895D01*
X217056Y118889D01*
X217031Y118877D01*
X217025D01*
X217007Y118871D01*
X216971D01*
X216929Y118865D01*
X216917D01*
X216887Y118859D01*
X216839Y118853D01*
X216719D01*
X216665Y118859D01*
X216611Y118865D01*
X216599D01*
X216575Y118871D01*
X216545D01*
X216515Y118877D01*
X216509D01*
X216496Y118883D01*
X216478Y118895D01*
X216460Y118907D01*
Y118913D01*
X216455Y118919D01*
X216448Y118955D01*
Y121269D01*
Y121275D01*
Y121287D01*
X216460Y121317D01*
Y121323D01*
X216473Y121329D01*
X216484Y121335D01*
X216502Y121347D01*
X216509D01*
X216527Y121353D01*
X216557Y121359D01*
X216593Y121365D01*
X216605D01*
X216629Y121371D01*
X216671Y121377D01*
X216773D01*
X216821Y121371D01*
X216863Y121365D01*
X216875D01*
X216893Y121359D01*
X216923Y121353D01*
X216947Y121347D01*
X216953D01*
X216965Y121341D01*
X216977Y121329D01*
X216989Y121317D01*
X216995Y121311D01*
X217001Y121305D01*
X217007Y121287D01*
Y121269D01*
Y121004D01*
X217013Y121017D01*
X217037Y121040D01*
X217079Y121077D01*
X217128Y121125D01*
X217182Y121173D01*
X217248Y121227D01*
X217320Y121275D01*
X217392Y121317D01*
X217404Y121323D01*
X217428Y121335D01*
X217470Y121353D01*
X217518Y121371D01*
X217584Y121389D01*
X217651Y121407D01*
X217729Y121419D01*
X217807Y121425D01*
X217849D01*
X217891Y121419D01*
D02*
G37*
G36*
X234761D02*
X234815Y121413D01*
X234881Y121407D01*
X234947Y121395D01*
X235013Y121371D01*
X235079Y121347D01*
X235086Y121341D01*
X235109Y121335D01*
X235134Y121317D01*
X235176Y121293D01*
X235212Y121263D01*
X235260Y121221D01*
X235302Y121179D01*
X235338Y121131D01*
X235344Y121125D01*
X235356Y121107D01*
X235374Y121077D01*
X235392Y121040D01*
X235416Y120999D01*
X235440Y120944D01*
X235464Y120884D01*
X235482Y120818D01*
Y120812D01*
X235488Y120788D01*
X235500Y120746D01*
X235506Y120698D01*
X235518Y120632D01*
X235524Y120560D01*
X235530Y120476D01*
Y120385D01*
Y118955D01*
Y118949D01*
Y118937D01*
X235524Y118925D01*
X235512Y118907D01*
X235506D01*
X235500Y118895D01*
X235482Y118889D01*
X235458Y118877D01*
X235452D01*
X235434Y118871D01*
X235398D01*
X235356Y118865D01*
X235344D01*
X235314Y118859D01*
X235266Y118853D01*
X235152D01*
X235098Y118859D01*
X235043Y118865D01*
X235031D01*
X235007Y118871D01*
X234977D01*
X234947Y118877D01*
X234941D01*
X234929Y118883D01*
X234911Y118895D01*
X234893Y118907D01*
Y118913D01*
X234887Y118919D01*
X234881Y118955D01*
Y120277D01*
Y120283D01*
Y120307D01*
Y120337D01*
X234875Y120373D01*
X234869Y120457D01*
X234863Y120506D01*
X234851Y120542D01*
Y120548D01*
X234845Y120560D01*
X234839Y120578D01*
X234833Y120596D01*
X234809Y120650D01*
X234779Y120704D01*
Y120710D01*
X234773Y120716D01*
X234749Y120746D01*
X234713Y120782D01*
X234659Y120812D01*
X234653D01*
X234647Y120818D01*
X234611Y120836D01*
X234557Y120848D01*
X234490Y120854D01*
X234466D01*
X234442Y120848D01*
X234412Y120842D01*
X234370Y120830D01*
X234328Y120812D01*
X234280Y120788D01*
X234232Y120758D01*
X234226Y120752D01*
X234208Y120740D01*
X234184Y120722D01*
X234154Y120692D01*
X234112Y120656D01*
X234070Y120608D01*
X234022Y120554D01*
X233974Y120494D01*
Y118955D01*
Y118949D01*
Y118937D01*
X233968Y118925D01*
X233956Y118907D01*
X233950D01*
X233944Y118895D01*
X233926Y118889D01*
X233902Y118877D01*
X233895D01*
X233877Y118871D01*
X233841D01*
X233799Y118865D01*
X233787D01*
X233757Y118859D01*
X233709Y118853D01*
X233589D01*
X233535Y118859D01*
X233481Y118865D01*
X233469D01*
X233445Y118871D01*
X233415D01*
X233385Y118877D01*
X233379D01*
X233367Y118883D01*
X233349Y118895D01*
X233330Y118907D01*
Y118913D01*
X233325Y118919D01*
X233318Y118955D01*
Y121269D01*
Y121275D01*
Y121287D01*
X233330Y121317D01*
Y121323D01*
X233343Y121329D01*
X233355Y121335D01*
X233373Y121347D01*
X233379D01*
X233397Y121353D01*
X233427Y121359D01*
X233463Y121365D01*
X233475D01*
X233499Y121371D01*
X233541Y121377D01*
X233643D01*
X233691Y121371D01*
X233733Y121365D01*
X233745D01*
X233763Y121359D01*
X233793Y121353D01*
X233817Y121347D01*
X233823D01*
X233835Y121341D01*
X233847Y121329D01*
X233859Y121317D01*
X233865Y121311D01*
X233871Y121305D01*
X233877Y121287D01*
Y121269D01*
Y121004D01*
X233884Y121017D01*
X233908Y121040D01*
X233950Y121077D01*
X233998Y121125D01*
X234052Y121173D01*
X234118Y121227D01*
X234190Y121275D01*
X234262Y121317D01*
X234274Y121323D01*
X234298Y121335D01*
X234340Y121353D01*
X234388Y121371D01*
X234454Y121389D01*
X234521Y121407D01*
X234599Y121419D01*
X234677Y121425D01*
X234719D01*
X234761Y121419D01*
D02*
G37*
G36*
X220320Y117280D02*
X220398Y117273D01*
X220488Y117255D01*
X220584Y117237D01*
X220680Y117207D01*
X220770Y117165D01*
X220782Y117159D01*
X220806Y117141D01*
X220848Y117117D01*
X220902Y117075D01*
X220957Y117027D01*
X221017Y116973D01*
X221077Y116901D01*
X221131Y116823D01*
X221137Y116811D01*
X221155Y116781D01*
X221173Y116739D01*
X221203Y116673D01*
X221233Y116594D01*
X221263Y116498D01*
X221293Y116396D01*
X221317Y116282D01*
Y116276D01*
Y116270D01*
X221323Y116252D01*
Y116228D01*
X221329Y116198D01*
X221335Y116162D01*
X221347Y116071D01*
X221353Y115963D01*
X221365Y115843D01*
X221371Y115705D01*
Y115555D01*
Y115549D01*
Y115537D01*
Y115513D01*
Y115489D01*
Y115453D01*
X221365Y115410D01*
Y115314D01*
X221353Y115200D01*
X221341Y115080D01*
X221329Y114954D01*
X221305Y114828D01*
Y114822D01*
Y114815D01*
X221299Y114797D01*
X221293Y114773D01*
X221275Y114713D01*
X221251Y114635D01*
X221221Y114551D01*
X221185Y114455D01*
X221143Y114365D01*
X221089Y114275D01*
X221083Y114262D01*
X221065Y114239D01*
X221029Y114196D01*
X220987Y114148D01*
X220933Y114088D01*
X220866Y114034D01*
X220794Y113974D01*
X220710Y113926D01*
X220698Y113920D01*
X220668Y113908D01*
X220620Y113890D01*
X220548Y113866D01*
X220464Y113842D01*
X220368Y113824D01*
X220259Y113812D01*
X220133Y113806D01*
X220079D01*
X220013Y113812D01*
X219935Y113818D01*
X219845Y113836D01*
X219748Y113854D01*
X219652Y113884D01*
X219562Y113920D01*
X219550Y113926D01*
X219526Y113944D01*
X219484Y113968D01*
X219430Y114010D01*
X219376Y114058D01*
X219316Y114118D01*
X219256Y114184D01*
X219202Y114262D01*
X219196Y114275D01*
X219178Y114305D01*
X219160Y114353D01*
X219129Y114413D01*
X219099Y114491D01*
X219069Y114587D01*
X219039Y114689D01*
X219015Y114803D01*
Y114809D01*
Y114815D01*
X219009Y114833D01*
Y114857D01*
X219003Y114888D01*
Y114924D01*
X218991Y115014D01*
X218985Y115122D01*
X218973Y115242D01*
X218967Y115380D01*
Y115531D01*
Y115537D01*
Y115549D01*
Y115567D01*
Y115597D01*
Y115633D01*
X218973Y115675D01*
Y115771D01*
X218985Y115879D01*
X218997Y116005D01*
X219009Y116126D01*
X219033Y116252D01*
Y116258D01*
X219039Y116264D01*
Y116282D01*
X219045Y116306D01*
X219063Y116366D01*
X219087Y116444D01*
X219111Y116534D01*
X219148Y116624D01*
X219196Y116721D01*
X219244Y116811D01*
X219250Y116823D01*
X219268Y116847D01*
X219304Y116889D01*
X219346Y116943D01*
X219400Y116997D01*
X219466Y117057D01*
X219538Y117111D01*
X219622Y117159D01*
X219634Y117165D01*
X219664Y117177D01*
X219719Y117201D01*
X219785Y117226D01*
X219869Y117244D01*
X219965Y117268D01*
X220079Y117280D01*
X220199Y117286D01*
X220259D01*
X220320Y117280D01*
D02*
G37*
G36*
X223018D02*
X223096Y117273D01*
X223186Y117255D01*
X223282Y117237D01*
X223379Y117207D01*
X223469Y117165D01*
X223481Y117159D01*
X223505Y117141D01*
X223547Y117117D01*
X223601Y117075D01*
X223655Y117027D01*
X223715Y116973D01*
X223775Y116901D01*
X223829Y116823D01*
X223835Y116811D01*
X223853Y116781D01*
X223871Y116739D01*
X223902Y116673D01*
X223932Y116594D01*
X223962Y116498D01*
X223992Y116396D01*
X224016Y116282D01*
Y116276D01*
Y116270D01*
X224022Y116252D01*
Y116228D01*
X224028Y116198D01*
X224034Y116162D01*
X224046Y116071D01*
X224052Y115963D01*
X224064Y115843D01*
X224070Y115705D01*
Y115555D01*
Y115549D01*
Y115537D01*
Y115513D01*
Y115489D01*
Y115453D01*
X224064Y115410D01*
Y115314D01*
X224052Y115200D01*
X224040Y115080D01*
X224028Y114954D01*
X224004Y114828D01*
Y114822D01*
Y114815D01*
X223998Y114797D01*
X223992Y114773D01*
X223974Y114713D01*
X223950Y114635D01*
X223920Y114551D01*
X223883Y114455D01*
X223841Y114365D01*
X223787Y114275D01*
X223781Y114262D01*
X223763Y114239D01*
X223727Y114196D01*
X223685Y114148D01*
X223631Y114088D01*
X223565Y114034D01*
X223493Y113974D01*
X223409Y113926D01*
X223397Y113920D01*
X223367Y113908D01*
X223319Y113890D01*
X223246Y113866D01*
X223162Y113842D01*
X223066Y113824D01*
X222958Y113812D01*
X222832Y113806D01*
X222778D01*
X222711Y113812D01*
X222633Y113818D01*
X222543Y113836D01*
X222447Y113854D01*
X222351Y113884D01*
X222261Y113920D01*
X222249Y113926D01*
X222225Y113944D01*
X222183Y113968D01*
X222129Y114010D01*
X222074Y114058D01*
X222014Y114118D01*
X221954Y114184D01*
X221900Y114262D01*
X221894Y114275D01*
X221876Y114305D01*
X221858Y114353D01*
X221828Y114413D01*
X221798Y114491D01*
X221768Y114587D01*
X221738Y114689D01*
X221714Y114803D01*
Y114809D01*
Y114815D01*
X221708Y114833D01*
Y114857D01*
X221702Y114888D01*
Y114924D01*
X221690Y115014D01*
X221684Y115122D01*
X221672Y115242D01*
X221666Y115380D01*
Y115531D01*
Y115537D01*
Y115549D01*
Y115567D01*
Y115597D01*
Y115633D01*
X221672Y115675D01*
Y115771D01*
X221684Y115879D01*
X221696Y116005D01*
X221708Y116126D01*
X221732Y116252D01*
Y116258D01*
X221738Y116264D01*
Y116282D01*
X221744Y116306D01*
X221762Y116366D01*
X221786Y116444D01*
X221810Y116534D01*
X221846Y116624D01*
X221894Y116721D01*
X221942Y116811D01*
X221948Y116823D01*
X221966Y116847D01*
X222002Y116889D01*
X222044Y116943D01*
X222098Y116997D01*
X222165Y117057D01*
X222237Y117111D01*
X222321Y117159D01*
X222333Y117165D01*
X222363Y117177D01*
X222417Y117201D01*
X222483Y117226D01*
X222567Y117244D01*
X222663Y117268D01*
X222778Y117280D01*
X222898Y117286D01*
X222958D01*
X223018Y117280D01*
D02*
G37*
G36*
X192703Y117219D02*
X192782Y117213D01*
X192800D01*
X192824Y117207D01*
X192854Y117201D01*
X192890Y117195D01*
X192938Y117189D01*
X193040Y117171D01*
X193046D01*
X193064Y117165D01*
X193094Y117159D01*
X193136Y117147D01*
X193178Y117135D01*
X193232Y117117D01*
X193341Y117063D01*
X193347Y117057D01*
X193365Y117051D01*
X193395Y117033D01*
X193431Y117009D01*
X193521Y116943D01*
X193605Y116859D01*
X193611Y116853D01*
X193623Y116835D01*
X193641Y116811D01*
X193665Y116781D01*
X193695Y116739D01*
X193719Y116684D01*
X193749Y116630D01*
X193773Y116570D01*
Y116564D01*
X193785Y116540D01*
X193791Y116510D01*
X193803Y116462D01*
X193815Y116408D01*
X193821Y116348D01*
X193833Y116276D01*
Y116204D01*
Y116198D01*
Y116192D01*
Y116156D01*
X193827Y116102D01*
X193821Y116035D01*
X193809Y115957D01*
X193797Y115873D01*
X193773Y115783D01*
X193743Y115699D01*
X193737Y115687D01*
X193725Y115663D01*
X193707Y115621D01*
X193677Y115573D01*
X193641Y115513D01*
X193599Y115453D01*
X193545Y115392D01*
X193485Y115332D01*
X193479Y115326D01*
X193455Y115308D01*
X193419Y115278D01*
X193371Y115248D01*
X193311Y115212D01*
X193238Y115170D01*
X193160Y115134D01*
X193070Y115104D01*
X193058D01*
X193028Y115092D01*
X192974Y115080D01*
X192908Y115068D01*
X192824Y115056D01*
X192722Y115044D01*
X192613Y115038D01*
X192493Y115032D01*
X192217D01*
Y113956D01*
Y113950D01*
Y113938D01*
X192211Y113920D01*
X192199Y113902D01*
X192193D01*
X192187Y113890D01*
X192169Y113884D01*
X192139Y113872D01*
X192133D01*
X192115Y113866D01*
X192078D01*
X192036Y113860D01*
X192024D01*
X191988Y113854D01*
X191940Y113848D01*
X191814D01*
X191760Y113854D01*
X191706Y113860D01*
X191694D01*
X191670Y113866D01*
X191634D01*
X191598Y113872D01*
X191592D01*
X191580Y113878D01*
X191562Y113890D01*
X191544Y113902D01*
Y113908D01*
X191538Y113920D01*
X191532Y113956D01*
Y116979D01*
Y116985D01*
Y116997D01*
X191538Y117021D01*
Y117045D01*
X191556Y117105D01*
X191592Y117159D01*
X191598Y117165D01*
X191604Y117171D01*
X191640Y117195D01*
X191688Y117213D01*
X191724Y117226D01*
X192625D01*
X192703Y117219D01*
D02*
G37*
G36*
X201538Y117280D02*
X201616Y117273D01*
X201707Y117255D01*
X201803Y117237D01*
X201899Y117207D01*
X201989Y117165D01*
X202001Y117159D01*
X202025Y117141D01*
X202067Y117117D01*
X202121Y117075D01*
X202175Y117027D01*
X202235Y116973D01*
X202295Y116901D01*
X202350Y116823D01*
X202356Y116811D01*
X202374Y116781D01*
X202392Y116739D01*
X202422Y116673D01*
X202452Y116594D01*
X202482Y116498D01*
X202512Y116396D01*
X202536Y116282D01*
Y116276D01*
Y116270D01*
X202542Y116252D01*
Y116228D01*
X202548Y116198D01*
X202554Y116162D01*
X202566Y116071D01*
X202572Y115963D01*
X202584Y115843D01*
X202590Y115705D01*
Y115555D01*
Y115549D01*
Y115537D01*
Y115513D01*
Y115489D01*
Y115453D01*
X202584Y115410D01*
Y115314D01*
X202572Y115200D01*
X202560Y115080D01*
X202548Y114954D01*
X202524Y114828D01*
Y114822D01*
Y114815D01*
X202518Y114797D01*
X202512Y114773D01*
X202494Y114713D01*
X202470Y114635D01*
X202440Y114551D01*
X202404Y114455D01*
X202362Y114365D01*
X202308Y114275D01*
X202302Y114262D01*
X202284Y114239D01*
X202247Y114196D01*
X202205Y114148D01*
X202151Y114088D01*
X202085Y114034D01*
X202013Y113974D01*
X201929Y113926D01*
X201917Y113920D01*
X201887Y113908D01*
X201839Y113890D01*
X201767Y113866D01*
X201682Y113842D01*
X201586Y113824D01*
X201478Y113812D01*
X201352Y113806D01*
X201298D01*
X201232Y113812D01*
X201154Y113818D01*
X201063Y113836D01*
X200967Y113854D01*
X200871Y113884D01*
X200781Y113920D01*
X200769Y113926D01*
X200745Y113944D01*
X200703Y113968D01*
X200649Y114010D01*
X200595Y114058D01*
X200535Y114118D01*
X200475Y114184D01*
X200420Y114262D01*
X200414Y114275D01*
X200396Y114305D01*
X200378Y114353D01*
X200348Y114413D01*
X200318Y114491D01*
X200288Y114587D01*
X200258Y114689D01*
X200234Y114803D01*
Y114809D01*
Y114815D01*
X200228Y114833D01*
Y114857D01*
X200222Y114888D01*
Y114924D01*
X200210Y115014D01*
X200204Y115122D01*
X200192Y115242D01*
X200186Y115380D01*
Y115531D01*
Y115537D01*
Y115549D01*
Y115567D01*
Y115597D01*
Y115633D01*
X200192Y115675D01*
Y115771D01*
X200204Y115879D01*
X200216Y116005D01*
X200228Y116126D01*
X200252Y116252D01*
Y116258D01*
X200258Y116264D01*
Y116282D01*
X200264Y116306D01*
X200282Y116366D01*
X200306Y116444D01*
X200330Y116534D01*
X200366Y116624D01*
X200414Y116721D01*
X200463Y116811D01*
X200468Y116823D01*
X200486Y116847D01*
X200523Y116889D01*
X200565Y116943D01*
X200619Y116997D01*
X200685Y117057D01*
X200757Y117111D01*
X200841Y117159D01*
X200853Y117165D01*
X200883Y117177D01*
X200937Y117201D01*
X201003Y117226D01*
X201087Y117244D01*
X201184Y117268D01*
X201298Y117280D01*
X201418Y117286D01*
X201478D01*
X201538Y117280D01*
D02*
G37*
G36*
X199970Y113391D02*
X199994Y113373D01*
X200018Y113343D01*
X200024Y113331D01*
X200030Y113319D01*
X200036Y113301D01*
Y113277D01*
X200042Y113241D01*
X200048Y113205D01*
Y113157D01*
Y113151D01*
Y113139D01*
Y113115D01*
X200042Y113085D01*
X200036Y113031D01*
X200030Y113000D01*
X200018Y112976D01*
X200012Y112964D01*
X200000Y112946D01*
X199976Y112928D01*
X199940Y112916D01*
X197464D01*
X197445Y112922D01*
X197415Y112940D01*
X197391Y112976D01*
X197385Y112988D01*
X197379Y113019D01*
X197373Y113042D01*
Y113073D01*
X197367Y113115D01*
Y113157D01*
Y113163D01*
Y113181D01*
Y113199D01*
X197373Y113229D01*
X197379Y113289D01*
X197385Y113319D01*
X197391Y113343D01*
X197397Y113349D01*
X197409Y113373D01*
X197439Y113391D01*
X197476Y113397D01*
X199952D01*
X199970Y113391D01*
D02*
G37*
G36*
X208017D02*
X208041Y113373D01*
X208065Y113343D01*
X208071Y113331D01*
X208077Y113319D01*
X208083Y113301D01*
Y113277D01*
X208089Y113241D01*
X208095Y113205D01*
Y113157D01*
Y113151D01*
Y113139D01*
Y113115D01*
X208089Y113085D01*
X208083Y113031D01*
X208077Y113000D01*
X208065Y112976D01*
X208059Y112964D01*
X208047Y112946D01*
X208023Y112928D01*
X207987Y112916D01*
X205511D01*
X205493Y112922D01*
X205463Y112940D01*
X205439Y112976D01*
X205433Y112988D01*
X205427Y113019D01*
X205421Y113042D01*
Y113073D01*
X205415Y113115D01*
Y113157D01*
Y113163D01*
Y113181D01*
Y113199D01*
X205421Y113229D01*
X205427Y113289D01*
X205433Y113319D01*
X205439Y113343D01*
X205445Y113349D01*
X205457Y113373D01*
X205487Y113391D01*
X205523Y113397D01*
X207999D01*
X208017Y113391D01*
D02*
G37*
G36*
X218751D02*
X218775Y113373D01*
X218799Y113343D01*
X218805Y113331D01*
X218811Y113319D01*
X218817Y113301D01*
Y113277D01*
X218823Y113241D01*
X218829Y113205D01*
Y113157D01*
Y113151D01*
Y113139D01*
Y113115D01*
X218823Y113085D01*
X218817Y113031D01*
X218811Y113000D01*
X218799Y112976D01*
X218793Y112964D01*
X218781Y112946D01*
X218757Y112928D01*
X218721Y112916D01*
X216245D01*
X216227Y112922D01*
X216197Y112940D01*
X216173Y112976D01*
X216167Y112988D01*
X216161Y113019D01*
X216155Y113042D01*
Y113073D01*
X216149Y113115D01*
Y113157D01*
Y113163D01*
Y113181D01*
Y113199D01*
X216155Y113229D01*
X216161Y113289D01*
X216167Y113319D01*
X216173Y113343D01*
X216179Y113349D01*
X216191Y113373D01*
X216221Y113391D01*
X216257Y113397D01*
X218733D01*
X218751Y113391D01*
D02*
G37*
G36*
X203948Y121371D02*
X203996Y121365D01*
X204008D01*
X204032Y121359D01*
X204068Y121353D01*
X204098Y121341D01*
X204104D01*
X204116Y121335D01*
X204134Y121323D01*
X204152Y121311D01*
X204158Y121305D01*
X204164Y121299D01*
X204170Y121281D01*
Y121263D01*
Y118955D01*
Y118949D01*
Y118937D01*
X204164Y118925D01*
X204152Y118907D01*
X204146D01*
X204140Y118895D01*
X204122Y118889D01*
X204098Y118877D01*
X204092D01*
X204074Y118871D01*
X204038D01*
X203996Y118865D01*
X203984D01*
X203954Y118859D01*
X203906Y118853D01*
X203785D01*
X203731Y118859D01*
X203677Y118865D01*
X203665D01*
X203641Y118871D01*
X203611D01*
X203581Y118877D01*
X203575D01*
X203563Y118883D01*
X203545Y118895D01*
X203527Y118907D01*
Y118913D01*
X203521Y118919D01*
X203515Y118955D01*
Y121263D01*
Y121269D01*
Y121281D01*
X203527Y121311D01*
X203533Y121317D01*
X203539Y121323D01*
X203557Y121329D01*
X203581Y121341D01*
X203587Y121347D01*
X203605Y121353D01*
X203635Y121359D01*
X203677Y121365D01*
X203689D01*
X203725Y121371D01*
X203773Y121377D01*
X203894D01*
X203948Y121371D01*
D02*
G37*
G36*
X208155Y121419D02*
X208227Y121413D01*
X208305Y121401D01*
X208383Y121389D01*
X208461Y121371D01*
X208467D01*
X208491Y121359D01*
X208527Y121347D01*
X208575Y121329D01*
X208671Y121275D01*
X208726Y121245D01*
X208774Y121203D01*
X208780Y121197D01*
X208792Y121185D01*
X208816Y121161D01*
X208846Y121125D01*
X208876Y121089D01*
X208906Y121040D01*
X208936Y120980D01*
X208960Y120920D01*
Y120914D01*
X208972Y120890D01*
X208978Y120854D01*
X208990Y120806D01*
X209002Y120740D01*
X209008Y120674D01*
X209020Y120590D01*
Y120506D01*
Y118949D01*
Y118943D01*
X209014Y118925D01*
X209008Y118907D01*
X208990Y118889D01*
X208984D01*
X208972Y118877D01*
X208942Y118871D01*
X208906Y118865D01*
X208894D01*
X208864Y118859D01*
X208816Y118853D01*
X208678D01*
X208623Y118859D01*
X208575Y118865D01*
X208569D01*
X208545Y118871D01*
X208521Y118877D01*
X208497Y118889D01*
X208491Y118895D01*
X208485Y118901D01*
X208479Y118919D01*
X208473Y118943D01*
Y119129D01*
X208467Y119123D01*
X208449Y119105D01*
X208419Y119075D01*
X208383Y119045D01*
X208335Y119009D01*
X208281Y118967D01*
X208215Y118931D01*
X208149Y118895D01*
X208143Y118889D01*
X208119Y118883D01*
X208083Y118871D01*
X208028Y118853D01*
X207968Y118835D01*
X207902Y118823D01*
X207830Y118817D01*
X207746Y118811D01*
X207680D01*
X207632Y118817D01*
X207578Y118823D01*
X207524Y118829D01*
X207403Y118859D01*
X207397D01*
X207379Y118871D01*
X207349Y118877D01*
X207313Y118895D01*
X207229Y118937D01*
X207139Y118997D01*
X207133Y119003D01*
X207121Y119015D01*
X207097Y119033D01*
X207073Y119063D01*
X207049Y119099D01*
X207019Y119135D01*
X206965Y119231D01*
Y119237D01*
X206953Y119255D01*
X206947Y119286D01*
X206935Y119328D01*
X206923Y119376D01*
X206917Y119430D01*
X206905Y119496D01*
Y119562D01*
Y119574D01*
Y119598D01*
X206911Y119634D01*
X206917Y119682D01*
X206923Y119736D01*
X206941Y119797D01*
X206959Y119857D01*
X206983Y119911D01*
X206989Y119917D01*
X206995Y119935D01*
X207019Y119965D01*
X207043Y120001D01*
X207073Y120037D01*
X207115Y120079D01*
X207163Y120121D01*
X207217Y120157D01*
X207223Y120163D01*
X207247Y120175D01*
X207277Y120193D01*
X207325Y120217D01*
X207379Y120241D01*
X207446Y120265D01*
X207524Y120289D01*
X207608Y120307D01*
X207620D01*
X207650Y120313D01*
X207698Y120325D01*
X207764Y120331D01*
X207842Y120343D01*
X207932Y120349D01*
X208040Y120355D01*
X208377D01*
Y120494D01*
Y120500D01*
Y120512D01*
Y120530D01*
Y120560D01*
X208365Y120620D01*
X208353Y120680D01*
Y120686D01*
X208347Y120692D01*
X208335Y120728D01*
X208311Y120776D01*
X208275Y120818D01*
X208269Y120830D01*
X208239Y120848D01*
X208197Y120872D01*
X208143Y120896D01*
X208137D01*
X208131Y120902D01*
X208113Y120908D01*
X208088Y120914D01*
X208022Y120920D01*
X207938Y120926D01*
X207878D01*
X207836Y120920D01*
X207746Y120908D01*
X207644Y120884D01*
X207638D01*
X207620Y120878D01*
X207596Y120872D01*
X207566Y120860D01*
X207494Y120836D01*
X207415Y120806D01*
X207409D01*
X207397Y120800D01*
X207379Y120794D01*
X207361Y120782D01*
X207307Y120758D01*
X207253Y120728D01*
X207241Y120722D01*
X207217Y120710D01*
X207181Y120698D01*
X207145Y120692D01*
X207127D01*
X207109Y120698D01*
X207091Y120710D01*
Y120716D01*
X207079Y120722D01*
X207055Y120758D01*
Y120764D01*
X207049Y120782D01*
X207043Y120806D01*
X207037Y120842D01*
Y120848D01*
Y120872D01*
X207031Y120908D01*
Y120950D01*
Y120956D01*
Y120962D01*
Y120999D01*
X207037Y121035D01*
X207043Y121077D01*
Y121083D01*
X207055Y121107D01*
X207067Y121131D01*
X207091Y121161D01*
X207097Y121167D01*
X207121Y121185D01*
X207157Y121215D01*
X207217Y121245D01*
X207223D01*
X207235Y121251D01*
X207253Y121263D01*
X207277Y121275D01*
X207343Y121299D01*
X207427Y121329D01*
X207433D01*
X207452Y121335D01*
X207475Y121341D01*
X207512Y121353D01*
X207548Y121365D01*
X207596Y121377D01*
X207698Y121395D01*
X207704D01*
X207722Y121401D01*
X207752Y121407D01*
X207788Y121413D01*
X207836D01*
X207884Y121419D01*
X207992Y121425D01*
X208088D01*
X208155Y121419D01*
D02*
G37*
G36*
X210102Y122483D02*
X210150Y122477D01*
X210162D01*
X210186Y122471D01*
X210222Y122465D01*
X210252Y122453D01*
X210258D01*
X210270Y122447D01*
X210288Y122435D01*
X210306Y122417D01*
X210312D01*
X210318Y122405D01*
X210324Y122393D01*
Y122375D01*
Y118955D01*
Y118949D01*
Y118937D01*
X210318Y118925D01*
X210306Y118907D01*
X210300D01*
X210294Y118895D01*
X210276Y118889D01*
X210252Y118877D01*
X210246D01*
X210228Y118871D01*
X210192D01*
X210150Y118865D01*
X210138D01*
X210108Y118859D01*
X210060Y118853D01*
X209940D01*
X209886Y118859D01*
X209831Y118865D01*
X209819D01*
X209795Y118871D01*
X209765D01*
X209735Y118877D01*
X209729D01*
X209717Y118883D01*
X209699Y118895D01*
X209681Y118907D01*
Y118913D01*
X209675Y118919D01*
X209669Y118955D01*
Y122375D01*
Y122381D01*
Y122387D01*
X209681Y122417D01*
X209687Y122423D01*
X209693Y122429D01*
X209711Y122441D01*
X209735Y122453D01*
X209741Y122459D01*
X209759Y122465D01*
X209789Y122471D01*
X209831Y122477D01*
X209843D01*
X209879Y122483D01*
X209928Y122489D01*
X210048D01*
X210102Y122483D01*
D02*
G37*
G36*
X227849Y121984D02*
X227898Y121978D01*
X227909D01*
X227934Y121972D01*
X227970Y121966D01*
X228000Y121960D01*
X228006D01*
X228018Y121954D01*
X228036Y121942D01*
X228054Y121924D01*
X228060Y121918D01*
X228066Y121912D01*
X228072Y121894D01*
Y121876D01*
Y121365D01*
X228589D01*
X228607Y121359D01*
X228619Y121347D01*
X228625D01*
X228631Y121335D01*
X228637Y121323D01*
X228649Y121305D01*
Y121299D01*
X228655Y121281D01*
X228661Y121257D01*
X228667Y121221D01*
Y121215D01*
X228673Y121191D01*
X228679Y121149D01*
Y121101D01*
Y121095D01*
Y121077D01*
Y121053D01*
X228673Y121022D01*
X228667Y120956D01*
X228661Y120920D01*
X228649Y120896D01*
X228643Y120884D01*
X228631Y120866D01*
X228607Y120848D01*
X228577Y120836D01*
X228072D01*
Y119742D01*
Y119736D01*
Y119712D01*
X228078Y119676D01*
Y119634D01*
X228096Y119538D01*
X228108Y119496D01*
X228126Y119454D01*
X228132Y119448D01*
X228138Y119442D01*
X228156Y119424D01*
X228174Y119412D01*
X228204Y119394D01*
X228240Y119376D01*
X228288Y119370D01*
X228342Y119364D01*
X228402D01*
X228432Y119370D01*
X228438D01*
X228456Y119376D01*
X228504Y119388D01*
X228510D01*
X228522Y119394D01*
X228541Y119400D01*
X228559Y119406D01*
X228565D01*
X228571Y119412D01*
X228601Y119418D01*
X228613D01*
X228631Y119406D01*
X228637D01*
X228643Y119400D01*
X228649Y119388D01*
X228655Y119370D01*
Y119364D01*
X228661Y119352D01*
Y119328D01*
X228667Y119298D01*
Y119292D01*
X228673Y119268D01*
X228679Y119231D01*
Y119183D01*
Y119177D01*
Y119165D01*
Y119141D01*
Y119117D01*
X228673Y119063D01*
X228661Y119009D01*
Y118997D01*
X228655Y118973D01*
X228643Y118943D01*
X228625Y118919D01*
X228619Y118913D01*
X228607Y118907D01*
X228583Y118889D01*
X228553Y118877D01*
X228547D01*
X228522Y118871D01*
X228492Y118865D01*
X228450Y118853D01*
X228438D01*
X228414Y118841D01*
X228372Y118835D01*
X228318Y118829D01*
X228306D01*
X228276Y118823D01*
X228228Y118817D01*
X228108D01*
X228060Y118823D01*
X228006Y118829D01*
X227952Y118835D01*
X227837Y118865D01*
X227831D01*
X227813Y118877D01*
X227789Y118883D01*
X227753Y118901D01*
X227675Y118949D01*
X227597Y119015D01*
X227591Y119021D01*
X227585Y119033D01*
X227567Y119057D01*
X227549Y119087D01*
X227525Y119123D01*
X227501Y119165D01*
X227483Y119220D01*
X227465Y119274D01*
Y119280D01*
X227459Y119304D01*
X227453Y119334D01*
X227447Y119382D01*
X227435Y119436D01*
X227429Y119496D01*
X227423Y119568D01*
Y119646D01*
Y120836D01*
X227134D01*
X227116Y120842D01*
X227092Y120860D01*
X227068Y120896D01*
Y120902D01*
X227062Y120908D01*
Y120920D01*
X227056Y120944D01*
X227050Y120974D01*
Y121010D01*
X227044Y121053D01*
Y121101D01*
Y121107D01*
Y121113D01*
Y121143D01*
Y121185D01*
X227050Y121221D01*
Y121233D01*
X227056Y121251D01*
X227062Y121281D01*
X227068Y121305D01*
Y121311D01*
X227074Y121323D01*
X227086Y121335D01*
X227098Y121347D01*
X227104Y121353D01*
X227110Y121359D01*
X227128Y121365D01*
X227423D01*
Y121876D01*
Y121882D01*
Y121894D01*
X227435Y121924D01*
Y121930D01*
X227447Y121936D01*
X227459Y121948D01*
X227483Y121960D01*
X227489D01*
X227513Y121966D01*
X227543Y121972D01*
X227585Y121978D01*
X227597D01*
X227627Y121984D01*
X227681Y121990D01*
X227795D01*
X227849Y121984D01*
D02*
G37*
G36*
X199128Y121419D02*
X199200Y121413D01*
X199278Y121401D01*
X199362Y121389D01*
X199446Y121365D01*
X199524Y121335D01*
X199536Y121329D01*
X199560Y121317D01*
X199596Y121299D01*
X199644Y121275D01*
X199699Y121239D01*
X199759Y121197D01*
X199813Y121149D01*
X199867Y121095D01*
X199873Y121089D01*
X199891Y121071D01*
X199915Y121035D01*
X199939Y120992D01*
X199975Y120938D01*
X200005Y120878D01*
X200035Y120812D01*
X200059Y120734D01*
X200065Y120722D01*
X200071Y120698D01*
X200083Y120656D01*
X200095Y120602D01*
X200107Y120536D01*
X200113Y120457D01*
X200125Y120379D01*
Y120289D01*
Y120181D01*
Y120175D01*
Y120163D01*
Y120139D01*
X200119Y120115D01*
X200101Y120061D01*
X200071Y120007D01*
X200059Y120001D01*
X200035Y119983D01*
X199987Y119959D01*
X199921Y119953D01*
X198515D01*
Y119947D01*
Y119929D01*
Y119899D01*
X198521Y119863D01*
X198527Y119772D01*
X198545Y119676D01*
Y119670D01*
X198551Y119658D01*
X198563Y119634D01*
X198575Y119604D01*
X198611Y119538D01*
X198659Y119472D01*
X198665Y119466D01*
X198671Y119460D01*
X198689Y119442D01*
X198713Y119424D01*
X198773Y119382D01*
X198857Y119346D01*
X198863D01*
X198881Y119340D01*
X198905Y119334D01*
X198941Y119328D01*
X198983Y119316D01*
X199031Y119310D01*
X199086Y119304D01*
X199206D01*
X199248Y119310D01*
X199344Y119316D01*
X199446Y119328D01*
X199452D01*
X199470Y119334D01*
X199494Y119340D01*
X199524Y119346D01*
X199596Y119358D01*
X199669Y119376D01*
X199674D01*
X199687Y119382D01*
X199723Y119394D01*
X199777Y119412D01*
X199825Y119430D01*
X199831D01*
X199837Y119436D01*
X199861Y119448D01*
X199897Y119454D01*
X199933Y119460D01*
X199945D01*
X199969Y119448D01*
X199975D01*
X199981Y119442D01*
X199993Y119412D01*
Y119406D01*
X199999Y119400D01*
X200005Y119376D01*
X200011Y119346D01*
Y119340D01*
X200017Y119316D01*
Y119286D01*
Y119244D01*
Y119231D01*
Y119208D01*
Y119177D01*
X200011Y119141D01*
Y119135D01*
Y119117D01*
X200005Y119075D01*
Y119069D01*
X199999Y119057D01*
X199987Y119027D01*
X199981Y119015D01*
X199957Y118991D01*
Y118985D01*
X199939Y118979D01*
X199915Y118961D01*
X199891Y118949D01*
X199867Y118937D01*
X199861D01*
X199855Y118931D01*
X199837Y118925D01*
X199819Y118919D01*
X199753Y118901D01*
X199674Y118883D01*
X199669D01*
X199656Y118877D01*
X199633D01*
X199596Y118871D01*
X199560Y118859D01*
X199512Y118853D01*
X199410Y118835D01*
X199404D01*
X199386Y118829D01*
X199356D01*
X199314Y118823D01*
X199266Y118817D01*
X199212D01*
X199086Y118811D01*
X199031D01*
X198977Y118817D01*
X198899Y118823D01*
X198815Y118829D01*
X198725Y118841D01*
X198629Y118859D01*
X198539Y118883D01*
X198527Y118889D01*
X198503Y118895D01*
X198460Y118919D01*
X198406Y118943D01*
X198346Y118973D01*
X198280Y119015D01*
X198214Y119063D01*
X198154Y119117D01*
X198148Y119123D01*
X198130Y119147D01*
X198100Y119183D01*
X198064Y119231D01*
X198028Y119286D01*
X197992Y119358D01*
X197950Y119436D01*
X197920Y119520D01*
Y119532D01*
X197908Y119562D01*
X197896Y119616D01*
X197884Y119682D01*
X197871Y119766D01*
X197860Y119863D01*
X197854Y119971D01*
X197847Y120091D01*
Y120097D01*
Y120103D01*
Y120121D01*
Y120145D01*
X197854Y120199D01*
X197860Y120277D01*
X197865Y120361D01*
X197884Y120451D01*
X197902Y120548D01*
X197926Y120644D01*
X197932Y120656D01*
X197938Y120686D01*
X197956Y120734D01*
X197986Y120794D01*
X198016Y120860D01*
X198058Y120926D01*
X198100Y120999D01*
X198154Y121065D01*
X198160Y121071D01*
X198184Y121095D01*
X198214Y121125D01*
X198262Y121161D01*
X198316Y121209D01*
X198382Y121251D01*
X198454Y121293D01*
X198533Y121329D01*
X198545Y121335D01*
X198575Y121347D01*
X198617Y121359D01*
X198677Y121377D01*
X198749Y121395D01*
X198833Y121413D01*
X198929Y121419D01*
X199025Y121425D01*
X199074D01*
X199128Y121419D01*
D02*
G37*
G36*
X220541D02*
X220619Y121413D01*
X220704Y121401D01*
X220794Y121389D01*
X220884Y121365D01*
X220974Y121335D01*
X220986Y121329D01*
X221010Y121317D01*
X221052Y121299D01*
X221106Y121275D01*
X221166Y121239D01*
X221226Y121197D01*
X221287Y121149D01*
X221347Y121089D01*
X221353Y121083D01*
X221371Y121058D01*
X221401Y121022D01*
X221431Y120980D01*
X221467Y120920D01*
X221503Y120848D01*
X221539Y120770D01*
X221569Y120686D01*
X221575Y120674D01*
X221581Y120644D01*
X221593Y120596D01*
X221611Y120530D01*
X221623Y120446D01*
X221635Y120355D01*
X221641Y120253D01*
X221647Y120139D01*
Y120133D01*
Y120127D01*
Y120091D01*
X221641Y120031D01*
X221635Y119959D01*
X221629Y119881D01*
X221617Y119784D01*
X221593Y119694D01*
X221569Y119598D01*
X221563Y119586D01*
X221557Y119556D01*
X221533Y119514D01*
X221509Y119454D01*
X221479Y119388D01*
X221437Y119316D01*
X221389Y119244D01*
X221329Y119177D01*
X221323Y119171D01*
X221299Y119147D01*
X221269Y119117D01*
X221220Y119081D01*
X221160Y119033D01*
X221094Y118991D01*
X221016Y118949D01*
X220932Y118907D01*
X220920Y118901D01*
X220890Y118895D01*
X220842Y118877D01*
X220770Y118859D01*
X220691Y118841D01*
X220595Y118829D01*
X220487Y118817D01*
X220373Y118811D01*
X220319D01*
X220265Y118817D01*
X220193Y118823D01*
X220109Y118829D01*
X220018Y118847D01*
X219928Y118865D01*
X219838Y118895D01*
X219826Y118901D01*
X219802Y118913D01*
X219760Y118931D01*
X219706Y118955D01*
X219646Y118991D01*
X219580Y119033D01*
X219520Y119087D01*
X219460Y119141D01*
X219454Y119147D01*
X219435Y119171D01*
X219405Y119208D01*
X219375Y119255D01*
X219339Y119316D01*
X219303Y119382D01*
X219267Y119460D01*
X219237Y119544D01*
Y119556D01*
X219225Y119586D01*
X219213Y119634D01*
X219201Y119700D01*
X219189Y119784D01*
X219177Y119875D01*
X219171Y119977D01*
X219165Y120091D01*
Y120097D01*
Y120103D01*
Y120139D01*
X219171Y120199D01*
X219177Y120271D01*
X219183Y120355D01*
X219201Y120446D01*
X219219Y120536D01*
X219243Y120632D01*
X219249Y120644D01*
X219255Y120674D01*
X219279Y120722D01*
X219303Y120776D01*
X219333Y120842D01*
X219375Y120914D01*
X219423Y120986D01*
X219478Y121053D01*
X219483Y121058D01*
X219508Y121083D01*
X219544Y121113D01*
X219586Y121155D01*
X219646Y121197D01*
X219712Y121245D01*
X219790Y121287D01*
X219874Y121329D01*
X219886Y121335D01*
X219916Y121347D01*
X219964Y121359D01*
X220036Y121377D01*
X220115Y121395D01*
X220211Y121413D01*
X220319Y121419D01*
X220433Y121425D01*
X220487D01*
X220541Y121419D01*
D02*
G37*
G36*
X231696D02*
X231774Y121413D01*
X231858Y121401D01*
X231948Y121389D01*
X232038Y121365D01*
X232129Y121335D01*
X232141Y121329D01*
X232165Y121317D01*
X232207Y121299D01*
X232261Y121275D01*
X232321Y121239D01*
X232381Y121197D01*
X232441Y121149D01*
X232501Y121089D01*
X232507Y121083D01*
X232525Y121058D01*
X232555Y121022D01*
X232585Y120980D01*
X232621Y120920D01*
X232657Y120848D01*
X232694Y120770D01*
X232723Y120686D01*
X232730Y120674D01*
X232736Y120644D01*
X232748Y120596D01*
X232766Y120530D01*
X232778Y120446D01*
X232790Y120355D01*
X232796Y120253D01*
X232802Y120139D01*
Y120133D01*
Y120127D01*
Y120091D01*
X232796Y120031D01*
X232790Y119959D01*
X232784Y119881D01*
X232772Y119784D01*
X232748Y119694D01*
X232723Y119598D01*
X232717Y119586D01*
X232712Y119556D01*
X232687Y119514D01*
X232663Y119454D01*
X232633Y119388D01*
X232591Y119316D01*
X232543Y119244D01*
X232483Y119177D01*
X232477Y119171D01*
X232453Y119147D01*
X232423Y119117D01*
X232375Y119081D01*
X232315Y119033D01*
X232249Y118991D01*
X232171Y118949D01*
X232086Y118907D01*
X232074Y118901D01*
X232044Y118895D01*
X231996Y118877D01*
X231924Y118859D01*
X231846Y118841D01*
X231750Y118829D01*
X231642Y118817D01*
X231527Y118811D01*
X231473D01*
X231419Y118817D01*
X231347Y118823D01*
X231263Y118829D01*
X231173Y118847D01*
X231083Y118865D01*
X230993Y118895D01*
X230981Y118901D01*
X230957Y118913D01*
X230914Y118931D01*
X230860Y118955D01*
X230800Y118991D01*
X230734Y119033D01*
X230674Y119087D01*
X230614Y119141D01*
X230608Y119147D01*
X230590Y119171D01*
X230560Y119208D01*
X230530Y119255D01*
X230494Y119316D01*
X230458Y119382D01*
X230422Y119460D01*
X230392Y119544D01*
Y119556D01*
X230380Y119586D01*
X230368Y119634D01*
X230356Y119700D01*
X230344Y119784D01*
X230332Y119875D01*
X230326Y119977D01*
X230319Y120091D01*
Y120097D01*
Y120103D01*
Y120139D01*
X230326Y120199D01*
X230332Y120271D01*
X230338Y120355D01*
X230356Y120446D01*
X230374Y120536D01*
X230398Y120632D01*
X230404Y120644D01*
X230410Y120674D01*
X230434Y120722D01*
X230458Y120776D01*
X230488Y120842D01*
X230530Y120914D01*
X230578Y120986D01*
X230632Y121053D01*
X230638Y121058D01*
X230662Y121083D01*
X230698Y121113D01*
X230740Y121155D01*
X230800Y121197D01*
X230866Y121245D01*
X230945Y121287D01*
X231029Y121329D01*
X231041Y121335D01*
X231071Y121347D01*
X231119Y121359D01*
X231191Y121377D01*
X231269Y121395D01*
X231365Y121413D01*
X231473Y121419D01*
X231588Y121425D01*
X231642D01*
X231696Y121419D01*
D02*
G37*
G36*
X224141Y121371D02*
X224153D01*
X224177Y121365D01*
X224207Y121359D01*
X224237Y121347D01*
X224243D01*
X224255Y121341D01*
X224273Y121329D01*
X224286Y121317D01*
X224291Y121305D01*
X224297Y121275D01*
Y121263D01*
Y121239D01*
Y121227D01*
X224291Y121197D01*
Y121191D01*
X224286Y121185D01*
X224279Y121149D01*
Y121143D01*
X224273Y121131D01*
X224268Y121113D01*
X224261Y121089D01*
X223564Y118991D01*
Y118985D01*
X223558Y118961D01*
X223546Y118937D01*
X223528Y118913D01*
X223522Y118907D01*
X223510Y118901D01*
X223492Y118889D01*
X223456Y118877D01*
X223450D01*
X223420Y118871D01*
X223378Y118865D01*
X223318Y118859D01*
X223258D01*
X223228Y118853D01*
X223017D01*
X222939Y118859D01*
X222867Y118865D01*
X222855D01*
X222819Y118871D01*
X222771Y118877D01*
X222729Y118883D01*
X222723D01*
X222705Y118895D01*
X222681Y118901D01*
X222657Y118919D01*
Y118925D01*
X222645Y118937D01*
X222639Y118961D01*
X222627Y118991D01*
X221930Y121089D01*
Y121095D01*
X221918Y121119D01*
X221912Y121149D01*
X221900Y121179D01*
Y121185D01*
Y121203D01*
X221894Y121221D01*
Y121239D01*
Y121245D01*
Y121251D01*
Y121275D01*
Y121281D01*
Y121287D01*
X221905Y121317D01*
X221912Y121323D01*
X221918Y121329D01*
X221936Y121335D01*
X221960Y121347D01*
X221966Y121353D01*
X221984Y121359D01*
X222014Y121365D01*
X222056Y121371D01*
X222068D01*
X222104Y121377D01*
X222278D01*
X222338Y121371D01*
X222392Y121365D01*
X222404D01*
X222428Y121359D01*
X222464Y121353D01*
X222495Y121347D01*
X222500D01*
X222513Y121341D01*
X222531Y121329D01*
X222543Y121311D01*
X222549Y121305D01*
X222555Y121299D01*
X222573Y121263D01*
X223095Y119562D01*
X223113Y119496D01*
X223132Y119562D01*
X223648Y121263D01*
Y121269D01*
X223654Y121281D01*
X223673Y121311D01*
X223678Y121317D01*
X223685Y121323D01*
X223703Y121335D01*
X223727Y121347D01*
X223733D01*
X223751Y121353D01*
X223781Y121359D01*
X223823Y121365D01*
X223835D01*
X223865Y121371D01*
X223919Y121377D01*
X224093D01*
X224141Y121371D01*
D02*
G37*
G36*
X197096Y122219D02*
X197132Y122206D01*
X197144Y122201D01*
X197162Y122194D01*
X197192Y122176D01*
X197216Y122152D01*
X197222Y122146D01*
X197234Y122128D01*
X197253Y122104D01*
X197271Y122068D01*
X197276Y122062D01*
X197283Y122038D01*
X197289Y122002D01*
Y121954D01*
Y118961D01*
Y118955D01*
Y118943D01*
X197283Y118925D01*
X197271Y118907D01*
X197258Y118895D01*
X197240Y118889D01*
X197216Y118877D01*
X197210D01*
X197192Y118871D01*
X197156D01*
X197114Y118865D01*
X197102D01*
X197072Y118859D01*
X197024Y118853D01*
X196904D01*
X196856Y118859D01*
X196802Y118865D01*
X196790D01*
X196766Y118871D01*
X196736D01*
X196706Y118877D01*
X196700D01*
X196688Y118883D01*
X196669Y118895D01*
X196651Y118907D01*
Y118913D01*
X196645Y118925D01*
X196640Y118961D01*
Y121696D01*
X196634D01*
X195660Y118961D01*
Y118955D01*
X195654Y118943D01*
X195624Y118901D01*
X195618D01*
X195606Y118889D01*
X195588Y118883D01*
X195558Y118871D01*
X195552D01*
X195534Y118865D01*
X195498D01*
X195456Y118859D01*
X195413D01*
X195371Y118853D01*
X195257D01*
X195209Y118859D01*
X195155Y118865D01*
X195143D01*
X195119Y118871D01*
X195089D01*
X195053Y118877D01*
X195047D01*
X195035Y118883D01*
X194993Y118907D01*
X194987Y118913D01*
X194981Y118925D01*
X194969Y118943D01*
X194963Y118961D01*
X194019Y121696D01*
Y118961D01*
Y118955D01*
Y118943D01*
X194013Y118925D01*
X194001Y118907D01*
X193989Y118895D01*
X193971Y118889D01*
X193947Y118877D01*
X193941D01*
X193923Y118871D01*
X193887D01*
X193845Y118865D01*
X193833D01*
X193803Y118859D01*
X193755Y118853D01*
X193634D01*
X193586Y118859D01*
X193532Y118865D01*
X193520D01*
X193496Y118871D01*
X193466D01*
X193430Y118877D01*
X193424D01*
X193412Y118883D01*
X193394Y118895D01*
X193382Y118907D01*
Y118913D01*
X193376Y118925D01*
X193370Y118961D01*
Y121954D01*
Y121960D01*
Y121978D01*
X193376Y122002D01*
Y122032D01*
X193400Y122098D01*
X193412Y122128D01*
X193436Y122158D01*
X193442Y122164D01*
X193448Y122170D01*
X193466Y122182D01*
X193484Y122194D01*
X193544Y122219D01*
X193580Y122231D01*
X194145D01*
X194211Y122219D01*
X194278Y122206D01*
X194284D01*
X194290Y122201D01*
X194326Y122194D01*
X194374Y122170D01*
X194422Y122140D01*
X194428D01*
X194434Y122134D01*
X194458Y122110D01*
X194494Y122074D01*
X194530Y122020D01*
Y122014D01*
X194536Y122008D01*
X194554Y121972D01*
X194578Y121912D01*
X194602Y121840D01*
X195329Y119839D01*
X195341D01*
X196093Y121834D01*
Y121840D01*
X196099Y121852D01*
X196105Y121870D01*
X196111Y121900D01*
X196135Y121954D01*
X196165Y122014D01*
Y122020D01*
X196171Y122026D01*
X196195Y122062D01*
X196225Y122098D01*
X196261Y122140D01*
X196273Y122146D01*
X196297Y122164D01*
X196339Y122188D01*
X196387Y122206D01*
X196393D01*
X196399Y122213D01*
X196435Y122219D01*
X196489Y122224D01*
X196555Y122231D01*
X197054D01*
X197096Y122219D01*
D02*
G37*
G36*
X205973Y121407D02*
X206045Y121395D01*
X206051D01*
X206063Y121389D01*
X206081D01*
X206105Y121383D01*
X206165Y121365D01*
X206231Y121347D01*
X206238D01*
X206249Y121341D01*
X206286Y121329D01*
X206334Y121305D01*
X206388Y121275D01*
X206394D01*
X206400Y121269D01*
X206430Y121251D01*
X206460Y121233D01*
X206484Y121209D01*
X206490Y121203D01*
X206502Y121197D01*
X206514Y121179D01*
X206526Y121161D01*
Y121155D01*
X206532Y121149D01*
X206544Y121113D01*
Y121107D01*
X206550Y121095D01*
Y121065D01*
X206556Y121035D01*
Y121028D01*
X206562Y121004D01*
Y120968D01*
Y120926D01*
Y120920D01*
Y120902D01*
Y120878D01*
X206556Y120842D01*
X206550Y120776D01*
X206544Y120740D01*
X206532Y120716D01*
X206526Y120704D01*
X206514Y120686D01*
X206496Y120668D01*
X206466Y120656D01*
X206460D01*
X206442Y120662D01*
X206412Y120674D01*
X206376Y120692D01*
X206370Y120698D01*
X206346Y120716D01*
X206304Y120740D01*
X206256Y120770D01*
X206243Y120776D01*
X206213Y120794D01*
X206159Y120818D01*
X206093Y120848D01*
X206087D01*
X206075Y120854D01*
X206057Y120860D01*
X206033Y120872D01*
X205967Y120884D01*
X205877Y120890D01*
X205835D01*
X205787Y120878D01*
X205733Y120866D01*
X205666Y120842D01*
X205600Y120806D01*
X205540Y120758D01*
X205486Y120692D01*
X205480Y120680D01*
X205468Y120656D01*
X205444Y120608D01*
X205420Y120548D01*
X205396Y120464D01*
X205372Y120367D01*
X205360Y120247D01*
X205354Y120115D01*
Y120109D01*
Y120085D01*
Y120049D01*
X205360Y120007D01*
Y119953D01*
X205366Y119899D01*
X205384Y119784D01*
Y119778D01*
X205390Y119760D01*
X205402Y119736D01*
X205408Y119700D01*
X205444Y119622D01*
X205486Y119544D01*
X205492Y119538D01*
X205498Y119526D01*
X205534Y119490D01*
X205582Y119442D01*
X205648Y119400D01*
X205655D01*
X205666Y119394D01*
X205691Y119388D01*
X205715Y119382D01*
X205751Y119370D01*
X205793Y119364D01*
X205883Y119358D01*
X205931D01*
X205961Y119364D01*
X206033Y119376D01*
X206111Y119394D01*
X206117D01*
X206129Y119400D01*
X206147Y119412D01*
X206171Y119424D01*
X206225Y119448D01*
X206286Y119484D01*
X206292D01*
X206298Y119490D01*
X206328Y119514D01*
X206370Y119544D01*
X206406Y119574D01*
X206412Y119580D01*
X206436Y119598D01*
X206460Y119610D01*
X206490Y119616D01*
X206502D01*
X206514Y119610D01*
X206526Y119598D01*
X206532D01*
X206538Y119586D01*
X206544Y119574D01*
X206550Y119550D01*
Y119544D01*
X206556Y119526D01*
X206562Y119496D01*
X206568Y119460D01*
Y119448D01*
X206574Y119424D01*
Y119382D01*
Y119322D01*
Y119310D01*
Y119286D01*
Y119244D01*
X206568Y119208D01*
Y119202D01*
X206562Y119177D01*
Y119153D01*
X206556Y119129D01*
Y119123D01*
X206550Y119111D01*
X206538Y119081D01*
Y119075D01*
X206532Y119069D01*
X206520Y119051D01*
X206502Y119033D01*
X206496Y119027D01*
X206478Y119015D01*
X206442Y118991D01*
X206394Y118961D01*
X206388D01*
X206382Y118955D01*
X206346Y118937D01*
X206292Y118913D01*
X206225Y118883D01*
X206219D01*
X206207Y118877D01*
X206189Y118871D01*
X206165Y118865D01*
X206099Y118853D01*
X206015Y118835D01*
X206009D01*
X205997Y118829D01*
X205973D01*
X205943Y118823D01*
X205871Y118817D01*
X205781Y118811D01*
X205739D01*
X205684Y118817D01*
X205624Y118823D01*
X205546Y118829D01*
X205468Y118847D01*
X205384Y118865D01*
X205306Y118889D01*
X205300Y118895D01*
X205270Y118907D01*
X205234Y118925D01*
X205186Y118949D01*
X205132Y118985D01*
X205071Y119027D01*
X205011Y119081D01*
X204957Y119135D01*
X204951Y119141D01*
X204933Y119165D01*
X204909Y119202D01*
X204879Y119244D01*
X204843Y119304D01*
X204813Y119370D01*
X204777Y119448D01*
X204747Y119532D01*
Y119544D01*
X204735Y119574D01*
X204729Y119622D01*
X204717Y119688D01*
X204705Y119766D01*
X204693Y119857D01*
X204687Y119959D01*
X204681Y120067D01*
Y120073D01*
Y120085D01*
Y120103D01*
Y120127D01*
X204687Y120193D01*
X204693Y120271D01*
X204699Y120367D01*
X204717Y120470D01*
X204735Y120572D01*
X204765Y120668D01*
X204771Y120680D01*
X204783Y120710D01*
X204801Y120758D01*
X204825Y120818D01*
X204861Y120884D01*
X204903Y120950D01*
X204951Y121022D01*
X205005Y121089D01*
X205011Y121095D01*
X205035Y121119D01*
X205065Y121149D01*
X205108Y121185D01*
X205162Y121221D01*
X205228Y121263D01*
X205294Y121305D01*
X205372Y121335D01*
X205384Y121341D01*
X205408Y121347D01*
X205456Y121359D01*
X205510Y121377D01*
X205582Y121395D01*
X205666Y121407D01*
X205751Y121413D01*
X205847Y121419D01*
X205913D01*
X205973Y121407D01*
D02*
G37*
G36*
X188700Y122242D02*
X188748Y122237D01*
X188760D01*
X188784Y122231D01*
X188821Y122224D01*
X188850Y122219D01*
X188856D01*
X188875Y122213D01*
X188893Y122201D01*
X188911Y122182D01*
X188917Y122176D01*
X188923Y122170D01*
X188929Y122152D01*
Y122134D01*
Y120121D01*
Y120115D01*
Y120109D01*
Y120091D01*
Y120067D01*
X188923Y120007D01*
X188917Y119935D01*
X188905Y119844D01*
X188887Y119754D01*
X188863Y119658D01*
X188832Y119562D01*
X188827Y119550D01*
X188814Y119520D01*
X188796Y119478D01*
X188766Y119424D01*
X188724Y119358D01*
X188682Y119286D01*
X188628Y119220D01*
X188562Y119153D01*
X188556Y119147D01*
X188532Y119123D01*
X188496Y119093D01*
X188442Y119057D01*
X188382Y119015D01*
X188304Y118973D01*
X188219Y118931D01*
X188129Y118895D01*
X188117Y118889D01*
X188081Y118883D01*
X188027Y118871D01*
X187961Y118853D01*
X187871Y118835D01*
X187769Y118823D01*
X187654Y118817D01*
X187534Y118811D01*
X187480D01*
X187420Y118817D01*
X187342Y118823D01*
X187258Y118829D01*
X187162Y118847D01*
X187059Y118865D01*
X186963Y118889D01*
X186951Y118895D01*
X186921Y118901D01*
X186873Y118925D01*
X186813Y118949D01*
X186747Y118979D01*
X186675Y119021D01*
X186603Y119069D01*
X186537Y119123D01*
X186531Y119129D01*
X186507Y119153D01*
X186477Y119189D01*
X186441Y119237D01*
X186398Y119292D01*
X186350Y119364D01*
X186308Y119442D01*
X186272Y119526D01*
X186266Y119538D01*
X186260Y119568D01*
X186242Y119622D01*
X186230Y119688D01*
X186212Y119772D01*
X186194Y119869D01*
X186188Y119971D01*
X186182Y120091D01*
Y122134D01*
Y122140D01*
Y122152D01*
X186194Y122182D01*
X186200Y122188D01*
X186206Y122194D01*
X186224Y122206D01*
X186248Y122219D01*
X186254D01*
X186278Y122224D01*
X186314Y122231D01*
X186356Y122237D01*
X186368D01*
X186405Y122242D01*
X186452Y122248D01*
X186579D01*
X186633Y122242D01*
X186687Y122237D01*
X186699D01*
X186723Y122231D01*
X186759Y122224D01*
X186789Y122219D01*
X186795D01*
X186813Y122213D01*
X186831Y122201D01*
X186849Y122182D01*
X186855Y122176D01*
X186861Y122170D01*
X186867Y122152D01*
Y122134D01*
Y120151D01*
Y120145D01*
Y120115D01*
Y120079D01*
X186873Y120031D01*
X186879Y119977D01*
X186885Y119917D01*
X186915Y119802D01*
Y119797D01*
X186927Y119778D01*
X186933Y119754D01*
X186951Y119718D01*
X186993Y119640D01*
X187054Y119562D01*
X187059Y119556D01*
X187072Y119544D01*
X187090Y119532D01*
X187120Y119508D01*
X187186Y119460D01*
X187276Y119418D01*
X187282D01*
X187300Y119412D01*
X187324Y119406D01*
X187360Y119394D01*
X187402Y119388D01*
X187450Y119376D01*
X187564Y119370D01*
X187625D01*
X187661Y119376D01*
X187757Y119388D01*
X187853Y119418D01*
X187859D01*
X187877Y119430D01*
X187895Y119436D01*
X187925Y119454D01*
X187997Y119502D01*
X188069Y119562D01*
X188075Y119568D01*
X188087Y119580D01*
X188099Y119598D01*
X188123Y119628D01*
X188141Y119664D01*
X188165Y119700D01*
X188207Y119797D01*
Y119802D01*
X188214Y119820D01*
X188225Y119851D01*
X188232Y119887D01*
X188243Y119935D01*
X188250Y119989D01*
X188256Y120109D01*
Y122134D01*
Y122140D01*
Y122152D01*
X188268Y122182D01*
X188274Y122188D01*
X188280Y122194D01*
X188298Y122206D01*
X188322Y122219D01*
X188328D01*
X188352Y122224D01*
X188388Y122231D01*
X188430Y122237D01*
X188442D01*
X188478Y122242D01*
X188526Y122248D01*
X188646D01*
X188700Y122242D01*
D02*
G37*
G36*
X212668D02*
X212722Y122237D01*
X212734D01*
X212758Y122231D01*
X212794Y122224D01*
X212824Y122219D01*
X212830D01*
X212848Y122213D01*
X212866Y122201D01*
X212884Y122182D01*
X212891Y122176D01*
X212896Y122170D01*
X212903Y122152D01*
Y122134D01*
Y118961D01*
Y118955D01*
Y118943D01*
X212896Y118925D01*
X212884Y118907D01*
X212878D01*
X212873Y118895D01*
X212855Y118889D01*
X212824Y118877D01*
X212818D01*
X212800Y118871D01*
X212764D01*
X212722Y118865D01*
X212710D01*
X212680Y118859D01*
X212626Y118853D01*
X212500D01*
X212446Y118859D01*
X212392Y118865D01*
X212380D01*
X212356Y118871D01*
X212320D01*
X212283Y118877D01*
X212278D01*
X212265Y118883D01*
X212247Y118895D01*
X212229Y118907D01*
Y118913D01*
X212223Y118925D01*
X212217Y118961D01*
Y122134D01*
Y122140D01*
Y122152D01*
X212229Y122182D01*
X212235Y122188D01*
X212241Y122194D01*
X212265Y122206D01*
X212290Y122219D01*
X212296D01*
X212320Y122224D01*
X212350Y122231D01*
X212392Y122237D01*
X212404D01*
X212440Y122242D01*
X212488Y122248D01*
X212614D01*
X212668Y122242D01*
D02*
G37*
G36*
X225794Y121419D02*
X225866Y121413D01*
X225944Y121401D01*
X226022Y121389D01*
X226100Y121371D01*
X226107D01*
X226131Y121359D01*
X226167Y121347D01*
X226215Y121329D01*
X226311Y121275D01*
X226365Y121245D01*
X226413Y121203D01*
X226419Y121197D01*
X226431Y121185D01*
X226455Y121161D01*
X226485Y121125D01*
X226515Y121089D01*
X226545Y121040D01*
X226575Y120980D01*
X226599Y120920D01*
Y120914D01*
X226611Y120890D01*
X226617Y120854D01*
X226629Y120806D01*
X226641Y120740D01*
X226647Y120674D01*
X226659Y120590D01*
Y120506D01*
Y118949D01*
Y118943D01*
X226653Y118925D01*
X226647Y118907D01*
X226629Y118889D01*
X226623D01*
X226611Y118877D01*
X226581Y118871D01*
X226545Y118865D01*
X226533D01*
X226503Y118859D01*
X226455Y118853D01*
X226317D01*
X226263Y118859D01*
X226215Y118865D01*
X226209D01*
X226185Y118871D01*
X226161Y118877D01*
X226137Y118889D01*
X226131Y118895D01*
X226125Y118901D01*
X226118Y118919D01*
X226113Y118943D01*
Y119129D01*
X226107Y119123D01*
X226089Y119105D01*
X226058Y119075D01*
X226022Y119045D01*
X225974Y119009D01*
X225920Y118967D01*
X225854Y118931D01*
X225788Y118895D01*
X225782Y118889D01*
X225758Y118883D01*
X225722Y118871D01*
X225668Y118853D01*
X225608Y118835D01*
X225542Y118823D01*
X225469Y118817D01*
X225385Y118811D01*
X225319D01*
X225271Y118817D01*
X225217Y118823D01*
X225163Y118829D01*
X225043Y118859D01*
X225037D01*
X225019Y118871D01*
X224989Y118877D01*
X224953Y118895D01*
X224868Y118937D01*
X224778Y118997D01*
X224772Y119003D01*
X224760Y119015D01*
X224736Y119033D01*
X224712Y119063D01*
X224688Y119099D01*
X224658Y119135D01*
X224604Y119231D01*
Y119237D01*
X224592Y119255D01*
X224586Y119286D01*
X224574Y119328D01*
X224562Y119376D01*
X224556Y119430D01*
X224544Y119496D01*
Y119562D01*
Y119574D01*
Y119598D01*
X224550Y119634D01*
X224556Y119682D01*
X224562Y119736D01*
X224580Y119797D01*
X224598Y119857D01*
X224622Y119911D01*
X224628Y119917D01*
X224634Y119935D01*
X224658Y119965D01*
X224682Y120001D01*
X224712Y120037D01*
X224754Y120079D01*
X224802Y120121D01*
X224856Y120157D01*
X224862Y120163D01*
X224886Y120175D01*
X224917Y120193D01*
X224965Y120217D01*
X225019Y120241D01*
X225085Y120265D01*
X225163Y120289D01*
X225247Y120307D01*
X225259D01*
X225289Y120313D01*
X225337Y120325D01*
X225403Y120331D01*
X225482Y120343D01*
X225572Y120349D01*
X225680Y120355D01*
X226016D01*
Y120494D01*
Y120500D01*
Y120512D01*
Y120530D01*
Y120560D01*
X226004Y120620D01*
X225992Y120680D01*
Y120686D01*
X225986Y120692D01*
X225974Y120728D01*
X225950Y120776D01*
X225914Y120818D01*
X225908Y120830D01*
X225878Y120848D01*
X225836Y120872D01*
X225782Y120896D01*
X225776D01*
X225770Y120902D01*
X225752Y120908D01*
X225728Y120914D01*
X225662Y120920D01*
X225578Y120926D01*
X225518D01*
X225476Y120920D01*
X225385Y120908D01*
X225283Y120884D01*
X225277D01*
X225259Y120878D01*
X225235Y120872D01*
X225205Y120860D01*
X225133Y120836D01*
X225055Y120806D01*
X225049D01*
X225037Y120800D01*
X225019Y120794D01*
X225001Y120782D01*
X224947Y120758D01*
X224892Y120728D01*
X224881Y120722D01*
X224856Y120710D01*
X224820Y120698D01*
X224784Y120692D01*
X224766D01*
X224748Y120698D01*
X224730Y120710D01*
Y120716D01*
X224718Y120722D01*
X224694Y120758D01*
Y120764D01*
X224688Y120782D01*
X224682Y120806D01*
X224676Y120842D01*
Y120848D01*
Y120872D01*
X224670Y120908D01*
Y120950D01*
Y120956D01*
Y120962D01*
Y120999D01*
X224676Y121035D01*
X224682Y121077D01*
Y121083D01*
X224694Y121107D01*
X224706Y121131D01*
X224730Y121161D01*
X224736Y121167D01*
X224760Y121185D01*
X224796Y121215D01*
X224856Y121245D01*
X224862D01*
X224874Y121251D01*
X224892Y121263D01*
X224917Y121275D01*
X224983Y121299D01*
X225067Y121329D01*
X225073D01*
X225091Y121335D01*
X225115Y121341D01*
X225151Y121353D01*
X225187Y121365D01*
X225235Y121377D01*
X225337Y121395D01*
X225343D01*
X225361Y121401D01*
X225391Y121407D01*
X225427Y121413D01*
X225476D01*
X225523Y121419D01*
X225632Y121425D01*
X225728D01*
X225794Y121419D01*
D02*
G37*
G36*
X229586Y121371D02*
X229634Y121365D01*
X229646D01*
X229670Y121359D01*
X229707Y121353D01*
X229737Y121341D01*
X229743D01*
X229755Y121335D01*
X229773Y121323D01*
X229791Y121311D01*
X229797Y121305D01*
X229803Y121299D01*
X229809Y121281D01*
Y121263D01*
Y118955D01*
Y118949D01*
Y118937D01*
X229803Y118925D01*
X229791Y118907D01*
X229785D01*
X229779Y118895D01*
X229761Y118889D01*
X229737Y118877D01*
X229731D01*
X229713Y118871D01*
X229677D01*
X229634Y118865D01*
X229622D01*
X229592Y118859D01*
X229544Y118853D01*
X229424D01*
X229370Y118859D01*
X229316Y118865D01*
X229304D01*
X229280Y118871D01*
X229250D01*
X229220Y118877D01*
X229214D01*
X229202Y118883D01*
X229184Y118895D01*
X229166Y118907D01*
Y118913D01*
X229160Y118919D01*
X229154Y118955D01*
Y121263D01*
Y121269D01*
Y121281D01*
X229166Y121311D01*
X229172Y121317D01*
X229178Y121323D01*
X229196Y121329D01*
X229220Y121341D01*
X229226Y121347D01*
X229244Y121353D01*
X229274Y121359D01*
X229316Y121365D01*
X229328D01*
X229364Y121371D01*
X229412Y121377D01*
X229532D01*
X229586Y121371D01*
D02*
G37*
G36*
X209622Y117219D02*
X209700Y117213D01*
X209718D01*
X209742Y117207D01*
X209772Y117201D01*
X209808Y117195D01*
X209856Y117189D01*
X209958Y117171D01*
X209964D01*
X209982Y117165D01*
X210012Y117159D01*
X210054Y117147D01*
X210097Y117135D01*
X210151Y117117D01*
X210259Y117063D01*
X210265Y117057D01*
X210283Y117051D01*
X210313Y117033D01*
X210349Y117009D01*
X210439Y116943D01*
X210523Y116859D01*
X210529Y116853D01*
X210541Y116835D01*
X210559Y116811D01*
X210583Y116781D01*
X210613Y116739D01*
X210637Y116684D01*
X210667Y116630D01*
X210691Y116570D01*
Y116564D01*
X210703Y116540D01*
X210710Y116510D01*
X210721Y116462D01*
X210734Y116408D01*
X210740Y116348D01*
X210752Y116276D01*
Y116204D01*
Y116198D01*
Y116192D01*
Y116156D01*
X210746Y116102D01*
X210740Y116035D01*
X210728Y115957D01*
X210716Y115873D01*
X210691Y115783D01*
X210661Y115699D01*
X210655Y115687D01*
X210643Y115663D01*
X210625Y115621D01*
X210595Y115573D01*
X210559Y115513D01*
X210517Y115453D01*
X210463Y115392D01*
X210403Y115332D01*
X210397Y115326D01*
X210373Y115308D01*
X210337Y115278D01*
X210289Y115248D01*
X210229Y115212D01*
X210157Y115170D01*
X210079Y115134D01*
X209988Y115104D01*
X209976D01*
X209946Y115092D01*
X209892Y115080D01*
X209826Y115068D01*
X209742Y115056D01*
X209640Y115044D01*
X209532Y115038D01*
X209411Y115032D01*
X209135D01*
Y113956D01*
Y113950D01*
Y113938D01*
X209129Y113920D01*
X209117Y113902D01*
X209111D01*
X209105Y113890D01*
X209087Y113884D01*
X209057Y113872D01*
X209051D01*
X209033Y113866D01*
X208997D01*
X208955Y113860D01*
X208943D01*
X208907Y113854D01*
X208858Y113848D01*
X208732D01*
X208678Y113854D01*
X208624Y113860D01*
X208612D01*
X208588Y113866D01*
X208552D01*
X208516Y113872D01*
X208510D01*
X208498Y113878D01*
X208480Y113890D01*
X208462Y113902D01*
Y113908D01*
X208456Y113920D01*
X208450Y113956D01*
Y116979D01*
Y116985D01*
Y116997D01*
X208456Y117021D01*
Y117045D01*
X208474Y117105D01*
X208510Y117159D01*
X208516Y117165D01*
X208522Y117171D01*
X208558Y117195D01*
X208606Y117213D01*
X208642Y117226D01*
X209544D01*
X209622Y117219D01*
D02*
G37*
G36*
X576514Y149025D02*
X575054D01*
Y149497D01*
X576514D01*
Y149025D01*
D02*
G37*
G36*
X196069Y117280D02*
X196129D01*
X196195Y117273D01*
X196334Y117255D01*
X196340D01*
X196364Y117250D01*
X196400Y117244D01*
X196442Y117237D01*
X196490Y117226D01*
X196544Y117207D01*
X196646Y117177D01*
X196652D01*
X196670Y117171D01*
X196694Y117159D01*
X196724Y117153D01*
X196796Y117123D01*
X196869Y117087D01*
X196874D01*
X196880Y117081D01*
X196917Y117057D01*
X196959Y117033D01*
X196989Y117003D01*
X196995Y116997D01*
X197007Y116979D01*
X197025Y116943D01*
X197043Y116901D01*
X197049Y116889D01*
Y116871D01*
X197055Y116853D01*
Y116823D01*
X197061Y116787D01*
Y116751D01*
Y116703D01*
Y116697D01*
Y116691D01*
Y116660D01*
X197055Y116618D01*
X197049Y116576D01*
Y116570D01*
X197043Y116546D01*
X197037Y116516D01*
X197031Y116486D01*
Y116480D01*
X197025Y116468D01*
X197013Y116456D01*
X197001Y116444D01*
X196995Y116438D01*
X196965Y116432D01*
X196959D01*
X196935Y116438D01*
X196898Y116450D01*
X196851Y116474D01*
X196844D01*
X196838Y116480D01*
X196820Y116492D01*
X196796Y116504D01*
X196736Y116540D01*
X196652Y116576D01*
X196646D01*
X196628Y116588D01*
X196604Y116594D01*
X196568Y116612D01*
X196526Y116624D01*
X196478Y116642D01*
X196418Y116660D01*
X196358Y116679D01*
X196352D01*
X196328Y116684D01*
X196291Y116697D01*
X196243Y116703D01*
X196183Y116715D01*
X196117Y116721D01*
X196039Y116727D01*
X195913D01*
X195871Y116721D01*
X195811Y116715D01*
X195745Y116703D01*
X195667Y116691D01*
X195594Y116666D01*
X195516Y116637D01*
X195510Y116630D01*
X195486Y116618D01*
X195444Y116600D01*
X195402Y116576D01*
X195348Y116540D01*
X195288Y116498D01*
X195234Y116450D01*
X195180Y116396D01*
X195174Y116390D01*
X195156Y116372D01*
X195132Y116336D01*
X195101Y116294D01*
X195065Y116240D01*
X195029Y116180D01*
X194993Y116108D01*
X194963Y116030D01*
Y116017D01*
X194951Y115993D01*
X194939Y115945D01*
X194927Y115891D01*
X194915Y115819D01*
X194903Y115735D01*
X194897Y115645D01*
X194891Y115549D01*
Y115543D01*
Y115537D01*
Y115501D01*
X194897Y115446D01*
X194903Y115374D01*
X194909Y115296D01*
X194921Y115212D01*
X194939Y115122D01*
X194963Y115038D01*
X194969Y115026D01*
X194975Y115002D01*
X194993Y114960D01*
X195017Y114912D01*
X195054Y114851D01*
X195089Y114791D01*
X195132Y114731D01*
X195180Y114671D01*
X195186Y114665D01*
X195204Y114647D01*
X195234Y114623D01*
X195276Y114587D01*
X195324Y114551D01*
X195378Y114515D01*
X195438Y114479D01*
X195510Y114449D01*
X195516D01*
X195546Y114437D01*
X195582Y114425D01*
X195636Y114413D01*
X195696Y114401D01*
X195769Y114389D01*
X195853Y114383D01*
X195937Y114377D01*
X195979D01*
X196009Y114383D01*
X196081Y114389D01*
X196165Y114401D01*
X196171D01*
X196183Y114407D01*
X196207Y114413D01*
X196237Y114419D01*
X196303Y114443D01*
X196376Y114479D01*
Y115260D01*
X195727D01*
X195709Y115266D01*
X195685Y115284D01*
X195660Y115314D01*
Y115320D01*
X195654Y115326D01*
Y115338D01*
X195649Y115362D01*
X195642Y115386D01*
Y115422D01*
X195636Y115464D01*
Y115513D01*
Y115519D01*
Y115525D01*
Y115555D01*
Y115597D01*
X195642Y115633D01*
Y115645D01*
X195649Y115663D01*
X195654Y115693D01*
X195660Y115717D01*
Y115723D01*
X195667Y115735D01*
X195678Y115747D01*
X195691Y115759D01*
X195696Y115765D01*
X195703Y115771D01*
X195715Y115777D01*
X196892D01*
X196917Y115771D01*
X196941Y115759D01*
X196947D01*
X196965Y115747D01*
X196983Y115735D01*
X197001Y115717D01*
X197007Y115711D01*
X197013Y115699D01*
X197025Y115675D01*
X197037Y115645D01*
X197043Y115639D01*
X197049Y115621D01*
X197055Y115591D01*
Y115555D01*
Y114214D01*
Y114208D01*
Y114202D01*
X197049Y114166D01*
X197043Y114124D01*
X197025Y114076D01*
X197019Y114070D01*
X197001Y114046D01*
X196965Y114016D01*
X196911Y113986D01*
X196905D01*
X196898Y113980D01*
X196874Y113974D01*
X196851Y113968D01*
X196784Y113944D01*
X196700Y113914D01*
X196694D01*
X196682Y113908D01*
X196652Y113902D01*
X196622Y113896D01*
X196586Y113884D01*
X196538Y113878D01*
X196442Y113860D01*
X196436D01*
X196418Y113854D01*
X196394D01*
X196358Y113848D01*
X196316Y113842D01*
X196274Y113836D01*
X196171Y113824D01*
X196147D01*
X196123Y113818D01*
X196087D01*
X196045Y113812D01*
X196003D01*
X195901Y113806D01*
X195835D01*
X195799Y113812D01*
X195757D01*
X195660Y113818D01*
X195546Y113836D01*
X195426Y113854D01*
X195300Y113884D01*
X195180Y113920D01*
X195174D01*
X195168Y113926D01*
X195150Y113932D01*
X195126Y113944D01*
X195065Y113968D01*
X194993Y114004D01*
X194909Y114052D01*
X194819Y114106D01*
X194729Y114172D01*
X194639Y114251D01*
X194627Y114262D01*
X194603Y114293D01*
X194561Y114335D01*
X194513Y114401D01*
X194458Y114479D01*
X194404Y114569D01*
X194350Y114671D01*
X194302Y114785D01*
Y114791D01*
X194296Y114797D01*
X194290Y114815D01*
X194284Y114839D01*
X194278Y114869D01*
X194266Y114906D01*
X194248Y114996D01*
X194224Y115104D01*
X194206Y115224D01*
X194194Y115362D01*
X194188Y115507D01*
Y115513D01*
Y115525D01*
Y115549D01*
Y115579D01*
X194194Y115615D01*
Y115657D01*
X194206Y115753D01*
X194218Y115867D01*
X194236Y115993D01*
X194266Y116120D01*
X194308Y116246D01*
Y116252D01*
X194314Y116258D01*
X194320Y116276D01*
X194332Y116300D01*
X194362Y116360D01*
X194398Y116438D01*
X194453Y116528D01*
X194513Y116618D01*
X194585Y116715D01*
X194663Y116805D01*
X194675Y116817D01*
X194705Y116841D01*
X194753Y116883D01*
X194819Y116937D01*
X194897Y116997D01*
X194993Y117051D01*
X195101Y117111D01*
X195216Y117159D01*
X195222D01*
X195228Y117165D01*
X195246Y117171D01*
X195276Y117177D01*
X195306Y117189D01*
X195342Y117201D01*
X195426Y117226D01*
X195534Y117244D01*
X195654Y117268D01*
X195793Y117280D01*
X195937Y117286D01*
X196015D01*
X196069Y117280D01*
D02*
G37*
G36*
X215283Y117268D02*
X215379Y117255D01*
X215385D01*
X215403Y117250D01*
X215427Y117244D01*
X215457Y117237D01*
X215535Y117219D01*
X215620Y117189D01*
X215626D01*
X215638Y117183D01*
X215662Y117177D01*
X215686Y117165D01*
X215752Y117135D01*
X215824Y117099D01*
X215830D01*
X215836Y117093D01*
X215872Y117069D01*
X215914Y117045D01*
X215944Y117015D01*
X215950Y117009D01*
X215962Y116997D01*
X215980Y116979D01*
X215992Y116961D01*
X215998Y116955D01*
X216004Y116943D01*
X216010Y116925D01*
X216016Y116901D01*
Y116895D01*
X216022Y116877D01*
Y116847D01*
X216028Y116811D01*
Y116805D01*
X216034Y116781D01*
Y116739D01*
Y116691D01*
Y116684D01*
Y116679D01*
Y116642D01*
Y116600D01*
X216028Y116558D01*
Y116552D01*
X216022Y116528D01*
X216016Y116498D01*
X216004Y116468D01*
Y116462D01*
X215998Y116450D01*
X215974Y116420D01*
X215962Y116414D01*
X215938Y116408D01*
X215932D01*
X215908Y116414D01*
X215878Y116426D01*
X215836Y116450D01*
X215824Y116456D01*
X215794Y116480D01*
X215746Y116516D01*
X215680Y116552D01*
X215674D01*
X215662Y116564D01*
X215644Y116570D01*
X215620Y116588D01*
X215584Y116600D01*
X215548Y116618D01*
X215457Y116655D01*
X215451D01*
X215433Y116660D01*
X215403Y116673D01*
X215367Y116679D01*
X215325Y116691D01*
X215271Y116697D01*
X215211Y116703D01*
X215109D01*
X215073Y116697D01*
X215025Y116691D01*
X214971Y116684D01*
X214911Y116666D01*
X214844Y116648D01*
X214784Y116618D01*
X214778Y116612D01*
X214760Y116600D01*
X214730Y116582D01*
X214694Y116558D01*
X214652Y116522D01*
X214610Y116486D01*
X214562Y116438D01*
X214520Y116384D01*
X214514Y116378D01*
X214502Y116360D01*
X214484Y116324D01*
X214460Y116282D01*
X214430Y116228D01*
X214406Y116168D01*
X214376Y116096D01*
X214352Y116017D01*
Y116005D01*
X214346Y115981D01*
X214334Y115933D01*
X214328Y115873D01*
X214316Y115801D01*
X214303Y115723D01*
X214298Y115627D01*
Y115531D01*
Y115525D01*
Y115519D01*
Y115482D01*
X214303Y115428D01*
Y115356D01*
X214310Y115278D01*
X214321Y115194D01*
X214340Y115104D01*
X214358Y115020D01*
Y115008D01*
X214370Y114984D01*
X214382Y114942D01*
X214400Y114894D01*
X214424Y114839D01*
X214454Y114779D01*
X214490Y114719D01*
X214526Y114659D01*
X214532Y114653D01*
X214544Y114635D01*
X214568Y114611D01*
X214604Y114581D01*
X214646Y114551D01*
X214688Y114515D01*
X214742Y114485D01*
X214802Y114455D01*
X214808D01*
X214832Y114443D01*
X214862Y114437D01*
X214911Y114425D01*
X214965Y114413D01*
X215025Y114401D01*
X215091Y114395D01*
X215163Y114389D01*
X215229D01*
X215271Y114395D01*
X215319Y114401D01*
X215373Y114407D01*
X215475Y114431D01*
X215481D01*
X215499Y114437D01*
X215524Y114449D01*
X215554Y114461D01*
X215626Y114485D01*
X215704Y114521D01*
X215710D01*
X215722Y114533D01*
X215758Y114551D01*
X215812Y114587D01*
X215860Y114617D01*
X215872Y114623D01*
X215896Y114641D01*
X215926Y114653D01*
X215956Y114659D01*
X215968D01*
X215992Y114647D01*
X215998D01*
X216004Y114635D01*
X216010Y114623D01*
X216022Y114605D01*
Y114599D01*
X216028Y114581D01*
X216034Y114557D01*
X216040Y114515D01*
Y114503D01*
X216046Y114479D01*
Y114431D01*
Y114371D01*
Y114359D01*
Y114335D01*
Y114293D01*
X216040Y114257D01*
Y114251D01*
X216034Y114233D01*
Y114208D01*
X216028Y114178D01*
Y114172D01*
X216022Y114160D01*
X216004Y114124D01*
Y114118D01*
X215992Y114112D01*
X215980Y114094D01*
X215962Y114076D01*
X215956Y114070D01*
X215938Y114058D01*
X215908Y114028D01*
X215854Y113998D01*
X215848D01*
X215842Y113992D01*
X215824Y113980D01*
X215800Y113968D01*
X215740Y113938D01*
X215656Y113908D01*
X215650D01*
X215638Y113902D01*
X215608Y113896D01*
X215578Y113884D01*
X215535Y113872D01*
X215493Y113860D01*
X215385Y113842D01*
X215379D01*
X215361Y113836D01*
X215331Y113830D01*
X215289D01*
X215241Y113824D01*
X215181Y113818D01*
X215055Y113812D01*
X214995D01*
X214934Y113818D01*
X214850Y113824D01*
X214754Y113836D01*
X214646Y113854D01*
X214538Y113878D01*
X214430Y113914D01*
X214418Y113920D01*
X214382Y113932D01*
X214334Y113962D01*
X214267Y113992D01*
X214195Y114040D01*
X214111Y114094D01*
X214033Y114160D01*
X213955Y114233D01*
X213949Y114244D01*
X213925Y114269D01*
X213889Y114317D01*
X213847Y114377D01*
X213799Y114455D01*
X213751Y114545D01*
X213703Y114647D01*
X213660Y114761D01*
Y114767D01*
X213654Y114773D01*
X213648Y114791D01*
X213642Y114815D01*
X213636Y114846D01*
X213630Y114882D01*
X213612Y114972D01*
X213588Y115080D01*
X213576Y115206D01*
X213564Y115350D01*
X213558Y115501D01*
Y115507D01*
Y115519D01*
Y115543D01*
Y115573D01*
X213564Y115609D01*
Y115651D01*
X213570Y115753D01*
X213588Y115873D01*
X213606Y115999D01*
X213636Y116132D01*
X213672Y116258D01*
Y116264D01*
X213679Y116270D01*
X213685Y116288D01*
X213697Y116312D01*
X213720Y116372D01*
X213757Y116450D01*
X213799Y116540D01*
X213853Y116630D01*
X213919Y116727D01*
X213991Y116817D01*
X214003Y116829D01*
X214027Y116853D01*
X214069Y116895D01*
X214129Y116943D01*
X214201Y117003D01*
X214285Y117057D01*
X214376Y117111D01*
X214478Y117159D01*
X214484D01*
X214490Y117165D01*
X214508Y117171D01*
X214526Y117177D01*
X214586Y117195D01*
X214664Y117219D01*
X214760Y117244D01*
X214868Y117262D01*
X214989Y117273D01*
X215115Y117280D01*
X215199D01*
X215283Y117268D01*
D02*
G37*
G36*
X593228Y146195D02*
X588305D01*
Y165127D01*
X593228D01*
Y146195D01*
D02*
G37*
G36*
X569925Y147428D02*
X560000D01*
Y152285D01*
X569925D01*
Y147428D01*
D02*
G37*
G36*
X552515Y150339D02*
X553558D01*
Y149900D01*
X552515D01*
Y148846D01*
X552071D01*
Y149900D01*
X551027D01*
Y150339D01*
X552071D01*
Y151382D01*
X552515D01*
Y150339D01*
D02*
G37*
G36*
X225614Y117280D02*
X225674D01*
X225746Y117268D01*
X225825Y117255D01*
X225903Y117237D01*
X225975Y117213D01*
X225981D01*
X226011Y117201D01*
X226047Y117183D01*
X226089Y117165D01*
X226197Y117105D01*
X226251Y117069D01*
X226299Y117027D01*
X226306Y117021D01*
X226324Y117009D01*
X226347Y116985D01*
X226372Y116949D01*
X226408Y116907D01*
X226438Y116865D01*
X226468Y116811D01*
X226498Y116751D01*
X226504Y116745D01*
X226510Y116721D01*
X226522Y116691D01*
X226534Y116648D01*
X226546Y116594D01*
X226552Y116534D01*
X226564Y116468D01*
Y116402D01*
Y116396D01*
Y116372D01*
Y116342D01*
X226558Y116300D01*
Y116252D01*
X226552Y116198D01*
X226528Y116077D01*
Y116071D01*
X226522Y116048D01*
X226516Y116017D01*
X226498Y115975D01*
X226480Y115927D01*
X226462Y115867D01*
X226432Y115801D01*
X226396Y115735D01*
X226390Y115729D01*
X226378Y115705D01*
X226354Y115669D01*
X226324Y115615D01*
X226287Y115555D01*
X226239Y115489D01*
X226185Y115416D01*
X226119Y115332D01*
X226113Y115320D01*
X226089Y115296D01*
X226047Y115248D01*
X225993Y115188D01*
X225927Y115110D01*
X225843Y115026D01*
X225746Y114924D01*
X225644Y114822D01*
X225254Y114419D01*
X226594D01*
X226606Y114413D01*
X226624Y114401D01*
X226630Y114395D01*
X226636Y114389D01*
X226660Y114353D01*
X226666Y114347D01*
X226672Y114329D01*
X226678Y114305D01*
X226684Y114269D01*
Y114257D01*
X226690Y114233D01*
X226696Y114190D01*
Y114142D01*
Y114136D01*
Y114130D01*
Y114094D01*
X226690Y114052D01*
X226684Y114010D01*
Y114004D01*
X226678Y113980D01*
X226672Y113950D01*
X226666Y113920D01*
Y113914D01*
X226660Y113902D01*
X226648Y113890D01*
X226630Y113878D01*
X226618Y113872D01*
X226588Y113866D01*
X224587D01*
X224557Y113872D01*
X224551D01*
X224533Y113884D01*
X224509Y113896D01*
X224484Y113914D01*
X224478Y113920D01*
X224472Y113938D01*
X224460Y113962D01*
X224448Y113998D01*
Y114010D01*
Y114040D01*
X224442Y114088D01*
Y114148D01*
Y114154D01*
Y114160D01*
Y114196D01*
Y114244D01*
X224448Y114293D01*
Y114299D01*
Y114305D01*
X224454Y114335D01*
X224460Y114371D01*
X224472Y114407D01*
X224478Y114413D01*
X224490Y114437D01*
X224509Y114467D01*
X224527Y114497D01*
X224533Y114503D01*
X224551Y114527D01*
X224581Y114563D01*
X224617Y114599D01*
X225200Y115224D01*
X225206Y115230D01*
X225230Y115254D01*
X225260Y115290D01*
X225302Y115332D01*
X225344Y115386D01*
X225392Y115440D01*
X225434Y115495D01*
X225476Y115555D01*
X225482Y115561D01*
X225494Y115579D01*
X225512Y115609D01*
X225536Y115645D01*
X225590Y115735D01*
X225644Y115825D01*
Y115831D01*
X225656Y115849D01*
X225662Y115873D01*
X225680Y115903D01*
X225705Y115975D01*
X225729Y116053D01*
Y116060D01*
X225734Y116071D01*
Y116090D01*
X225741Y116120D01*
X225746Y116180D01*
X225752Y116252D01*
Y116258D01*
Y116264D01*
X225746Y116306D01*
X225741Y116354D01*
X225723Y116414D01*
Y116420D01*
X225716Y116426D01*
X225698Y116462D01*
X225674Y116504D01*
X225638Y116546D01*
X225632Y116558D01*
X225602Y116582D01*
X225560Y116612D01*
X225506Y116637D01*
X225500D01*
X225494Y116642D01*
X225476Y116648D01*
X225452Y116655D01*
X225392Y116666D01*
X225314Y116673D01*
X225260D01*
X225224Y116666D01*
X225139Y116655D01*
X225043Y116630D01*
X225037D01*
X225025Y116624D01*
X225001Y116618D01*
X224971Y116606D01*
X224905Y116582D01*
X224833Y116546D01*
X224827D01*
X224821Y116540D01*
X224779Y116516D01*
X224731Y116486D01*
X224683Y116456D01*
X224671Y116450D01*
X224647Y116438D01*
X224617Y116426D01*
X224593Y116420D01*
X224581D01*
X224551Y116432D01*
Y116438D01*
X224538Y116444D01*
X224533Y116462D01*
X224520Y116486D01*
Y116492D01*
X224515Y116510D01*
Y116540D01*
X224509Y116582D01*
Y116594D01*
Y116624D01*
X224502Y116673D01*
Y116733D01*
Y116745D01*
Y116769D01*
Y116799D01*
Y116829D01*
Y116835D01*
X224509Y116853D01*
X224515Y116901D01*
Y116907D01*
X224520Y116919D01*
X224533Y116949D01*
X224538Y116955D01*
X224545Y116967D01*
X224581Y117003D01*
X224587Y117009D01*
X224611Y117027D01*
X224647Y117051D01*
X224701Y117081D01*
X224707D01*
X224719Y117087D01*
X224737Y117099D01*
X224761Y117111D01*
X224833Y117141D01*
X224917Y117171D01*
X224923D01*
X224941Y117177D01*
X224965Y117189D01*
X225001Y117201D01*
X225037Y117213D01*
X225085Y117226D01*
X225194Y117250D01*
X225200D01*
X225224Y117255D01*
X225254Y117262D01*
X225296Y117268D01*
X225344Y117273D01*
X225398Y117280D01*
X225518Y117286D01*
X225560D01*
X225614Y117280D01*
D02*
G37*
G36*
X591906Y140212D02*
X591434D01*
Y141672D01*
X591906D01*
Y140212D01*
D02*
G37*
G36*
X213095Y117219D02*
X213107Y117207D01*
X213113D01*
X213120Y117195D01*
X213125Y117183D01*
X213138Y117159D01*
Y117153D01*
X213144Y117135D01*
X213150Y117111D01*
X213156Y117075D01*
Y117063D01*
X213162Y117039D01*
X213168Y116997D01*
Y116943D01*
Y116937D01*
Y116931D01*
Y116895D01*
X213162Y116853D01*
X213156Y116811D01*
Y116805D01*
X213150Y116781D01*
X213144Y116751D01*
X213138Y116727D01*
Y116721D01*
X213131Y116709D01*
X213107Y116679D01*
X213095Y116673D01*
X213065Y116666D01*
X211966D01*
Y115759D01*
X213005D01*
X213023Y115753D01*
X213035Y115741D01*
X213041D01*
X213047Y115729D01*
X213053Y115717D01*
X213065Y115699D01*
X213071Y115693D01*
X213077Y115675D01*
X213084Y115651D01*
X213089Y115615D01*
Y115609D01*
X213095Y115579D01*
Y115543D01*
Y115489D01*
Y115482D01*
Y115477D01*
Y115440D01*
Y115398D01*
X213089Y115356D01*
Y115350D01*
X213084Y115326D01*
X213077Y115296D01*
X213065Y115266D01*
Y115260D01*
X213059Y115248D01*
X213047Y115236D01*
X213035Y115224D01*
X213023Y115218D01*
X212993Y115212D01*
X211966D01*
Y113956D01*
Y113950D01*
Y113944D01*
X211960Y113926D01*
X211948Y113908D01*
X211942D01*
X211936Y113896D01*
X211917Y113890D01*
X211888Y113878D01*
X211881D01*
X211863Y113872D01*
X211827Y113866D01*
X211785Y113860D01*
X211773D01*
X211743Y113854D01*
X211689Y113848D01*
X211563D01*
X211509Y113854D01*
X211455Y113860D01*
X211443D01*
X211419Y113866D01*
X211383Y113872D01*
X211347Y113878D01*
X211341D01*
X211329Y113884D01*
X211311Y113896D01*
X211293Y113908D01*
Y113914D01*
X211286Y113926D01*
X211280Y113962D01*
Y117009D01*
Y117015D01*
Y117027D01*
X211286Y117045D01*
Y117075D01*
X211304Y117123D01*
X211316Y117153D01*
X211334Y117171D01*
X211347Y117177D01*
X211377Y117201D01*
X211419Y117219D01*
X211479Y117226D01*
X213077D01*
X213095Y117219D01*
D02*
G37*
G36*
X204135Y117280D02*
X204195D01*
X204267Y117268D01*
X204345Y117255D01*
X204423Y117237D01*
X204495Y117213D01*
X204501D01*
X204531Y117201D01*
X204567Y117183D01*
X204609Y117165D01*
X204717Y117105D01*
X204772Y117069D01*
X204820Y117027D01*
X204826Y117021D01*
X204844Y117009D01*
X204868Y116985D01*
X204892Y116949D01*
X204928Y116907D01*
X204958Y116865D01*
X204988Y116811D01*
X205018Y116751D01*
X205024Y116745D01*
X205030Y116721D01*
X205042Y116691D01*
X205054Y116648D01*
X205066Y116594D01*
X205072Y116534D01*
X205084Y116468D01*
Y116402D01*
Y116396D01*
Y116372D01*
Y116342D01*
X205078Y116300D01*
Y116252D01*
X205072Y116198D01*
X205048Y116077D01*
Y116071D01*
X205042Y116048D01*
X205036Y116017D01*
X205018Y115975D01*
X205000Y115927D01*
X204982Y115867D01*
X204952Y115801D01*
X204916Y115735D01*
X204910Y115729D01*
X204898Y115705D01*
X204874Y115669D01*
X204844Y115615D01*
X204808Y115555D01*
X204760Y115489D01*
X204706Y115416D01*
X204639Y115332D01*
X204633Y115320D01*
X204609Y115296D01*
X204567Y115248D01*
X204513Y115188D01*
X204447Y115110D01*
X204363Y115026D01*
X204267Y114924D01*
X204165Y114822D01*
X203774Y114419D01*
X205114D01*
X205126Y114413D01*
X205144Y114401D01*
X205150Y114395D01*
X205156Y114389D01*
X205180Y114353D01*
X205186Y114347D01*
X205192Y114329D01*
X205198Y114305D01*
X205204Y114269D01*
Y114257D01*
X205210Y114233D01*
X205216Y114190D01*
Y114142D01*
Y114136D01*
Y114130D01*
Y114094D01*
X205210Y114052D01*
X205204Y114010D01*
Y114004D01*
X205198Y113980D01*
X205192Y113950D01*
X205186Y113920D01*
Y113914D01*
X205180Y113902D01*
X205168Y113890D01*
X205150Y113878D01*
X205138Y113872D01*
X205108Y113866D01*
X203107D01*
X203077Y113872D01*
X203071D01*
X203053Y113884D01*
X203029Y113896D01*
X203005Y113914D01*
X202999Y113920D01*
X202993Y113938D01*
X202981Y113962D01*
X202969Y113998D01*
Y114010D01*
Y114040D01*
X202963Y114088D01*
Y114148D01*
Y114154D01*
Y114160D01*
Y114196D01*
Y114244D01*
X202969Y114293D01*
Y114299D01*
Y114305D01*
X202975Y114335D01*
X202981Y114371D01*
X202993Y114407D01*
X202999Y114413D01*
X203011Y114437D01*
X203029Y114467D01*
X203047Y114497D01*
X203053Y114503D01*
X203071Y114527D01*
X203101Y114563D01*
X203137Y114599D01*
X203720Y115224D01*
X203726Y115230D01*
X203750Y115254D01*
X203780Y115290D01*
X203822Y115332D01*
X203864Y115386D01*
X203912Y115440D01*
X203954Y115495D01*
X203996Y115555D01*
X204002Y115561D01*
X204014Y115579D01*
X204032Y115609D01*
X204056Y115645D01*
X204111Y115735D01*
X204165Y115825D01*
Y115831D01*
X204177Y115849D01*
X204183Y115873D01*
X204201Y115903D01*
X204225Y115975D01*
X204249Y116053D01*
Y116060D01*
X204255Y116071D01*
Y116090D01*
X204261Y116120D01*
X204267Y116180D01*
X204273Y116252D01*
Y116258D01*
Y116264D01*
X204267Y116306D01*
X204261Y116354D01*
X204243Y116414D01*
Y116420D01*
X204237Y116426D01*
X204219Y116462D01*
X204195Y116504D01*
X204159Y116546D01*
X204153Y116558D01*
X204123Y116582D01*
X204081Y116612D01*
X204026Y116637D01*
X204020D01*
X204014Y116642D01*
X203996Y116648D01*
X203972Y116655D01*
X203912Y116666D01*
X203834Y116673D01*
X203780D01*
X203744Y116666D01*
X203660Y116655D01*
X203564Y116630D01*
X203558D01*
X203546Y116624D01*
X203522Y116618D01*
X203491Y116606D01*
X203425Y116582D01*
X203353Y116546D01*
X203347D01*
X203341Y116540D01*
X203299Y116516D01*
X203251Y116486D01*
X203203Y116456D01*
X203191Y116450D01*
X203167Y116438D01*
X203137Y116426D01*
X203113Y116420D01*
X203101D01*
X203071Y116432D01*
Y116438D01*
X203059Y116444D01*
X203053Y116462D01*
X203041Y116486D01*
Y116492D01*
X203035Y116510D01*
Y116540D01*
X203029Y116582D01*
Y116594D01*
Y116624D01*
X203023Y116673D01*
Y116733D01*
Y116745D01*
Y116769D01*
Y116799D01*
Y116829D01*
Y116835D01*
X203029Y116853D01*
X203035Y116901D01*
Y116907D01*
X203041Y116919D01*
X203053Y116949D01*
X203059Y116955D01*
X203065Y116967D01*
X203101Y117003D01*
X203107Y117009D01*
X203131Y117027D01*
X203167Y117051D01*
X203221Y117081D01*
X203227D01*
X203239Y117087D01*
X203257Y117099D01*
X203281Y117111D01*
X203353Y117141D01*
X203437Y117171D01*
X203443D01*
X203461Y117177D01*
X203485Y117189D01*
X203522Y117201D01*
X203558Y117213D01*
X203606Y117226D01*
X203714Y117250D01*
X203720D01*
X203744Y117255D01*
X203774Y117262D01*
X203816Y117268D01*
X203864Y117273D01*
X203918Y117280D01*
X204038Y117286D01*
X204081D01*
X204135Y117280D01*
D02*
G37*
G36*
X590710Y172352D02*
X591753D01*
Y171913D01*
X590710D01*
Y170859D01*
X590266D01*
Y171913D01*
X589222D01*
Y172352D01*
X590266D01*
Y173395D01*
X590710D01*
Y172352D01*
D02*
G37*
%LPC*%
G36*
X201670Y120872D02*
X201652D01*
X201628Y120866D01*
X201598D01*
X201526Y120842D01*
X201483Y120830D01*
X201448Y120806D01*
X201442D01*
X201435Y120794D01*
X201393Y120758D01*
X201351Y120704D01*
X201303Y120632D01*
Y120626D01*
X201297Y120614D01*
X201285Y120590D01*
X201273Y120566D01*
X201261Y120530D01*
X201243Y120488D01*
X201219Y120397D01*
Y120391D01*
X201213Y120373D01*
Y120349D01*
X201207Y120313D01*
X201201Y120271D01*
Y120229D01*
X201195Y120127D01*
Y120121D01*
Y120103D01*
Y120073D01*
Y120037D01*
X201201Y119995D01*
Y119947D01*
X201213Y119844D01*
Y119839D01*
X201219Y119820D01*
X201225Y119797D01*
X201231Y119760D01*
X201255Y119682D01*
X201291Y119598D01*
Y119592D01*
X201303Y119580D01*
X201315Y119562D01*
X201327Y119538D01*
X201375Y119478D01*
X201430Y119424D01*
X201435D01*
X201448Y119412D01*
X201466Y119406D01*
X201490Y119394D01*
X201526Y119382D01*
X201562Y119376D01*
X201658Y119364D01*
X201700D01*
X201742Y119370D01*
X201784Y119382D01*
X201790D01*
X201796Y119388D01*
X201826Y119394D01*
X201868Y119418D01*
X201916Y119442D01*
X201922D01*
X201928Y119448D01*
X201958Y119478D01*
X202000Y119514D01*
X202055Y119562D01*
X202061Y119568D01*
X202066Y119574D01*
X202103Y119610D01*
X202151Y119664D01*
X202211Y119736D01*
Y120506D01*
X202205Y120512D01*
X202187Y120536D01*
X202157Y120566D01*
X202121Y120608D01*
X202079Y120650D01*
X202036Y120692D01*
X201982Y120740D01*
X201934Y120776D01*
X201928Y120782D01*
X201910Y120794D01*
X201886Y120806D01*
X201856Y120824D01*
X201814Y120842D01*
X201772Y120860D01*
X201724Y120866D01*
X201670Y120872D01*
D02*
G37*
G36*
X220169Y116745D02*
X220145D01*
X220115Y116739D01*
X220079Y116733D01*
X220001Y116715D01*
X219959Y116691D01*
X219917Y116666D01*
X219911Y116660D01*
X219899Y116655D01*
X219881Y116637D01*
X219863Y116612D01*
X219839Y116582D01*
X219809Y116540D01*
X219785Y116498D01*
X219761Y116444D01*
Y116438D01*
X219748Y116420D01*
X219742Y116384D01*
X219730Y116342D01*
X219712Y116294D01*
X219701Y116228D01*
X219689Y116156D01*
X219676Y116077D01*
Y116066D01*
Y116035D01*
X219670Y115993D01*
Y115927D01*
X219664Y115855D01*
Y115765D01*
X219658Y115669D01*
Y115561D01*
Y115555D01*
Y115543D01*
Y115525D01*
Y115501D01*
Y115435D01*
X219664Y115356D01*
Y115260D01*
X219670Y115158D01*
X219676Y115062D01*
X219682Y114966D01*
Y114954D01*
X219689Y114930D01*
X219694Y114882D01*
X219707Y114833D01*
X219719Y114773D01*
X219730Y114707D01*
X219755Y114647D01*
X219773Y114593D01*
Y114587D01*
X219785Y114569D01*
X219797Y114545D01*
X219815Y114515D01*
X219863Y114455D01*
X219893Y114425D01*
X219929Y114401D01*
X219935D01*
X219947Y114395D01*
X219965Y114383D01*
X219995Y114377D01*
X220025Y114365D01*
X220067Y114353D01*
X220157Y114347D01*
X220193D01*
X220217Y114353D01*
X220277Y114359D01*
X220338Y114377D01*
X220343D01*
X220350Y114383D01*
X220386Y114401D01*
X220428Y114431D01*
X220470Y114473D01*
Y114479D01*
X220482Y114485D01*
X220506Y114521D01*
X220536Y114569D01*
X220566Y114635D01*
Y114641D01*
X220572Y114653D01*
X220578Y114677D01*
X220590Y114701D01*
X220614Y114773D01*
X220632Y114864D01*
Y114869D01*
X220638Y114888D01*
Y114912D01*
X220644Y114948D01*
X220650Y114996D01*
X220656Y115044D01*
X220668Y115158D01*
Y115164D01*
Y115188D01*
X220674Y115218D01*
Y115266D01*
Y115320D01*
X220680Y115380D01*
Y115446D01*
Y115519D01*
Y115531D01*
Y115561D01*
Y115603D01*
Y115663D01*
X220674Y115729D01*
Y115795D01*
X220662Y115939D01*
Y115945D01*
Y115969D01*
X220656Y116005D01*
X220650Y116048D01*
X220644Y116102D01*
X220638Y116150D01*
X220620Y116258D01*
Y116264D01*
X220614Y116282D01*
X220608Y116306D01*
X220602Y116336D01*
X220584Y116414D01*
X220554Y116486D01*
Y116492D01*
X220548Y116504D01*
X220530Y116540D01*
X220500Y116588D01*
X220458Y116637D01*
X220446Y116648D01*
X220422Y116673D01*
X220380Y116697D01*
X220332Y116721D01*
X220325D01*
X220320Y116727D01*
X220283Y116733D01*
X220235Y116739D01*
X220169Y116745D01*
D02*
G37*
G36*
X222868D02*
X222844D01*
X222814Y116739D01*
X222778Y116733D01*
X222699Y116715D01*
X222657Y116691D01*
X222615Y116666D01*
X222609Y116660D01*
X222597Y116655D01*
X222579Y116637D01*
X222561Y116612D01*
X222537Y116582D01*
X222507Y116540D01*
X222483Y116498D01*
X222459Y116444D01*
Y116438D01*
X222447Y116420D01*
X222441Y116384D01*
X222429Y116342D01*
X222411Y116294D01*
X222399Y116228D01*
X222387Y116156D01*
X222375Y116077D01*
Y116066D01*
Y116035D01*
X222369Y115993D01*
Y115927D01*
X222363Y115855D01*
Y115765D01*
X222357Y115669D01*
Y115561D01*
Y115555D01*
Y115543D01*
Y115525D01*
Y115501D01*
Y115435D01*
X222363Y115356D01*
Y115260D01*
X222369Y115158D01*
X222375Y115062D01*
X222381Y114966D01*
Y114954D01*
X222387Y114930D01*
X222393Y114882D01*
X222405Y114833D01*
X222417Y114773D01*
X222429Y114707D01*
X222453Y114647D01*
X222471Y114593D01*
Y114587D01*
X222483Y114569D01*
X222495Y114545D01*
X222513Y114515D01*
X222561Y114455D01*
X222591Y114425D01*
X222627Y114401D01*
X222633D01*
X222645Y114395D01*
X222663Y114383D01*
X222693Y114377D01*
X222724Y114365D01*
X222766Y114353D01*
X222856Y114347D01*
X222892D01*
X222916Y114353D01*
X222976Y114359D01*
X223036Y114377D01*
X223042D01*
X223048Y114383D01*
X223084Y114401D01*
X223126Y114431D01*
X223168Y114473D01*
Y114479D01*
X223180Y114485D01*
X223204Y114521D01*
X223234Y114569D01*
X223264Y114635D01*
Y114641D01*
X223270Y114653D01*
X223276Y114677D01*
X223288Y114701D01*
X223312Y114773D01*
X223330Y114864D01*
Y114869D01*
X223337Y114888D01*
Y114912D01*
X223342Y114948D01*
X223348Y114996D01*
X223355Y115044D01*
X223367Y115158D01*
Y115164D01*
Y115188D01*
X223373Y115218D01*
Y115266D01*
Y115320D01*
X223379Y115380D01*
Y115446D01*
Y115519D01*
Y115531D01*
Y115561D01*
Y115603D01*
Y115663D01*
X223373Y115729D01*
Y115795D01*
X223361Y115939D01*
Y115945D01*
Y115969D01*
X223355Y116005D01*
X223348Y116048D01*
X223342Y116102D01*
X223337Y116150D01*
X223319Y116258D01*
Y116264D01*
X223312Y116282D01*
X223306Y116306D01*
X223301Y116336D01*
X223282Y116414D01*
X223252Y116486D01*
Y116492D01*
X223246Y116504D01*
X223228Y116540D01*
X223198Y116588D01*
X223156Y116637D01*
X223144Y116648D01*
X223120Y116673D01*
X223078Y116697D01*
X223030Y116721D01*
X223024D01*
X223018Y116727D01*
X222982Y116733D01*
X222934Y116739D01*
X222868Y116745D01*
D02*
G37*
G36*
X192583Y116697D02*
X192217D01*
Y115561D01*
X192577D01*
X192613Y115567D01*
X192703Y115579D01*
X192794Y115603D01*
X192800D01*
X192812Y115609D01*
X192830Y115621D01*
X192854Y115633D01*
X192914Y115669D01*
X192968Y115723D01*
X192974Y115729D01*
X192980Y115735D01*
X192992Y115753D01*
X193010Y115777D01*
X193046Y115837D01*
X193076Y115909D01*
Y115915D01*
X193082Y115927D01*
X193088Y115951D01*
X193100Y115981D01*
X193106Y116017D01*
X193112Y116060D01*
X193118Y116156D01*
Y116162D01*
Y116186D01*
X193112Y116216D01*
Y116258D01*
X193088Y116354D01*
X193076Y116402D01*
X193052Y116444D01*
Y116450D01*
X193040Y116462D01*
X193028Y116486D01*
X193010Y116510D01*
X192962Y116564D01*
X192902Y116612D01*
X192896D01*
X192884Y116618D01*
X192866Y116630D01*
X192842Y116642D01*
X192782Y116660D01*
X192710Y116679D01*
X192703D01*
X192692Y116684D01*
X192674D01*
X192643Y116691D01*
X192583Y116697D01*
D02*
G37*
G36*
X201388Y116745D02*
X201364D01*
X201334Y116739D01*
X201298Y116733D01*
X201220Y116715D01*
X201178Y116691D01*
X201136Y116666D01*
X201130Y116660D01*
X201118Y116655D01*
X201099Y116637D01*
X201081Y116612D01*
X201057Y116582D01*
X201027Y116540D01*
X201003Y116498D01*
X200979Y116444D01*
Y116438D01*
X200967Y116420D01*
X200961Y116384D01*
X200949Y116342D01*
X200931Y116294D01*
X200919Y116228D01*
X200907Y116156D01*
X200895Y116077D01*
Y116066D01*
Y116035D01*
X200889Y115993D01*
Y115927D01*
X200883Y115855D01*
Y115765D01*
X200877Y115669D01*
Y115561D01*
Y115555D01*
Y115543D01*
Y115525D01*
Y115501D01*
Y115435D01*
X200883Y115356D01*
Y115260D01*
X200889Y115158D01*
X200895Y115062D01*
X200901Y114966D01*
Y114954D01*
X200907Y114930D01*
X200913Y114882D01*
X200925Y114833D01*
X200937Y114773D01*
X200949Y114707D01*
X200973Y114647D01*
X200991Y114593D01*
Y114587D01*
X201003Y114569D01*
X201015Y114545D01*
X201033Y114515D01*
X201081Y114455D01*
X201112Y114425D01*
X201148Y114401D01*
X201154D01*
X201166Y114395D01*
X201184Y114383D01*
X201214Y114377D01*
X201244Y114365D01*
X201286Y114353D01*
X201376Y114347D01*
X201412D01*
X201436Y114353D01*
X201496Y114359D01*
X201556Y114377D01*
X201562D01*
X201568Y114383D01*
X201604Y114401D01*
X201646Y114431D01*
X201689Y114473D01*
Y114479D01*
X201700Y114485D01*
X201725Y114521D01*
X201755Y114569D01*
X201785Y114635D01*
Y114641D01*
X201791Y114653D01*
X201797Y114677D01*
X201809Y114701D01*
X201833Y114773D01*
X201851Y114864D01*
Y114869D01*
X201857Y114888D01*
Y114912D01*
X201863Y114948D01*
X201869Y114996D01*
X201875Y115044D01*
X201887Y115158D01*
Y115164D01*
Y115188D01*
X201893Y115218D01*
Y115266D01*
Y115320D01*
X201899Y115380D01*
Y115446D01*
Y115519D01*
Y115531D01*
Y115561D01*
Y115603D01*
Y115663D01*
X201893Y115729D01*
Y115795D01*
X201881Y115939D01*
Y115945D01*
Y115969D01*
X201875Y116005D01*
X201869Y116048D01*
X201863Y116102D01*
X201857Y116150D01*
X201839Y116258D01*
Y116264D01*
X201833Y116282D01*
X201827Y116306D01*
X201821Y116336D01*
X201803Y116414D01*
X201773Y116486D01*
Y116492D01*
X201767Y116504D01*
X201749Y116540D01*
X201719Y116588D01*
X201677Y116637D01*
X201664Y116648D01*
X201640Y116673D01*
X201598Y116697D01*
X201550Y116721D01*
X201544D01*
X201538Y116727D01*
X201502Y116733D01*
X201454Y116739D01*
X201388Y116745D01*
D02*
G37*
G36*
X208377Y119947D02*
X208034D01*
X207944Y119935D01*
X207854Y119923D01*
X207848D01*
X207836Y119917D01*
X207818Y119911D01*
X207794Y119905D01*
X207734Y119881D01*
X207674Y119851D01*
X207662Y119844D01*
X207632Y119820D01*
X207602Y119784D01*
X207572Y119736D01*
X207566Y119724D01*
X207560Y119694D01*
X207548Y119646D01*
X207542Y119586D01*
Y119580D01*
Y119562D01*
X207548Y119532D01*
X207554Y119502D01*
X207566Y119466D01*
X207578Y119424D01*
X207602Y119388D01*
X207632Y119352D01*
X207638Y119346D01*
X207650Y119340D01*
X207668Y119328D01*
X207698Y119316D01*
X207734Y119298D01*
X207776Y119286D01*
X207824Y119280D01*
X207884Y119274D01*
X207908D01*
X207932Y119280D01*
X207968D01*
X208047Y119304D01*
X208095Y119316D01*
X208137Y119340D01*
X208143Y119346D01*
X208155Y119352D01*
X208179Y119370D01*
X208215Y119394D01*
X208251Y119424D01*
X208287Y119460D01*
X208335Y119502D01*
X208377Y119550D01*
Y119947D01*
D02*
G37*
G36*
X199013Y120962D02*
X198971D01*
X198941Y120956D01*
X198869Y120944D01*
X198797Y120914D01*
X198791D01*
X198785Y120908D01*
X198743Y120878D01*
X198695Y120842D01*
X198641Y120788D01*
Y120782D01*
X198629Y120776D01*
X198623Y120758D01*
X198605Y120734D01*
X198575Y120674D01*
X198545Y120602D01*
Y120596D01*
X198539Y120584D01*
X198533Y120560D01*
Y120536D01*
X198521Y120457D01*
X198515Y120373D01*
X199494D01*
Y120379D01*
Y120385D01*
Y120415D01*
X199488Y120470D01*
X199482Y120530D01*
X199470Y120596D01*
X199446Y120668D01*
X199422Y120740D01*
X199380Y120800D01*
X199374Y120806D01*
X199356Y120824D01*
X199332Y120854D01*
X199290Y120884D01*
X199236Y120908D01*
X199176Y120938D01*
X199098Y120956D01*
X199013Y120962D01*
D02*
G37*
G36*
X220469Y120908D02*
X220355D01*
X220325Y120902D01*
X220241Y120884D01*
X220151Y120854D01*
X220145D01*
X220133Y120842D01*
X220115Y120830D01*
X220091Y120812D01*
X220030Y120764D01*
X219970Y120698D01*
Y120692D01*
X219958Y120680D01*
X219946Y120656D01*
X219934Y120632D01*
X219916Y120596D01*
X219898Y120554D01*
X219868Y120451D01*
Y120446D01*
X219862Y120428D01*
X219856Y120397D01*
Y120355D01*
X219850Y120307D01*
X219844Y120253D01*
X219838Y120187D01*
Y120121D01*
Y120115D01*
Y120091D01*
Y120061D01*
X219844Y120019D01*
Y119965D01*
X219850Y119911D01*
X219862Y119802D01*
Y119797D01*
X219868Y119778D01*
X219874Y119748D01*
X219886Y119718D01*
X219910Y119634D01*
X219952Y119550D01*
X219958Y119544D01*
X219964Y119532D01*
X219976Y119514D01*
X220000Y119490D01*
X220054Y119436D01*
X220127Y119388D01*
X220133D01*
X220145Y119382D01*
X220169Y119370D01*
X220199Y119364D01*
X220241Y119352D01*
X220289Y119340D01*
X220337Y119334D01*
X220451D01*
X220487Y119340D01*
X220571Y119352D01*
X220655Y119382D01*
X220661D01*
X220673Y119394D01*
X220691Y119406D01*
X220715Y119424D01*
X220776Y119472D01*
X220830Y119538D01*
X220836Y119544D01*
X220842Y119556D01*
X220854Y119580D01*
X220872Y119610D01*
X220890Y119646D01*
X220908Y119688D01*
X220938Y119784D01*
Y119790D01*
X220944Y119808D01*
X220950Y119839D01*
X220956Y119881D01*
X220962Y119929D01*
X220968Y119983D01*
X220974Y120049D01*
Y120115D01*
Y120121D01*
Y120145D01*
Y120175D01*
X220968Y120217D01*
Y120265D01*
X220962Y120319D01*
X220944Y120428D01*
Y120433D01*
X220938Y120451D01*
X220932Y120482D01*
X220920Y120512D01*
X220890Y120596D01*
X220848Y120680D01*
Y120686D01*
X220836Y120698D01*
X220824Y120716D01*
X220806Y120740D01*
X220752Y120794D01*
X220679Y120848D01*
X220673D01*
X220661Y120860D01*
X220637Y120866D01*
X220607Y120878D01*
X220565Y120890D01*
X220517Y120896D01*
X220469Y120908D01*
D02*
G37*
G36*
X231624D02*
X231509D01*
X231480Y120902D01*
X231395Y120884D01*
X231305Y120854D01*
X231299D01*
X231287Y120842D01*
X231269Y120830D01*
X231245Y120812D01*
X231185Y120764D01*
X231125Y120698D01*
Y120692D01*
X231113Y120680D01*
X231101Y120656D01*
X231089Y120632D01*
X231071Y120596D01*
X231053Y120554D01*
X231023Y120451D01*
Y120446D01*
X231017Y120428D01*
X231011Y120397D01*
Y120355D01*
X231005Y120307D01*
X230999Y120253D01*
X230993Y120187D01*
Y120121D01*
Y120115D01*
Y120091D01*
Y120061D01*
X230999Y120019D01*
Y119965D01*
X231005Y119911D01*
X231017Y119802D01*
Y119797D01*
X231023Y119778D01*
X231029Y119748D01*
X231041Y119718D01*
X231065Y119634D01*
X231107Y119550D01*
X231113Y119544D01*
X231119Y119532D01*
X231131Y119514D01*
X231155Y119490D01*
X231209Y119436D01*
X231281Y119388D01*
X231287D01*
X231299Y119382D01*
X231323Y119370D01*
X231353Y119364D01*
X231395Y119352D01*
X231443Y119340D01*
X231491Y119334D01*
X231606D01*
X231642Y119340D01*
X231726Y119352D01*
X231810Y119382D01*
X231816D01*
X231828Y119394D01*
X231846Y119406D01*
X231870Y119424D01*
X231930Y119472D01*
X231984Y119538D01*
X231990Y119544D01*
X231996Y119556D01*
X232008Y119580D01*
X232026Y119610D01*
X232044Y119646D01*
X232062Y119688D01*
X232092Y119784D01*
Y119790D01*
X232099Y119808D01*
X232104Y119839D01*
X232111Y119881D01*
X232117Y119929D01*
X232122Y119983D01*
X232129Y120049D01*
Y120115D01*
Y120121D01*
Y120145D01*
Y120175D01*
X232122Y120217D01*
Y120265D01*
X232117Y120319D01*
X232099Y120428D01*
Y120433D01*
X232092Y120451D01*
X232086Y120482D01*
X232074Y120512D01*
X232044Y120596D01*
X232002Y120680D01*
Y120686D01*
X231990Y120698D01*
X231978Y120716D01*
X231960Y120740D01*
X231906Y120794D01*
X231834Y120848D01*
X231828D01*
X231816Y120860D01*
X231792Y120866D01*
X231762Y120878D01*
X231720Y120890D01*
X231672Y120896D01*
X231624Y120908D01*
D02*
G37*
G36*
X226016Y119947D02*
X225674D01*
X225584Y119935D01*
X225494Y119923D01*
X225487D01*
X225476Y119917D01*
X225457Y119911D01*
X225433Y119905D01*
X225373Y119881D01*
X225313Y119851D01*
X225301Y119844D01*
X225271Y119820D01*
X225241Y119784D01*
X225211Y119736D01*
X225205Y119724D01*
X225199Y119694D01*
X225187Y119646D01*
X225181Y119586D01*
Y119580D01*
Y119562D01*
X225187Y119532D01*
X225193Y119502D01*
X225205Y119466D01*
X225217Y119424D01*
X225241Y119388D01*
X225271Y119352D01*
X225277Y119346D01*
X225289Y119340D01*
X225307Y119328D01*
X225337Y119316D01*
X225373Y119298D01*
X225415Y119286D01*
X225464Y119280D01*
X225523Y119274D01*
X225548D01*
X225572Y119280D01*
X225608D01*
X225686Y119304D01*
X225734Y119316D01*
X225776Y119340D01*
X225782Y119346D01*
X225794Y119352D01*
X225818Y119370D01*
X225854Y119394D01*
X225890Y119424D01*
X225926Y119460D01*
X225974Y119502D01*
X226016Y119550D01*
Y119947D01*
D02*
G37*
G36*
X209502Y116697D02*
X209135D01*
Y115561D01*
X209495D01*
X209532Y115567D01*
X209622Y115579D01*
X209712Y115603D01*
X209718D01*
X209730Y115609D01*
X209748Y115621D01*
X209772Y115633D01*
X209832Y115669D01*
X209886Y115723D01*
X209892Y115729D01*
X209898Y115735D01*
X209910Y115753D01*
X209928Y115777D01*
X209964Y115837D01*
X209994Y115909D01*
Y115915D01*
X210000Y115927D01*
X210006Y115951D01*
X210018Y115981D01*
X210024Y116017D01*
X210030Y116060D01*
X210036Y116156D01*
Y116162D01*
Y116186D01*
X210030Y116216D01*
Y116258D01*
X210006Y116354D01*
X209994Y116402D01*
X209970Y116444D01*
Y116450D01*
X209958Y116462D01*
X209946Y116486D01*
X209928Y116510D01*
X209880Y116564D01*
X209820Y116612D01*
X209814D01*
X209802Y116618D01*
X209784Y116630D01*
X209760Y116642D01*
X209700Y116660D01*
X209628Y116679D01*
X209622D01*
X209610Y116684D01*
X209592D01*
X209562Y116691D01*
X209502Y116697D01*
D02*
G37*
G36*
X592662Y161596D02*
X588821D01*
Y161125D01*
X590198D01*
X590136Y161074D01*
X590087Y161019D01*
X590037Y160969D01*
X589998Y160914D01*
X589970Y160869D01*
X589942Y160836D01*
X589931Y160814D01*
X589926Y160803D01*
X589887Y160730D01*
X589859Y160653D01*
X589842Y160575D01*
X589826Y160503D01*
X589820Y160442D01*
X589815Y160398D01*
Y160364D01*
Y160359D01*
Y160353D01*
X589820Y160231D01*
X589842Y160114D01*
X589870Y160009D01*
X589903Y159920D01*
X589942Y159843D01*
X589970Y159787D01*
X589981Y159765D01*
X589992Y159748D01*
X589998Y159743D01*
Y159737D01*
X590070Y159637D01*
X590159Y159554D01*
X590242Y159482D01*
X590325Y159426D01*
X590403Y159382D01*
X590464Y159348D01*
X590486Y159337D01*
X590503Y159326D01*
X590514Y159321D01*
X590519D01*
X590647Y159276D01*
X590780Y159243D01*
X590908Y159215D01*
X591024Y159199D01*
X591124Y159188D01*
X591169D01*
X591202Y159182D01*
X591274D01*
X591430Y159188D01*
X591574Y159204D01*
X591702Y159232D01*
X591813Y159260D01*
X591862Y159271D01*
X591901Y159282D01*
X591940Y159299D01*
X591973Y159310D01*
X591996Y159321D01*
X592012Y159326D01*
X592024Y159332D01*
X592029D01*
X592146Y159393D01*
X592245Y159465D01*
X592334Y159537D01*
X592406Y159609D01*
X592462Y159670D01*
X592506Y159720D01*
X592528Y159754D01*
X592540Y159759D01*
Y159765D01*
X592601Y159870D01*
X592645Y159976D01*
X592678Y160081D01*
X592701Y160176D01*
X592712Y160253D01*
X592717Y160320D01*
X592723Y160342D01*
Y160359D01*
Y160370D01*
Y160375D01*
X592717Y160470D01*
X592706Y160558D01*
X592684Y160642D01*
X592656Y160714D01*
X592628Y160786D01*
X592595Y160853D01*
X592556Y160908D01*
X592517Y160958D01*
X592479Y161008D01*
X592440Y161047D01*
X592406Y161080D01*
X592379Y161108D01*
X592351Y161130D01*
X592329Y161147D01*
X592318Y161152D01*
X592312Y161158D01*
X592662D01*
Y161596D01*
D02*
G37*
G36*
X588821Y158960D02*
Y158444D01*
X591613Y157401D01*
X591729Y157356D01*
X591840Y157317D01*
X591946Y157284D01*
X592040Y157256D01*
X592123Y157228D01*
X592184Y157212D01*
X592207Y157206D01*
X592223Y157201D01*
X592234Y157195D01*
X592240D01*
X592018Y157129D01*
X591913Y157095D01*
X591818Y157062D01*
X591735Y157034D01*
X591702Y157023D01*
X591668Y157018D01*
X591646Y157006D01*
X591629Y157001D01*
X591618Y156995D01*
X591613D01*
X588821Y155996D01*
Y155441D01*
X592662Y156929D01*
Y157462D01*
X588821Y158960D01*
D02*
G37*
G36*
X591707Y164627D02*
X591702D01*
X591641Y164160D01*
X591763Y164138D01*
X591874Y164105D01*
X591962Y164060D01*
X592035Y164022D01*
X592096Y163983D01*
X592135Y163950D01*
X592162Y163933D01*
X592168Y163922D01*
X592223Y163849D01*
X592262Y163772D01*
X592295Y163694D01*
X592312Y163622D01*
X592323Y163561D01*
X592329Y163505D01*
X592334Y163472D01*
Y163467D01*
Y163461D01*
X592329Y163400D01*
X592323Y163339D01*
X592295Y163228D01*
X592257Y163134D01*
X592207Y163050D01*
X592162Y162989D01*
X592123Y162939D01*
X592096Y162912D01*
X592085Y162900D01*
X592035Y162862D01*
X591973Y162828D01*
X591851Y162778D01*
X591713Y162740D01*
X591579Y162717D01*
X591457Y162701D01*
X591407Y162695D01*
X591358D01*
X591324Y162690D01*
X591169D01*
X591074Y162701D01*
X590986Y162712D01*
X590908Y162723D01*
X590836Y162740D01*
X590769Y162762D01*
X590708Y162778D01*
X590653Y162801D01*
X590608Y162823D01*
X590569Y162839D01*
X590536Y162862D01*
X590508Y162878D01*
X590486Y162889D01*
X590470Y162900D01*
X590464Y162912D01*
X590458D01*
X590414Y162956D01*
X590375Y163000D01*
X590309Y163095D01*
X590264Y163195D01*
X590236Y163283D01*
X590214Y163367D01*
X590209Y163428D01*
X590203Y163455D01*
Y163472D01*
Y163483D01*
Y163489D01*
X590209Y163572D01*
X590225Y163650D01*
X590247Y163716D01*
X590275Y163777D01*
X590303Y163822D01*
X590325Y163861D01*
X590342Y163883D01*
X590347Y163888D01*
X590403Y163944D01*
X590470Y163994D01*
X590542Y164038D01*
X590608Y164066D01*
X590669Y164094D01*
X590719Y164110D01*
X590753Y164116D01*
X590758Y164121D01*
X590764D01*
X590692Y164582D01*
X590542Y164543D01*
X590414Y164488D01*
X590303Y164427D01*
X590214Y164366D01*
X590142Y164305D01*
X590092Y164255D01*
X590059Y164221D01*
X590048Y164216D01*
Y164210D01*
X589970Y164094D01*
X589915Y163972D01*
X589870Y163849D01*
X589842Y163733D01*
X589826Y163628D01*
X589820Y163583D01*
Y163550D01*
X589815Y163517D01*
Y163494D01*
Y163478D01*
Y163472D01*
X589820Y163339D01*
X589842Y163217D01*
X589870Y163100D01*
X589898Y163006D01*
X589931Y162923D01*
X589948Y162889D01*
X589959Y162862D01*
X589970Y162839D01*
X589981Y162823D01*
X589987Y162812D01*
Y162806D01*
X590053Y162701D01*
X590136Y162606D01*
X590220Y162529D01*
X590303Y162462D01*
X590375Y162412D01*
X590436Y162379D01*
X590458Y162368D01*
X590475Y162357D01*
X590486Y162351D01*
X590492D01*
X590625Y162301D01*
X590758Y162268D01*
X590891Y162240D01*
X591013Y162223D01*
X591069Y162218D01*
X591119Y162212D01*
X591163D01*
X591202Y162207D01*
X591280D01*
X591407Y162212D01*
X591524Y162223D01*
X591641Y162240D01*
X591740Y162262D01*
X591840Y162284D01*
X591924Y162318D01*
X592007Y162346D01*
X592079Y162379D01*
X592140Y162412D01*
X592196Y162440D01*
X592245Y162473D01*
X592284Y162495D01*
X592312Y162518D01*
X592334Y162534D01*
X592345Y162545D01*
X592351Y162551D01*
X592417Y162618D01*
X592473Y162690D01*
X592523Y162762D01*
X592567Y162839D01*
X592601Y162917D01*
X592634Y162989D01*
X592678Y163139D01*
X592690Y163206D01*
X592701Y163267D01*
X592712Y163322D01*
X592717Y163372D01*
X592723Y163411D01*
Y163439D01*
Y163461D01*
Y163467D01*
X592717Y163550D01*
X592712Y163633D01*
X592678Y163777D01*
X592639Y163911D01*
X592590Y164022D01*
X592562Y164066D01*
X592540Y164110D01*
X592517Y164149D01*
X592495Y164177D01*
X592479Y164199D01*
X592467Y164216D01*
X592462Y164227D01*
X592456Y164233D01*
X592401Y164288D01*
X592345Y164338D01*
X592223Y164427D01*
X592096Y164499D01*
X591979Y164549D01*
X591868Y164588D01*
X591824Y164599D01*
X591779Y164610D01*
X591746Y164615D01*
X591724Y164621D01*
X591707Y164627D01*
D02*
G37*
G36*
X590786Y152200D02*
X590536D01*
X590414Y152195D01*
X590303Y152183D01*
X590198Y152172D01*
X590103Y152161D01*
X590014Y152150D01*
X589931Y152134D01*
X589859Y152117D01*
X589798Y152100D01*
X589742Y152089D01*
X589692Y152073D01*
X589654Y152061D01*
X589626Y152050D01*
X589604Y152039D01*
X589593Y152034D01*
X589587D01*
X589454Y151967D01*
X589337Y151895D01*
X589237Y151812D01*
X589154Y151740D01*
X589093Y151667D01*
X589049Y151612D01*
X589032Y151590D01*
X589021Y151573D01*
X589010Y151567D01*
Y151562D01*
X588943Y151445D01*
X588893Y151329D01*
X588854Y151212D01*
X588832Y151107D01*
X588816Y151012D01*
X588810Y150974D01*
Y150946D01*
X588804Y150918D01*
Y150896D01*
Y150885D01*
Y150879D01*
X588810Y150785D01*
X588821Y150696D01*
X588838Y150607D01*
X588860Y150530D01*
X588921Y150380D01*
X588949Y150313D01*
X588982Y150258D01*
X589021Y150202D01*
X589049Y150158D01*
X589082Y150113D01*
X589110Y150080D01*
X589132Y150052D01*
X589149Y150036D01*
X589160Y150024D01*
X589165Y150019D01*
X589232Y149958D01*
X589310Y149908D01*
X589382Y149858D01*
X589459Y149819D01*
X589543Y149786D01*
X589620Y149758D01*
X589765Y149719D01*
X589837Y149703D01*
X589898Y149691D01*
X589959Y149686D01*
X590009Y149680D01*
X590048Y149675D01*
X590103D01*
X590209Y149680D01*
X590303Y149691D01*
X590397Y149703D01*
X590486Y149725D01*
X590564Y149752D01*
X590641Y149780D01*
X590708Y149808D01*
X590769Y149841D01*
X590825Y149869D01*
X590875Y149897D01*
X590913Y149925D01*
X590952Y149952D01*
X590980Y149975D01*
X590997Y149986D01*
X591008Y149997D01*
X591013Y150002D01*
X591074Y150063D01*
X591124Y150130D01*
X591174Y150197D01*
X591213Y150269D01*
X591247Y150335D01*
X591274Y150402D01*
X591313Y150530D01*
X591330Y150585D01*
X591341Y150641D01*
X591346Y150685D01*
X591352Y150729D01*
X591358Y150763D01*
Y150785D01*
Y150802D01*
Y150807D01*
X591352Y150912D01*
X591335Y151012D01*
X591313Y151101D01*
X591285Y151184D01*
X591263Y151245D01*
X591241Y151295D01*
X591224Y151329D01*
X591219Y151340D01*
X591163Y151429D01*
X591102Y151506D01*
X591041Y151573D01*
X590986Y151628D01*
X590930Y151667D01*
X590891Y151701D01*
X590864Y151723D01*
X590852Y151728D01*
X590947D01*
X591058Y151723D01*
X591163Y151717D01*
X591258Y151706D01*
X591346Y151695D01*
X591419Y151678D01*
X591474Y151667D01*
X591496Y151662D01*
X591513D01*
X591518Y151656D01*
X591524D01*
X591624Y151628D01*
X591713Y151601D01*
X591790Y151573D01*
X591857Y151545D01*
X591907Y151523D01*
X591946Y151501D01*
X591973Y151490D01*
X591979Y151484D01*
X592040Y151440D01*
X592090Y151395D01*
X592135Y151351D01*
X592173Y151306D01*
X592207Y151273D01*
X592229Y151240D01*
X592240Y151218D01*
X592245Y151212D01*
X592279Y151151D01*
X592301Y151084D01*
X592318Y151023D01*
X592329Y150962D01*
X592334Y150912D01*
X592340Y150874D01*
Y150846D01*
Y150835D01*
X592334Y150746D01*
X592318Y150663D01*
X592295Y150591D01*
X592268Y150530D01*
X592245Y150485D01*
X592223Y150446D01*
X592207Y150424D01*
X592201Y150419D01*
X592140Y150363D01*
X592068Y150319D01*
X591990Y150280D01*
X591913Y150252D01*
X591846Y150230D01*
X591785Y150213D01*
X591763Y150208D01*
X591751D01*
X591740Y150202D01*
X591735D01*
X591774Y149747D01*
X591935Y149780D01*
X592073Y149825D01*
X592196Y149880D01*
X592295Y149936D01*
X592373Y149991D01*
X592406Y150019D01*
X592434Y150041D01*
X592451Y150058D01*
X592467Y150075D01*
X592473Y150080D01*
X592479Y150085D01*
X592523Y150141D01*
X592562Y150202D01*
X592623Y150324D01*
X592667Y150446D01*
X592695Y150563D01*
X592717Y150668D01*
X592723Y150713D01*
Y150751D01*
X592728Y150779D01*
Y150802D01*
Y150818D01*
Y150824D01*
X592717Y150979D01*
X592695Y151118D01*
X592656Y151245D01*
X592612Y151351D01*
X592595Y151395D01*
X592573Y151440D01*
X592551Y151473D01*
X592534Y151506D01*
X592523Y151529D01*
X592512Y151545D01*
X592501Y151556D01*
Y151562D01*
X592406Y151673D01*
X592301Y151773D01*
X592190Y151850D01*
X592085Y151917D01*
X591990Y151973D01*
X591946Y151995D01*
X591913Y152011D01*
X591879Y152023D01*
X591857Y152034D01*
X591846Y152039D01*
X591840D01*
X591757Y152067D01*
X591663Y152095D01*
X591474Y152134D01*
X591274Y152161D01*
X591085Y152178D01*
X591002Y152189D01*
X590919Y152195D01*
X590847D01*
X590786Y152200D01*
D02*
G37*
G36*
X590880Y155169D02*
X590664D01*
X590564Y155164D01*
X590475D01*
X590386Y155158D01*
X590309Y155147D01*
X590231Y155142D01*
X590164Y155136D01*
X590103Y155125D01*
X590048Y155119D01*
X589998Y155108D01*
X589959Y155103D01*
X589926Y155097D01*
X589898Y155092D01*
X589881Y155086D01*
X589870Y155080D01*
X589864D01*
X589742Y155047D01*
X589631Y155008D01*
X589537Y154964D01*
X589454Y154931D01*
X589382Y154892D01*
X589332Y154870D01*
X589304Y154848D01*
X589293Y154842D01*
X589210Y154781D01*
X589138Y154720D01*
X589076Y154653D01*
X589021Y154592D01*
X588982Y154537D01*
X588954Y154492D01*
X588938Y154464D01*
X588932Y154459D01*
Y154453D01*
X588888Y154365D01*
X588860Y154270D01*
X588838Y154181D01*
X588821Y154098D01*
X588810Y154026D01*
X588804Y153965D01*
Y153943D01*
Y153926D01*
Y153921D01*
Y153915D01*
X588816Y153765D01*
X588838Y153626D01*
X588877Y153510D01*
X588915Y153410D01*
X588960Y153327D01*
X588976Y153294D01*
X588999Y153266D01*
X589010Y153244D01*
X589021Y153227D01*
X589032Y153221D01*
Y153216D01*
X589121Y153116D01*
X589226Y153033D01*
X589332Y152960D01*
X589432Y152905D01*
X589526Y152860D01*
X589565Y152838D01*
X589604Y152827D01*
X589631Y152816D01*
X589654Y152805D01*
X589665Y152799D01*
X589670D01*
X589753Y152777D01*
X589837Y152755D01*
X590020Y152722D01*
X590203Y152694D01*
X590375Y152677D01*
X590458Y152672D01*
X590530Y152666D01*
X590597D01*
X590658Y152661D01*
X590769D01*
X590963Y152666D01*
X591147Y152677D01*
X591313Y152694D01*
X591468Y152722D01*
X591613Y152750D01*
X591740Y152783D01*
X591857Y152816D01*
X591957Y152849D01*
X592046Y152883D01*
X592123Y152922D01*
X592190Y152949D01*
X592240Y152977D01*
X592284Y153005D01*
X592312Y153022D01*
X592329Y153033D01*
X592334Y153038D01*
X592401Y153099D01*
X592462Y153166D01*
X592517Y153238D01*
X592562Y153310D01*
X592601Y153382D01*
X592634Y153454D01*
X592656Y153526D01*
X592678Y153593D01*
X592695Y153660D01*
X592706Y153721D01*
X592717Y153776D01*
X592723Y153821D01*
X592728Y153859D01*
Y153893D01*
Y153910D01*
Y153915D01*
X592717Y154065D01*
X592695Y154204D01*
X592656Y154320D01*
X592617Y154420D01*
X592579Y154503D01*
X592556Y154531D01*
X592540Y154559D01*
X592528Y154581D01*
X592517Y154598D01*
X592506Y154603D01*
Y154609D01*
X592412Y154709D01*
X592312Y154792D01*
X592201Y154864D01*
X592101Y154920D01*
X592007Y154964D01*
X591968Y154986D01*
X591929Y154997D01*
X591901Y155008D01*
X591879Y155019D01*
X591868Y155025D01*
X591862D01*
X591779Y155053D01*
X591696Y155075D01*
X591518Y155108D01*
X591335Y155136D01*
X591158Y155153D01*
X591080Y155158D01*
X591008Y155164D01*
X590941D01*
X590880Y155169D01*
D02*
G37*
G36*
X591579Y149209D02*
X591530D01*
X591396Y149203D01*
X591274Y149181D01*
X591169Y149148D01*
X591080Y149114D01*
X591008Y149081D01*
X590952Y149048D01*
X590919Y149025D01*
X590908Y149020D01*
X590825Y148942D01*
X590753Y148859D01*
X590697Y148770D01*
X590653Y148681D01*
X590619Y148604D01*
X590597Y148543D01*
X590592Y148521D01*
X590586Y148504D01*
X590581Y148493D01*
Y148487D01*
X590530Y148582D01*
X590481Y148659D01*
X590425Y148726D01*
X590375Y148781D01*
X590331Y148826D01*
X590292Y148859D01*
X590270Y148876D01*
X590259Y148881D01*
X590181Y148926D01*
X590103Y148959D01*
X590026Y148987D01*
X589953Y149003D01*
X589892Y149014D01*
X589848Y149020D01*
X589804D01*
X589709Y149014D01*
X589615Y148998D01*
X589532Y148976D01*
X589459Y148948D01*
X589398Y148920D01*
X589348Y148898D01*
X589321Y148881D01*
X589310Y148876D01*
X589226Y148820D01*
X589154Y148753D01*
X589093Y148687D01*
X589038Y148620D01*
X588999Y148565D01*
X588965Y148515D01*
X588949Y148482D01*
X588943Y148476D01*
Y148470D01*
X588899Y148371D01*
X588866Y148271D01*
X588838Y148171D01*
X588821Y148082D01*
X588810Y148010D01*
X588804Y147949D01*
Y147927D01*
Y147910D01*
Y147899D01*
Y147893D01*
Y147810D01*
X588816Y147732D01*
X588843Y147582D01*
X588888Y147455D01*
X588932Y147344D01*
X588960Y147294D01*
X588982Y147255D01*
X589004Y147216D01*
X589026Y147188D01*
X589043Y147166D01*
X589054Y147150D01*
X589060Y147139D01*
X589065Y147133D01*
X589171Y147028D01*
X589287Y146944D01*
X589409Y146878D01*
X589532Y146822D01*
X589637Y146789D01*
X589681Y146772D01*
X589720Y146761D01*
X589753Y146756D01*
X589776Y146750D01*
X589792Y146745D01*
X589798D01*
X589881Y147216D01*
X589759Y147238D01*
X589654Y147272D01*
X589565Y147310D01*
X589493Y147349D01*
X589437Y147388D01*
X589398Y147422D01*
X589371Y147444D01*
X589365Y147449D01*
X589310Y147521D01*
X589265Y147599D01*
X589237Y147671D01*
X589215Y147743D01*
X589204Y147810D01*
X589193Y147860D01*
Y147893D01*
Y147899D01*
Y147904D01*
X589198Y148004D01*
X589221Y148093D01*
X589249Y148171D01*
X589276Y148237D01*
X589310Y148287D01*
X589337Y148326D01*
X589360Y148354D01*
X589365Y148360D01*
X589432Y148421D01*
X589504Y148465D01*
X589576Y148493D01*
X589642Y148515D01*
X589704Y148526D01*
X589748Y148537D01*
X589853D01*
X589909Y148526D01*
X590003Y148498D01*
X590087Y148459D01*
X590159Y148415D01*
X590209Y148371D01*
X590247Y148332D01*
X590270Y148304D01*
X590275Y148299D01*
Y148293D01*
X590325Y148199D01*
X590364Y148110D01*
X590392Y148015D01*
X590408Y147932D01*
X590419Y147860D01*
X590431Y147799D01*
Y147777D01*
Y147760D01*
Y147755D01*
Y147749D01*
Y147727D01*
X590425Y147705D01*
Y147682D01*
Y147677D01*
X590841Y147621D01*
X590825Y147694D01*
X590814Y147760D01*
X590802Y147816D01*
X590797Y147866D01*
X590791Y147904D01*
Y147932D01*
Y147949D01*
Y147954D01*
X590802Y148071D01*
X590825Y148176D01*
X590858Y148271D01*
X590897Y148348D01*
X590936Y148409D01*
X590969Y148454D01*
X590991Y148482D01*
X591002Y148493D01*
X591085Y148565D01*
X591174Y148620D01*
X591263Y148659D01*
X591352Y148681D01*
X591424Y148698D01*
X591485Y148704D01*
X591507Y148709D01*
X591541D01*
X591663Y148698D01*
X591774Y148670D01*
X591868Y148637D01*
X591951Y148593D01*
X592018Y148548D01*
X592068Y148515D01*
X592101Y148487D01*
X592112Y148476D01*
X592190Y148387D01*
X592245Y148293D01*
X592284Y148199D01*
X592312Y148110D01*
X592329Y148032D01*
X592334Y147971D01*
X592340Y147949D01*
Y147932D01*
Y147921D01*
Y147915D01*
X592334Y147816D01*
X592312Y147721D01*
X592284Y147638D01*
X592251Y147571D01*
X592223Y147516D01*
X592196Y147471D01*
X592173Y147449D01*
X592168Y147438D01*
X592090Y147372D01*
X592001Y147316D01*
X591907Y147266D01*
X591807Y147227D01*
X591724Y147199D01*
X591685Y147188D01*
X591652Y147183D01*
X591624Y147177D01*
X591602Y147172D01*
X591591Y147166D01*
X591585D01*
X591646Y146695D01*
X591735Y146706D01*
X591818Y146722D01*
X591973Y146772D01*
X592107Y146833D01*
X592162Y146867D01*
X592218Y146900D01*
X592268Y146933D01*
X592307Y146967D01*
X592345Y146994D01*
X592373Y147022D01*
X592395Y147039D01*
X592412Y147055D01*
X592423Y147066D01*
X592429Y147072D01*
X592479Y147139D01*
X592528Y147205D01*
X592567Y147272D01*
X592601Y147344D01*
X592656Y147483D01*
X592690Y147616D01*
X592701Y147677D01*
X592712Y147732D01*
X592717Y147782D01*
X592723Y147827D01*
X592728Y147860D01*
Y147888D01*
Y147904D01*
Y147910D01*
X592723Y148015D01*
X592712Y148110D01*
X592695Y148204D01*
X592673Y148293D01*
X592645Y148376D01*
X592617Y148448D01*
X592584Y148521D01*
X592551Y148582D01*
X592523Y148643D01*
X592490Y148693D01*
X592462Y148737D01*
X592434Y148770D01*
X592412Y148798D01*
X592395Y148820D01*
X592384Y148831D01*
X592379Y148837D01*
X592312Y148903D01*
X592240Y148959D01*
X592168Y149009D01*
X592096Y149053D01*
X592029Y149087D01*
X591957Y149120D01*
X591824Y149164D01*
X591763Y149175D01*
X591707Y149186D01*
X591657Y149198D01*
X591613Y149203D01*
X591579Y149209D01*
D02*
G37*
%LPD*%
G36*
X591496Y161158D02*
X591574Y161147D01*
X591652Y161136D01*
X591718Y161119D01*
X591785Y161097D01*
X591840Y161080D01*
X591890Y161058D01*
X591935Y161036D01*
X591979Y161019D01*
X592007Y160997D01*
X592035Y160980D01*
X592057Y160969D01*
X592073Y160958D01*
X592079Y160947D01*
X592085D01*
X592129Y160908D01*
X592168Y160864D01*
X592229Y160775D01*
X592273Y160686D01*
X592301Y160603D01*
X592323Y160531D01*
X592329Y160470D01*
X592334Y160447D01*
Y160436D01*
Y160425D01*
Y160420D01*
X592329Y160364D01*
X592323Y160309D01*
X592295Y160209D01*
X592251Y160114D01*
X592201Y160037D01*
X592157Y159976D01*
X592112Y159926D01*
X592085Y159898D01*
X592073Y159892D01*
Y159887D01*
X592018Y159848D01*
X591962Y159815D01*
X591835Y159759D01*
X591702Y159720D01*
X591574Y159693D01*
X591457Y159676D01*
X591407Y159670D01*
X591363D01*
X591324Y159665D01*
X591174D01*
X591080Y159676D01*
X590991Y159687D01*
X590913Y159698D01*
X590841Y159715D01*
X590775Y159731D01*
X590714Y159748D01*
X590658Y159770D01*
X590614Y159792D01*
X590575Y159809D01*
X590542Y159826D01*
X590514Y159843D01*
X590492Y159859D01*
X590475Y159865D01*
X590470Y159876D01*
X590464D01*
X590419Y159915D01*
X590375Y159959D01*
X590314Y160048D01*
X590264Y160137D01*
X590236Y160220D01*
X590214Y160292D01*
X590209Y160353D01*
X590203Y160375D01*
Y160392D01*
Y160398D01*
Y160403D01*
X590209Y160464D01*
X590214Y160520D01*
X590247Y160625D01*
X590286Y160719D01*
X590336Y160797D01*
X590386Y160858D01*
X590431Y160908D01*
X590464Y160936D01*
X590470Y160947D01*
X590475D01*
X590530Y160986D01*
X590586Y161019D01*
X590719Y161074D01*
X590858Y161113D01*
X590991Y161141D01*
X591058Y161152D01*
X591119Y161158D01*
X591174Y161163D01*
X591219D01*
X591258Y161169D01*
X591407D01*
X591496Y161158D01*
D02*
G37*
G36*
X590225Y151667D02*
X590353Y151645D01*
X590458Y151612D01*
X590547Y151573D01*
X590619Y151529D01*
X590669Y151495D01*
X590703Y151473D01*
X590714Y151462D01*
X590791Y151379D01*
X590847Y151290D01*
X590886Y151201D01*
X590913Y151112D01*
X590930Y151040D01*
X590936Y150979D01*
X590941Y150957D01*
Y150940D01*
Y150929D01*
Y150924D01*
X590930Y150807D01*
X590908Y150702D01*
X590869Y150607D01*
X590825Y150524D01*
X590786Y150463D01*
X590747Y150413D01*
X590725Y150385D01*
X590714Y150374D01*
X590625Y150302D01*
X590525Y150247D01*
X590425Y150213D01*
X590331Y150185D01*
X590247Y150169D01*
X590214Y150163D01*
X590181D01*
X590153Y150158D01*
X590120D01*
X589976Y150169D01*
X589842Y150191D01*
X589726Y150230D01*
X589631Y150274D01*
X589554Y150313D01*
X589498Y150352D01*
X589482Y150363D01*
X589465Y150374D01*
X589459Y150385D01*
X589454D01*
X589409Y150430D01*
X589365Y150474D01*
X589304Y150568D01*
X589254Y150663D01*
X589226Y150751D01*
X589204Y150824D01*
X589198Y150885D01*
X589193Y150907D01*
Y150924D01*
Y150935D01*
Y150940D01*
Y150996D01*
X589204Y151051D01*
X589232Y151151D01*
X589271Y151240D01*
X589310Y151318D01*
X589354Y151379D01*
X589393Y151423D01*
X589421Y151451D01*
X589426Y151462D01*
X589432D01*
X589526Y151534D01*
X589631Y151590D01*
X589742Y151628D01*
X589848Y151651D01*
X589937Y151667D01*
X589976Y151673D01*
X590014D01*
X590042Y151678D01*
X590081D01*
X590225Y151667D01*
D02*
G37*
G36*
X591097Y154675D02*
X591235Y154664D01*
X591369Y154653D01*
X591480Y154637D01*
X591585Y154614D01*
X591674Y154592D01*
X591757Y154576D01*
X591824Y154553D01*
X591879Y154531D01*
X591929Y154515D01*
X591968Y154492D01*
X591996Y154481D01*
X592012Y154470D01*
X592024Y154459D01*
X592029D01*
X592085Y154415D01*
X592129Y154370D01*
X592173Y154326D01*
X592207Y154281D01*
X592262Y154187D01*
X592301Y154104D01*
X592323Y154026D01*
X592334Y153971D01*
X592340Y153948D01*
Y153932D01*
Y153921D01*
Y153915D01*
X592334Y153854D01*
X592329Y153798D01*
X592290Y153693D01*
X592240Y153599D01*
X592184Y153516D01*
X592129Y153454D01*
X592079Y153404D01*
X592040Y153377D01*
X592035Y153366D01*
X592029D01*
X591962Y153327D01*
X591885Y153294D01*
X591796Y153260D01*
X591702Y153238D01*
X591602Y153216D01*
X591496Y153199D01*
X591280Y153171D01*
X591180Y153160D01*
X591085Y153155D01*
X590997Y153149D01*
X590925D01*
X590858Y153144D01*
X590769D01*
X590597Y153149D01*
X590442Y153155D01*
X590297Y153166D01*
X590164Y153182D01*
X590048Y153199D01*
X589942Y153221D01*
X589848Y153244D01*
X589765Y153266D01*
X589692Y153288D01*
X589631Y153305D01*
X589581Y153327D01*
X589537Y153343D01*
X589509Y153360D01*
X589487Y153371D01*
X589476Y153382D01*
X589470D01*
X589421Y153421D01*
X589376Y153460D01*
X589343Y153504D01*
X589310Y153549D01*
X589260Y153638D01*
X589226Y153721D01*
X589210Y153793D01*
X589198Y153854D01*
X589193Y153876D01*
Y153893D01*
Y153904D01*
Y153910D01*
X589198Y153971D01*
X589204Y154032D01*
X589221Y154087D01*
X589243Y154137D01*
X589293Y154231D01*
X589348Y154315D01*
X589409Y154376D01*
X589459Y154426D01*
X589482Y154442D01*
X589498Y154453D01*
X589504Y154464D01*
X589509D01*
X589576Y154503D01*
X589654Y154537D01*
X589742Y154570D01*
X589837Y154592D01*
X589937Y154614D01*
X590042Y154631D01*
X590253Y154659D01*
X590358Y154670D01*
X590453Y154675D01*
X590542Y154681D01*
X590614D01*
X590680Y154686D01*
X590941D01*
X591097Y154675D01*
D02*
G37*
%LPC*%
G36*
X561916Y151785D02*
X561610D01*
X561555Y151690D01*
X561494Y151602D01*
X561422Y151513D01*
X561355Y151435D01*
X561288Y151369D01*
X561238Y151313D01*
X561216Y151296D01*
X561200Y151280D01*
X561194Y151274D01*
X561189Y151269D01*
X561072Y151174D01*
X560955Y151086D01*
X560844Y151008D01*
X560733Y150947D01*
X560639Y150891D01*
X560600Y150869D01*
X560567Y150853D01*
X560539Y150836D01*
X560517Y150830D01*
X560506Y150819D01*
X560500D01*
Y150364D01*
X560584Y150397D01*
X560667Y150436D01*
X560750Y150475D01*
X560828Y150514D01*
X560894Y150547D01*
X560950Y150575D01*
X560983Y150597D01*
X560989Y150603D01*
X560994D01*
X561094Y150664D01*
X561183Y150725D01*
X561261Y150780D01*
X561322Y150830D01*
X561377Y150869D01*
X561411Y150902D01*
X561438Y150925D01*
X561444Y150930D01*
Y147928D01*
X561916D01*
Y151785D01*
D02*
G37*
G36*
X569425Y151768D02*
X568909D01*
X567865Y148977D01*
X567821Y148860D01*
X567782Y148749D01*
X567749Y148644D01*
X567721Y148549D01*
X567693Y148466D01*
X567676Y148405D01*
X567671Y148383D01*
X567665Y148366D01*
X567660Y148355D01*
Y148349D01*
X567593Y148571D01*
X567560Y148677D01*
X567527Y148771D01*
X567499Y148854D01*
X567488Y148888D01*
X567482Y148921D01*
X567471Y148943D01*
X567466Y148960D01*
X567460Y148971D01*
Y148977D01*
X566461Y151768D01*
X565906D01*
X567393Y147928D01*
X567926D01*
X569425Y151768D01*
D02*
G37*
G36*
X564452Y151785D02*
X564396D01*
X564296Y151779D01*
X564202Y151774D01*
X564113Y151757D01*
X564030Y151741D01*
X563952Y151718D01*
X563880Y151696D01*
X563814Y151668D01*
X563753Y151641D01*
X563697Y151613D01*
X563653Y151585D01*
X563614Y151563D01*
X563581Y151541D01*
X563553Y151524D01*
X563536Y151507D01*
X563525Y151502D01*
X563519Y151496D01*
X563464Y151441D01*
X563414Y151380D01*
X563364Y151313D01*
X563325Y151247D01*
X563259Y151113D01*
X563214Y150980D01*
X563198Y150919D01*
X563181Y150858D01*
X563170Y150808D01*
X563159Y150764D01*
X563153Y150725D01*
Y150697D01*
X563148Y150680D01*
Y150675D01*
X563630Y150625D01*
X563642Y150753D01*
X563664Y150864D01*
X563697Y150963D01*
X563736Y151041D01*
X563769Y151108D01*
X563803Y151152D01*
X563825Y151180D01*
X563836Y151191D01*
X563919Y151258D01*
X564008Y151308D01*
X564102Y151346D01*
X564185Y151369D01*
X564263Y151385D01*
X564330Y151391D01*
X564352Y151396D01*
X564385D01*
X564502Y151391D01*
X564607Y151369D01*
X564696Y151335D01*
X564774Y151302D01*
X564835Y151263D01*
X564874Y151235D01*
X564901Y151213D01*
X564913Y151202D01*
X564979Y151124D01*
X565029Y151047D01*
X565068Y150969D01*
X565090Y150891D01*
X565107Y150830D01*
X565112Y150775D01*
X565118Y150742D01*
Y150736D01*
Y150730D01*
X565107Y150630D01*
X565085Y150525D01*
X565046Y150431D01*
X565007Y150342D01*
X564962Y150270D01*
X564924Y150209D01*
X564913Y150187D01*
X564901Y150170D01*
X564890Y150164D01*
Y150159D01*
X564846Y150098D01*
X564790Y150037D01*
X564729Y149970D01*
X564663Y149903D01*
X564524Y149770D01*
X564385Y149637D01*
X564313Y149576D01*
X564252Y149521D01*
X564191Y149470D01*
X564141Y149426D01*
X564102Y149393D01*
X564069Y149365D01*
X564047Y149348D01*
X564041Y149343D01*
X563903Y149226D01*
X563775Y149115D01*
X563669Y149015D01*
X563586Y148932D01*
X563514Y148860D01*
X563464Y148810D01*
X563436Y148777D01*
X563425Y148771D01*
Y148766D01*
X563347Y148671D01*
X563286Y148582D01*
X563231Y148494D01*
X563187Y148416D01*
X563153Y148349D01*
X563131Y148300D01*
X563120Y148266D01*
X563114Y148261D01*
Y148255D01*
X563092Y148194D01*
X563081Y148138D01*
X563070Y148083D01*
X563064Y148033D01*
X563059Y147989D01*
Y147955D01*
Y147933D01*
Y147928D01*
X565606D01*
Y148383D01*
X563714D01*
X563780Y148477D01*
X563814Y148516D01*
X563841Y148555D01*
X563869Y148588D01*
X563891Y148610D01*
X563908Y148627D01*
X563914Y148633D01*
X563941Y148660D01*
X563975Y148688D01*
X564052Y148760D01*
X564141Y148843D01*
X564235Y148927D01*
X564324Y148999D01*
X564363Y149032D01*
X564396Y149065D01*
X564424Y149088D01*
X564446Y149104D01*
X564458Y149115D01*
X564463Y149121D01*
X564552Y149199D01*
X564641Y149271D01*
X564718Y149343D01*
X564790Y149404D01*
X564857Y149465D01*
X564913Y149521D01*
X564968Y149570D01*
X565013Y149615D01*
X565057Y149659D01*
X565090Y149692D01*
X565118Y149720D01*
X565146Y149748D01*
X565173Y149781D01*
X565184Y149792D01*
X565262Y149887D01*
X565329Y149970D01*
X565384Y150053D01*
X565429Y150120D01*
X565462Y150181D01*
X565484Y150225D01*
X565495Y150253D01*
X565501Y150264D01*
X565534Y150347D01*
X565556Y150431D01*
X565579Y150508D01*
X565590Y150575D01*
X565595Y150636D01*
X565601Y150680D01*
Y150708D01*
Y150719D01*
X565595Y150803D01*
X565584Y150880D01*
X565573Y150958D01*
X565551Y151024D01*
X565495Y151158D01*
X565440Y151263D01*
X565407Y151313D01*
X565379Y151352D01*
X565351Y151391D01*
X565323Y151419D01*
X565301Y151441D01*
X565290Y151463D01*
X565279Y151469D01*
X565273Y151474D01*
X565212Y151530D01*
X565146Y151579D01*
X565073Y151618D01*
X565001Y151652D01*
X564857Y151707D01*
X564713Y151746D01*
X564652Y151757D01*
X564591Y151768D01*
X564535Y151774D01*
X564491Y151779D01*
X564452Y151785D01*
D02*
G37*
%LPD*%
D54*
X626689Y222000D02*
G03*
X626689Y222000I-35433J0D01*
G01*
Y295000D02*
G03*
X626689Y295000I-35433J0D01*
G01*
X626189Y368000D02*
G03*
X626189Y368000I-35433J0D01*
G01*
X580264Y165500D02*
G03*
X580264Y165500I-9843J0D01*
G01*
X554000Y220000D02*
Y224000D01*
X552000Y222000D02*
X556000D01*
X554000Y293000D02*
Y297000D01*
X552000Y295000D02*
X556000D01*
X553500Y366000D02*
Y370000D01*
X551500Y368000D02*
X555500D01*
X452323Y375500D02*
Y387311D01*
X496417D01*
Y363689D02*
Y387311D01*
X452323Y363689D02*
X496417D01*
X452323D02*
Y375500D01*
X496417D02*
X504095D01*
X444646D02*
X452323D01*
X377000Y281000D02*
Y349000D01*
X351000Y281000D02*
Y349000D01*
Y281000D02*
X377000D01*
X351000Y349000D02*
X377000D01*
X384000Y279000D02*
Y349000D01*
X554000Y279000D02*
Y349000D01*
X384000Y266500D02*
Y279000D01*
Y266500D02*
X529000D01*
X384000Y349000D02*
Y361500D01*
X554000D01*
Y349000D02*
Y361500D01*
Y266500D02*
Y279000D01*
X529000Y266500D02*
X554000D01*
X405728Y396449D02*
X409272D01*
X405728Y402551D02*
X409272D01*
X557882Y165500D02*
X561882D01*
X559000Y163500D02*
Y167500D01*
X165941Y224700D02*
Y244342D01*
X180842D01*
X165941Y224700D02*
X165983Y224658D01*
X180842D01*
X244685Y369831D02*
X303740D01*
X213189Y386563D02*
Y399555D01*
X224803Y411169D01*
X283268D01*
X224803Y369831D02*
X244685D01*
X213189Y381445D02*
X224803Y369831D01*
X213189Y381445D02*
Y386563D01*
X283268Y411169D02*
X323622D01*
X335236Y399555D01*
Y398374D02*
Y399555D01*
X303740Y369831D02*
X323228D01*
X335236Y381839D01*
Y398374D01*
X230500Y237799D02*
Y275201D01*
Y237799D02*
X301500D01*
Y275201D01*
X235500D02*
X301500D01*
X230500D02*
X235500D01*
D55*
X411500Y259000D02*
G03*
X411500Y259000I-2500J0D01*
G01*
D56*
X296969Y363000D02*
G03*
X296969Y363000I-1969J0D01*
G01*
D57*
X423000Y215500D02*
G03*
X423000Y215500I-500J0D01*
G01*
X340000Y216000D02*
G03*
X340000Y216000I-500J0D01*
G01*
X128000Y372000D02*
X146000D01*
X128000Y328500D02*
Y372000D01*
Y328500D02*
X146000D01*
Y372000D01*
X629716Y133004D02*
Y176311D01*
X594283Y133004D02*
Y176311D01*
X629716D01*
X594283Y133004D02*
X629716D01*
X545504Y110284D02*
X588811D01*
X545504Y145717D02*
X588811D01*
Y110284D02*
Y145717D01*
X545504Y110284D02*
Y145717D01*
X170500Y251500D02*
X221000D01*
Y274000D01*
X170500Y251500D02*
Y274000D01*
X221000D01*
X169500Y277500D02*
Y367500D01*
X299185D01*
X169500Y277500D02*
X299185D01*
Y367500D01*
X540500Y196000D02*
Y213000D01*
X536000Y196000D02*
X540500D01*
X536000D02*
Y213000D01*
X498000Y196000D02*
X537000D01*
X498000Y213000D02*
X540500D01*
X498000Y196000D02*
Y213000D01*
X483000Y196000D02*
Y213000D01*
X478500Y196000D02*
X483000D01*
X478500D02*
Y213000D01*
X440500Y196000D02*
X479500D01*
X440500Y213000D02*
X483000D01*
X440500Y196000D02*
Y213000D01*
X424780Y193000D02*
Y213000D01*
X354465Y193000D02*
Y213000D01*
X424780D01*
Y188500D02*
Y193900D01*
X424000Y188500D02*
X424780D01*
X354465D02*
X424000D01*
X354465D02*
Y193900D01*
X341779Y193500D02*
Y213500D01*
X271465Y193500D02*
Y213500D01*
X341779D01*
Y189000D02*
Y194400D01*
X341000Y189000D02*
X341779D01*
X271465D02*
X341000D01*
X271465D02*
Y194400D01*
X164500Y191000D02*
X187625D01*
X230875D02*
X256000D01*
Y205500D01*
X187625Y191000D02*
X230875D01*
X164500D02*
Y211500D01*
X181500Y214500D02*
X184500D01*
X238500Y215500D02*
X241500D01*
X240000Y214000D02*
Y217000D01*
X250000Y211500D02*
X256000Y205500D01*
X164500Y211500D02*
X250000D01*
X149000Y372000D02*
X167000D01*
X149000Y328500D02*
Y372000D01*
Y328500D02*
X167000D01*
Y372000D01*
X146689Y410716D02*
X209681D01*
X146689Y375284D02*
X209681D01*
X146689D02*
Y410716D01*
X209681Y375284D02*
Y410716D01*
X162000Y216138D02*
Y326000D01*
X128000Y216138D02*
Y326000D01*
X162000D01*
X128000Y216138D02*
X162000D01*
X213500Y244342D02*
X228264D01*
X213657Y224658D02*
X228264D01*
Y244342D01*
X303500Y257000D02*
Y366862D01*
X337500Y257000D02*
Y366862D01*
X303500Y257000D02*
X337500D01*
X303500Y366862D02*
X337500D01*
X446300Y249798D02*
Y243800D01*
X448299Y245799D01*
X450299Y243800D01*
Y249798D01*
D58*
X219938Y131771D02*
X225338D01*
X233038Y130871D02*
X234738D01*
X213338Y124471D02*
X233538D01*
X186938D02*
X192638D01*
X213838Y124571D02*
X233738D01*
X186738D02*
X192338D01*
X214438Y124671D02*
X233938D01*
X186538D02*
X191938D01*
X214938Y124771D02*
X234038D01*
X186438D02*
X191638D01*
X215438Y124871D02*
X234138D01*
X186338D02*
X191338D01*
X215938Y124971D02*
X234238D01*
X186238D02*
X191038D01*
X216438Y125071D02*
X234338D01*
X186138D02*
X190738D01*
X216938Y125171D02*
X234438D01*
X186038D02*
X190438D01*
X217438Y125271D02*
X234538D01*
X185938D02*
X190238D01*
X217838Y125371D02*
X234538D01*
X205038D02*
X206238D01*
X185938D02*
X189938D01*
X218338Y125471D02*
X234638D01*
X202438D02*
X209038D01*
X185838D02*
X189738D01*
X218738Y125571D02*
X234638D01*
X201238D02*
X210438D01*
X185838D02*
X189538D01*
X219138Y125671D02*
X234738D01*
X200338D02*
X211538D01*
X185738D02*
X189338D01*
X219538Y125771D02*
X234738D01*
X199638D02*
X212438D01*
X185738D02*
X189138D01*
X219938Y125871D02*
X234738D01*
X199038D02*
X213338D01*
X185738D02*
X188938D01*
X220338Y125971D02*
X234738D01*
X198438D02*
X214038D01*
X185738D02*
X188738D01*
X220738Y126071D02*
X234738D01*
X197938D02*
X214838D01*
X185738D02*
X188638D01*
X221038Y126171D02*
X234738D01*
X197438D02*
X215438D01*
X185738D02*
X188438D01*
X221438Y126271D02*
X234738D01*
X197038D02*
X216138D01*
X185738D02*
X188238D01*
X221838Y126371D02*
X234738D01*
X196638D02*
X216738D01*
X185738D02*
X188138D01*
X222138Y126471D02*
X234738D01*
X196238D02*
X217238D01*
X185738D02*
X187938D01*
X222438Y126571D02*
X234738D01*
X195938D02*
X217838D01*
X185738D02*
X187838D01*
X222838Y126671D02*
X234738D01*
X195638D02*
X218338D01*
X185738D02*
X187738D01*
X223138Y126771D02*
X234738D01*
X195338D02*
X218838D01*
X185738D02*
X187538D01*
X223438Y126871D02*
X234738D01*
X195038D02*
X219338D01*
X185738D02*
X187438D01*
X223838Y126971D02*
X234738D01*
X194738D02*
X219838D01*
X185738D02*
X187338D01*
X224138Y127071D02*
X234738D01*
X194438D02*
X220338D01*
X185738D02*
X187238D01*
X224438Y127171D02*
X234738D01*
X194238D02*
X220738D01*
X185738D02*
X187138D01*
X224738Y127271D02*
X234738D01*
X193938D02*
X221238D01*
X185738D02*
X187038D01*
X225038Y127371D02*
X234738D01*
X193738D02*
X221638D01*
X185738D02*
X186938D01*
X225338Y127471D02*
X234738D01*
X193538D02*
X222038D01*
X185738D02*
X186838D01*
X225638Y127571D02*
X234738D01*
X193338D02*
X222438D01*
X185738D02*
X186738D01*
X225838Y127671D02*
X234738D01*
X193038D02*
X222838D01*
X185738D02*
X186638D01*
X226138Y127771D02*
X234738D01*
X192938D02*
X223238D01*
X185738D02*
X186538D01*
X226438Y127871D02*
X234738D01*
X192738D02*
X223638D01*
X185738D02*
X186438D01*
X226738Y127971D02*
X234738D01*
X192538D02*
X224038D01*
X185738D02*
X186338D01*
X226938Y128071D02*
X234738D01*
X192338D02*
X224438D01*
X185738D02*
X186338D01*
X227238Y128171D02*
X234738D01*
X192138D02*
X224738D01*
X185738D02*
X186238D01*
X227538Y128271D02*
X234738D01*
X192038D02*
X225138D01*
X185738D02*
X186138D01*
X227738Y128371D02*
X234738D01*
X191838D02*
X225438D01*
X185738D02*
X186138D01*
X228038Y128471D02*
X234738D01*
X191738D02*
X225838D01*
X185738D02*
X186038D01*
X228238Y128571D02*
X234738D01*
X191538D02*
X226138D01*
X185738D02*
X185938D01*
X228438Y128671D02*
X234738D01*
X191438D02*
X226538D01*
X185738D02*
X185938D01*
X228738Y128771D02*
X234738D01*
X191238D02*
X226838D01*
X185738D02*
X185838D01*
X228938Y128871D02*
X234738D01*
X191138D02*
X227138D01*
X185738D02*
X185838D01*
X229238Y128971D02*
X234738D01*
X191038D02*
X227438D01*
X229438Y129071D02*
X234738D01*
X190838D02*
X227838D01*
X229638Y129171D02*
X234738D01*
X190738D02*
X228138D01*
X229838Y129271D02*
X234738D01*
X190638D02*
X228438D01*
X230138Y129371D02*
X234738D01*
X190538D02*
X228738D01*
X230338Y129471D02*
X234738D01*
X190438D02*
X229038D01*
X230538Y129571D02*
X234738D01*
X190338D02*
X229338D01*
X230738Y129671D02*
X234738D01*
X190238D02*
X229638D01*
X230938Y129771D02*
X234738D01*
X190138D02*
X229938D01*
X231138Y129871D02*
X234738D01*
X190038D02*
X230138D01*
X231338Y129971D02*
X234738D01*
X189938D02*
X230438D01*
X231538Y130071D02*
X234738D01*
X189838D02*
X230738D01*
X231738Y130171D02*
X234738D01*
X189738D02*
X231038D01*
X231938Y130271D02*
X234738D01*
X189638D02*
X231338D01*
X232138Y130371D02*
X234738D01*
X189538D02*
X231538D01*
X232338Y130471D02*
X234738D01*
X189438D02*
X231838D01*
X232538Y130571D02*
X234738D01*
X189438D02*
X232038D01*
X232638Y130671D02*
X234738D01*
X189338D02*
X232338D01*
X232838Y130771D02*
X234738D01*
X189238D02*
X232638D01*
X189238Y130871D02*
X232838D01*
X233238Y130971D02*
X234738D01*
X189138D02*
X233138D01*
X189038Y131071D02*
X234738D01*
X189038Y131171D02*
X234738D01*
X188938Y131271D02*
X234738D01*
X188838Y131371D02*
X234738D01*
X195638Y131471D02*
X234738D01*
X188838D02*
X194838D01*
X219538Y131571D02*
X234738D01*
X196338D02*
X218938D01*
X188738D02*
X194038D01*
X219838Y131671D02*
X234738D01*
X196838D02*
X218738D01*
X188738D02*
X193638D01*
X230538Y131771D02*
X234738D01*
X227438D02*
X228338D01*
X213138D02*
X218538D01*
X206938D02*
X211038D01*
X197138D02*
X201138D01*
X188638D02*
X193338D01*
X230438Y131871D02*
X234738D01*
X227438D02*
X228338D01*
X220038D02*
X225338D01*
X213138D02*
X218438D01*
X207438D02*
X211138D01*
X197338D02*
X201138D01*
X188638D02*
X193038D01*
X230438Y131971D02*
X234738D01*
X227438D02*
X228338D01*
X220138D02*
X225338D01*
X213138D02*
X218338D01*
X207838D02*
X211138D01*
X197538D02*
X201138D01*
X188538D02*
X192838D01*
X230438Y132071D02*
X234738D01*
X227338D02*
X228338D01*
X220238D02*
X225338D01*
X213238D02*
X218238D01*
X208138D02*
X211138D01*
X197738D02*
X201138D01*
X188538D02*
X192638D01*
X230438Y132171D02*
X234738D01*
X227338D02*
X228338D01*
X220338D02*
X225338D01*
X213238D02*
X218238D01*
X208438D02*
X211138D01*
X197938D02*
X201138D01*
X188438D02*
X192538D01*
X230438Y132271D02*
X234738D01*
X227338D02*
X228338D01*
X220338D02*
X225338D01*
X213238D02*
X218138D01*
X208638D02*
X211138D01*
X198038D02*
X201138D01*
X188438D02*
X192338D01*
X230438Y132371D02*
X234738D01*
X227338D02*
X228338D01*
X220438D02*
X225238D01*
X213238D02*
X218038D01*
X208838D02*
X211138D01*
X198238D02*
X201138D01*
X188338D02*
X192238D01*
X230438Y132471D02*
X234738D01*
X227338D02*
X228338D01*
X220438D02*
X225238D01*
X213238D02*
X218038D01*
X208938D02*
X211138D01*
X198338D02*
X201138D01*
X188338D02*
X192038D01*
X230438Y132571D02*
X234738D01*
X227338D02*
X228338D01*
X220538D02*
X225238D01*
X213238D02*
X218038D01*
X209138D02*
X211238D01*
X198438D02*
X201138D01*
X188338D02*
X191938D01*
X230438Y132671D02*
X234738D01*
X227338D02*
X228338D01*
X220538D02*
X225238D01*
X213238D02*
X217938D01*
X209238D02*
X211238D01*
X198638D02*
X201138D01*
X188238D02*
X191838D01*
X230438Y132771D02*
X234738D01*
X227238D02*
X228338D01*
X220538D02*
X225238D01*
X213338D02*
X217938D01*
X209338D02*
X211238D01*
X198738D02*
X201138D01*
X188238D02*
X191738D01*
X230438Y132871D02*
X234738D01*
X227238D02*
X228338D01*
X220638D02*
X225238D01*
X213338D02*
X217838D01*
X209438D02*
X211238D01*
X198838D02*
X201138D01*
X188238D02*
X191638D01*
X230438Y132971D02*
X234738D01*
X227238D02*
X228338D01*
X220638D02*
X225238D01*
X213338D02*
X217838D01*
X209538D02*
X211238D01*
X198938D02*
X201138D01*
X188138D02*
X191538D01*
X230438Y133071D02*
X234738D01*
X227238D02*
X228338D01*
X220638D02*
X225138D01*
X213338D02*
X217838D01*
X209638D02*
X211238D01*
X198938D02*
X201138D01*
X188138D02*
X191438D01*
X230438Y133171D02*
X234738D01*
X227238D02*
X228338D01*
X220738D02*
X225138D01*
X213338D02*
X217738D01*
X209738D02*
X211238D01*
X199038D02*
X201138D01*
X188138D02*
X191338D01*
X230438Y133271D02*
X234738D01*
X227238D02*
X228338D01*
X220738D02*
X225138D01*
X213338D02*
X217738D01*
X209838D02*
X211338D01*
X199138D02*
X201138D01*
X188038D02*
X191238D01*
X230438Y133371D02*
X234738D01*
X227238D02*
X228338D01*
X220738D02*
X225138D01*
X213338D02*
X217738D01*
X209938D02*
X211338D01*
X199238D02*
X201138D01*
X188038D02*
X191238D01*
X230438Y133471D02*
X234738D01*
X227138D02*
X228338D01*
X220838D02*
X225138D01*
X213438D02*
X217738D01*
X210038D02*
X211338D01*
X199338D02*
X201138D01*
X188038D02*
X191138D01*
X230438Y133571D02*
X234738D01*
X227138D02*
X228338D01*
X220838D02*
X225138D01*
X213438D02*
X217638D01*
X210038D02*
X211338D01*
X199338D02*
X201138D01*
X194438D02*
X195938D01*
X188038D02*
X191038D01*
X230438Y133671D02*
X234738D01*
X227138D02*
X228338D01*
X220838D02*
X225138D01*
X213438D02*
X217638D01*
X210138D02*
X211338D01*
X199438D02*
X201138D01*
X194138D02*
X196338D01*
X188038D02*
X191038D01*
X230438Y133771D02*
X234738D01*
X227138D02*
X228338D01*
X220938D02*
X225038D01*
X213438D02*
X217638D01*
X210138D02*
X211338D01*
X199538D02*
X201138D01*
X193838D02*
X196538D01*
X187938D02*
X190938D01*
X230438Y133871D02*
X234738D01*
X227138D02*
X228338D01*
X220938D02*
X225038D01*
X213438D02*
X217538D01*
X210238D02*
X211338D01*
X199538D02*
X206538D01*
X193738D02*
X196738D01*
X187938D02*
X190838D01*
X230438Y133971D02*
X234738D01*
X227138D02*
X228338D01*
X220938D02*
X225038D01*
X213438D02*
X217538D01*
X210238D02*
X211338D01*
X199638D02*
X207138D01*
X193538D02*
X196938D01*
X187938D02*
X190838D01*
X230438Y134071D02*
X234738D01*
X227138D02*
X228338D01*
X221038D02*
X225038D01*
X213438D02*
X217538D01*
X210338D02*
X211438D01*
X199638D02*
X207438D01*
X193438D02*
X197038D01*
X187938D02*
X190738D01*
X185738D02*
X185838D01*
X230438Y134171D02*
X234738D01*
X227038D02*
X228338D01*
X221038D02*
X225038D01*
X213438D02*
X217438D01*
X210338D02*
X211438D01*
X199738D02*
X207638D01*
X193338D02*
X197138D01*
X187938D02*
X190738D01*
X185738D02*
X185838D01*
X230438Y134271D02*
X234738D01*
X227038D02*
X228338D01*
X221038D02*
X225038D01*
X213538D02*
X217438D01*
X210338D02*
X211438D01*
X199738D02*
X207738D01*
X193138D02*
X197238D01*
X187938D02*
X190638D01*
X185738D02*
X185838D01*
X230438Y134371D02*
X234738D01*
X227038D02*
X228338D01*
X221038D02*
X225038D01*
X213538D02*
X217438D01*
X210438D02*
X211438D01*
X199838D02*
X207938D01*
X193138D02*
X197338D01*
X187838D02*
X190638D01*
X185738D02*
X185938D01*
X230438Y134471D02*
X234738D01*
X227038D02*
X228338D01*
X221138D02*
X224938D01*
X213538D02*
X217338D01*
X210438D02*
X211438D01*
X199838D02*
X208038D01*
X193038D02*
X197438D01*
X187838D02*
X190638D01*
X185738D02*
X185938D01*
X230438Y134571D02*
X234738D01*
X227038D02*
X228338D01*
X221138D02*
X224938D01*
X213538D02*
X217338D01*
X210438D02*
X211438D01*
X199838D02*
X208038D01*
X192938D02*
X197538D01*
X187838D02*
X190538D01*
X185738D02*
X186038D01*
X230438Y134671D02*
X234738D01*
X227038D02*
X228338D01*
X221138D02*
X224938D01*
X213538D02*
X217338D01*
X210438D02*
X211438D01*
X199938D02*
X208138D01*
X192838D02*
X197538D01*
X187838D02*
X190538D01*
X185738D02*
X186038D01*
X230438Y134771D02*
X234738D01*
X227038D02*
X228338D01*
X221238D02*
X224938D01*
X213538D02*
X217238D01*
X210538D02*
X211538D01*
X199938D02*
X208238D01*
X192838D02*
X197638D01*
X187838D02*
X190438D01*
X185738D02*
X186138D01*
X230438Y134871D02*
X234738D01*
X226938D02*
X228338D01*
X221238D02*
X224938D01*
X213538D02*
X217238D01*
X210538D02*
X211538D01*
X199938D02*
X208238D01*
X192738D02*
X197638D01*
X187838D02*
X190438D01*
X185738D02*
X186138D01*
X230438Y134971D02*
X234738D01*
X226938D02*
X228338D01*
X221238D02*
X224938D01*
X213638D02*
X217238D01*
X210538D02*
X211538D01*
X200038D02*
X208238D01*
X192738D02*
X197738D01*
X187838D02*
X190438D01*
X185738D02*
X186138D01*
X230438Y135071D02*
X234738D01*
X226938D02*
X228338D01*
X221338D02*
X224938D01*
X213638D02*
X217238D01*
X210538D02*
X211538D01*
X200038D02*
X208338D01*
X192638D02*
X197738D01*
X187838D02*
X190438D01*
X185738D02*
X186238D01*
X230438Y135171D02*
X234738D01*
X226938D02*
X228338D01*
X221338D02*
X224838D01*
X213638D02*
X217138D01*
X210538D02*
X211538D01*
X200038D02*
X208338D01*
X192638D02*
X197838D01*
X187838D02*
X190338D01*
X185738D02*
X186238D01*
X230438Y135271D02*
X234738D01*
X226938D02*
X228338D01*
X221338D02*
X224838D01*
X213638D02*
X217138D01*
X210538D02*
X211538D01*
X200138D02*
X208338D01*
X192538D02*
X197838D01*
X187838D02*
X190338D01*
X185738D02*
X186338D01*
X230438Y135371D02*
X234738D01*
X226938D02*
X228338D01*
X221438D02*
X224838D01*
X219138D02*
X219338D01*
X213638D02*
X217138D01*
X210538D02*
X211538D01*
X200138D02*
X208338D01*
X192538D02*
X197938D01*
X187838D02*
X190338D01*
X185738D02*
X186338D01*
X230438Y135471D02*
X234738D01*
X226938D02*
X228338D01*
X221438D02*
X224838D01*
X219138D02*
X219338D01*
X213638D02*
X217038D01*
X210538D02*
X211638D01*
X200138D02*
X208338D01*
X192538D02*
X197938D01*
X187838D02*
X190338D01*
X185738D02*
X186438D01*
X230438Y135571D02*
X234738D01*
X226838D02*
X228338D01*
X221438D02*
X224838D01*
X219138D02*
X219438D01*
X213638D02*
X217038D01*
X210538D02*
X211638D01*
X200138D02*
X208338D01*
X192438D02*
X197938D01*
X187838D02*
X190238D01*
X185738D02*
X186438D01*
X230438Y135671D02*
X234738D01*
X226838D02*
X228338D01*
X221538D02*
X224838D01*
X219038D02*
X219438D01*
X213738D02*
X217038D01*
X210538D02*
X211638D01*
X200238D02*
X208338D01*
X192438D02*
X198038D01*
X187838D02*
X190238D01*
X185738D02*
X186538D01*
X230438Y135771D02*
X234738D01*
X226838D02*
X228338D01*
X221538D02*
X224838D01*
X219038D02*
X219438D01*
X213738D02*
X216938D01*
X210538D02*
X211638D01*
X200238D02*
X208338D01*
X192438D02*
X198038D01*
X187838D02*
X190238D01*
X185738D02*
X186538D01*
X230438Y135871D02*
X234738D01*
X226838D02*
X228338D01*
X221538D02*
X224838D01*
X219038D02*
X219538D01*
X213738D02*
X216938D01*
X210538D02*
X211638D01*
X200238D02*
X208338D01*
X192438D02*
X198038D01*
X187838D02*
X190238D01*
X185738D02*
X186638D01*
X230438Y135971D02*
X234738D01*
X226838D02*
X228338D01*
X221538D02*
X224738D01*
X218938D02*
X219538D01*
X213738D02*
X216938D01*
X210538D02*
X211638D01*
X200238D02*
X208338D01*
X192338D02*
X198038D01*
X187838D02*
X190238D01*
X185738D02*
X186638D01*
X230438Y136071D02*
X234738D01*
X226838D02*
X228338D01*
X221638D02*
X224738D01*
X218938D02*
X219538D01*
X213738D02*
X216838D01*
X210538D02*
X211638D01*
X200238D02*
X208238D01*
X192338D02*
X198038D01*
X187838D02*
X190238D01*
X185738D02*
X186738D01*
X230438Y136171D02*
X234738D01*
X226838D02*
X228338D01*
X221638D02*
X224738D01*
X218938D02*
X219638D01*
X213738D02*
X216838D01*
X210538D02*
X211738D01*
X200238D02*
X208238D01*
X192338D02*
X198138D01*
X187838D02*
X190138D01*
X185738D02*
X186838D01*
X230438Y136271D02*
X234738D01*
X226738D02*
X228338D01*
X221638D02*
X224738D01*
X218838D02*
X219638D01*
X213738D02*
X216838D01*
X210538D02*
X211738D01*
X200238D02*
X208138D01*
X192338D02*
X198138D01*
X187838D02*
X190138D01*
X185738D02*
X186838D01*
X230438Y136371D02*
X234738D01*
X226738D02*
X228338D01*
X221738D02*
X224738D01*
X218838D02*
X219638D01*
X213838D02*
X216738D01*
X210538D02*
X211738D01*
X200238D02*
X208138D01*
X192338D02*
X198138D01*
X187838D02*
X190138D01*
X185738D02*
X186938D01*
X230438Y136471D02*
X234738D01*
X226738D02*
X228338D01*
X221738D02*
X224738D01*
X218838D02*
X219638D01*
X213838D02*
X216738D01*
X210538D02*
X211738D01*
X200338D02*
X208038D01*
X192338D02*
X198138D01*
X187838D02*
X190138D01*
X185738D02*
X186938D01*
X230438Y136571D02*
X234738D01*
X226738D02*
X228338D01*
X221738D02*
X224738D01*
X218838D02*
X219738D01*
X213838D02*
X216738D01*
X210438D02*
X211738D01*
X200338D02*
X207938D01*
X192338D02*
X198138D01*
X187838D02*
X190138D01*
X185738D02*
X187038D01*
X230438Y136671D02*
X234738D01*
X226738D02*
X228338D01*
X221838D02*
X224638D01*
X218738D02*
X219738D01*
X213838D02*
X216738D01*
X210438D02*
X211738D01*
X200338D02*
X207938D01*
X192338D02*
X198138D01*
X187838D02*
X190138D01*
X185738D02*
X187038D01*
X230438Y136771D02*
X234738D01*
X226738D02*
X228338D01*
X221838D02*
X224638D01*
X218738D02*
X219738D01*
X213838D02*
X216638D01*
X210438D02*
X211738D01*
X200338D02*
X207838D01*
X192238D02*
X198138D01*
X187938D02*
X190138D01*
X185738D02*
X187138D01*
X230438Y136871D02*
X234738D01*
X226738D02*
X228338D01*
X221838D02*
X224638D01*
X218738D02*
X219838D01*
X213838D02*
X216638D01*
X210338D02*
X211838D01*
X200338D02*
X207638D01*
X192238D02*
X198138D01*
X187938D02*
X190138D01*
X185738D02*
X187238D01*
X230438Y136971D02*
X234738D01*
X226638D02*
X228338D01*
X221938D02*
X224638D01*
X218638D02*
X219838D01*
X213838D02*
X216638D01*
X210338D02*
X211838D01*
X200338D02*
X207538D01*
X192238D02*
X198138D01*
X187938D02*
X190138D01*
X185738D02*
X187238D01*
X230438Y137071D02*
X234738D01*
X226638D02*
X228338D01*
X221938D02*
X224638D01*
X218638D02*
X219838D01*
X213838D02*
X216538D01*
X210338D02*
X211838D01*
X200338D02*
X207438D01*
X192238D02*
X198138D01*
X187938D02*
X190138D01*
X185738D02*
X187338D01*
X230438Y137171D02*
X234738D01*
X226638D02*
X228338D01*
X221938D02*
X224638D01*
X218638D02*
X219938D01*
X213938D02*
X216538D01*
X210238D02*
X211838D01*
X200338D02*
X207238D01*
X192238D02*
X198138D01*
X187938D02*
X190138D01*
X185738D02*
X187438D01*
X230438Y137271D02*
X234738D01*
X226638D02*
X228338D01*
X222038D02*
X224638D01*
X218538D02*
X219938D01*
X213938D02*
X216538D01*
X210238D02*
X211838D01*
X200338D02*
X207138D01*
X192238D02*
X198138D01*
X187938D02*
X190138D01*
X185738D02*
X187438D01*
X230438Y137371D02*
X234738D01*
X226638D02*
X228338D01*
X222038D02*
X224538D01*
X218538D02*
X219938D01*
X213938D02*
X216438D01*
X210138D02*
X211838D01*
X200338D02*
X206938D01*
X192238D02*
X198138D01*
X187938D02*
X190138D01*
X185738D02*
X187538D01*
X230438Y137471D02*
X234738D01*
X226638D02*
X228338D01*
X222038D02*
X224538D01*
X218538D02*
X220038D01*
X213938D02*
X216438D01*
X210138D02*
X211838D01*
X200338D02*
X206838D01*
X192238D02*
X198138D01*
X188038D02*
X190138D01*
X185738D02*
X187638D01*
X230438Y137571D02*
X234738D01*
X226638D02*
X228338D01*
X222038D02*
X224538D01*
X218438D02*
X220038D01*
X213938D02*
X216438D01*
X210038D02*
X211938D01*
X200338D02*
X206638D01*
X192238D02*
X198138D01*
X188038D02*
X190138D01*
X185738D02*
X187638D01*
X230438Y137671D02*
X234738D01*
X226538D02*
X228338D01*
X222138D02*
X224538D01*
X218438D02*
X220038D01*
X213938D02*
X216338D01*
X209938D02*
X211938D01*
X200338D02*
X206438D01*
X192238D02*
X198138D01*
X188038D02*
X190138D01*
X185738D02*
X187738D01*
X230438Y137771D02*
X234738D01*
X226538D02*
X228338D01*
X222138D02*
X224538D01*
X218438D02*
X220138D01*
X213938D02*
X216338D01*
X209938D02*
X211938D01*
X200338D02*
X206238D01*
X192238D02*
X198138D01*
X188038D02*
X190138D01*
X185738D02*
X187838D01*
X230438Y137871D02*
X234738D01*
X226538D02*
X228338D01*
X222138D02*
X224538D01*
X218338D02*
X220138D01*
X214038D02*
X216338D01*
X209838D02*
X211938D01*
X200338D02*
X206038D01*
X192238D02*
X198138D01*
X188038D02*
X190138D01*
X185738D02*
X187838D01*
X230438Y137971D02*
X234738D01*
X226538D02*
X228338D01*
X222238D02*
X224538D01*
X218338D02*
X220138D01*
X214038D02*
X216238D01*
X209738D02*
X211938D01*
X200338D02*
X205838D01*
X192238D02*
X198138D01*
X188138D02*
X190138D01*
X185738D02*
X187938D01*
X230438Y138071D02*
X234738D01*
X226538D02*
X228338D01*
X222238D02*
X224438D01*
X218338D02*
X220138D01*
X214038D02*
X216238D01*
X209638D02*
X211938D01*
X200338D02*
X205638D01*
X192238D02*
X198138D01*
X188138D02*
X190138D01*
X185738D02*
X188038D01*
X230438Y138171D02*
X234738D01*
X226538D02*
X228338D01*
X222238D02*
X224438D01*
X218338D02*
X220238D01*
X214038D02*
X216238D01*
X209538D02*
X211938D01*
X200338D02*
X205438D01*
X192238D02*
X198138D01*
X188138D02*
X190138D01*
X185738D02*
X188038D01*
X230438Y138271D02*
X234738D01*
X226538D02*
X228338D01*
X222338D02*
X224438D01*
X218238D02*
X220238D01*
X214038D02*
X216238D01*
X209538D02*
X212038D01*
X200338D02*
X205238D01*
X192238D02*
X198138D01*
X185738D02*
X190138D01*
X230438Y138371D02*
X234738D01*
X226438D02*
X228338D01*
X222338D02*
X224438D01*
X218238D02*
X220238D01*
X214038D02*
X216138D01*
X209338D02*
X212038D01*
X200338D02*
X205038D01*
X192238D02*
X198138D01*
X185738D02*
X190138D01*
X230438Y138471D02*
X234738D01*
X226438D02*
X228338D01*
X222338D02*
X224438D01*
X218238D02*
X220338D01*
X214038D02*
X216138D01*
X209238D02*
X212038D01*
X200338D02*
X204838D01*
X192238D02*
X198138D01*
X185738D02*
X190138D01*
X230438Y138571D02*
X234738D01*
X226438D02*
X228338D01*
X222438D02*
X224438D01*
X218138D02*
X220338D01*
X214138D02*
X216138D01*
X209138D02*
X212038D01*
X200338D02*
X204638D01*
X192238D02*
X198138D01*
X185738D02*
X190138D01*
X230438Y138671D02*
X234738D01*
X226438D02*
X228338D01*
X222438D02*
X224438D01*
X218138D02*
X220338D01*
X214138D02*
X216038D01*
X209038D02*
X212038D01*
X200338D02*
X204438D01*
X192238D02*
X198138D01*
X185738D02*
X190138D01*
X230438Y138771D02*
X234738D01*
X226438D02*
X228338D01*
X222438D02*
X224338D01*
X218138D02*
X220438D01*
X214138D02*
X216038D01*
X208938D02*
X212038D01*
X200338D02*
X204238D01*
X192238D02*
X198138D01*
X185738D02*
X190138D01*
X230438Y138871D02*
X234738D01*
X226438D02*
X228338D01*
X222538D02*
X224338D01*
X218038D02*
X220438D01*
X214138D02*
X216038D01*
X208738D02*
X212038D01*
X200338D02*
X204038D01*
X192238D02*
X198138D01*
X185738D02*
X190138D01*
X230438Y138971D02*
X234738D01*
X226438D02*
X228338D01*
X222538D02*
X224338D01*
X218038D02*
X220438D01*
X214138D02*
X215938D01*
X208638D02*
X212138D01*
X200338D02*
X203838D01*
X192238D02*
X198138D01*
X185738D02*
X190138D01*
X230438Y139071D02*
X234738D01*
X226338D02*
X228338D01*
X222538D02*
X224338D01*
X218038D02*
X220538D01*
X214138D02*
X215938D01*
X208438D02*
X212138D01*
X200338D02*
X203738D01*
X192238D02*
X198138D01*
X185738D02*
X190138D01*
X230438Y139171D02*
X234738D01*
X226338D02*
X228338D01*
X222538D02*
X224338D01*
X217938D02*
X220538D01*
X214138D02*
X215938D01*
X208338D02*
X212138D01*
X200338D02*
X203538D01*
X192238D02*
X198138D01*
X185738D02*
X190138D01*
X230438Y139271D02*
X234738D01*
X226338D02*
X228338D01*
X222638D02*
X224338D01*
X217938D02*
X220538D01*
X214138D02*
X215838D01*
X208138D02*
X212138D01*
X200338D02*
X203338D01*
X192238D02*
X198138D01*
X185738D02*
X190138D01*
X230438Y139371D02*
X234738D01*
X226338D02*
X228338D01*
X222638D02*
X224338D01*
X217938D02*
X220638D01*
X214238D02*
X215838D01*
X207938D02*
X212138D01*
X200338D02*
X203138D01*
X192238D02*
X198138D01*
X185738D02*
X190138D01*
X230438Y139471D02*
X234738D01*
X226338D02*
X228338D01*
X222638D02*
X224338D01*
X217838D02*
X220638D01*
X214238D02*
X215838D01*
X207738D02*
X212138D01*
X200338D02*
X203038D01*
X192238D02*
X198138D01*
X185738D02*
X190138D01*
X230438Y139571D02*
X234738D01*
X226338D02*
X228338D01*
X222738D02*
X224238D01*
X217838D02*
X220638D01*
X214238D02*
X215738D01*
X207538D02*
X212138D01*
X200338D02*
X202838D01*
X192238D02*
X198138D01*
X185738D02*
X190138D01*
X230438Y139671D02*
X234738D01*
X226338D02*
X228338D01*
X222738D02*
X224238D01*
X217838D02*
X220638D01*
X214238D02*
X215738D01*
X207338D02*
X212238D01*
X200338D02*
X202738D01*
X192238D02*
X198138D01*
X185738D02*
X190138D01*
X230438Y139771D02*
X234738D01*
X226238D02*
X228338D01*
X222738D02*
X224238D01*
X217838D02*
X220738D01*
X214238D02*
X215738D01*
X207138D02*
X212238D01*
X200338D02*
X202638D01*
X192238D02*
X198138D01*
X185738D02*
X190138D01*
X230438Y139871D02*
X234738D01*
X226238D02*
X228338D01*
X222838D02*
X224238D01*
X217738D02*
X220738D01*
X214238D02*
X215738D01*
X206938D02*
X212238D01*
X200338D02*
X202538D01*
X192238D02*
X198138D01*
X185738D02*
X190138D01*
X230438Y139971D02*
X234738D01*
X226238D02*
X228338D01*
X222838D02*
X224238D01*
X217738D02*
X220738D01*
X214238D02*
X215638D01*
X206738D02*
X212238D01*
X200338D02*
X202338D01*
X192238D02*
X198138D01*
X185738D02*
X190138D01*
X230438Y140071D02*
X234738D01*
X226238D02*
X228338D01*
X222838D02*
X224238D01*
X217738D02*
X220838D01*
X214338D02*
X215638D01*
X206538D02*
X212238D01*
X200338D02*
X202238D01*
X192238D02*
X198138D01*
X185738D02*
X190138D01*
X230438Y140171D02*
X234738D01*
X226238D02*
X228338D01*
X222938D02*
X224238D01*
X217638D02*
X220838D01*
X214338D02*
X215638D01*
X206338D02*
X212238D01*
X200338D02*
X202138D01*
X192238D02*
X198138D01*
X185738D02*
X190138D01*
X230438Y140271D02*
X234738D01*
X226238D02*
X228338D01*
X222938D02*
X224138D01*
X217638D02*
X220838D01*
X214338D02*
X215538D01*
X206138D02*
X212238D01*
X200338D02*
X202038D01*
X192238D02*
X198138D01*
X185738D02*
X190138D01*
X230438Y140371D02*
X234738D01*
X226238D02*
X228338D01*
X222938D02*
X224138D01*
X217638D02*
X220938D01*
X214338D02*
X215538D01*
X205938D02*
X212338D01*
X200338D02*
X202038D01*
X192238D02*
X198138D01*
X185738D02*
X190138D01*
X230438Y140471D02*
X234738D01*
X226138D02*
X228338D01*
X223038D02*
X224138D01*
X217538D02*
X220938D01*
X214338D02*
X215538D01*
X205738D02*
X212338D01*
X200338D02*
X201938D01*
X192238D02*
X198138D01*
X185738D02*
X190138D01*
X230438Y140571D02*
X234738D01*
X226138D02*
X228338D01*
X223038D02*
X224138D01*
X217538D02*
X220938D01*
X214338D02*
X215438D01*
X205538D02*
X212338D01*
X200338D02*
X201838D01*
X192238D02*
X198138D01*
X185738D02*
X190138D01*
X230438Y140671D02*
X234738D01*
X226138D02*
X228338D01*
X223038D02*
X224138D01*
X217538D02*
X221038D01*
X214338D02*
X215438D01*
X205338D02*
X212338D01*
X200338D02*
X201738D01*
X192238D02*
X198138D01*
X185738D02*
X190138D01*
X230438Y140771D02*
X234738D01*
X226138D02*
X228338D01*
X223038D02*
X224138D01*
X217438D02*
X221038D01*
X214438D02*
X215438D01*
X205238D02*
X212338D01*
X200338D02*
X201738D01*
X192238D02*
X198138D01*
X185738D02*
X190138D01*
X230438Y140871D02*
X234738D01*
X226138D02*
X228338D01*
X223138D02*
X224138D01*
X217438D02*
X221038D01*
X214438D02*
X215338D01*
X205038D02*
X212338D01*
X200338D02*
X201638D01*
X192238D02*
X198138D01*
X185738D02*
X190138D01*
X230438Y140971D02*
X234738D01*
X226138D02*
X228338D01*
X223138D02*
X224038D01*
X217438D02*
X221038D01*
X214438D02*
X215338D01*
X204838D02*
X212338D01*
X200338D02*
X201538D01*
X192238D02*
X198138D01*
X185738D02*
X190138D01*
X230438Y141071D02*
X234738D01*
X226138D02*
X228338D01*
X223138D02*
X224038D01*
X217338D02*
X221138D01*
X214438D02*
X215338D01*
X204638D02*
X212438D01*
X200338D02*
X201538D01*
X192238D02*
X198138D01*
X185738D02*
X190138D01*
X230438Y141171D02*
X234738D01*
X226038D02*
X228338D01*
X223238D02*
X224038D01*
X217338D02*
X221138D01*
X214438D02*
X215238D01*
X204538D02*
X212438D01*
X200338D02*
X201438D01*
X192238D02*
X198138D01*
X185738D02*
X190138D01*
X230438Y141271D02*
X234738D01*
X226038D02*
X228338D01*
X223238D02*
X224038D01*
X217338D02*
X221138D01*
X214438D02*
X215238D01*
X204338D02*
X212438D01*
X200338D02*
X201438D01*
X192238D02*
X198138D01*
X185738D02*
X190138D01*
X230438Y141371D02*
X234738D01*
X226038D02*
X228338D01*
X223238D02*
X224038D01*
X217238D02*
X221238D01*
X214438D02*
X215238D01*
X204238D02*
X212438D01*
X200338D02*
X201438D01*
X192238D02*
X198138D01*
X185738D02*
X190138D01*
X230438Y141471D02*
X234738D01*
X226038D02*
X228338D01*
X223338D02*
X224038D01*
X217238D02*
X221238D01*
X214538D02*
X215238D01*
X204038D02*
X212438D01*
X200338D02*
X201338D01*
X192238D02*
X198138D01*
X185738D02*
X190138D01*
X230438Y141571D02*
X234738D01*
X226038D02*
X228338D01*
X223338D02*
X224038D01*
X217238D02*
X221238D01*
X214538D02*
X215138D01*
X203938D02*
X212438D01*
X200338D02*
X201338D01*
X192238D02*
X198138D01*
X185738D02*
X190138D01*
X230438Y141671D02*
X234738D01*
X226038D02*
X228338D01*
X223338D02*
X223938D01*
X217238D02*
X221338D01*
X214538D02*
X215138D01*
X203838D02*
X212438D01*
X200338D02*
X201338D01*
X192238D02*
X198138D01*
X185738D02*
X190138D01*
X230438Y141771D02*
X234738D01*
X226038D02*
X228338D01*
X223438D02*
X223938D01*
X217138D02*
X221338D01*
X214538D02*
X215138D01*
X203738D02*
X212538D01*
X200338D02*
X201238D01*
X192238D02*
X198138D01*
X185738D02*
X190138D01*
X230438Y141871D02*
X234738D01*
X225938D02*
X228338D01*
X223438D02*
X223938D01*
X217138D02*
X221338D01*
X214538D02*
X215038D01*
X203638D02*
X212538D01*
X200338D02*
X201238D01*
X192238D02*
X198138D01*
X185738D02*
X190138D01*
X230438Y141971D02*
X234738D01*
X225938D02*
X228338D01*
X223438D02*
X223938D01*
X217138D02*
X221438D01*
X214538D02*
X215038D01*
X203538D02*
X212538D01*
X200338D02*
X201238D01*
X192238D02*
X198138D01*
X185738D02*
X190138D01*
X230438Y142071D02*
X234738D01*
X225938D02*
X228338D01*
X223538D02*
X223938D01*
X217038D02*
X221438D01*
X214538D02*
X215038D01*
X203538D02*
X212538D01*
X200338D02*
X201238D01*
X192238D02*
X198138D01*
X185738D02*
X190138D01*
X230438Y142171D02*
X234738D01*
X225938D02*
X228338D01*
X223538D02*
X223938D01*
X217038D02*
X221438D01*
X214538D02*
X214938D01*
X203438D02*
X212538D01*
X200338D02*
X201238D01*
X192238D02*
X198138D01*
X185738D02*
X190138D01*
X230438Y142271D02*
X234738D01*
X225938D02*
X228338D01*
X223538D02*
X223938D01*
X217038D02*
X221538D01*
X214638D02*
X214938D01*
X203438D02*
X212538D01*
X200338D02*
X201138D01*
X192238D02*
X198138D01*
X185738D02*
X190138D01*
X230438Y142371D02*
X234738D01*
X225938D02*
X228338D01*
X223538D02*
X223838D01*
X216938D02*
X221538D01*
X214638D02*
X214938D01*
X203438D02*
X212538D01*
X200338D02*
X201138D01*
X192238D02*
X198138D01*
X185738D02*
X190138D01*
X230438Y142471D02*
X234738D01*
X225938D02*
X228338D01*
X223638D02*
X223838D01*
X216938D02*
X221538D01*
X214638D02*
X214838D01*
X203338D02*
X212638D01*
X200338D02*
X201138D01*
X192238D02*
X198138D01*
X185738D02*
X190138D01*
X230438Y142571D02*
X234738D01*
X225838D02*
X228338D01*
X223638D02*
X223838D01*
X216938D02*
X221538D01*
X214638D02*
X214838D01*
X203338D02*
X212638D01*
X200338D02*
X201138D01*
X192238D02*
X198138D01*
X185738D02*
X190138D01*
X230438Y142671D02*
X234738D01*
X225838D02*
X228338D01*
X223638D02*
X223838D01*
X216838D02*
X221638D01*
X214638D02*
X214838D01*
X203338D02*
X212638D01*
X200338D02*
X201138D01*
X192238D02*
X198138D01*
X185738D02*
X190138D01*
X230438Y142771D02*
X234738D01*
X225838D02*
X228338D01*
X216838D02*
X221638D01*
X203338D02*
X212638D01*
X200338D02*
X201138D01*
X192238D02*
X198138D01*
X185738D02*
X190138D01*
X230438Y142871D02*
X234738D01*
X225838D02*
X228338D01*
X216838D02*
X221638D01*
X203338D02*
X212638D01*
X200338D02*
X201138D01*
X192238D02*
X198138D01*
X185738D02*
X190138D01*
X230438Y142971D02*
X234738D01*
X225838D02*
X228338D01*
X216738D02*
X221738D01*
X203338D02*
X212638D01*
X200338D02*
X201138D01*
X192238D02*
X198138D01*
X185738D02*
X190138D01*
X230438Y143071D02*
X234738D01*
X225838D02*
X228338D01*
X216738D02*
X221738D01*
X203438D02*
X212638D01*
X200338D02*
X201138D01*
X192238D02*
X198138D01*
X185738D02*
X190138D01*
X230438Y143171D02*
X234738D01*
X225838D02*
X228338D01*
X216738D02*
X221738D01*
X203438D02*
X212738D01*
X200338D02*
X201238D01*
X192238D02*
X198138D01*
X185738D02*
X190138D01*
X230438Y143271D02*
X234738D01*
X225738D02*
X228338D01*
X216738D02*
X221838D01*
X203438D02*
X212738D01*
X200338D02*
X201238D01*
X192238D02*
X198138D01*
X185738D02*
X190138D01*
X230438Y143371D02*
X234738D01*
X225738D02*
X228338D01*
X216638D02*
X221838D01*
X203538D02*
X212738D01*
X200338D02*
X201238D01*
X192238D02*
X198138D01*
X185738D02*
X190138D01*
X230438Y143471D02*
X234738D01*
X225738D02*
X228338D01*
X216638D02*
X221838D01*
X203538D02*
X212738D01*
X200338D02*
X201238D01*
X192238D02*
X198138D01*
X185738D02*
X190138D01*
X230438Y143571D02*
X234738D01*
X225738D02*
X228338D01*
X216638D02*
X221938D01*
X203638D02*
X212738D01*
X200338D02*
X201238D01*
X192238D02*
X198138D01*
X185738D02*
X190138D01*
X230438Y143671D02*
X234738D01*
X225738D02*
X228338D01*
X216538D02*
X221938D01*
X203738D02*
X212738D01*
X200338D02*
X201338D01*
X192238D02*
X198138D01*
X185738D02*
X190138D01*
X230438Y143771D02*
X234738D01*
X225738D02*
X228338D01*
X216538D02*
X221938D01*
X203838D02*
X212738D01*
X200338D02*
X201338D01*
X192238D02*
X198138D01*
X185738D02*
X190138D01*
X230438Y143871D02*
X234738D01*
X225738D02*
X228338D01*
X216538D02*
X221938D01*
X204038D02*
X212838D01*
X200338D02*
X201338D01*
X192238D02*
X198138D01*
X185738D02*
X190138D01*
X230438Y143971D02*
X234738D01*
X225638D02*
X228338D01*
X216438D02*
X222038D01*
X204238D02*
X212838D01*
X200338D02*
X201438D01*
X192238D02*
X198138D01*
X185738D02*
X190138D01*
X230438Y144071D02*
X234738D01*
X225638D02*
X228338D01*
X216438D02*
X222038D01*
X204638D02*
X212838D01*
X200338D02*
X201438D01*
X192238D02*
X198138D01*
X185738D02*
X190138D01*
X230438Y144171D02*
X234738D01*
X225638D02*
X228338D01*
X216438D02*
X222038D01*
X209938D02*
X212838D01*
X200338D02*
X201438D01*
X192238D02*
X198138D01*
X185738D02*
X190138D01*
X230438Y144271D02*
X234738D01*
X225638D02*
X228338D01*
X216338D02*
X222138D01*
X209938D02*
X212838D01*
X200338D02*
X201538D01*
X192238D02*
X198138D01*
X185738D02*
X190138D01*
X230438Y144371D02*
X234738D01*
X225638D02*
X228338D01*
X216338D02*
X222138D01*
X209938D02*
X212838D01*
X200338D02*
X201538D01*
X192238D02*
X198138D01*
X185738D02*
X190138D01*
X230438Y144471D02*
X234738D01*
X225638D02*
X228338D01*
X216338D02*
X222138D01*
X209938D02*
X212838D01*
X200338D02*
X201638D01*
X192238D02*
X198138D01*
X185738D02*
X190138D01*
X230438Y144571D02*
X234738D01*
X225638D02*
X228338D01*
X216238D02*
X222238D01*
X209938D02*
X212938D01*
X200338D02*
X201738D01*
X192238D02*
X198138D01*
X185738D02*
X190138D01*
X230438Y144671D02*
X234738D01*
X225538D02*
X228338D01*
X216238D02*
X222238D01*
X209938D02*
X212938D01*
X200338D02*
X201738D01*
X192238D02*
X198138D01*
X185738D02*
X190138D01*
X230438Y144771D02*
X234738D01*
X225538D02*
X228338D01*
X216238D02*
X222238D01*
X209938D02*
X212938D01*
X200338D02*
X201838D01*
X192238D02*
X198138D01*
X185738D02*
X190138D01*
X230438Y144871D02*
X234738D01*
X225538D02*
X228338D01*
X216238D02*
X222338D01*
X209938D02*
X212938D01*
X200338D02*
X201938D01*
X192238D02*
X198138D01*
X185738D02*
X190138D01*
X230438Y144971D02*
X234738D01*
X225538D02*
X228338D01*
X216138D02*
X222338D01*
X209938D02*
X212938D01*
X200338D02*
X202038D01*
X192238D02*
X198138D01*
X185738D02*
X190138D01*
X230438Y145071D02*
X234738D01*
X225538D02*
X228338D01*
X216138D02*
X222338D01*
X209938D02*
X213038D01*
X200338D02*
X202138D01*
X192238D02*
X198138D01*
X185738D02*
X190138D01*
X230438Y145171D02*
X234738D01*
X225438D02*
X228338D01*
X216138D02*
X222438D01*
X209938D02*
X213038D01*
X200338D02*
X202238D01*
X192238D02*
X198138D01*
X185738D02*
X190138D01*
X230438Y145271D02*
X234738D01*
X225438D02*
X228338D01*
X216038D02*
X222438D01*
X209938D02*
X213038D01*
X200338D02*
X202338D01*
X192238D02*
X198138D01*
X185738D02*
X190138D01*
X230438Y145371D02*
X234738D01*
X225438D02*
X228338D01*
X216038D02*
X222538D01*
X209938D02*
X213138D01*
X200338D02*
X202438D01*
X192238D02*
X198138D01*
X185738D02*
X190138D01*
X230438Y145471D02*
X234738D01*
X225338D02*
X228338D01*
X215938D02*
X222538D01*
X209938D02*
X213138D01*
X200338D02*
X202638D01*
X192238D02*
X198138D01*
X185738D02*
X190138D01*
X230438Y145571D02*
X234738D01*
X225338D02*
X228338D01*
X215938D02*
X222638D01*
X209938D02*
X213238D01*
X200338D02*
X202738D01*
X192238D02*
X198138D01*
X185738D02*
X190138D01*
X230438Y145671D02*
X234738D01*
X225238D02*
X228338D01*
X215838D02*
X222638D01*
X209938D02*
X213238D01*
X200338D02*
X202938D01*
X192238D02*
X198138D01*
X185738D02*
X190138D01*
X230438Y145771D02*
X234738D01*
X225138D02*
X228338D01*
X215738D02*
X222738D01*
X209938D02*
X213338D01*
X200338D02*
X203138D01*
X192238D02*
X198138D01*
X185738D02*
X190138D01*
X230438Y145871D02*
X234738D01*
X225138D02*
X228338D01*
X215738D02*
X222838D01*
X209938D02*
X213338D01*
X200338D02*
X203338D01*
X192238D02*
X198138D01*
X185738D02*
X190138D01*
X230438Y145971D02*
X234738D01*
X225038D02*
X228338D01*
X215638D02*
X222938D01*
X209938D02*
X213438D01*
X200338D02*
X203638D01*
X192238D02*
X198138D01*
X185738D02*
X190138D01*
X230438Y146071D02*
X234738D01*
X224938D02*
X228338D01*
X215538D02*
X223038D01*
X209938D02*
X213538D01*
X200338D02*
X203938D01*
X192238D02*
X198138D01*
X185738D02*
X190138D01*
X230538Y146171D02*
X234738D01*
X224838D02*
X228338D01*
X215338D02*
X223138D01*
X209938D02*
X213738D01*
X200338D02*
X204438D01*
X192238D02*
X198138D01*
X185738D02*
X190138D01*
X224638Y146271D02*
X234738D01*
X215238D02*
X223338D01*
X185738D02*
X213838D01*
X224338Y146371D02*
X234738D01*
X214938D02*
X223538D01*
X185738D02*
X214138D01*
X185738Y146471D02*
X234738D01*
X185738Y146571D02*
X234738D01*
X185738Y146671D02*
X234738D01*
X185738Y146771D02*
X234738D01*
X185738Y146871D02*
X234738D01*
X185738Y146971D02*
X234738D01*
X185738Y147071D02*
X234738D01*
X185738Y147171D02*
X234738D01*
X185738Y147271D02*
X234738D01*
X185738Y147371D02*
X234738D01*
X185738Y147471D02*
X234738D01*
X185738Y147571D02*
X234738D01*
X185738Y147671D02*
X234738D01*
X185738Y147771D02*
X234738D01*
X185738Y147871D02*
X234738D01*
X185738Y147971D02*
X234738D01*
X185738Y148071D02*
X234738D01*
X185738Y148171D02*
X234738D01*
X185738Y148271D02*
X234738D01*
X185738Y148371D02*
X234738D01*
X185738Y148471D02*
X234738D01*
X185738Y148571D02*
X234738D01*
X185738Y148671D02*
X234738D01*
X185738Y148771D02*
X234738D01*
X185838Y148871D02*
X234638D01*
X185838Y148971D02*
X234638D01*
X185938Y149071D02*
X234538D01*
X185938Y149171D02*
X234538D01*
X186038Y149271D02*
X234438D01*
X186138Y149371D02*
X234338D01*
X186238Y149471D02*
X234238D01*
X186338Y149571D02*
X234138D01*
X186438Y149671D02*
X234038D01*
X186538Y149771D02*
X233938D01*
X186738Y149871D02*
X233738D01*
X186938Y149971D02*
X233538D01*
D59*
X494644Y365489D02*
Y385600D01*
D60*
X378000Y361000D02*
X378000Y368000D01*
X364000Y361000D02*
Y368000D01*
X378000Y368000D01*
X364000Y361000D02*
X378000D01*
X364000Y373500D02*
X364000Y380500D01*
X378000Y373500D02*
Y380500D01*
X364000Y373500D02*
X378000Y373500D01*
X364000Y380500D02*
X378000D01*
X364000Y385000D02*
X378000D01*
X364000Y392000D02*
X378000Y392000D01*
X364000Y385000D02*
Y392000D01*
X378000Y385000D02*
X378000Y392000D01*
X364000Y403000D02*
X378000D01*
X364000Y396000D02*
X378000Y396000D01*
Y403000D01*
X364000Y396000D02*
X364000Y403000D01*
D61*
X349500Y312500D02*
X351000D01*
X349000Y313000D02*
X349500Y312500D01*
X349000Y313000D02*
Y317000D01*
X349500Y317500D01*
X350600D01*
X252000Y362000D02*
Y367500D01*
X234000Y362000D02*
X252000D01*
X217000D02*
Y367500D01*
Y362000D02*
X234000D01*
X354465Y193000D02*
X424780D01*
X271465Y193500D02*
X341779D01*
X150150Y110850D02*
X167866D01*
X150150D02*
Y128567D01*
X169835Y193528D02*
X209205D01*
X327315D02*
X366685D01*
X484795D02*
X524165D01*
D62*
X543850Y110850D02*
Y128567D01*
X526134Y110850D02*
X543850D01*
D63*
X420500Y409999D02*
X423166D01*
X421833D01*
Y406000D01*
X424499D02*
Y409999D01*
X426498D01*
X427165Y409332D01*
Y407999D01*
X426498Y407333D01*
X424499D01*
X428497Y406000D02*
X429830D01*
X429164D01*
Y409999D01*
X428497Y409332D01*
X433829Y406000D02*
Y409999D01*
X431830Y407999D01*
X434495D01*
X343000Y387999D02*
X345666D01*
X344333D01*
Y384000D01*
X346999D02*
Y387999D01*
X348998D01*
X349664Y387332D01*
Y385999D01*
X348998Y385333D01*
X346999D01*
X353663Y387999D02*
X350997D01*
Y385999D01*
X352330Y386666D01*
X352997D01*
X353663Y385999D01*
Y384666D01*
X352997Y384000D01*
X351664D01*
X350997Y384666D01*
X383400Y389399D02*
X386066D01*
X384733D01*
Y385400D01*
X387399D02*
Y389399D01*
X389398D01*
X390065Y388732D01*
Y387399D01*
X389398Y386733D01*
X387399D01*
X394063Y385400D02*
X391397D01*
X394063Y388066D01*
Y388732D01*
X393397Y389399D01*
X392064D01*
X391397Y388732D01*
X339900Y282899D02*
X342566D01*
X341233D01*
Y278900D01*
X343899D02*
Y282899D01*
X345898D01*
X346565Y282232D01*
Y280899D01*
X345898Y280233D01*
X343899D01*
X347897Y278900D02*
X349230D01*
X348564D01*
Y282899D01*
X347897Y282232D01*
X353000Y363000D02*
Y366999D01*
X354999D01*
X355666Y366332D01*
Y364999D01*
X354999Y364333D01*
X353000D01*
X354333D02*
X355666Y363000D01*
X356999D02*
X358332D01*
X357665D01*
Y366999D01*
X356999Y366332D01*
X360331D02*
X360997Y366999D01*
X362330D01*
X362997Y366332D01*
Y363666D01*
X362330Y363000D01*
X360997D01*
X360331Y363666D01*
Y366332D01*
X356500Y375000D02*
Y378999D01*
X358499D01*
X359166Y378332D01*
Y376999D01*
X358499Y376333D01*
X356500D01*
X357833D02*
X359166Y375000D01*
X360499Y378999D02*
X363164D01*
Y378332D01*
X360499Y375666D01*
Y375000D01*
X347366Y355532D02*
X346699Y356199D01*
X345366D01*
X344700Y355532D01*
Y352866D01*
X345366Y352200D01*
X346699D01*
X347366Y352866D01*
X348699Y352200D02*
Y356199D01*
X351364Y352200D01*
Y356199D01*
X352697Y352200D02*
X354030D01*
X353364D01*
Y356199D01*
X352697Y355532D01*
X215666Y410499D02*
X213000D01*
Y408499D01*
X214333D01*
X213000D01*
Y406500D01*
X216999D02*
X218332D01*
X217665D01*
Y410499D01*
X216999Y409832D01*
X243500Y217499D02*
Y213500D01*
X245499D01*
X246166Y214166D01*
Y214833D01*
X245499Y215499D01*
X243500D01*
X245499D01*
X246166Y216166D01*
Y216832D01*
X245499Y217499D01*
X243500D01*
X247499Y213500D02*
Y217499D01*
X249498D01*
X250165Y216832D01*
Y215499D01*
X249498Y214833D01*
X247499D01*
X248832D02*
X250165Y213500D01*
X130666Y213332D02*
X129999Y213999D01*
X128666D01*
X128000Y213332D01*
Y210666D01*
X128666Y210000D01*
X129999D01*
X130666Y210666D01*
X131999Y210000D02*
X133332D01*
X132665D01*
Y213999D01*
X131999Y213332D01*
X332666Y373332D02*
X331999Y373999D01*
X330666D01*
X330000Y373332D01*
Y370666D01*
X330666Y370000D01*
X331999D01*
X332666Y370666D01*
X336665Y370000D02*
X333999D01*
X336665Y372666D01*
Y373332D01*
X335998Y373999D01*
X334665D01*
X333999Y373332D01*
X235166Y235332D02*
X234499Y235999D01*
X233166D01*
X232500Y235332D01*
Y232666D01*
X233166Y232000D01*
X234499D01*
X235166Y232666D01*
X236499Y235332D02*
X237165Y235999D01*
X238498D01*
X239164Y235332D01*
Y234666D01*
X238498Y233999D01*
X237832D01*
X238498D01*
X239164Y233333D01*
Y232666D01*
X238498Y232000D01*
X237165D01*
X236499Y232666D01*
X165166Y325832D02*
X164499Y326499D01*
X163166D01*
X162500Y325832D01*
Y323166D01*
X163166Y322500D01*
X164499D01*
X165166Y323166D01*
X168498Y322500D02*
Y326499D01*
X166499Y324499D01*
X169165D01*
X130966Y378632D02*
X130299Y379299D01*
X128966D01*
X128300Y378632D01*
Y375966D01*
X128966Y375300D01*
X130299D01*
X130966Y375966D01*
X134965Y379299D02*
X132299D01*
Y377299D01*
X133632Y377966D01*
X134298D01*
X134965Y377299D01*
Y375966D01*
X134298Y375300D01*
X132965D01*
X132299Y375966D01*
X561666Y258332D02*
X560999Y258999D01*
X559666D01*
X559000Y258332D01*
Y255666D01*
X559666Y255000D01*
X560999D01*
X561666Y255666D01*
X562999D02*
X563665Y255000D01*
X564998D01*
X565664Y255666D01*
Y258332D01*
X564998Y258999D01*
X563665D01*
X562999Y258332D01*
Y257666D01*
X563665Y256999D01*
X565664D01*
X562166Y330832D02*
X561499Y331499D01*
X560166D01*
X559500Y330832D01*
Y328166D01*
X560166Y327500D01*
X561499D01*
X562166Y328166D01*
X563499Y327500D02*
X564832D01*
X564165D01*
Y331499D01*
X563499Y330832D01*
X566831D02*
X567497Y331499D01*
X568830D01*
X569497Y330832D01*
Y328166D01*
X568830Y327500D01*
X567497D01*
X566831Y328166D01*
Y330832D01*
X556166Y400332D02*
X555499Y400999D01*
X554166D01*
X553500Y400332D01*
Y397666D01*
X554166Y397000D01*
X555499D01*
X556166Y397666D01*
X557499Y397000D02*
X558832D01*
X558165D01*
Y400999D01*
X557499Y400332D01*
X560831Y397000D02*
X562164D01*
X561497D01*
Y400999D01*
X560831Y400332D01*
X560966Y182132D02*
X560299Y182799D01*
X558966D01*
X558300Y182132D01*
Y179466D01*
X558966Y178800D01*
X560299D01*
X560966Y179466D01*
X562299Y178800D02*
X563632D01*
X562965D01*
Y182799D01*
X562299Y182132D01*
X567630Y178800D02*
Y182799D01*
X565631Y180799D01*
X568297D01*
X173666Y407332D02*
X172999Y407999D01*
X171667D01*
X171000Y407332D01*
Y404666D01*
X171667Y404000D01*
X172999D01*
X173666Y404666D01*
X174999Y404000D02*
Y407999D01*
X177664Y404000D01*
Y407999D01*
X181663Y404000D02*
X178997D01*
X181663Y406666D01*
Y407332D01*
X180997Y407999D01*
X179664D01*
X178997Y407332D01*
X624168Y149166D02*
X623501Y148499D01*
Y147167D01*
X624168Y146500D01*
X626834D01*
X627500Y147167D01*
Y148499D01*
X626834Y149166D01*
X627500Y150499D02*
X623501D01*
X627500Y153165D01*
X623501D01*
X624168Y154497D02*
X623501Y155164D01*
Y156497D01*
X624168Y157163D01*
X624834D01*
X625501Y156497D01*
Y155830D01*
Y156497D01*
X626167Y157163D01*
X626834D01*
X627500Y156497D01*
Y155164D01*
X626834Y154497D01*
X561166Y115832D02*
X560499Y116499D01*
X559166D01*
X558500Y115832D01*
Y113166D01*
X559166Y112500D01*
X560499D01*
X561166Y113166D01*
X562499Y112500D02*
Y116499D01*
X565165Y112500D01*
Y116499D01*
X568497Y112500D02*
Y116499D01*
X566497Y114499D01*
X569163D01*
X470500Y393499D02*
Y389500D01*
X472499D01*
X473166Y390166D01*
Y392832D01*
X472499Y393499D01*
X470500D01*
X477165D02*
X474499D01*
Y391499D01*
X475832Y392166D01*
X476498D01*
X477165Y391499D01*
Y390166D01*
X476498Y389500D01*
X475165D01*
X474499Y390166D01*
X536000Y218999D02*
Y215000D01*
X537999D01*
X538666Y215666D01*
Y218332D01*
X537999Y218999D01*
X536000D01*
X542664D02*
X541332Y218332D01*
X539999Y216999D01*
Y215666D01*
X540665Y215000D01*
X541998D01*
X542664Y215666D01*
Y216333D01*
X541998Y216999D01*
X539999D01*
X479000Y219499D02*
Y215500D01*
X480999D01*
X481666Y216166D01*
Y218832D01*
X480999Y219499D01*
X479000D01*
X482999D02*
X485665D01*
Y218832D01*
X482999Y216166D01*
Y215500D01*
X169800Y374799D02*
Y370800D01*
X172466D01*
X173799D02*
X175132D01*
X174465D01*
Y374799D01*
X173799Y374132D01*
X384400Y368699D02*
Y364700D01*
X387066D01*
X391065D02*
X388399D01*
X391065Y367366D01*
Y368032D01*
X390398Y368699D01*
X389065D01*
X388399Y368032D01*
X418166Y215666D02*
Y218332D01*
X417499Y218999D01*
X416166D01*
X415500Y218332D01*
Y215666D01*
X416166Y215000D01*
X417499D01*
X416833Y216333D02*
X418166Y215000D01*
X417499D02*
X418166Y215666D01*
X419499Y215000D02*
X420832D01*
X420165D01*
Y218999D01*
X419499Y218332D01*
X332666Y215666D02*
Y218332D01*
X331999Y218999D01*
X330666D01*
X330000Y218332D01*
Y215666D01*
X330666Y215000D01*
X331999D01*
X331333Y216333D02*
X332666Y215000D01*
X331999D02*
X332666Y215666D01*
X336665Y215000D02*
X333999D01*
X336665Y217666D01*
Y218332D01*
X335998Y218999D01*
X334665D01*
X333999Y218332D01*
X399300Y406900D02*
Y410899D01*
X401299D01*
X401966Y410232D01*
Y408899D01*
X401299Y408233D01*
X399300D01*
X400633D02*
X401966Y406900D01*
X405965Y410899D02*
X404632Y410232D01*
X403299Y408899D01*
Y407566D01*
X403965Y406900D01*
X405298D01*
X405965Y407566D01*
Y408233D01*
X405298Y408899D01*
X403299D01*
X166000Y219000D02*
Y222999D01*
X167999D01*
X168666Y222332D01*
Y220999D01*
X167999Y220333D01*
X166000D01*
X167333D02*
X168666Y219000D01*
X169999Y222999D02*
X172664D01*
X171332D01*
Y219000D01*
X173997D02*
X175330D01*
X174664D01*
Y222999D01*
X173997Y222332D01*
X263400Y238399D02*
X266066D01*
X264733D01*
Y234400D01*
X267399D02*
Y238399D01*
X269398D01*
X270064Y237732D01*
Y236399D01*
X269398Y235733D01*
X267399D01*
X274063Y238399D02*
X272730Y237732D01*
X271397Y236399D01*
Y235066D01*
X272064Y234400D01*
X273397D01*
X274063Y235066D01*
Y235733D01*
X273397Y236399D01*
X271397D01*
X126000Y200499D02*
X128666D01*
X127333D01*
Y196500D01*
X129999D02*
Y200499D01*
X131998D01*
X132665Y199832D01*
Y198499D01*
X131998Y197833D01*
X129999D01*
X133997Y200499D02*
X136663D01*
Y199832D01*
X133997Y197167D01*
Y196500D01*
X472900Y241899D02*
X475566D01*
X474233D01*
Y237900D01*
X476899D02*
Y241899D01*
X478898D01*
X479565Y241232D01*
Y239899D01*
X478898Y239233D01*
X476899D01*
X480897Y241232D02*
X481564Y241899D01*
X482897D01*
X483563Y241232D01*
Y240566D01*
X482897Y239899D01*
X483563Y239233D01*
Y238566D01*
X482897Y237900D01*
X481564D01*
X480897Y238566D01*
Y239233D01*
X481564Y239899D01*
X480897Y240566D01*
Y241232D01*
X481564Y239899D02*
X482897D01*
X617400Y198399D02*
X620066D01*
X618733D01*
Y194400D01*
X621399D02*
Y198399D01*
X623398D01*
X624064Y197732D01*
Y196399D01*
X623398Y195733D01*
X621399D01*
X625397Y195066D02*
X626064Y194400D01*
X627397D01*
X628063Y195066D01*
Y197732D01*
X627397Y198399D01*
X626064D01*
X625397Y197732D01*
Y197066D01*
X626064Y196399D01*
X628063D01*
X381500Y410999D02*
X384166D01*
X382833D01*
Y407000D01*
X385499D02*
Y410999D01*
X387498D01*
X388164Y410332D01*
Y408999D01*
X387498Y408333D01*
X385499D01*
X389497Y407000D02*
X390830D01*
X390164D01*
Y410999D01*
X389497Y410332D01*
X395496Y407000D02*
X392830D01*
X395496Y409666D01*
Y410332D01*
X394829Y410999D01*
X393496D01*
X392830Y410332D01*
X595200Y130899D02*
X597866D01*
X596533D01*
Y126900D01*
X599199D02*
Y130899D01*
X601198D01*
X601864Y130232D01*
Y128899D01*
X601198Y128233D01*
X599199D01*
X603197Y126900D02*
X604530D01*
X603864D01*
Y130899D01*
X603197Y130232D01*
X606530D02*
X607196Y130899D01*
X608529D01*
X609196Y130232D01*
Y129566D01*
X608529Y128899D01*
X607863D01*
X608529D01*
X609196Y128233D01*
Y127567D01*
X608529Y126900D01*
X607196D01*
X606530Y127567D01*
X168000Y250999D02*
Y248333D01*
X169333Y247000D01*
X170666Y248333D01*
Y250999D01*
X171999Y247000D02*
Y249666D01*
X173332Y250999D01*
X174664Y249666D01*
Y247000D01*
Y248999D01*
X171999D01*
X175997Y247000D02*
Y250999D01*
X177997D01*
X178663Y250332D01*
Y248999D01*
X177997Y248333D01*
X175997D01*
X177330D02*
X178663Y247000D01*
X152000Y199499D02*
Y195500D01*
Y197499D01*
X154666D01*
Y199499D01*
Y195500D01*
X155999Y199499D02*
X158665D01*
X157332D01*
Y195500D01*
X159997D02*
X161330D01*
X160664D01*
Y199499D01*
X159997Y198832D01*
X356500Y386500D02*
Y390499D01*
X358499D01*
X359166Y389832D01*
Y388499D01*
X358499Y387833D01*
X356500D01*
X357833D02*
X359166Y386500D01*
X360499Y389832D02*
X361165Y390499D01*
X362498D01*
X363164Y389832D01*
Y389166D01*
X362498Y388499D01*
X363164Y387833D01*
Y387166D01*
X362498Y386500D01*
X361165D01*
X360499Y387166D01*
Y387833D01*
X361165Y388499D01*
X360499Y389166D01*
Y389832D01*
X361165Y388499D02*
X362498D01*
X356500Y398000D02*
Y401999D01*
X358499D01*
X359166Y401332D01*
Y399999D01*
X358499Y399333D01*
X356500D01*
X357833D02*
X359166Y398000D01*
X360499Y398666D02*
X361165Y398000D01*
X362498D01*
X363164Y398666D01*
Y401332D01*
X362498Y401999D01*
X361165D01*
X360499Y401332D01*
Y400666D01*
X361165Y399999D01*
X363164D01*
X422200Y239399D02*
X424866D01*
X423533D01*
Y235400D01*
X426199D02*
Y239399D01*
X428198D01*
X428864Y238732D01*
Y237399D01*
X428198Y236733D01*
X426199D01*
X430197Y235400D02*
X431530D01*
X430864D01*
Y239399D01*
X430197Y238732D01*
X433530D02*
X434196Y239399D01*
X435529D01*
X436196Y238732D01*
Y236066D01*
X435529Y235400D01*
X434196D01*
X433530Y236066D01*
Y238732D01*
X345766Y337300D02*
X345100Y336634D01*
Y335301D01*
X345766Y334634D01*
X348432D01*
X349099Y335301D01*
Y336634D01*
X348432Y337300D01*
X347766D01*
X347099Y336634D01*
Y334634D01*
X344700Y295400D02*
Y294067D01*
Y294734D01*
X348699D01*
X348032Y295400D01*
X530000Y220500D02*
X528667D01*
X529334D01*
Y216501D01*
X530000Y217168D01*
X506334Y220500D02*
X509000D01*
X506334Y217834D01*
Y217168D01*
X507001Y216501D01*
X508334D01*
X509000Y217168D01*
X472500Y220500D02*
X471167D01*
X471834D01*
Y216501D01*
X472500Y217168D01*
X448834Y220500D02*
X451500D01*
X448834Y217834D01*
Y217168D01*
X449501Y216501D01*
X450834D01*
X451500Y217168D01*
M02*
