G04 Layer_Physical_Order=4*
G04 Layer_Color=16711680*
%FSLAX25Y25*%
%MOIN*%
G70*
G01*
G75*
%ADD10R,0.04000X0.05000*%
%ADD12C,0.11000*%
%ADD14C,0.02000*%
%ADD15C,0.12000*%
%ADD16C,0.15000*%
%ADD17C,0.10000*%
%ADD19R,0.07874X0.07874*%
%ADD20C,0.07874*%
%ADD21C,0.10630*%
%ADD22C,0.09646*%
%ADD23R,0.09646X0.09646*%
%ADD24C,0.06890*%
%ADD25R,0.06890X0.06890*%
%ADD26C,0.15000*%
%ADD27C,0.11811*%
%ADD28R,0.07874X0.07874*%
%ADD29C,0.10236*%
%ADD30C,0.04724*%
%ADD31R,0.04724X0.04724*%
%ADD32R,0.11811X0.11811*%
%ADD33O,0.12000X0.06969*%
%ADD34R,0.12000X0.06969*%
%ADD35C,0.11969*%
%ADD36R,0.11969X0.11969*%
%ADD37C,0.06299*%
%ADD38R,0.06299X0.06299*%
%ADD39C,0.11024*%
%ADD40R,0.11024X0.11024*%
%ADD41C,0.13780*%
%ADD42C,0.05000*%
%ADD43C,0.03000*%
%ADD44R,0.10799X0.08500*%
%ADD45R,0.04724X0.03347*%
%ADD46R,0.12992X0.05315*%
%ADD47R,0.05000X0.04000*%
%ADD48O,0.04134X0.02362*%
%ADD49R,0.04134X0.02362*%
%ADD50R,0.06299X0.13780*%
%ADD51R,0.05512X0.03937*%
%ADD52R,0.39000X0.12000*%
%ADD53R,0.14500X0.10500*%
G36*
X609530Y408979D02*
X608881Y407920D01*
X608098Y406030D01*
X607620Y404040D01*
X607460Y402000D01*
X607620Y399960D01*
X608098Y397970D01*
X608881Y396080D01*
X609950Y394335D01*
X611279Y392779D01*
X612835Y391450D01*
X614580Y390381D01*
X616470Y389598D01*
X618460Y389120D01*
X620500Y388960D01*
X622540Y389120D01*
X624530Y389598D01*
X626420Y390381D01*
X628165Y391450D01*
X629721Y392779D01*
X630362Y393530D01*
X630862Y393446D01*
Y193165D01*
X630362Y192935D01*
X629377Y193777D01*
X627925Y194666D01*
X626352Y195317D01*
X624697Y195715D01*
X623000Y195848D01*
X621303Y195715D01*
X619648Y195317D01*
X618075Y194666D01*
X616623Y193777D01*
X615329Y192671D01*
X614223Y191376D01*
X613334Y189925D01*
X612683Y188352D01*
X612285Y186697D01*
X612152Y185000D01*
X612285Y183303D01*
X612683Y181648D01*
X613334Y180075D01*
X614223Y178623D01*
X615329Y177329D01*
X616623Y176224D01*
X618075Y175334D01*
X619648Y174683D01*
X621303Y174285D01*
X623000Y174152D01*
X624697Y174285D01*
X626352Y174683D01*
X627925Y175334D01*
X629377Y176224D01*
X630362Y177065D01*
X630862Y176835D01*
Y129834D01*
X628590Y129833D01*
X627165Y131050D01*
X625420Y132119D01*
X623530Y132902D01*
X621540Y133380D01*
X619500Y133540D01*
X617460Y133380D01*
X615470Y132902D01*
X613580Y132119D01*
X611835Y131050D01*
X610279Y129721D01*
X608950Y128165D01*
X607881Y126420D01*
X607098Y124530D01*
X606620Y122540D01*
X606574Y121951D01*
X606060Y121789D01*
X605487Y122487D01*
X604525Y123276D01*
X603428Y123863D01*
X602238Y124224D01*
X601500Y124296D01*
Y118000D01*
Y111704D01*
X602238Y111776D01*
X603428Y112137D01*
X604525Y112724D01*
X605487Y113513D01*
X606276Y114475D01*
X606862Y115572D01*
X606904Y115708D01*
X607403Y115733D01*
X607881Y114580D01*
X608950Y112835D01*
X610279Y111279D01*
X610572Y111029D01*
Y109864D01*
X435406D01*
X435351Y109918D01*
X146351D01*
Y111518D01*
X147050Y112335D01*
X148119Y114080D01*
X148902Y115970D01*
X149380Y117960D01*
X149540Y120000D01*
X149380Y122040D01*
X148902Y124030D01*
X148119Y125920D01*
X147050Y127665D01*
X146351Y128482D01*
Y129918D01*
X144904D01*
X144165Y130550D01*
X142420Y131619D01*
X140530Y132402D01*
X138540Y132880D01*
X136500Y133040D01*
X134460Y132880D01*
X132470Y132402D01*
X130580Y131619D01*
X128835Y130550D01*
X128096Y129918D01*
X126351D01*
X126299Y391305D01*
X126652Y391659D01*
X127811D01*
X129080Y390881D01*
X130970Y390098D01*
X132960Y389620D01*
X135000Y389460D01*
X137040Y389620D01*
X139030Y390098D01*
X140920Y390881D01*
X142189Y391659D01*
X144843D01*
Y394008D01*
X145550Y394835D01*
X146619Y396580D01*
X147402Y398470D01*
X147880Y400460D01*
X148040Y402500D01*
X147880Y404540D01*
X147402Y406530D01*
X146619Y408420D01*
X146276Y408979D01*
X146521Y409415D01*
X366496D01*
D01*
D01*
X383525D01*
X383666Y408915D01*
X382624Y408277D01*
X381329Y407171D01*
X380223Y405876D01*
X379334Y404425D01*
X378683Y402852D01*
X378285Y401197D01*
X378152Y399500D01*
X378285Y397803D01*
X378683Y396148D01*
X379334Y394575D01*
X380223Y393124D01*
X381329Y391829D01*
X382624Y390723D01*
X384075Y389834D01*
X385648Y389183D01*
X387303Y388785D01*
X389000Y388652D01*
X390697Y388785D01*
X392352Y389183D01*
X393925Y389834D01*
X395376Y390723D01*
X396671Y391829D01*
X397777Y393124D01*
X398666Y394575D01*
X399317Y396148D01*
X399715Y397803D01*
X399848Y399500D01*
X399715Y401197D01*
X399317Y402852D01*
X398666Y404425D01*
X397777Y405876D01*
X396671Y407171D01*
X395376Y408277D01*
X394334Y408915D01*
X394475Y409415D01*
X421525D01*
X421666Y408915D01*
X420623Y408277D01*
X419329Y407171D01*
X418223Y405876D01*
X417334Y404425D01*
X416683Y402852D01*
X416285Y401197D01*
X416152Y399500D01*
X416285Y397803D01*
X416683Y396148D01*
X417334Y394575D01*
X418223Y393124D01*
X419329Y391829D01*
X420623Y390723D01*
X422075Y389834D01*
X423648Y389183D01*
X425303Y388785D01*
X427000Y388652D01*
X428697Y388785D01*
X430352Y389183D01*
X431925Y389834D01*
X433377Y390723D01*
X434671Y391829D01*
X435777Y393124D01*
X436666Y394575D01*
X437317Y396148D01*
X437715Y397803D01*
X437848Y399500D01*
X437715Y401197D01*
X437317Y402852D01*
X436666Y404425D01*
X435777Y405876D01*
X434671Y407171D01*
X433377Y408277D01*
X432334Y408915D01*
X432475Y409415D01*
X445094D01*
X445127Y408915D01*
X445086Y408910D01*
X444235Y408557D01*
X443504Y407996D01*
X442943Y407265D01*
X442590Y406414D01*
X442536Y406000D01*
X449464D01*
X449410Y406414D01*
X449057Y407265D01*
X448496Y407996D01*
X447765Y408557D01*
X446914Y408910D01*
X446873Y408915D01*
X446906Y409415D01*
X475594D01*
X475627Y408915D01*
X475586Y408910D01*
X474735Y408557D01*
X474004Y407996D01*
X473443Y407265D01*
X473090Y406414D01*
X473036Y406000D01*
X479964D01*
X479910Y406414D01*
X479557Y407265D01*
X478996Y407996D01*
X478265Y408557D01*
X477414Y408910D01*
X477373Y408915D01*
X477406Y409415D01*
X609286D01*
X609530Y408979D01*
D02*
G37*
%LPC*%
G36*
X344500Y408464D02*
Y405500D01*
X347464D01*
X347410Y405914D01*
X347057Y406765D01*
X346496Y407496D01*
X345765Y408057D01*
X344914Y408410D01*
X344500Y408464D01*
D02*
G37*
G36*
X343500D02*
X343086Y408410D01*
X342235Y408057D01*
X341504Y407496D01*
X340943Y406765D01*
X340590Y405914D01*
X340536Y405500D01*
X343500D01*
Y408464D01*
D02*
G37*
G36*
X291000D02*
Y405500D01*
X293964D01*
X293910Y405914D01*
X293557Y406765D01*
X292996Y407496D01*
X292265Y408057D01*
X291414Y408410D01*
X291000Y408464D01*
D02*
G37*
G36*
X290000D02*
X289586Y408410D01*
X288735Y408057D01*
X288004Y407496D01*
X287443Y406765D01*
X287090Y405914D01*
X287036Y405500D01*
X290000D01*
Y408464D01*
D02*
G37*
G36*
X254500D02*
Y405500D01*
X257464D01*
X257410Y405914D01*
X257057Y406765D01*
X256496Y407496D01*
X255765Y408057D01*
X254914Y408410D01*
X254500Y408464D01*
D02*
G37*
G36*
X253500D02*
X253086Y408410D01*
X252235Y408057D01*
X251504Y407496D01*
X250943Y406765D01*
X250590Y405914D01*
X250536Y405500D01*
X253500D01*
Y408464D01*
D02*
G37*
G36*
X479964Y405000D02*
X477000D01*
Y402036D01*
X477414Y402090D01*
X478265Y402443D01*
X478996Y403004D01*
X479557Y403735D01*
X479910Y404586D01*
X479964Y405000D01*
D02*
G37*
G36*
X476000D02*
X473036D01*
X473090Y404586D01*
X473443Y403735D01*
X474004Y403004D01*
X474735Y402443D01*
X475586Y402090D01*
X476000Y402036D01*
Y405000D01*
D02*
G37*
G36*
X449464D02*
X446500D01*
Y402036D01*
X446914Y402090D01*
X447765Y402443D01*
X448496Y403004D01*
X449057Y403735D01*
X449410Y404586D01*
X449464Y405000D01*
D02*
G37*
G36*
X445500D02*
X442536D01*
X442590Y404586D01*
X442943Y403735D01*
X443504Y403004D01*
X444235Y402443D01*
X445086Y402090D01*
X445500Y402036D01*
Y405000D01*
D02*
G37*
G36*
X347464Y404500D02*
X344500D01*
Y401536D01*
X344914Y401590D01*
X345765Y401943D01*
X346496Y402504D01*
X347057Y403235D01*
X347410Y404086D01*
X347464Y404500D01*
D02*
G37*
G36*
X343500D02*
X340536D01*
X340590Y404086D01*
X340943Y403235D01*
X341504Y402504D01*
X342235Y401943D01*
X343086Y401590D01*
X343500Y401536D01*
Y404500D01*
D02*
G37*
G36*
X293964D02*
X291000D01*
Y401536D01*
X291414Y401590D01*
X292265Y401943D01*
X292996Y402504D01*
X293557Y403235D01*
X293910Y404086D01*
X293964Y404500D01*
D02*
G37*
G36*
X290000D02*
X287036D01*
X287090Y404086D01*
X287443Y403235D01*
X288004Y402504D01*
X288735Y401943D01*
X289586Y401590D01*
X290000Y401536D01*
Y404500D01*
D02*
G37*
G36*
X257464D02*
X254500D01*
Y401536D01*
X254914Y401590D01*
X255765Y401943D01*
X256496Y402504D01*
X257057Y403235D01*
X257410Y404086D01*
X257464Y404500D01*
D02*
G37*
G36*
X253500D02*
X250536D01*
X250590Y404086D01*
X250943Y403235D01*
X251504Y402504D01*
X252235Y401943D01*
X253086Y401590D01*
X253500Y401536D01*
Y404500D01*
D02*
G37*
G36*
X594000Y404464D02*
Y401500D01*
X596964D01*
X596910Y401914D01*
X596557Y402765D01*
X595996Y403496D01*
X595265Y404057D01*
X594414Y404410D01*
X594000Y404464D01*
D02*
G37*
G36*
X593000D02*
X592586Y404410D01*
X591735Y404057D01*
X591004Y403496D01*
X590443Y402765D01*
X590090Y401914D01*
X590036Y401500D01*
X593000D01*
Y404464D01*
D02*
G37*
G36*
X560000D02*
Y401500D01*
X562964D01*
X562910Y401914D01*
X562557Y402765D01*
X561996Y403496D01*
X561265Y404057D01*
X560414Y404410D01*
X560000Y404464D01*
D02*
G37*
G36*
X559000D02*
X558586Y404410D01*
X557735Y404057D01*
X557004Y403496D01*
X556443Y402765D01*
X556090Y401914D01*
X556036Y401500D01*
X559000D01*
Y404464D01*
D02*
G37*
G36*
X523500D02*
Y401500D01*
X526464D01*
X526410Y401914D01*
X526057Y402765D01*
X525496Y403496D01*
X524765Y404057D01*
X523914Y404410D01*
X523500Y404464D01*
D02*
G37*
G36*
X522500D02*
X522086Y404410D01*
X521235Y404057D01*
X520504Y403496D01*
X519943Y402765D01*
X519590Y401914D01*
X519536Y401500D01*
X522500D01*
Y404464D01*
D02*
G37*
G36*
X197870Y403651D02*
X196204Y403520D01*
X194579Y403130D01*
X193035Y402490D01*
X191610Y401617D01*
X190339Y400531D01*
X189253Y399260D01*
X188380Y397835D01*
X188278Y397588D01*
X187778D01*
X187675Y397835D01*
X186802Y399260D01*
X185716Y400531D01*
X184446Y401617D01*
X183020Y402490D01*
X181476Y403130D01*
X179851Y403520D01*
X178185Y403651D01*
X176519Y403520D01*
X174894Y403130D01*
X173350Y402490D01*
X171925Y401617D01*
X170654Y400531D01*
X169568Y399260D01*
X168695Y397835D01*
X168593Y397588D01*
X168093D01*
X167990Y397835D01*
X167117Y399260D01*
X166031Y400531D01*
X164760Y401617D01*
X163335Y402490D01*
X161791Y403130D01*
X160166Y403520D01*
X158500Y403651D01*
X156834Y403520D01*
X155209Y403130D01*
X153665Y402490D01*
X152240Y401617D01*
X150969Y400531D01*
X149883Y399260D01*
X149010Y397835D01*
X148370Y396291D01*
X147980Y394666D01*
X147849Y393000D01*
X147980Y391334D01*
X148370Y389709D01*
X149010Y388165D01*
X149883Y386739D01*
X150969Y385469D01*
X152240Y384383D01*
X153665Y383510D01*
X155209Y382870D01*
X156834Y382480D01*
X158500Y382349D01*
X160166Y382480D01*
X161791Y382870D01*
X163335Y383510D01*
X164760Y384383D01*
X166031Y385469D01*
X167117Y386739D01*
X167990Y388165D01*
X168093Y388412D01*
X168593D01*
X168695Y388165D01*
X169568Y386739D01*
X170654Y385469D01*
X171925Y384383D01*
X173350Y383510D01*
X174894Y382870D01*
X176519Y382480D01*
X178185Y382349D01*
X179851Y382480D01*
X181476Y382870D01*
X183020Y383510D01*
X184446Y384383D01*
X185716Y385469D01*
X186802Y386739D01*
X187675Y388165D01*
X187778Y388412D01*
X188278D01*
X188380Y388165D01*
X189253Y386739D01*
X190339Y385469D01*
X191610Y384383D01*
X193035Y383510D01*
X194579Y382870D01*
X196204Y382480D01*
X197870Y382349D01*
X199536Y382480D01*
X201161Y382870D01*
X202706Y383510D01*
X204131Y384383D01*
X205401Y385469D01*
X206487Y386739D01*
X207360Y388165D01*
X208000Y389709D01*
X208390Y391334D01*
X208521Y393000D01*
X208390Y394666D01*
X208000Y396291D01*
X207360Y397835D01*
X206487Y399260D01*
X205401Y400531D01*
X204131Y401617D01*
X202706Y402490D01*
X201161Y403130D01*
X199536Y403520D01*
X197870Y403651D01*
D02*
G37*
G36*
X596964Y400500D02*
X594000D01*
Y397536D01*
X594414Y397590D01*
X595265Y397943D01*
X595996Y398504D01*
X596557Y399235D01*
X596910Y400086D01*
X596964Y400500D01*
D02*
G37*
G36*
X593000D02*
X590036D01*
X590090Y400086D01*
X590443Y399235D01*
X591004Y398504D01*
X591735Y397943D01*
X592586Y397590D01*
X593000Y397536D01*
Y400500D01*
D02*
G37*
G36*
X562964D02*
X560000D01*
Y397536D01*
X560414Y397590D01*
X561265Y397943D01*
X561996Y398504D01*
X562557Y399235D01*
X562910Y400086D01*
X562964Y400500D01*
D02*
G37*
G36*
X559000D02*
X556036D01*
X556090Y400086D01*
X556443Y399235D01*
X557004Y398504D01*
X557735Y397943D01*
X558586Y397590D01*
X559000Y397536D01*
Y400500D01*
D02*
G37*
G36*
X526464D02*
X523500D01*
Y397536D01*
X523914Y397590D01*
X524765Y397943D01*
X525496Y398504D01*
X526057Y399235D01*
X526410Y400086D01*
X526464Y400500D01*
D02*
G37*
G36*
X522500D02*
X519536D01*
X519590Y400086D01*
X519943Y399235D01*
X520504Y398504D01*
X521235Y397943D01*
X522086Y397590D01*
X522500Y397536D01*
Y400500D01*
D02*
G37*
G36*
X446000Y395464D02*
Y392500D01*
X448964D01*
X448910Y392914D01*
X448557Y393765D01*
X447996Y394496D01*
X447265Y395057D01*
X446414Y395410D01*
X446000Y395464D01*
D02*
G37*
G36*
X445000D02*
X444586Y395410D01*
X443735Y395057D01*
X443004Y394496D01*
X442443Y393765D01*
X442090Y392914D01*
X442036Y392500D01*
X445000D01*
Y395464D01*
D02*
G37*
G36*
X409500Y392964D02*
Y390000D01*
X412464D01*
X412410Y390414D01*
X412057Y391265D01*
X411496Y391996D01*
X410765Y392557D01*
X409914Y392910D01*
X409500Y392964D01*
D02*
G37*
G36*
X408500D02*
X408086Y392910D01*
X407235Y392557D01*
X406504Y391996D01*
X405943Y391265D01*
X405590Y390414D01*
X405536Y390000D01*
X408500D01*
Y392964D01*
D02*
G37*
G36*
X448964Y391500D02*
X446000D01*
Y388536D01*
X446414Y388590D01*
X447265Y388943D01*
X447996Y389504D01*
X448557Y390235D01*
X448910Y391086D01*
X448964Y391500D01*
D02*
G37*
G36*
X445000D02*
X442036D01*
X442090Y391086D01*
X442443Y390235D01*
X443004Y389504D01*
X443735Y388943D01*
X444586Y388590D01*
X445000Y388536D01*
Y391500D01*
D02*
G37*
G36*
X412464Y389000D02*
X409500D01*
Y386036D01*
X409914Y386090D01*
X410765Y386443D01*
X411496Y387004D01*
X412057Y387735D01*
X412410Y388586D01*
X412464Y389000D01*
D02*
G37*
G36*
X408500D02*
X405536D01*
X405590Y388586D01*
X405943Y387735D01*
X406504Y387004D01*
X407235Y386443D01*
X408086Y386090D01*
X408500Y386036D01*
Y389000D01*
D02*
G37*
G36*
X481390Y387249D02*
Y384285D01*
X484354D01*
X484300Y384698D01*
X483947Y385550D01*
X483386Y386281D01*
X482655Y386842D01*
X481804Y387194D01*
X481390Y387249D01*
D02*
G37*
G36*
X480390D02*
X479976Y387194D01*
X479125Y386842D01*
X478394Y386281D01*
X477833Y385550D01*
X477480Y384698D01*
X477426Y384285D01*
X480390D01*
Y387249D01*
D02*
G37*
G36*
X290000Y386964D02*
Y384000D01*
X292964D01*
X292910Y384414D01*
X292557Y385265D01*
X291996Y385996D01*
X291265Y386557D01*
X290414Y386910D01*
X290000Y386964D01*
D02*
G37*
G36*
X289000D02*
X288586Y386910D01*
X287735Y386557D01*
X287004Y385996D01*
X286443Y385265D01*
X286090Y384414D01*
X286036Y384000D01*
X289000D01*
Y386964D01*
D02*
G37*
G36*
X252500Y386464D02*
Y383500D01*
X255464D01*
X255410Y383914D01*
X255057Y384765D01*
X254496Y385496D01*
X253765Y386057D01*
X252914Y386410D01*
X252500Y386464D01*
D02*
G37*
G36*
X251500D02*
X251086Y386410D01*
X250235Y386057D01*
X249504Y385496D01*
X248943Y384765D01*
X248590Y383914D01*
X248536Y383500D01*
X251500D01*
Y386464D01*
D02*
G37*
G36*
X593500Y384464D02*
Y381500D01*
X596464D01*
X596410Y381914D01*
X596057Y382765D01*
X595496Y383496D01*
X594765Y384057D01*
X593914Y384410D01*
X593500Y384464D01*
D02*
G37*
G36*
X592500D02*
X592086Y384410D01*
X591235Y384057D01*
X590504Y383496D01*
X589943Y382765D01*
X589590Y381914D01*
X589536Y381500D01*
X592500D01*
Y384464D01*
D02*
G37*
G36*
X484354Y383285D02*
X481390D01*
Y380320D01*
X481804Y380375D01*
X482655Y380727D01*
X483386Y381288D01*
X483947Y382019D01*
X484300Y382871D01*
X484354Y383285D01*
D02*
G37*
G36*
X480390D02*
X477426D01*
X477480Y382871D01*
X477833Y382019D01*
X478394Y381288D01*
X479125Y380727D01*
X479976Y380375D01*
X480390Y380320D01*
Y383285D01*
D02*
G37*
G36*
X292964Y383000D02*
X290000D01*
Y380036D01*
X290414Y380090D01*
X291265Y380443D01*
X291996Y381004D01*
X292557Y381735D01*
X292910Y382586D01*
X292964Y383000D01*
D02*
G37*
G36*
X289000D02*
X286036D01*
X286090Y382586D01*
X286443Y381735D01*
X287004Y381004D01*
X287735Y380443D01*
X288586Y380090D01*
X289000Y380036D01*
Y383000D01*
D02*
G37*
G36*
X255464Y382500D02*
X252500D01*
Y379536D01*
X252914Y379590D01*
X253765Y379943D01*
X254496Y380504D01*
X255057Y381235D01*
X255410Y382086D01*
X255464Y382500D01*
D02*
G37*
G36*
X251500D02*
X248536D01*
X248590Y382086D01*
X248943Y381235D01*
X249504Y380504D01*
X250235Y379943D01*
X251086Y379590D01*
X251500Y379536D01*
Y382500D01*
D02*
G37*
G36*
X620000Y382464D02*
Y379500D01*
X622964D01*
X622910Y379914D01*
X622557Y380765D01*
X621996Y381496D01*
X621265Y382057D01*
X620414Y382410D01*
X620000Y382464D01*
D02*
G37*
G36*
X619000D02*
X618586Y382410D01*
X617735Y382057D01*
X617004Y381496D01*
X616443Y380765D01*
X616090Y379914D01*
X616036Y379500D01*
X619000D01*
Y382464D01*
D02*
G37*
G36*
X236405Y401905D02*
X213595D01*
Y379095D01*
X236405D01*
Y401905D01*
D02*
G37*
G36*
X323425Y401941D02*
X321636Y401800D01*
X319890Y401381D01*
X318231Y400694D01*
X316701Y399756D01*
X315335Y398590D01*
X314169Y397225D01*
X313231Y395694D01*
X312544Y394035D01*
X312125Y392290D01*
X311984Y390500D01*
X312125Y388710D01*
X312544Y386965D01*
X313231Y385306D01*
X314169Y383775D01*
X315335Y382410D01*
X316701Y381244D01*
X318231Y380306D01*
X319890Y379619D01*
X321636Y379200D01*
X323425Y379059D01*
X325215Y379200D01*
X326961Y379619D01*
X328619Y380306D01*
X330150Y381244D01*
X331515Y382410D01*
X332681Y383775D01*
X333619Y385306D01*
X334306Y386965D01*
X334725Y388710D01*
X334866Y390500D01*
X334725Y392290D01*
X334306Y394035D01*
X333619Y395694D01*
X332681Y397225D01*
X331515Y398590D01*
X330150Y399756D01*
X328619Y400694D01*
X326961Y401381D01*
X325215Y401800D01*
X323425Y401941D01*
D02*
G37*
G36*
X596464Y380500D02*
X593500D01*
Y377536D01*
X593914Y377590D01*
X594765Y377943D01*
X595496Y378504D01*
X596057Y379235D01*
X596410Y380086D01*
X596464Y380500D01*
D02*
G37*
G36*
X592500D02*
X589536D01*
X589590Y380086D01*
X589943Y379235D01*
X590504Y378504D01*
X591235Y377943D01*
X592086Y377590D01*
X592500Y377536D01*
Y380500D01*
D02*
G37*
G36*
X389500Y382296D02*
Y376500D01*
X395296D01*
X395224Y377238D01*
X394863Y378428D01*
X394276Y379525D01*
X393487Y380487D01*
X392525Y381276D01*
X391428Y381862D01*
X390238Y382224D01*
X389500Y382296D01*
D02*
G37*
G36*
X388500D02*
X387762Y382224D01*
X386572Y381862D01*
X385475Y381276D01*
X384513Y380487D01*
X383724Y379525D01*
X383137Y378428D01*
X382776Y377238D01*
X382704Y376500D01*
X388500D01*
Y382296D01*
D02*
G37*
G36*
X622964Y378500D02*
X620000D01*
Y375536D01*
X620414Y375590D01*
X621265Y375943D01*
X621996Y376504D01*
X622557Y377235D01*
X622910Y378086D01*
X622964Y378500D01*
D02*
G37*
G36*
X619000D02*
X616036D01*
X616090Y378086D01*
X616443Y377235D01*
X617004Y376504D01*
X617735Y375943D01*
X618586Y375590D01*
X619000Y375536D01*
Y378500D01*
D02*
G37*
G36*
X395296Y375500D02*
X389500D01*
Y369704D01*
X390238Y369776D01*
X391428Y370138D01*
X392525Y370724D01*
X393487Y371513D01*
X394276Y372475D01*
X394863Y373572D01*
X395224Y374762D01*
X395296Y375500D01*
D02*
G37*
G36*
X388500D02*
X382704D01*
X382776Y374762D01*
X383137Y373572D01*
X383724Y372475D01*
X384513Y371513D01*
X385475Y370724D01*
X386572Y370138D01*
X387762Y369776D01*
X388500Y369704D01*
Y375500D01*
D02*
G37*
G36*
X606512Y372914D02*
Y368500D01*
X610926D01*
X610822Y369289D01*
X610324Y370490D01*
X609533Y371521D01*
X608502Y372312D01*
X607301Y372810D01*
X606512Y372914D01*
D02*
G37*
G36*
X605512D02*
X604723Y372810D01*
X603522Y372312D01*
X602491Y371521D01*
X601699Y370490D01*
X601202Y369289D01*
X601098Y368500D01*
X605512D01*
Y372914D01*
D02*
G37*
G36*
X524063Y385823D02*
X503417D01*
Y365177D01*
X524063D01*
Y385823D01*
D02*
G37*
G36*
X350000Y386848D02*
X348303Y386715D01*
X346648Y386317D01*
X345075Y385666D01*
X343623Y384776D01*
X342329Y383671D01*
X341224Y382377D01*
X340334Y380925D01*
X339683Y379352D01*
X339285Y377697D01*
X339152Y376000D01*
X339285Y374303D01*
X339683Y372648D01*
X340334Y371075D01*
X341224Y369623D01*
X342329Y368329D01*
X343623Y367224D01*
X345075Y366334D01*
X346648Y365683D01*
X348303Y365285D01*
X350000Y365152D01*
X351697Y365285D01*
X353352Y365683D01*
X354925Y366334D01*
X356377Y367224D01*
X357671Y368329D01*
X358776Y369623D01*
X359666Y371075D01*
X360317Y372648D01*
X360715Y374303D01*
X360848Y376000D01*
X360715Y377697D01*
X360317Y379352D01*
X359666Y380925D01*
X358776Y382377D01*
X357671Y383671D01*
X356377Y384776D01*
X354925Y385666D01*
X353352Y386317D01*
X351697Y386715D01*
X350000Y386848D01*
D02*
G37*
G36*
X435000Y385873D02*
X432976Y385673D01*
X431031Y385083D01*
X429237Y384125D01*
X427665Y382835D01*
X426375Y381263D01*
X425417Y379469D01*
X424826Y377524D01*
X424627Y375500D01*
X424826Y373476D01*
X425417Y371531D01*
X426375Y369737D01*
X427665Y368165D01*
X429237Y366875D01*
X431031Y365917D01*
X432976Y365326D01*
X435000Y365127D01*
X437024Y365326D01*
X438970Y365917D01*
X440763Y366875D01*
X442335Y368165D01*
X443625Y369737D01*
X444583Y371531D01*
X445174Y373476D01*
X445373Y375500D01*
X445174Y377524D01*
X444583Y379469D01*
X443625Y381263D01*
X442335Y382835D01*
X440763Y384125D01*
X438970Y385083D01*
X437024Y385673D01*
X435000Y385873D01*
D02*
G37*
G36*
X610926Y367500D02*
X606512D01*
Y363086D01*
X607301Y363190D01*
X608502Y363687D01*
X609533Y364479D01*
X610324Y365510D01*
X610822Y366711D01*
X610926Y367500D01*
D02*
G37*
G36*
X605512D02*
X601098D01*
X601202Y366711D01*
X601699Y365510D01*
X602491Y364479D01*
X603522Y363687D01*
X604723Y363190D01*
X605512Y363086D01*
Y367500D01*
D02*
G37*
G36*
X167437Y374437D02*
X148563D01*
Y355563D01*
X167437D01*
Y374437D01*
D02*
G37*
G36*
X146437D02*
X127563D01*
Y355563D01*
X146437D01*
Y374437D01*
D02*
G37*
G36*
X476000Y356464D02*
Y353500D01*
X478964D01*
X478910Y353914D01*
X478557Y354765D01*
X477996Y355496D01*
X477265Y356057D01*
X476414Y356410D01*
X476000Y356464D01*
D02*
G37*
G36*
X475000D02*
X474586Y356410D01*
X473735Y356057D01*
X473004Y355496D01*
X472443Y354765D01*
X472090Y353914D01*
X472036Y353500D01*
X475000D01*
Y356464D01*
D02*
G37*
G36*
X478964Y352500D02*
X476000D01*
Y349536D01*
X476414Y349590D01*
X477265Y349943D01*
X477996Y350504D01*
X478557Y351235D01*
X478910Y352086D01*
X478964Y352500D01*
D02*
G37*
G36*
X475000D02*
X472036D01*
X472090Y352086D01*
X472443Y351235D01*
X473004Y350504D01*
X473735Y349943D01*
X474586Y349590D01*
X475000Y349536D01*
Y352500D01*
D02*
G37*
G36*
X320500Y363774D02*
X318804Y363607D01*
X317174Y363112D01*
X315671Y362309D01*
X314354Y361228D01*
X313273Y359911D01*
X312470Y358409D01*
X311976Y356778D01*
X311809Y355083D01*
X311976Y353387D01*
X312470Y351757D01*
X313273Y350254D01*
X314354Y348937D01*
X315671Y347856D01*
X317174Y347053D01*
X318804Y346558D01*
X320500Y346391D01*
X322196Y346558D01*
X323826Y347053D01*
X325329Y347856D01*
X326646Y348937D01*
X327727Y350254D01*
X328530Y351757D01*
X329024Y353387D01*
X329191Y355083D01*
X329024Y356778D01*
X328530Y358409D01*
X327727Y359911D01*
X326646Y361228D01*
X325329Y362309D01*
X323826Y363112D01*
X322196Y363607D01*
X320500Y363774D01*
D02*
G37*
G36*
X290905Y363906D02*
X268094D01*
Y341094D01*
X290905D01*
Y363906D01*
D02*
G37*
G36*
X189500Y363941D02*
X187710Y363800D01*
X185965Y363381D01*
X184306Y362694D01*
X182775Y361756D01*
X181410Y360590D01*
X180244Y359225D01*
X179306Y357694D01*
X178619Y356035D01*
X178200Y354290D01*
X178059Y352500D01*
X178200Y350710D01*
X178619Y348965D01*
X179306Y347306D01*
X180244Y345775D01*
X181410Y344410D01*
X182775Y343244D01*
X184306Y342306D01*
X185965Y341619D01*
X187710Y341200D01*
X189500Y341059D01*
X191290Y341200D01*
X193035Y341619D01*
X194694Y342306D01*
X196225Y343244D01*
X197590Y344410D01*
X198756Y345775D01*
X199694Y347306D01*
X200381Y348965D01*
X200800Y350710D01*
X200941Y352500D01*
X200800Y354290D01*
X200381Y356035D01*
X199694Y357694D01*
X198756Y359225D01*
X197590Y360590D01*
X196225Y361756D01*
X194694Y362694D01*
X193035Y363381D01*
X191290Y363800D01*
X189500Y363941D01*
D02*
G37*
G36*
X529000Y360520D02*
X527210Y360379D01*
X525465Y359960D01*
X523806Y359273D01*
X522275Y358334D01*
X520910Y357169D01*
X519744Y355803D01*
X518806Y354273D01*
X518119Y352614D01*
X517700Y350869D01*
X517559Y349079D01*
X517700Y347289D01*
X518119Y345543D01*
X518806Y343885D01*
X519744Y342354D01*
X520910Y340989D01*
X522275Y339823D01*
X523806Y338885D01*
X525465Y338198D01*
X527210Y337779D01*
X529000Y337638D01*
X530790Y337779D01*
X532535Y338198D01*
X534194Y338885D01*
X535725Y339823D01*
X537090Y340989D01*
X538256Y342354D01*
X539194Y343885D01*
X539881Y345543D01*
X540300Y347289D01*
X540441Y349079D01*
X540300Y350869D01*
X539881Y352614D01*
X539194Y354273D01*
X538256Y355803D01*
X537090Y357169D01*
X535725Y358334D01*
X534194Y359273D01*
X532535Y359960D01*
X530790Y360379D01*
X529000Y360520D01*
D02*
G37*
G36*
X409000D02*
X407210Y360379D01*
X405465Y359960D01*
X403806Y359273D01*
X402275Y358334D01*
X400910Y357169D01*
X399744Y355803D01*
X398806Y354273D01*
X398119Y352614D01*
X397700Y350869D01*
X397559Y349079D01*
X397700Y347289D01*
X398119Y345543D01*
X398806Y343885D01*
X399744Y342354D01*
X400910Y340989D01*
X402275Y339823D01*
X403806Y338885D01*
X405465Y338198D01*
X407210Y337779D01*
X409000Y337638D01*
X410790Y337779D01*
X412535Y338198D01*
X414194Y338885D01*
X415725Y339823D01*
X417090Y340989D01*
X418256Y342354D01*
X419194Y343885D01*
X419881Y345543D01*
X420300Y347289D01*
X420441Y349079D01*
X420300Y350869D01*
X419881Y352614D01*
X419194Y354273D01*
X418256Y355803D01*
X417090Y357169D01*
X415725Y358334D01*
X414194Y359273D01*
X412535Y359960D01*
X410790Y360379D01*
X409000Y360520D01*
D02*
G37*
G36*
X249000Y337464D02*
Y334500D01*
X251964D01*
X251910Y334914D01*
X251557Y335765D01*
X250996Y336496D01*
X250265Y337057D01*
X249414Y337410D01*
X249000Y337464D01*
D02*
G37*
G36*
X248000D02*
X247586Y337410D01*
X246735Y337057D01*
X246004Y336496D01*
X245443Y335765D01*
X245090Y334914D01*
X245036Y334500D01*
X248000D01*
Y337464D01*
D02*
G37*
G36*
X289000Y335464D02*
Y332500D01*
X291964D01*
X291910Y332914D01*
X291557Y333765D01*
X290996Y334496D01*
X290265Y335057D01*
X289414Y335410D01*
X289000Y335464D01*
D02*
G37*
G36*
X288000D02*
X287586Y335410D01*
X286735Y335057D01*
X286004Y334496D01*
X285443Y333765D01*
X285090Y332914D01*
X285036Y332500D01*
X288000D01*
Y335464D01*
D02*
G37*
G36*
X603827Y338890D02*
X600177D01*
Y331500D01*
X603827D01*
Y338890D01*
D02*
G37*
G36*
X319000Y334464D02*
Y331500D01*
X321964D01*
X321910Y331914D01*
X321557Y332765D01*
X320996Y333496D01*
X320265Y334057D01*
X319414Y334410D01*
X319000Y334464D01*
D02*
G37*
G36*
X318000D02*
X317586Y334410D01*
X316735Y334057D01*
X316004Y333496D01*
X315443Y332765D01*
X315090Y331914D01*
X315036Y331500D01*
X318000D01*
Y334464D01*
D02*
G37*
G36*
X619500Y333964D02*
Y331000D01*
X622464D01*
X622410Y331414D01*
X622057Y332265D01*
X621496Y332996D01*
X620765Y333557D01*
X619914Y333910D01*
X619500Y333964D01*
D02*
G37*
G36*
X618500D02*
X618086Y333910D01*
X617235Y333557D01*
X616504Y332996D01*
X615943Y332265D01*
X615590Y331414D01*
X615536Y331000D01*
X618500D01*
Y333964D01*
D02*
G37*
G36*
X251964Y333500D02*
X249000D01*
Y330536D01*
X249414Y330590D01*
X250265Y330943D01*
X250996Y331504D01*
X251557Y332235D01*
X251910Y333086D01*
X251964Y333500D01*
D02*
G37*
G36*
X248000D02*
X245036D01*
X245090Y333086D01*
X245443Y332235D01*
X246004Y331504D01*
X246735Y330943D01*
X247586Y330590D01*
X248000Y330536D01*
Y333500D01*
D02*
G37*
G36*
X495500Y333464D02*
Y330500D01*
X498464D01*
X498410Y330914D01*
X498057Y331765D01*
X497496Y332496D01*
X496765Y333057D01*
X495914Y333410D01*
X495500Y333464D01*
D02*
G37*
G36*
X494500D02*
X494086Y333410D01*
X493235Y333057D01*
X492504Y332496D01*
X491943Y331765D01*
X491590Y330914D01*
X491536Y330500D01*
X494500D01*
Y333464D01*
D02*
G37*
G36*
X447500D02*
Y330500D01*
X450464D01*
X450410Y330914D01*
X450057Y331765D01*
X449496Y332496D01*
X448765Y333057D01*
X447914Y333410D01*
X447500Y333464D01*
D02*
G37*
G36*
X446500D02*
X446086Y333410D01*
X445235Y333057D01*
X444504Y332496D01*
X443943Y331765D01*
X443590Y330914D01*
X443536Y330500D01*
X446500D01*
Y333464D01*
D02*
G37*
G36*
X291964Y331500D02*
X289000D01*
Y328536D01*
X289414Y328590D01*
X290265Y328943D01*
X290996Y329504D01*
X291557Y330235D01*
X291910Y331086D01*
X291964Y331500D01*
D02*
G37*
G36*
X288000D02*
X285036D01*
X285090Y331086D01*
X285443Y330235D01*
X286004Y329504D01*
X286735Y328943D01*
X287586Y328590D01*
X288000Y328536D01*
Y331500D01*
D02*
G37*
G36*
X321964Y330500D02*
X319000D01*
Y327536D01*
X319414Y327590D01*
X320265Y327943D01*
X320996Y328504D01*
X321557Y329235D01*
X321910Y330086D01*
X321964Y330500D01*
D02*
G37*
G36*
X318000D02*
X315036D01*
X315090Y330086D01*
X315443Y329235D01*
X316004Y328504D01*
X316735Y327943D01*
X317586Y327590D01*
X318000Y327536D01*
Y330500D01*
D02*
G37*
G36*
X622464Y330000D02*
X619500D01*
Y327036D01*
X619914Y327090D01*
X620765Y327443D01*
X621496Y328004D01*
X622057Y328735D01*
X622410Y329586D01*
X622464Y330000D01*
D02*
G37*
G36*
X618500D02*
X615536D01*
X615590Y329586D01*
X615943Y328735D01*
X616504Y328004D01*
X617235Y327443D01*
X618086Y327090D01*
X618500Y327036D01*
Y330000D01*
D02*
G37*
G36*
X498464Y329500D02*
X495500D01*
Y326536D01*
X495914Y326590D01*
X496765Y326943D01*
X497496Y327504D01*
X498057Y328235D01*
X498410Y329086D01*
X498464Y329500D01*
D02*
G37*
G36*
X494500D02*
X491536D01*
X491590Y329086D01*
X491943Y328235D01*
X492504Y327504D01*
X493235Y326943D01*
X494086Y326590D01*
X494500Y326536D01*
Y329500D01*
D02*
G37*
G36*
X450464D02*
X447500D01*
Y326536D01*
X447914Y326590D01*
X448765Y326943D01*
X449496Y327504D01*
X450057Y328235D01*
X450410Y329086D01*
X450464Y329500D01*
D02*
G37*
G36*
X446500D02*
X443536D01*
X443590Y329086D01*
X443943Y328235D01*
X444504Y327504D01*
X445235Y326943D01*
X446086Y326590D01*
X446500Y326536D01*
Y329500D01*
D02*
G37*
G36*
X158000Y346005D02*
X156352Y345875D01*
X154745Y345489D01*
X153218Y344857D01*
X151809Y343993D01*
X150552Y342920D01*
X149479Y341663D01*
X148616Y340254D01*
X147983Y338727D01*
X147597Y337120D01*
X147468Y335472D01*
X147597Y333825D01*
X147983Y332218D01*
X148616Y330691D01*
X149479Y329282D01*
X150552Y328025D01*
X152966Y325611D01*
X152774Y325150D01*
X151810D01*
X151486Y325427D01*
X150009Y326331D01*
X148410Y326994D01*
X146726Y327398D01*
X145000Y327534D01*
X143274Y327398D01*
X142640Y327246D01*
X142411Y327705D01*
X143705Y328767D01*
X144885Y330204D01*
X145761Y331844D01*
X146300Y333623D01*
X146483Y335472D01*
X146300Y337322D01*
X145761Y339101D01*
X144885Y340741D01*
X143705Y342178D01*
X142268Y343357D01*
X140629Y344233D01*
X138850Y344773D01*
X137000Y344955D01*
X135150Y344773D01*
X133371Y344233D01*
X131732Y343357D01*
X130295Y342178D01*
X129115Y340741D01*
X128239Y339101D01*
X127699Y337322D01*
X127517Y335472D01*
X127699Y333623D01*
X128239Y331844D01*
X129115Y330204D01*
X130295Y328767D01*
X131732Y327588D01*
X133371Y326712D01*
X135150Y326172D01*
X137000Y325990D01*
X138272Y326115D01*
X138723Y325657D01*
X138710Y325547D01*
X138514Y325427D01*
X138190Y325150D01*
X136350D01*
Y323310D01*
X136073Y322986D01*
X135169Y321509D01*
X134506Y319910D01*
X134102Y318226D01*
X133966Y316500D01*
X134102Y314774D01*
X134506Y313090D01*
X134966Y311980D01*
Y286500D01*
X135102Y284774D01*
X135506Y283090D01*
X136169Y281491D01*
X137073Y280014D01*
X138198Y278698D01*
X148698Y268198D01*
X150014Y267073D01*
X151491Y266169D01*
X152153Y265894D01*
X153090Y265506D01*
X154774Y265102D01*
X156500Y264966D01*
X171563D01*
Y249063D01*
X186966D01*
Y244090D01*
X186530Y243845D01*
X185719Y244342D01*
X184118Y245005D01*
X182433Y245410D01*
X180705Y245546D01*
X178977Y245410D01*
X177291Y245005D01*
X175690Y244342D01*
X174212Y243436D01*
X172894Y242311D01*
X171768Y240993D01*
X170863Y239515D01*
X170200Y237913D01*
X169795Y236228D01*
X169659Y234500D01*
X169795Y232772D01*
X170200Y231087D01*
X170863Y229485D01*
X171768Y228007D01*
X172894Y226689D01*
X174212Y225564D01*
X175690Y224658D01*
X177291Y223995D01*
X178977Y223590D01*
X180705Y223454D01*
X182433Y223590D01*
X184118Y223995D01*
X185719Y224658D01*
X186530Y225155D01*
X186966Y224910D01*
Y218500D01*
X187102Y216774D01*
X187506Y215090D01*
X188169Y213491D01*
X189073Y212014D01*
X189614Y211381D01*
X189286Y210996D01*
X188147Y211694D01*
X186488Y212381D01*
X184742Y212800D01*
X182953Y212941D01*
X181163Y212800D01*
X179417Y212381D01*
X177759Y211694D01*
X176228Y210756D01*
X174863Y209590D01*
X173697Y208225D01*
X172759Y206694D01*
X172072Y205035D01*
X171653Y203290D01*
X171512Y201500D01*
X171653Y199710D01*
X172072Y197965D01*
X172759Y196306D01*
X173697Y194775D01*
X174863Y193410D01*
X176228Y192244D01*
X177759Y191306D01*
X179417Y190619D01*
X181163Y190200D01*
X182953Y190059D01*
X184742Y190200D01*
X186488Y190619D01*
X188147Y191306D01*
X189678Y192244D01*
X191043Y193410D01*
X192161Y194719D01*
X192461Y194761D01*
X192761Y194719D01*
X193879Y193410D01*
X195244Y192244D01*
X196774Y191306D01*
X198433Y190619D01*
X200179Y190200D01*
X201969Y190059D01*
X203758Y190200D01*
X205504Y190619D01*
X207162Y191306D01*
X208693Y192244D01*
X210058Y193410D01*
X211176Y194719D01*
X211476Y194761D01*
X211776Y194719D01*
X212894Y193410D01*
X214260Y192244D01*
X215790Y191306D01*
X217449Y190619D01*
X219195Y190200D01*
X220984Y190059D01*
X222774Y190200D01*
X224520Y190619D01*
X226178Y191306D01*
X227709Y192244D01*
X228140Y192613D01*
X228594Y192403D01*
Y190094D01*
X251406D01*
Y212906D01*
X232518D01*
Y226516D01*
X232382Y228242D01*
X231978Y229925D01*
X231590Y230862D01*
X231316Y231525D01*
X230411Y233001D01*
X229287Y234318D01*
X224512Y239093D01*
Y245512D01*
X213782D01*
X213500Y245534D01*
X213218Y245512D01*
X209034D01*
Y257454D01*
X209404Y257789D01*
X210528Y257679D01*
X212378Y257861D01*
X214156Y258401D01*
X215796Y259277D01*
X217233Y260456D01*
X218412Y261893D01*
X219288Y263533D01*
X219828Y265311D01*
X220010Y267161D01*
X219828Y269011D01*
X219288Y270790D01*
X218412Y272430D01*
X217233Y273867D01*
X215796Y275046D01*
X214207Y275895D01*
X214081Y276156D01*
X214017Y276413D01*
X219070Y281466D01*
X276603D01*
X277710Y281200D01*
X279500Y281059D01*
X281290Y281200D01*
X283035Y281619D01*
X284694Y282306D01*
X286225Y283244D01*
X287590Y284410D01*
X288756Y285775D01*
X289694Y287306D01*
X290381Y288965D01*
X290800Y290710D01*
X290941Y292500D01*
X290800Y294290D01*
X290381Y296035D01*
X289694Y297694D01*
X288756Y299225D01*
X287590Y300590D01*
X286225Y301756D01*
X284694Y302694D01*
X283035Y303381D01*
X281290Y303800D01*
X279500Y303941D01*
X277710Y303800D01*
X276603Y303534D01*
X214500D01*
X212774Y303398D01*
X211090Y302994D01*
X210153Y302606D01*
X209491Y302331D01*
X208014Y301427D01*
X206698Y300302D01*
X201139Y294744D01*
X200658Y294880D01*
X200381Y296035D01*
X199694Y297694D01*
X198756Y299225D01*
X197590Y300590D01*
X196225Y301756D01*
X194694Y302694D01*
X193035Y303381D01*
X193008Y303387D01*
X176532Y319863D01*
Y327472D01*
X176403Y329120D01*
X176017Y330727D01*
X175384Y332254D01*
X174521Y333663D01*
X173448Y334920D01*
X165448Y342920D01*
X164191Y343993D01*
X162782Y344857D01*
X161255Y345489D01*
X159648Y345875D01*
X158000Y346005D01*
D02*
G37*
G36*
X603827Y330500D02*
X600177D01*
Y323110D01*
X603827D01*
Y330500D01*
D02*
G37*
G36*
X575500Y379536D02*
X573695Y379394D01*
X571935Y378971D01*
X570263Y378278D01*
X568890Y377437D01*
X566063D01*
Y374610D01*
X565222Y373237D01*
X564529Y371565D01*
X564107Y369805D01*
X563964Y368000D01*
Y339823D01*
X564107Y338018D01*
X564529Y336258D01*
X565222Y334586D01*
X566167Y333042D01*
X567343Y331666D01*
X575673Y323336D01*
Y318610D01*
X592972D01*
Y323420D01*
X593655Y324220D01*
X594601Y325763D01*
X595028Y326793D01*
X595528Y326693D01*
Y323110D01*
X599177D01*
Y331000D01*
Y338890D01*
X595528D01*
Y335307D01*
X595028Y335208D01*
X594601Y336237D01*
X593655Y337780D01*
X592972Y338580D01*
Y343390D01*
X588247D01*
X587036Y344601D01*
Y368000D01*
X586894Y369805D01*
X586471Y371565D01*
X585778Y373237D01*
X584937Y374610D01*
Y377437D01*
X582110D01*
X580737Y378278D01*
X579065Y378971D01*
X577305Y379394D01*
X575500Y379536D01*
D02*
G37*
G36*
X563000Y325964D02*
Y323000D01*
X565964D01*
X565910Y323414D01*
X565557Y324265D01*
X564996Y324996D01*
X564265Y325557D01*
X563414Y325910D01*
X563000Y325964D01*
D02*
G37*
G36*
X562000D02*
X561586Y325910D01*
X560735Y325557D01*
X560004Y324996D01*
X559443Y324265D01*
X559090Y323414D01*
X559036Y323000D01*
X562000D01*
Y325964D01*
D02*
G37*
G36*
X198000Y324964D02*
Y322000D01*
X200964D01*
X200910Y322414D01*
X200557Y323265D01*
X199996Y323996D01*
X199265Y324557D01*
X198414Y324910D01*
X198000Y324964D01*
D02*
G37*
G36*
X197000D02*
X196586Y324910D01*
X195735Y324557D01*
X195004Y323996D01*
X194443Y323265D01*
X194090Y322414D01*
X194036Y322000D01*
X197000D01*
Y324964D01*
D02*
G37*
G36*
X534500Y324464D02*
Y321500D01*
X537464D01*
X537410Y321914D01*
X537057Y322765D01*
X536496Y323496D01*
X535765Y324057D01*
X534914Y324410D01*
X534500Y324464D01*
D02*
G37*
G36*
X533500D02*
X533086Y324410D01*
X532235Y324057D01*
X531504Y323496D01*
X530943Y322765D01*
X530590Y321914D01*
X530536Y321500D01*
X533500D01*
Y324464D01*
D02*
G37*
G36*
X565964Y322000D02*
X563000D01*
Y319036D01*
X563414Y319090D01*
X564265Y319443D01*
X564996Y320004D01*
X565557Y320735D01*
X565910Y321586D01*
X565964Y322000D01*
D02*
G37*
G36*
X562000D02*
X559036D01*
X559090Y321586D01*
X559443Y320735D01*
X560004Y320004D01*
X560735Y319443D01*
X561586Y319090D01*
X562000Y319036D01*
Y322000D01*
D02*
G37*
G36*
X200964Y321000D02*
X198000D01*
Y318036D01*
X198414Y318090D01*
X199265Y318443D01*
X199996Y319004D01*
X200557Y319735D01*
X200910Y320586D01*
X200964Y321000D01*
D02*
G37*
G36*
X197000D02*
X194036D01*
X194090Y320586D01*
X194443Y319735D01*
X195004Y319004D01*
X195735Y318443D01*
X196586Y318090D01*
X197000Y318036D01*
Y321000D01*
D02*
G37*
G36*
X537464Y320500D02*
X534500D01*
Y317536D01*
X534914Y317590D01*
X535765Y317943D01*
X536496Y318504D01*
X537057Y319235D01*
X537410Y320086D01*
X537464Y320500D01*
D02*
G37*
G36*
X533500D02*
X530536D01*
X530590Y320086D01*
X530943Y319235D01*
X531504Y318504D01*
X532235Y317943D01*
X533086Y317590D01*
X533500Y317536D01*
Y320500D01*
D02*
G37*
G36*
X592500Y314464D02*
Y311500D01*
X595464D01*
X595410Y311914D01*
X595057Y312765D01*
X594496Y313496D01*
X593765Y314057D01*
X592914Y314410D01*
X592500Y314464D01*
D02*
G37*
G36*
X591500D02*
X591086Y314410D01*
X590235Y314057D01*
X589504Y313496D01*
X588943Y312765D01*
X588590Y311914D01*
X588536Y311500D01*
X591500D01*
Y314464D01*
D02*
G37*
G36*
X595464Y310500D02*
X592500D01*
Y307536D01*
X592914Y307590D01*
X593765Y307943D01*
X594496Y308504D01*
X595057Y309235D01*
X595410Y310086D01*
X595464Y310500D01*
D02*
G37*
G36*
X591500D02*
X588536D01*
X588590Y310086D01*
X588943Y309235D01*
X589504Y308504D01*
X590235Y307943D01*
X591086Y307590D01*
X591500Y307536D01*
Y310500D01*
D02*
G37*
G36*
X607012Y299914D02*
Y295500D01*
X611426D01*
X611322Y296289D01*
X610824Y297490D01*
X610033Y298521D01*
X609002Y299312D01*
X607801Y299810D01*
X607012Y299914D01*
D02*
G37*
G36*
X606012D02*
X605223Y299810D01*
X604022Y299312D01*
X602991Y298521D01*
X602199Y297490D01*
X601702Y296289D01*
X601598Y295500D01*
X606012D01*
Y299914D01*
D02*
G37*
G36*
X314000Y295964D02*
Y293000D01*
X316964D01*
X316910Y293414D01*
X316557Y294265D01*
X315996Y294996D01*
X315265Y295557D01*
X314414Y295910D01*
X314000Y295964D01*
D02*
G37*
G36*
X313000D02*
X312586Y295910D01*
X311735Y295557D01*
X311004Y294996D01*
X310443Y294265D01*
X310090Y293414D01*
X310036Y293000D01*
X313000D01*
Y295964D01*
D02*
G37*
G36*
X611426Y294500D02*
X607012D01*
Y290086D01*
X607801Y290190D01*
X609002Y290687D01*
X610033Y291479D01*
X610824Y292510D01*
X611322Y293711D01*
X611426Y294500D01*
D02*
G37*
G36*
X606012D02*
X601598D01*
X601702Y293711D01*
X602199Y292510D01*
X602991Y291479D01*
X604022Y290687D01*
X605223Y290190D01*
X606012Y290086D01*
Y294500D01*
D02*
G37*
G36*
X316964Y292000D02*
X314000D01*
Y289036D01*
X314414Y289090D01*
X315265Y289443D01*
X315996Y290004D01*
X316557Y290735D01*
X316910Y291586D01*
X316964Y292000D01*
D02*
G37*
G36*
X313000D02*
X310036D01*
X310090Y291586D01*
X310443Y290735D01*
X311004Y290004D01*
X311735Y289443D01*
X312586Y289090D01*
X313000Y289036D01*
Y292000D01*
D02*
G37*
G36*
X448500Y291464D02*
Y288500D01*
X451464D01*
X451410Y288914D01*
X451057Y289765D01*
X450496Y290496D01*
X449765Y291057D01*
X448914Y291410D01*
X448500Y291464D01*
D02*
G37*
G36*
X447500D02*
X447086Y291410D01*
X446235Y291057D01*
X445504Y290496D01*
X444943Y289765D01*
X444590Y288914D01*
X444536Y288500D01*
X447500D01*
Y291464D01*
D02*
G37*
G36*
X496000Y288964D02*
Y286000D01*
X498964D01*
X498910Y286414D01*
X498557Y287265D01*
X497996Y287996D01*
X497265Y288557D01*
X496414Y288910D01*
X496000Y288964D01*
D02*
G37*
G36*
X495000D02*
X494586Y288910D01*
X493735Y288557D01*
X493004Y287996D01*
X492443Y287265D01*
X492090Y286414D01*
X492036Y286000D01*
X495000D01*
Y288964D01*
D02*
G37*
G36*
X585437Y304437D02*
X566563D01*
Y285563D01*
X585437D01*
Y304437D01*
D02*
G37*
G36*
X366842Y350995D02*
X366842Y350918D01*
X340351D01*
X340351Y285378D01*
X304717Y285378D01*
X293351D01*
Y265693D01*
X291926Y265261D01*
X290287Y264385D01*
X288850Y263205D01*
X287671Y261768D01*
X286794Y260129D01*
X286255Y258350D01*
X286072Y256500D01*
X286130Y255920D01*
X285794Y255550D01*
X270555D01*
X261802Y264302D01*
X260486Y265427D01*
X259009Y266331D01*
X257410Y266994D01*
X255726Y267398D01*
X254000Y267534D01*
X236500D01*
X234774Y267398D01*
X233090Y266994D01*
X231491Y266331D01*
X230847Y265937D01*
X227063D01*
Y262153D01*
X226669Y261509D01*
X226006Y259910D01*
X225602Y258226D01*
X225466Y256500D01*
X225602Y254774D01*
X226006Y253090D01*
X226669Y251491D01*
X227063Y250847D01*
Y247063D01*
X230847D01*
X231491Y246669D01*
X233090Y246006D01*
X234774Y245602D01*
X236500Y245466D01*
X249430D01*
X258182Y236714D01*
X259499Y235589D01*
X260975Y234684D01*
X262282Y234143D01*
X262374Y233564D01*
X261329Y232671D01*
X260224Y231377D01*
X259334Y229925D01*
X258683Y228352D01*
X258285Y226697D01*
X258152Y225000D01*
X258285Y223303D01*
X258683Y221648D01*
X259334Y220075D01*
X260224Y218623D01*
X261329Y217329D01*
X262624Y216224D01*
X264075Y215334D01*
X265648Y214683D01*
X267303Y214285D01*
X269000Y214152D01*
X270697Y214285D01*
X272352Y214683D01*
X273925Y215334D01*
X275377Y216224D01*
X276671Y217329D01*
X277777Y218623D01*
X278666Y220075D01*
X279317Y221648D01*
X279715Y223303D01*
X279848Y225000D01*
X279715Y226697D01*
X279317Y228352D01*
X278666Y229925D01*
X277777Y231377D01*
X276671Y232671D01*
X276271Y233013D01*
X276444Y233482D01*
X293351D01*
Y214918D01*
X302913D01*
X303062Y214456D01*
X301392Y213764D01*
X299851Y212820D01*
X298476Y211646D01*
X297302Y210271D01*
X296358Y208730D01*
X295666Y207060D01*
X295244Y205302D01*
X295102Y203500D01*
X295244Y201698D01*
X295666Y199940D01*
X296358Y198270D01*
X297302Y196729D01*
X298476Y195354D01*
X299851Y194180D01*
X301392Y193236D01*
X303062Y192544D01*
X304820Y192122D01*
X306622Y191980D01*
X308424Y192122D01*
X310182Y192544D01*
X311852Y193236D01*
X313393Y194180D01*
X314768Y195354D01*
X315942Y196729D01*
X316035Y196880D01*
X316516Y196745D01*
Y192016D01*
X339484D01*
Y214918D01*
X362187D01*
X362920Y213548D01*
X363919Y212330D01*
X365138Y211330D01*
X366527Y210587D01*
X367115Y210409D01*
X367065Y209902D01*
X366875Y209883D01*
X365558Y209484D01*
X364345Y208835D01*
X363282Y207962D01*
X362409Y206899D01*
X361760Y205686D01*
X361361Y204369D01*
X361275Y203500D01*
X368244D01*
X375213D01*
X375127Y204369D01*
X374728Y205686D01*
X374079Y206899D01*
X373207Y207962D01*
X372143Y208835D01*
X370930Y209484D01*
X370632Y209574D01*
X370682Y210082D01*
X371172Y210130D01*
X372680Y210587D01*
X374070Y211330D01*
X375288Y212330D01*
X375942Y213127D01*
X379221D01*
X380593Y213262D01*
X381211Y213450D01*
X381563Y213189D01*
Y213189D01*
X383348D01*
X383484Y212708D01*
X382851Y212320D01*
X381476Y211146D01*
X380302Y209771D01*
X379358Y208230D01*
X378666Y206560D01*
X378244Y204802D01*
X378102Y203000D01*
X378244Y201198D01*
X378666Y199440D01*
X379358Y197770D01*
X380302Y196229D01*
X381476Y194854D01*
X382851Y193680D01*
X384392Y192736D01*
X386062Y192044D01*
X387820Y191622D01*
X389622Y191480D01*
X391424Y191622D01*
X393182Y192044D01*
X394852Y192736D01*
X396393Y193680D01*
X397768Y194854D01*
X398942Y196229D01*
X399035Y196380D01*
X399516Y196245D01*
Y191516D01*
X422484D01*
Y214484D01*
X422484D01*
X422643Y214918D01*
X432351D01*
Y216596D01*
X432925Y216834D01*
X434376Y217723D01*
X435671Y218829D01*
X436776Y220124D01*
X437666Y221575D01*
X438317Y223148D01*
X438715Y224803D01*
X438848Y226500D01*
X438715Y228197D01*
X438317Y229852D01*
X437666Y231425D01*
X436776Y232876D01*
X435671Y234171D01*
X434376Y235277D01*
X432925Y236166D01*
X432351Y236404D01*
Y286418D01*
X417663D01*
X417090Y287090D01*
X415725Y288256D01*
X414194Y289194D01*
X412535Y289881D01*
X410790Y290300D01*
X409000Y290441D01*
X407210Y290300D01*
X405465Y289881D01*
X403806Y289194D01*
X402275Y288256D01*
X400910Y287090D01*
X400337Y286418D01*
X393351D01*
X393220Y286550D01*
Y350918D01*
X366842Y350995D01*
D02*
G37*
G36*
X451464Y287500D02*
X448500D01*
Y284536D01*
X448914Y284590D01*
X449765Y284943D01*
X450496Y285504D01*
X451057Y286235D01*
X451410Y287086D01*
X451464Y287500D01*
D02*
G37*
G36*
X447500D02*
X444536D01*
X444590Y287086D01*
X444943Y286235D01*
X445504Y285504D01*
X446235Y284943D01*
X447086Y284590D01*
X447500Y284536D01*
Y287500D01*
D02*
G37*
G36*
X498964Y285000D02*
X496000D01*
Y282036D01*
X496414Y282090D01*
X497265Y282443D01*
X497996Y283004D01*
X498557Y283735D01*
X498910Y284586D01*
X498964Y285000D01*
D02*
G37*
G36*
X495000D02*
X492036D01*
X492090Y284586D01*
X492443Y283735D01*
X493004Y283004D01*
X493735Y282443D01*
X494586Y282090D01*
X495000Y282036D01*
Y285000D01*
D02*
G37*
G36*
X620000Y283464D02*
Y280500D01*
X622964D01*
X622910Y280914D01*
X622557Y281765D01*
X621996Y282496D01*
X621265Y283057D01*
X620414Y283410D01*
X620000Y283464D01*
D02*
G37*
G36*
X619000D02*
X618586Y283410D01*
X617735Y283057D01*
X617004Y282496D01*
X616443Y281765D01*
X616090Y280914D01*
X616036Y280500D01*
X619000D01*
Y283464D01*
D02*
G37*
G36*
X562500Y281464D02*
Y278500D01*
X565464D01*
X565410Y278914D01*
X565057Y279765D01*
X564496Y280496D01*
X563765Y281057D01*
X562914Y281410D01*
X562500Y281464D01*
D02*
G37*
G36*
X561500D02*
X561086Y281410D01*
X560235Y281057D01*
X559504Y280496D01*
X558943Y279765D01*
X558590Y278914D01*
X558536Y278500D01*
X561500D01*
Y281464D01*
D02*
G37*
G36*
X622964Y279500D02*
X620000D01*
Y276536D01*
X620414Y276590D01*
X621265Y276943D01*
X621996Y277504D01*
X622557Y278235D01*
X622910Y279086D01*
X622964Y279500D01*
D02*
G37*
G36*
X619000D02*
X616036D01*
X616090Y279086D01*
X616443Y278235D01*
X617004Y277504D01*
X617735Y276943D01*
X618586Y276590D01*
X619000Y276536D01*
Y279500D01*
D02*
G37*
G36*
X565464Y277500D02*
X562500D01*
Y274536D01*
X562914Y274590D01*
X563765Y274943D01*
X564496Y275504D01*
X565057Y276235D01*
X565410Y277086D01*
X565464Y277500D01*
D02*
G37*
G36*
X561500D02*
X558536D01*
X558590Y277086D01*
X558943Y276235D01*
X559504Y275504D01*
X560235Y274943D01*
X561086Y274590D01*
X561500Y274536D01*
Y277500D01*
D02*
G37*
G36*
X273000Y273464D02*
Y270500D01*
X275964D01*
X275910Y270914D01*
X275557Y271765D01*
X274996Y272496D01*
X274265Y273057D01*
X273414Y273410D01*
X273000Y273464D01*
D02*
G37*
G36*
X272000D02*
X271586Y273410D01*
X270735Y273057D01*
X270004Y272496D01*
X269443Y271765D01*
X269090Y270914D01*
X269036Y270500D01*
X272000D01*
Y273464D01*
D02*
G37*
G36*
X529000Y290441D02*
X527210Y290300D01*
X525465Y289881D01*
X523806Y289194D01*
X522275Y288256D01*
X520910Y287090D01*
X519744Y285725D01*
X518806Y284194D01*
X518119Y282535D01*
X517700Y280790D01*
X517559Y279000D01*
X517700Y277210D01*
X518119Y275465D01*
X518806Y273806D01*
X519744Y272275D01*
X520910Y270910D01*
X522275Y269744D01*
X523806Y268806D01*
X525465Y268119D01*
X527210Y267700D01*
X529000Y267559D01*
X530790Y267700D01*
X532535Y268119D01*
X534194Y268806D01*
X535725Y269744D01*
X537090Y270910D01*
X538256Y272275D01*
X539194Y273806D01*
X539881Y275465D01*
X540300Y277210D01*
X540441Y279000D01*
X540300Y280790D01*
X539881Y282535D01*
X539194Y284194D01*
X538256Y285725D01*
X537090Y287090D01*
X535725Y288256D01*
X534194Y289194D01*
X532535Y289881D01*
X530790Y290300D01*
X529000Y290441D01*
D02*
G37*
G36*
X275964Y269500D02*
X273000D01*
Y266536D01*
X273414Y266590D01*
X274265Y266943D01*
X274996Y267504D01*
X275557Y268235D01*
X275910Y269086D01*
X275964Y269500D01*
D02*
G37*
G36*
X272000D02*
X269036D01*
X269090Y269086D01*
X269443Y268235D01*
X270004Y267504D01*
X270735Y266943D01*
X271586Y266590D01*
X272000Y266536D01*
Y269500D01*
D02*
G37*
G36*
X512500Y267964D02*
Y265000D01*
X515464D01*
X515410Y265414D01*
X515057Y266265D01*
X514496Y266996D01*
X513765Y267557D01*
X512914Y267910D01*
X512500Y267964D01*
D02*
G37*
G36*
X511500D02*
X511086Y267910D01*
X510235Y267557D01*
X509504Y266996D01*
X508943Y266265D01*
X508590Y265414D01*
X508536Y265000D01*
X511500D01*
Y267964D01*
D02*
G37*
G36*
X515464Y264000D02*
X512500D01*
Y261036D01*
X512914Y261090D01*
X513765Y261443D01*
X514496Y262004D01*
X515057Y262735D01*
X515410Y263586D01*
X515464Y264000D01*
D02*
G37*
G36*
X511500D02*
X508536D01*
X508590Y263586D01*
X508943Y262735D01*
X509504Y262004D01*
X510235Y261443D01*
X511086Y261090D01*
X511500Y261036D01*
Y264000D01*
D02*
G37*
G36*
X604827Y265890D02*
X601177D01*
Y258500D01*
X604827D01*
Y265890D01*
D02*
G37*
G36*
X472500Y257964D02*
Y255000D01*
X475464D01*
X475410Y255414D01*
X475057Y256265D01*
X474496Y256996D01*
X473765Y257557D01*
X472914Y257910D01*
X472500Y257964D01*
D02*
G37*
G36*
X471500D02*
X471086Y257910D01*
X470235Y257557D01*
X469504Y256996D01*
X468943Y256265D01*
X468590Y255414D01*
X468536Y255000D01*
X471500D01*
Y257964D01*
D02*
G37*
G36*
X160500D02*
Y255000D01*
X163464D01*
X163410Y255414D01*
X163057Y256265D01*
X162496Y256996D01*
X161765Y257557D01*
X160914Y257910D01*
X160500Y257964D01*
D02*
G37*
G36*
X159500D02*
X159086Y257910D01*
X158235Y257557D01*
X157504Y256996D01*
X156943Y256265D01*
X156590Y255414D01*
X156536Y255000D01*
X159500D01*
Y257964D01*
D02*
G37*
G36*
X135500Y256964D02*
Y254000D01*
X138464D01*
X138410Y254414D01*
X138057Y255265D01*
X137496Y255996D01*
X136765Y256557D01*
X135914Y256910D01*
X135500Y256964D01*
D02*
G37*
G36*
X134500D02*
X134086Y256910D01*
X133235Y256557D01*
X132504Y255996D01*
X131943Y255265D01*
X131590Y254414D01*
X131536Y254000D01*
X134500D01*
Y256964D01*
D02*
G37*
G36*
X444000Y255464D02*
Y252500D01*
X446964D01*
X446910Y252914D01*
X446557Y253765D01*
X445996Y254496D01*
X445265Y255057D01*
X444414Y255410D01*
X444000Y255464D01*
D02*
G37*
G36*
X443000D02*
X442586Y255410D01*
X441735Y255057D01*
X441004Y254496D01*
X440443Y253765D01*
X440090Y252914D01*
X440036Y252500D01*
X443000D01*
Y255464D01*
D02*
G37*
G36*
X475464Y254000D02*
X472500D01*
Y251036D01*
X472914Y251090D01*
X473765Y251443D01*
X474496Y252004D01*
X475057Y252735D01*
X475410Y253586D01*
X475464Y254000D01*
D02*
G37*
G36*
X471500D02*
X468536D01*
X468590Y253586D01*
X468943Y252735D01*
X469504Y252004D01*
X470235Y251443D01*
X471086Y251090D01*
X471500Y251036D01*
Y254000D01*
D02*
G37*
G36*
X163464D02*
X160500D01*
Y251036D01*
X160914Y251090D01*
X161765Y251443D01*
X162496Y252004D01*
X163057Y252735D01*
X163410Y253586D01*
X163464Y254000D01*
D02*
G37*
G36*
X159500D02*
X156536D01*
X156590Y253586D01*
X156943Y252735D01*
X157504Y252004D01*
X158235Y251443D01*
X159086Y251090D01*
X159500Y251036D01*
Y254000D01*
D02*
G37*
G36*
X604827Y257500D02*
X601177D01*
Y250110D01*
X604827D01*
Y257500D01*
D02*
G37*
G36*
X593972Y270390D02*
X576673D01*
Y265778D01*
X568198Y257302D01*
X567073Y255986D01*
X566169Y254509D01*
X565506Y252910D01*
X565102Y251226D01*
X564966Y249500D01*
Y222000D01*
X565102Y220274D01*
X565506Y218590D01*
X566169Y216991D01*
X566563Y216347D01*
Y212563D01*
X570347D01*
X570991Y212169D01*
X572590Y211506D01*
X574274Y211102D01*
X576000Y210966D01*
X577726Y211102D01*
X579410Y211506D01*
X581009Y212169D01*
X581653Y212563D01*
X585437D01*
Y216347D01*
X585831Y216991D01*
X586494Y218590D01*
X586898Y220274D01*
X587034Y222000D01*
Y244930D01*
X587715Y245610D01*
X593972D01*
Y251190D01*
X594249Y251514D01*
X595154Y252991D01*
X595817Y254590D01*
X596028Y255468D01*
X596528Y255409D01*
Y250110D01*
X600177D01*
Y258000D01*
Y265890D01*
X596528D01*
Y260591D01*
X596028Y260532D01*
X595817Y261410D01*
X595154Y263009D01*
X594249Y264486D01*
X593972Y264810D01*
Y270390D01*
D02*
G37*
G36*
X138464Y253000D02*
X135500D01*
Y250036D01*
X135914Y250090D01*
X136765Y250443D01*
X137496Y251004D01*
X138057Y251735D01*
X138410Y252586D01*
X138464Y253000D01*
D02*
G37*
G36*
X134500D02*
X131536D01*
X131590Y252586D01*
X131943Y251735D01*
X132504Y251004D01*
X133235Y250443D01*
X134086Y250090D01*
X134500Y250036D01*
Y253000D01*
D02*
G37*
G36*
X446964Y251500D02*
X444000D01*
Y248536D01*
X444414Y248590D01*
X445265Y248943D01*
X445996Y249504D01*
X446557Y250235D01*
X446910Y251086D01*
X446964Y251500D01*
D02*
G37*
G36*
X443000D02*
X440036D01*
X440090Y251086D01*
X440443Y250235D01*
X441004Y249504D01*
X441735Y248943D01*
X442586Y248590D01*
X443000Y248536D01*
Y251500D01*
D02*
G37*
G36*
X595500Y241964D02*
Y239000D01*
X598464D01*
X598410Y239414D01*
X598057Y240265D01*
X597496Y240996D01*
X596765Y241557D01*
X595914Y241910D01*
X595500Y241964D01*
D02*
G37*
G36*
X594500D02*
X594086Y241910D01*
X593235Y241557D01*
X592504Y240996D01*
X591943Y240265D01*
X591590Y239414D01*
X591536Y239000D01*
X594500D01*
Y241964D01*
D02*
G37*
G36*
X598464Y238000D02*
X595500D01*
Y235036D01*
X595914Y235090D01*
X596765Y235443D01*
X597496Y236004D01*
X598057Y236735D01*
X598410Y237586D01*
X598464Y238000D01*
D02*
G37*
G36*
X594500D02*
X591536D01*
X591590Y237586D01*
X591943Y236735D01*
X592504Y236004D01*
X593235Y235443D01*
X594086Y235090D01*
X594500Y235036D01*
Y238000D01*
D02*
G37*
G36*
X620500Y237964D02*
Y235000D01*
X623464D01*
X623410Y235414D01*
X623057Y236265D01*
X622496Y236996D01*
X621765Y237557D01*
X620914Y237910D01*
X620500Y237964D01*
D02*
G37*
G36*
X619500D02*
X619086Y237910D01*
X618235Y237557D01*
X617504Y236996D01*
X616943Y236265D01*
X616590Y235414D01*
X616536Y235000D01*
X619500D01*
Y237964D01*
D02*
G37*
G36*
X526500Y255941D02*
X524710Y255800D01*
X522965Y255381D01*
X521306Y254694D01*
X519775Y253756D01*
X518410Y252590D01*
X517244Y251225D01*
X516306Y249694D01*
X515619Y248035D01*
X515200Y246290D01*
X515059Y244500D01*
X515200Y242710D01*
X515619Y240965D01*
X516306Y239306D01*
X517244Y237775D01*
X518410Y236410D01*
X519775Y235244D01*
X521306Y234306D01*
X522965Y233619D01*
X524710Y233200D01*
X526500Y233059D01*
X528290Y233200D01*
X530035Y233619D01*
X531694Y234306D01*
X533225Y235244D01*
X534590Y236410D01*
X535756Y237775D01*
X536694Y239306D01*
X537381Y240965D01*
X537800Y242710D01*
X537941Y244500D01*
X537800Y246290D01*
X537381Y248035D01*
X536694Y249694D01*
X535756Y251225D01*
X534590Y252590D01*
X533225Y253756D01*
X531694Y254694D01*
X530035Y255381D01*
X528290Y255800D01*
X526500Y255941D01*
D02*
G37*
G36*
X459571D02*
X457781Y255800D01*
X456036Y255381D01*
X454377Y254694D01*
X452846Y253756D01*
X451481Y252590D01*
X450315Y251225D01*
X449377Y249694D01*
X448690Y248035D01*
X448271Y246290D01*
X448130Y244500D01*
X448271Y242710D01*
X448690Y240965D01*
X449377Y239306D01*
X450315Y237775D01*
X451481Y236410D01*
X452846Y235244D01*
X454377Y234306D01*
X456036Y233619D01*
X457781Y233200D01*
X459571Y233059D01*
X461361Y233200D01*
X463106Y233619D01*
X464765Y234306D01*
X466296Y235244D01*
X467661Y236410D01*
X468827Y237775D01*
X469765Y239306D01*
X470452Y240965D01*
X470871Y242710D01*
X471012Y244500D01*
X470871Y246290D01*
X470452Y248035D01*
X469765Y249694D01*
X468827Y251225D01*
X467661Y252590D01*
X466296Y253756D01*
X464765Y254694D01*
X463106Y255381D01*
X461361Y255800D01*
X459571Y255941D01*
D02*
G37*
G36*
X623464Y234000D02*
X620500D01*
Y231036D01*
X620914Y231090D01*
X621765Y231443D01*
X622496Y232004D01*
X623057Y232735D01*
X623410Y233586D01*
X623464Y234000D01*
D02*
G37*
G36*
X619500D02*
X616536D01*
X616590Y233586D01*
X616943Y232735D01*
X617504Y232004D01*
X618235Y231443D01*
X619086Y231090D01*
X619500Y231036D01*
Y234000D01*
D02*
G37*
G36*
X560500Y229464D02*
Y226500D01*
X563464D01*
X563410Y226914D01*
X563057Y227765D01*
X562496Y228496D01*
X561765Y229057D01*
X560914Y229410D01*
X560500Y229464D01*
D02*
G37*
G36*
X559500D02*
X559086Y229410D01*
X558235Y229057D01*
X557504Y228496D01*
X556943Y227765D01*
X556590Y226914D01*
X556536Y226500D01*
X559500D01*
Y229464D01*
D02*
G37*
G36*
X563464Y225500D02*
X560500D01*
Y222536D01*
X560914Y222590D01*
X561765Y222943D01*
X562496Y223504D01*
X563057Y224235D01*
X563410Y225086D01*
X563464Y225500D01*
D02*
G37*
G36*
X559500D02*
X556536D01*
X556590Y225086D01*
X556943Y224235D01*
X557504Y223504D01*
X558235Y222943D01*
X559086Y222590D01*
X559500Y222536D01*
Y225500D01*
D02*
G37*
G36*
X607012Y226914D02*
Y222500D01*
X611426D01*
X611322Y223289D01*
X610824Y224490D01*
X610033Y225521D01*
X609002Y226312D01*
X607801Y226810D01*
X607012Y226914D01*
D02*
G37*
G36*
X606012D02*
X605223Y226810D01*
X604022Y226312D01*
X602991Y225521D01*
X602199Y224490D01*
X601702Y223289D01*
X601598Y222500D01*
X606012D01*
Y226914D01*
D02*
G37*
G36*
X163000Y222464D02*
Y219500D01*
X165964D01*
X165910Y219914D01*
X165557Y220765D01*
X164996Y221496D01*
X164265Y222057D01*
X163414Y222410D01*
X163000Y222464D01*
D02*
G37*
G36*
X162000D02*
X161586Y222410D01*
X160735Y222057D01*
X160004Y221496D01*
X159443Y220765D01*
X159090Y219914D01*
X159036Y219500D01*
X162000D01*
Y222464D01*
D02*
G37*
G36*
X145000Y236609D02*
X143304Y236442D01*
X141674Y235947D01*
X140171Y235144D01*
X138854Y234063D01*
X137773Y232746D01*
X136970Y231243D01*
X136476Y229613D01*
X136309Y227917D01*
X136476Y226222D01*
X136970Y224591D01*
X137773Y223089D01*
X138854Y221772D01*
X140171Y220691D01*
X141674Y219887D01*
X143304Y219393D01*
X145000Y219226D01*
X146696Y219393D01*
X148326Y219887D01*
X149829Y220691D01*
X151146Y221772D01*
X152227Y223089D01*
X153030Y224591D01*
X153524Y226222D01*
X153691Y227917D01*
X153524Y229613D01*
X153030Y231243D01*
X152227Y232746D01*
X151146Y234063D01*
X149829Y235144D01*
X148326Y235947D01*
X146696Y236442D01*
X145000Y236609D01*
D02*
G37*
G36*
X478500Y239348D02*
X476803Y239215D01*
X475148Y238817D01*
X473575Y238166D01*
X472123Y237277D01*
X470829Y236171D01*
X469724Y234876D01*
X468834Y233425D01*
X468183Y231852D01*
X467785Y230197D01*
X467652Y228500D01*
X467785Y226803D01*
X468183Y225148D01*
X468834Y223575D01*
X469724Y222124D01*
X470829Y220829D01*
X472123Y219724D01*
X473575Y218834D01*
X475148Y218183D01*
X476803Y217785D01*
X478500Y217652D01*
X480197Y217785D01*
X481852Y218183D01*
X483425Y218834D01*
X484876Y219724D01*
X486171Y220829D01*
X487277Y222124D01*
X488166Y223575D01*
X488817Y225148D01*
X489215Y226803D01*
X489348Y228500D01*
X489215Y230197D01*
X488817Y231852D01*
X488166Y233425D01*
X487277Y234876D01*
X486171Y236171D01*
X484876Y237277D01*
X483425Y238166D01*
X481852Y238817D01*
X480197Y239215D01*
X478500Y239348D01*
D02*
G37*
G36*
X611426Y221500D02*
X607012D01*
Y217086D01*
X607801Y217190D01*
X609002Y217688D01*
X610033Y218479D01*
X610824Y219510D01*
X611322Y220711D01*
X611426Y221500D01*
D02*
G37*
G36*
X606012D02*
X601598D01*
X601702Y220711D01*
X602199Y219510D01*
X602991Y218479D01*
X604022Y217688D01*
X605223Y217190D01*
X606012Y217086D01*
Y221500D01*
D02*
G37*
G36*
X165964Y218500D02*
X163000D01*
Y215536D01*
X163414Y215590D01*
X164265Y215943D01*
X164996Y216504D01*
X165557Y217235D01*
X165910Y218086D01*
X165964Y218500D01*
D02*
G37*
G36*
X162000D02*
X159036D01*
X159090Y218086D01*
X159443Y217235D01*
X160004Y216504D01*
X160735Y215943D01*
X161586Y215590D01*
X162000Y215536D01*
Y218500D01*
D02*
G37*
G36*
X285744Y210469D02*
Y204000D01*
X292213D01*
X292127Y204869D01*
X291728Y206186D01*
X291079Y207399D01*
X290207Y208463D01*
X289143Y209335D01*
X287930Y209984D01*
X286613Y210383D01*
X285744Y210469D01*
D02*
G37*
G36*
X284744Y210469D02*
X283875Y210383D01*
X282558Y209984D01*
X281345Y209335D01*
X280282Y208463D01*
X279409Y207399D01*
X278760Y206186D01*
X278361Y204869D01*
X278275Y204000D01*
X284744D01*
Y210469D01*
D02*
G37*
G36*
Y203000D02*
X278275D01*
X278361Y202131D01*
X278760Y200814D01*
X279409Y199601D01*
X280282Y198538D01*
X281345Y197665D01*
X282558Y197016D01*
X283875Y196617D01*
X284744Y196531D01*
Y203000D01*
D02*
G37*
G36*
X292213D02*
X285744D01*
Y196531D01*
X286613Y196617D01*
X287930Y197016D01*
X289143Y197665D01*
X290207Y198538D01*
X291079Y199601D01*
X291728Y200814D01*
X292127Y202131D01*
X292213Y203000D01*
D02*
G37*
G36*
X367744Y202500D02*
X361275D01*
X361361Y201631D01*
X361760Y200314D01*
X362409Y199101D01*
X363282Y198038D01*
X364345Y197165D01*
X365558Y196516D01*
X366875Y196117D01*
X367744Y196031D01*
Y202500D01*
D02*
G37*
G36*
X375213D02*
X368744D01*
Y196031D01*
X369613Y196117D01*
X370930Y196516D01*
X372143Y197165D01*
X373207Y198038D01*
X374079Y199101D01*
X374728Y200314D01*
X375127Y201631D01*
X375213Y202500D01*
D02*
G37*
G36*
X510016Y213528D02*
X504984D01*
X503223Y213354D01*
X501530Y212841D01*
X499969Y212006D01*
X498601Y210884D01*
X497478Y209516D01*
X496644Y207955D01*
X496130Y206261D01*
X495957Y204500D01*
X496130Y202739D01*
X496644Y201045D01*
X497478Y199485D01*
X498601Y198116D01*
X499969Y196994D01*
X501530Y196160D01*
X503223Y195646D01*
X504984Y195472D01*
X510016D01*
X511777Y195646D01*
X513471Y196160D01*
X515031Y196994D01*
X515548Y197418D01*
X516000Y197204D01*
Y195516D01*
X539000D01*
Y213484D01*
X516000D01*
Y211796D01*
X515548Y211582D01*
X515031Y212006D01*
X513471Y212841D01*
X511777Y213354D01*
X510016Y213528D01*
D02*
G37*
G36*
X452516D02*
X447484D01*
X445723Y213354D01*
X444030Y212841D01*
X442469Y212006D01*
X441101Y210884D01*
X439978Y209516D01*
X439144Y207955D01*
X438630Y206261D01*
X438456Y204500D01*
X438630Y202739D01*
X439144Y201045D01*
X439978Y199485D01*
X441101Y198116D01*
X442469Y196994D01*
X444030Y196160D01*
X445723Y195646D01*
X447484Y195472D01*
X452516D01*
X454277Y195646D01*
X455970Y196160D01*
X457531Y196994D01*
X458048Y197418D01*
X458500Y197204D01*
Y195516D01*
X481500D01*
Y213484D01*
X458500D01*
Y211796D01*
X458048Y211582D01*
X457531Y212006D01*
X455970Y212841D01*
X454277Y213354D01*
X452516Y213528D01*
D02*
G37*
G36*
X142500Y211348D02*
X140803Y211215D01*
X139148Y210817D01*
X137575Y210166D01*
X136124Y209277D01*
X134829Y208171D01*
X133723Y206876D01*
X132834Y205425D01*
X132183Y203852D01*
X131785Y202197D01*
X131652Y200500D01*
X131785Y198803D01*
X132183Y197148D01*
X132834Y195575D01*
X133723Y194123D01*
X134829Y192829D01*
X136124Y191724D01*
X137575Y190834D01*
X139148Y190183D01*
X140803Y189785D01*
X142500Y189652D01*
X144197Y189785D01*
X145852Y190183D01*
X147425Y190834D01*
X148877Y191724D01*
X150171Y192829D01*
X151277Y194123D01*
X152166Y195575D01*
X152817Y197148D01*
X153215Y198803D01*
X153348Y200500D01*
X153215Y202197D01*
X152817Y203852D01*
X152166Y205425D01*
X151277Y206876D01*
X150171Y208171D01*
X148877Y209277D01*
X147425Y210166D01*
X145852Y210817D01*
X144197Y211215D01*
X142500Y211348D01*
D02*
G37*
G36*
X575843Y168825D02*
Y166000D01*
X578668D01*
X578618Y166378D01*
X578279Y167196D01*
X577740Y167898D01*
X577038Y168437D01*
X576220Y168776D01*
X575843Y168825D01*
D02*
G37*
G36*
X150106Y168819D02*
Y165854D01*
X153071D01*
X153016Y166268D01*
X152664Y167119D01*
X152102Y167851D01*
X151371Y168412D01*
X150520Y168764D01*
X150106Y168819D01*
D02*
G37*
G36*
X149106D02*
X148693Y168764D01*
X147841Y168412D01*
X147110Y167851D01*
X146549Y167119D01*
X146196Y166268D01*
X146142Y165854D01*
X149106D01*
Y168819D01*
D02*
G37*
G36*
X578668Y165000D02*
X575843D01*
Y162175D01*
X576220Y162224D01*
X577038Y162563D01*
X577740Y163102D01*
X578279Y163804D01*
X578618Y164622D01*
X578668Y165000D01*
D02*
G37*
G36*
X573362Y173362D02*
X557638D01*
Y157638D01*
X573362D01*
Y162195D01*
X573862Y162474D01*
X574465Y162224D01*
X574843Y162175D01*
Y165500D01*
Y168825D01*
X574465Y168776D01*
X573862Y168526D01*
X573362Y168805D01*
Y173362D01*
D02*
G37*
G36*
X153071Y164854D02*
X150106D01*
Y161890D01*
X150520Y161944D01*
X151371Y162297D01*
X152102Y162858D01*
X152664Y163589D01*
X153016Y164441D01*
X153071Y164854D01*
D02*
G37*
G36*
X149106D02*
X146142D01*
X146196Y164441D01*
X146549Y163589D01*
X147110Y162858D01*
X147841Y162297D01*
X148693Y161944D01*
X149106Y161890D01*
Y164854D01*
D02*
G37*
G36*
X539870Y160945D02*
Y157980D01*
X542835D01*
X542780Y158394D01*
X542427Y159245D01*
X541866Y159976D01*
X541135Y160538D01*
X540284Y160890D01*
X539870Y160945D01*
D02*
G37*
G36*
X538870D02*
X538456Y160890D01*
X537605Y160538D01*
X536874Y159976D01*
X536313Y159245D01*
X535960Y158394D01*
X535906Y157980D01*
X538870D01*
Y160945D01*
D02*
G37*
G36*
X469004D02*
Y157980D01*
X471968D01*
X471914Y158394D01*
X471561Y159245D01*
X471000Y159976D01*
X470269Y160538D01*
X469418Y160890D01*
X469004Y160945D01*
D02*
G37*
G36*
X468004D02*
X467590Y160890D01*
X466739Y160538D01*
X466008Y159976D01*
X465447Y159245D01*
X465094Y158394D01*
X465040Y157980D01*
X468004D01*
Y160945D01*
D02*
G37*
G36*
X421760D02*
Y157980D01*
X424724D01*
X424670Y158394D01*
X424317Y159245D01*
X423756Y159976D01*
X423025Y160538D01*
X422174Y160890D01*
X421760Y160945D01*
D02*
G37*
G36*
X420760D02*
X420346Y160890D01*
X419495Y160538D01*
X418764Y159976D01*
X418203Y159245D01*
X417850Y158394D01*
X417796Y157980D01*
X420760D01*
Y160945D01*
D02*
G37*
G36*
X350894D02*
Y157980D01*
X353858D01*
X353804Y158394D01*
X353451Y159245D01*
X352890Y159976D01*
X352159Y160538D01*
X351307Y160890D01*
X350894Y160945D01*
D02*
G37*
G36*
X349894D02*
X349480Y160890D01*
X348629Y160538D01*
X347898Y159976D01*
X347337Y159245D01*
X346984Y158394D01*
X346929Y157980D01*
X349894D01*
Y160945D01*
D02*
G37*
G36*
X268216D02*
Y157980D01*
X271181D01*
X271127Y158394D01*
X270774Y159245D01*
X270213Y159976D01*
X269482Y160538D01*
X268630Y160890D01*
X268216Y160945D01*
D02*
G37*
G36*
X267216D02*
X266803Y160890D01*
X265951Y160538D01*
X265220Y159976D01*
X264659Y159245D01*
X264307Y158394D01*
X264252Y157980D01*
X267216D01*
Y160945D01*
D02*
G37*
G36*
X217035D02*
Y157980D01*
X220000D01*
X219945Y158394D01*
X219593Y159245D01*
X219032Y159976D01*
X218301Y160538D01*
X217449Y160890D01*
X217035Y160945D01*
D02*
G37*
G36*
X216035D02*
X215622Y160890D01*
X214770Y160538D01*
X214039Y159976D01*
X213478Y159245D01*
X213125Y158394D01*
X213071Y157980D01*
X216035D01*
Y160945D01*
D02*
G37*
G36*
X542835Y156980D02*
X539870D01*
Y154016D01*
X540284Y154070D01*
X541135Y154423D01*
X541866Y154984D01*
X542427Y155715D01*
X542780Y156567D01*
X542835Y156980D01*
D02*
G37*
G36*
X538870D02*
X535906D01*
X535960Y156567D01*
X536313Y155715D01*
X536874Y154984D01*
X537605Y154423D01*
X538456Y154070D01*
X538870Y154016D01*
Y156980D01*
D02*
G37*
G36*
X471968D02*
X469004D01*
Y154016D01*
X469418Y154070D01*
X470269Y154423D01*
X471000Y154984D01*
X471561Y155715D01*
X471914Y156567D01*
X471968Y156980D01*
D02*
G37*
G36*
X468004D02*
X465040D01*
X465094Y156567D01*
X465447Y155715D01*
X466008Y154984D01*
X466739Y154423D01*
X467590Y154070D01*
X468004Y154016D01*
Y156980D01*
D02*
G37*
G36*
X424724D02*
X421760D01*
Y154016D01*
X422174Y154070D01*
X423025Y154423D01*
X423756Y154984D01*
X424317Y155715D01*
X424670Y156567D01*
X424724Y156980D01*
D02*
G37*
G36*
X420760D02*
X417796D01*
X417850Y156567D01*
X418203Y155715D01*
X418764Y154984D01*
X419495Y154423D01*
X420346Y154070D01*
X420760Y154016D01*
Y156980D01*
D02*
G37*
G36*
X353858D02*
X350894D01*
Y154016D01*
X351307Y154070D01*
X352159Y154423D01*
X352890Y154984D01*
X353451Y155715D01*
X353804Y156567D01*
X353858Y156980D01*
D02*
G37*
G36*
X349894D02*
X346929D01*
X346984Y156567D01*
X347337Y155715D01*
X347898Y154984D01*
X348629Y154423D01*
X349480Y154070D01*
X349894Y154016D01*
Y156980D01*
D02*
G37*
G36*
X271181D02*
X268216D01*
Y154016D01*
X268630Y154070D01*
X269482Y154423D01*
X270213Y154984D01*
X270774Y155715D01*
X271127Y156567D01*
X271181Y156980D01*
D02*
G37*
G36*
X267216D02*
X264252D01*
X264307Y156567D01*
X264659Y155715D01*
X265220Y154984D01*
X265951Y154423D01*
X266803Y154070D01*
X267216Y154016D01*
Y156980D01*
D02*
G37*
G36*
X220000D02*
X217035D01*
Y154016D01*
X217449Y154070D01*
X218301Y154423D01*
X219032Y154984D01*
X219593Y155715D01*
X219945Y156567D01*
X220000Y156980D01*
D02*
G37*
G36*
X216035D02*
X213071D01*
X213125Y156567D01*
X213478Y155715D01*
X214039Y154984D01*
X214770Y154423D01*
X215622Y154070D01*
X216035Y154016D01*
Y156980D01*
D02*
G37*
G36*
X612000Y175151D02*
X610334Y175020D01*
X608709Y174630D01*
X607165Y173990D01*
X605739Y173117D01*
X604469Y172031D01*
X603383Y170761D01*
X602510Y169335D01*
X601870Y167791D01*
X601480Y166166D01*
X601349Y164500D01*
X601480Y162834D01*
X601870Y161209D01*
X602510Y159665D01*
X603383Y158239D01*
X604469Y156969D01*
X605739Y155883D01*
X607165Y155010D01*
X608709Y154370D01*
X610334Y153980D01*
X612000Y153849D01*
X613666Y153980D01*
X615291Y154370D01*
X616835Y155010D01*
X618260Y155883D01*
X619531Y156969D01*
X620617Y158239D01*
X621490Y159665D01*
X622130Y161209D01*
X622520Y162834D01*
X622651Y164500D01*
X622520Y166166D01*
X622130Y167791D01*
X621490Y169335D01*
X620617Y170761D01*
X619531Y172031D01*
X618260Y173117D01*
X616835Y173990D01*
X615291Y174630D01*
X613666Y175020D01*
X612000Y175151D01*
D02*
G37*
G36*
X504480Y176428D02*
X502536Y176275D01*
X500640Y175820D01*
X498838Y175074D01*
X497175Y174055D01*
X495692Y172788D01*
X494426Y171305D01*
X493407Y169642D01*
X492661Y167841D01*
X492205Y165944D01*
X492052Y164000D01*
X492205Y162056D01*
X492661Y160160D01*
X493407Y158358D01*
X494426Y156695D01*
X495692Y155212D01*
X497175Y153946D01*
X498838Y152927D01*
X500640Y152180D01*
X502536Y151725D01*
X504480Y151572D01*
X506425Y151725D01*
X508321Y152180D01*
X510122Y152927D01*
X511785Y153946D01*
X513268Y155212D01*
X514535Y156695D01*
X515554Y158358D01*
X516300Y160160D01*
X516755Y162056D01*
X516908Y164000D01*
X516755Y165944D01*
X516300Y167841D01*
X515554Y169642D01*
X514535Y171305D01*
X513268Y172788D01*
X511785Y174055D01*
X510122Y175074D01*
X508321Y175820D01*
X506425Y176275D01*
X504480Y176428D01*
D02*
G37*
G36*
X386370D02*
X384426Y176275D01*
X382530Y175820D01*
X380728Y175074D01*
X379065Y174055D01*
X377582Y172788D01*
X376316Y171305D01*
X375297Y169642D01*
X374550Y167841D01*
X374095Y165944D01*
X373942Y164000D01*
X374095Y162056D01*
X374550Y160160D01*
X375297Y158358D01*
X376316Y156695D01*
X377582Y155212D01*
X379065Y153946D01*
X380728Y152927D01*
X382530Y152180D01*
X384426Y151725D01*
X386370Y151572D01*
X388314Y151725D01*
X390211Y152180D01*
X392012Y152927D01*
X393675Y153946D01*
X395158Y155212D01*
X396425Y156695D01*
X397444Y158358D01*
X398190Y160160D01*
X398645Y162056D01*
X398798Y164000D01*
X398645Y165944D01*
X398190Y167841D01*
X397444Y169642D01*
X396425Y171305D01*
X395158Y172788D01*
X393675Y174055D01*
X392012Y175074D01*
X390211Y175820D01*
X388314Y176275D01*
X386370Y176428D01*
D02*
G37*
G36*
X307630D02*
X305686Y176275D01*
X303789Y175820D01*
X301988Y175074D01*
X300325Y174055D01*
X298842Y172788D01*
X297575Y171305D01*
X296556Y169642D01*
X295810Y167841D01*
X295355Y165944D01*
X295202Y164000D01*
X295355Y162056D01*
X295810Y160160D01*
X296556Y158358D01*
X297575Y156695D01*
X298842Y155212D01*
X300325Y153946D01*
X301988Y152927D01*
X303789Y152180D01*
X305686Y151725D01*
X307630Y151572D01*
X309574Y151725D01*
X311470Y152180D01*
X313272Y152927D01*
X314935Y153946D01*
X316418Y155212D01*
X317684Y156695D01*
X318703Y158358D01*
X319450Y160160D01*
X319905Y162056D01*
X320058Y164000D01*
X319905Y165944D01*
X319450Y167841D01*
X318703Y169642D01*
X317684Y171305D01*
X316418Y172788D01*
X314935Y174055D01*
X313272Y175074D01*
X311470Y175820D01*
X309574Y176275D01*
X307630Y176428D01*
D02*
G37*
G36*
X189520D02*
X187575Y176275D01*
X185679Y175820D01*
X183878Y175074D01*
X182215Y174055D01*
X180732Y172788D01*
X179465Y171305D01*
X178446Y169642D01*
X177700Y167841D01*
X177245Y165944D01*
X177092Y164000D01*
X177245Y162056D01*
X177700Y160160D01*
X178446Y158358D01*
X179465Y156695D01*
X180732Y155212D01*
X182215Y153946D01*
X183878Y152927D01*
X185679Y152180D01*
X187575Y151725D01*
X189520Y151572D01*
X191464Y151725D01*
X193360Y152180D01*
X195162Y152927D01*
X196825Y153946D01*
X198308Y155212D01*
X199574Y156695D01*
X200593Y158358D01*
X201340Y160160D01*
X201795Y162056D01*
X201948Y164000D01*
X201795Y165944D01*
X201340Y167841D01*
X200593Y169642D01*
X199574Y171305D01*
X198308Y172788D01*
X196825Y174055D01*
X195162Y175074D01*
X193360Y175820D01*
X191464Y176275D01*
X189520Y176428D01*
D02*
G37*
G36*
X612500Y150913D02*
Y145315D01*
X618098D01*
X618030Y146014D01*
X617680Y147168D01*
X617112Y148230D01*
X616347Y149162D01*
X615415Y149927D01*
X614353Y150495D01*
X613199Y150845D01*
X612500Y150913D01*
D02*
G37*
G36*
X611500D02*
X610801Y150845D01*
X609647Y150495D01*
X608584Y149927D01*
X607653Y149162D01*
X606888Y148230D01*
X606320Y147168D01*
X605970Y146014D01*
X605901Y145315D01*
X611500D01*
Y150913D01*
D02*
G37*
G36*
X618098Y144315D02*
X612500D01*
Y138716D01*
X613199Y138785D01*
X614353Y139135D01*
X615415Y139703D01*
X616347Y140468D01*
X617112Y141400D01*
X617680Y142462D01*
X618030Y143616D01*
X618098Y144315D01*
D02*
G37*
G36*
X611500D02*
X605901D01*
X605970Y143616D01*
X606320Y142462D01*
X606888Y141400D01*
X607653Y140468D01*
X608584Y139703D01*
X609647Y139135D01*
X610801Y138785D01*
X611500Y138716D01*
Y144315D01*
D02*
G37*
G36*
X577500Y134098D02*
Y128500D01*
X583099D01*
X583030Y129199D01*
X582680Y130353D01*
X582112Y131415D01*
X581347Y132347D01*
X580415Y133112D01*
X579353Y133680D01*
X578199Y134030D01*
X577500Y134098D01*
D02*
G37*
G36*
X576500D02*
X575801Y134030D01*
X574647Y133680D01*
X573585Y133112D01*
X572653Y132347D01*
X571888Y131415D01*
X571320Y130353D01*
X570970Y129199D01*
X570901Y128500D01*
X576500D01*
Y134098D01*
D02*
G37*
G36*
X528059Y129449D02*
Y126484D01*
X531023D01*
X530969Y126898D01*
X530616Y127749D01*
X530055Y128481D01*
X529324Y129042D01*
X528473Y129394D01*
X528059Y129449D01*
D02*
G37*
G36*
X527059D02*
X526645Y129394D01*
X525794Y129042D01*
X525063Y128481D01*
X524502Y127749D01*
X524149Y126898D01*
X524095Y126484D01*
X527059D01*
Y129449D01*
D02*
G37*
G36*
X457193D02*
Y126484D01*
X460157D01*
X460103Y126898D01*
X459750Y127749D01*
X459189Y128481D01*
X458458Y129042D01*
X457607Y129394D01*
X457193Y129449D01*
D02*
G37*
G36*
X456193D02*
X455779Y129394D01*
X454928Y129042D01*
X454197Y128481D01*
X453636Y127749D01*
X453283Y126898D01*
X453229Y126484D01*
X456193D01*
Y129449D01*
D02*
G37*
G36*
X390264D02*
Y126484D01*
X393228D01*
X393174Y126898D01*
X392821Y127749D01*
X392260Y128481D01*
X391529Y129042D01*
X390677Y129394D01*
X390264Y129449D01*
D02*
G37*
G36*
X389264D02*
X388850Y129394D01*
X387999Y129042D01*
X387267Y128481D01*
X386706Y127749D01*
X386354Y126898D01*
X386299Y126484D01*
X389264D01*
Y129449D01*
D02*
G37*
G36*
X315461D02*
Y126484D01*
X318425D01*
X318371Y126898D01*
X318018Y127749D01*
X317457Y128481D01*
X316726Y129042D01*
X315874Y129394D01*
X315461Y129449D01*
D02*
G37*
G36*
X314461D02*
X314047Y129394D01*
X313195Y129042D01*
X312464Y128481D01*
X311903Y127749D01*
X311551Y126898D01*
X311496Y126484D01*
X314461D01*
Y129449D01*
D02*
G37*
G36*
X244595D02*
Y126484D01*
X247559D01*
X247504Y126898D01*
X247152Y127749D01*
X246591Y128481D01*
X245860Y129042D01*
X245008Y129394D01*
X244595Y129449D01*
D02*
G37*
G36*
X243595D02*
X243181Y129394D01*
X242329Y129042D01*
X241598Y128481D01*
X241037Y127749D01*
X240685Y126898D01*
X240630Y126484D01*
X243595D01*
Y129449D01*
D02*
G37*
G36*
X181602Y125512D02*
Y122547D01*
X184567D01*
X184512Y122961D01*
X184160Y123812D01*
X183599Y124543D01*
X182868Y125104D01*
X182016Y125457D01*
X181602Y125512D01*
D02*
G37*
G36*
X180602D02*
X180189Y125457D01*
X179337Y125104D01*
X178606Y124543D01*
X178045Y123812D01*
X177692Y122961D01*
X177638Y122547D01*
X180602D01*
Y125512D01*
D02*
G37*
G36*
X393228Y125484D02*
X390264D01*
Y122520D01*
X390677Y122574D01*
X391529Y122927D01*
X392260Y123488D01*
X392821Y124219D01*
X393174Y125071D01*
X393228Y125484D01*
D02*
G37*
G36*
X389264D02*
X386299D01*
X386354Y125071D01*
X386706Y124219D01*
X387267Y123488D01*
X387999Y122927D01*
X388850Y122574D01*
X389264Y122520D01*
Y125484D01*
D02*
G37*
G36*
X531023D02*
X528059D01*
Y122520D01*
X528473Y122574D01*
X529324Y122927D01*
X530055Y123488D01*
X530616Y124219D01*
X530969Y125071D01*
X531023Y125484D01*
D02*
G37*
G36*
X527059D02*
X524095D01*
X524149Y125071D01*
X524502Y124219D01*
X525063Y123488D01*
X525794Y122927D01*
X526645Y122574D01*
X527059Y122520D01*
Y125484D01*
D02*
G37*
G36*
X460157D02*
X457193D01*
Y122520D01*
X457607Y122574D01*
X458458Y122927D01*
X459189Y123488D01*
X459750Y124219D01*
X460103Y125071D01*
X460157Y125484D01*
D02*
G37*
G36*
X456193D02*
X453229D01*
X453283Y125071D01*
X453636Y124219D01*
X454197Y123488D01*
X454928Y122927D01*
X455779Y122574D01*
X456193Y122520D01*
Y125484D01*
D02*
G37*
G36*
X318425D02*
X315461D01*
Y122520D01*
X315874Y122574D01*
X316726Y122927D01*
X317457Y123488D01*
X318018Y124219D01*
X318371Y125071D01*
X318425Y125484D01*
D02*
G37*
G36*
X314461D02*
X311496D01*
X311551Y125071D01*
X311903Y124219D01*
X312464Y123488D01*
X313195Y122927D01*
X314047Y122574D01*
X314461Y122520D01*
Y125484D01*
D02*
G37*
G36*
X247559D02*
X244595D01*
Y122520D01*
X245008Y122574D01*
X245860Y122927D01*
X246591Y123488D01*
X247152Y124219D01*
X247504Y125071D01*
X247559Y125484D01*
D02*
G37*
G36*
X243595D02*
X240630D01*
X240685Y125071D01*
X241037Y124219D01*
X241598Y123488D01*
X242329Y122927D01*
X243181Y122574D01*
X243595Y122520D01*
Y125484D01*
D02*
G37*
G36*
X583099Y127500D02*
X577500D01*
Y121902D01*
X578199Y121970D01*
X579353Y122320D01*
X580415Y122888D01*
X581347Y123653D01*
X582112Y124584D01*
X582680Y125647D01*
X583030Y126801D01*
X583099Y127500D01*
D02*
G37*
G36*
X576500D02*
X570901D01*
X570970Y126801D01*
X571320Y125647D01*
X571888Y124584D01*
X572653Y123653D01*
X573585Y122888D01*
X574647Y122320D01*
X575801Y121970D01*
X576500Y121902D01*
Y127500D01*
D02*
G37*
G36*
X184567Y121547D02*
X181602D01*
Y118583D01*
X182016Y118637D01*
X182868Y118990D01*
X183599Y119551D01*
X184160Y120282D01*
X184512Y121134D01*
X184567Y121547D01*
D02*
G37*
G36*
X180602D02*
X177638D01*
X177692Y121134D01*
X178045Y120282D01*
X178606Y119551D01*
X179337Y118990D01*
X180189Y118637D01*
X180602Y118583D01*
Y121547D01*
D02*
G37*
G36*
X600500Y124296D02*
X599762Y124224D01*
X598572Y123863D01*
X597475Y123276D01*
X596513Y122487D01*
X595724Y121525D01*
X595138Y120428D01*
X594776Y119238D01*
X594704Y118500D01*
X600500D01*
Y124296D01*
D02*
G37*
G36*
X557315Y138651D02*
X555649Y138520D01*
X554024Y138130D01*
X552480Y137490D01*
X551054Y136617D01*
X549784Y135531D01*
X548698Y134260D01*
X547825Y132835D01*
X547185Y131291D01*
X546795Y129666D01*
X546664Y128000D01*
X546795Y126334D01*
X547185Y124709D01*
X547825Y123165D01*
X548698Y121739D01*
X549784Y120469D01*
X551054Y119383D01*
X552480Y118510D01*
X554024Y117870D01*
X555649Y117480D01*
X557315Y117349D01*
X558981Y117480D01*
X560606Y117870D01*
X562150Y118510D01*
X563575Y119383D01*
X564846Y120469D01*
X565932Y121739D01*
X566805Y123165D01*
X567445Y124709D01*
X567835Y126334D01*
X567966Y128000D01*
X567835Y129666D01*
X567445Y131291D01*
X566805Y132835D01*
X565932Y134260D01*
X564846Y135531D01*
X563575Y136617D01*
X562150Y137490D01*
X560606Y138130D01*
X558981Y138520D01*
X557315Y138651D01*
D02*
G37*
G36*
X600500Y117500D02*
X594704D01*
X594776Y116762D01*
X595138Y115572D01*
X595724Y114475D01*
X596513Y113513D01*
X597475Y112724D01*
X598572Y112137D01*
X599762Y111776D01*
X600500Y111704D01*
Y117500D01*
D02*
G37*
%LPD*%
G36*
X158552Y308052D02*
X179071Y287534D01*
X178864Y287034D01*
X161070D01*
X157034Y291070D01*
Y309184D01*
X157036Y309184D01*
X157534Y309245D01*
X158552Y308052D01*
D02*
G37*
G36*
X385827Y271654D02*
X386221Y271260D01*
X407282D01*
X407450Y271209D01*
X409000Y271056D01*
X410550Y271209D01*
X410718Y271260D01*
X423228D01*
Y232283D01*
X381256Y232283D01*
Y236968D01*
X379526D01*
Y242747D01*
X379753Y242974D01*
X386063D01*
Y238874D01*
X391000D01*
X395937D01*
Y240921D01*
X396437Y241091D01*
X396504Y241004D01*
X397235Y240443D01*
X398086Y240090D01*
X398500Y240036D01*
Y243500D01*
X399500D01*
Y240036D01*
X399914Y240090D01*
X400765Y240443D01*
X401496Y241004D01*
X402057Y241735D01*
X402100Y241839D01*
X402600Y241740D01*
Y240701D01*
X408500D01*
Y245451D01*
X402600D01*
Y245260D01*
X402100Y245161D01*
X402057Y245265D01*
X401513Y245974D01*
X401541Y246149D01*
X401651Y246474D01*
X403000D01*
X403783Y246577D01*
X404513Y246880D01*
X405140Y247360D01*
X408140Y250360D01*
X408621Y250987D01*
X408923Y251717D01*
X409026Y252500D01*
Y260000D01*
X408923Y260783D01*
X408621Y261513D01*
X408140Y262140D01*
X403640Y266640D01*
X403366Y266849D01*
Y268173D01*
X394642D01*
Y260827D01*
X400894D01*
X402974Y258747D01*
Y253753D01*
X401866Y252645D01*
X401366Y252814D01*
Y258173D01*
X392642D01*
Y256856D01*
X392360Y256640D01*
X392360Y256640D01*
X389820Y254099D01*
X389358Y254291D01*
Y258173D01*
X382106D01*
X381914Y258635D01*
X384106Y260827D01*
X391358D01*
Y268173D01*
X382634D01*
Y267388D01*
X382025Y267136D01*
X381963Y267132D01*
X381490Y267370D01*
X381384Y268175D01*
X380931Y269269D01*
X380209Y270209D01*
X380026Y270350D01*
Y271000D01*
X380026Y271000D01*
X379923Y271783D01*
X379621Y272513D01*
X379140Y273140D01*
X377140Y275140D01*
X376513Y275621D01*
X375783Y275923D01*
X375000Y276026D01*
X373500D01*
Y281500D01*
X365500D01*
Y272500D01*
Y263500D01*
X366065D01*
X366433Y263181D01*
Y256819D01*
X366433D01*
X366473Y256773D01*
X366406Y256260D01*
X366515Y255429D01*
X366835Y254656D01*
X367039Y254390D01*
X366835Y254124D01*
X366515Y253350D01*
X366406Y252520D01*
X366515Y251689D01*
X366835Y250915D01*
X367345Y250251D01*
X368010Y249741D01*
X368784Y249420D01*
X369614Y249311D01*
X371325D01*
X371490Y249100D01*
X371599Y248879D01*
X364860Y242140D01*
X364380Y241513D01*
X364077Y240783D01*
X363974Y240000D01*
Y236968D01*
X362244D01*
Y232283D01*
X361000D01*
Y232760D01*
X357500D01*
X354000D01*
Y232283D01*
X351000D01*
Y232760D01*
X347500D01*
Y233760D01*
X351000D01*
Y236260D01*
X348590D01*
Y261811D01*
X350052D01*
X350116Y261325D01*
X350569Y260231D01*
X351291Y259291D01*
X352231Y258569D01*
X353325Y258116D01*
X354500Y257961D01*
X354729Y257991D01*
X354860Y257860D01*
X354860Y257860D01*
X355487Y257380D01*
X356217Y257077D01*
X356542Y257034D01*
X356739Y256760D01*
X359870D01*
X362880D01*
X362810Y257111D01*
X362609Y257412D01*
X363025Y257731D01*
X363535Y258396D01*
X363855Y259170D01*
X363965Y260000D01*
X363855Y260830D01*
X363535Y261604D01*
X363025Y262269D01*
X362360Y262779D01*
X361586Y263099D01*
X360756Y263209D01*
X358984D01*
X358946Y263204D01*
X358884Y263675D01*
X358715Y264084D01*
X358992Y264500D01*
X361000D01*
Y267500D01*
X358500D01*
Y265500D01*
X358000Y265331D01*
X357709Y265709D01*
X356769Y266431D01*
X355675Y266884D01*
X354500Y267039D01*
X354091Y266985D01*
X353715Y267315D01*
Y275088D01*
Y286221D01*
X385827D01*
Y271654D01*
D02*
G37*
%LPC*%
G36*
X381996Y285354D02*
Y282390D01*
X384960D01*
X384906Y282803D01*
X384553Y283655D01*
X383992Y284386D01*
X383261Y284947D01*
X382410Y285300D01*
X381996Y285354D01*
D02*
G37*
G36*
X380996D02*
X380582Y285300D01*
X379731Y284947D01*
X379000Y284386D01*
X378439Y283655D01*
X378086Y282803D01*
X378032Y282390D01*
X380996D01*
Y285354D01*
D02*
G37*
G36*
X384960Y281390D02*
X381996D01*
Y278425D01*
X382410Y278480D01*
X383261Y278833D01*
X383992Y279394D01*
X384553Y280125D01*
X384906Y280976D01*
X384960Y281390D01*
D02*
G37*
G36*
X380996D02*
X378032D01*
X378086Y280976D01*
X378439Y280125D01*
X379000Y279394D01*
X379731Y278833D01*
X380582Y278480D01*
X380996Y278425D01*
Y281390D01*
D02*
G37*
G36*
X364500Y280500D02*
X362000D01*
Y277500D01*
X364500D01*
Y280500D01*
D02*
G37*
G36*
X361000D02*
X358500D01*
Y277500D01*
X361000D01*
Y280500D01*
D02*
G37*
G36*
X364500Y276500D02*
X362000D01*
Y273500D01*
X364500D01*
Y276500D01*
D02*
G37*
G36*
X361000D02*
X358500D01*
Y273500D01*
X361000D01*
Y276500D01*
D02*
G37*
G36*
X364500Y271500D02*
X362000D01*
Y268500D01*
X364500D01*
Y271500D01*
D02*
G37*
G36*
X361000D02*
X358500D01*
Y268500D01*
X361000D01*
Y271500D01*
D02*
G37*
G36*
X364500Y267500D02*
X362000D01*
Y264500D01*
X364500D01*
Y267500D01*
D02*
G37*
G36*
X415854Y258189D02*
Y255224D01*
X418819D01*
X418764Y255638D01*
X418412Y256489D01*
X417851Y257221D01*
X417119Y257782D01*
X416268Y258134D01*
X415854Y258189D01*
D02*
G37*
G36*
X414854D02*
X414441Y258134D01*
X413589Y257782D01*
X412858Y257221D01*
X412297Y256489D01*
X411944Y255638D01*
X411890Y255224D01*
X414854D01*
Y258189D01*
D02*
G37*
G36*
X362880Y255760D02*
X359870D01*
X356860D01*
X356930Y255409D01*
X357412Y254687D01*
X357483Y254640D01*
Y254140D01*
X357412Y254092D01*
X356930Y253371D01*
X356860Y253020D01*
X359870D01*
X362880D01*
X362810Y253371D01*
X362328Y254092D01*
X362257Y254140D01*
Y254640D01*
X362328Y254687D01*
X362810Y255409D01*
X362880Y255760D01*
D02*
G37*
G36*
X418819Y254224D02*
X415854D01*
Y251260D01*
X416268Y251314D01*
X417119Y251667D01*
X417851Y252228D01*
X418412Y252959D01*
X418764Y253811D01*
X418819Y254224D01*
D02*
G37*
G36*
X414854D02*
X411890D01*
X411944Y253811D01*
X412297Y252959D01*
X412858Y252228D01*
X413589Y251667D01*
X414441Y251314D01*
X414854Y251260D01*
Y254224D01*
D02*
G37*
G36*
X362880Y252020D02*
X360370D01*
Y250296D01*
X360756D01*
X361607Y250465D01*
X362328Y250947D01*
X362810Y251669D01*
X362880Y252020D01*
D02*
G37*
G36*
X359370D02*
X356860D01*
X356930Y251669D01*
X357412Y250947D01*
X358133Y250465D01*
X358984Y250296D01*
X359370D01*
Y252020D01*
D02*
G37*
G36*
X415400Y245451D02*
X409500D01*
Y240701D01*
X415400D01*
Y245451D01*
D02*
G37*
G36*
X358500Y242964D02*
Y240000D01*
X361464D01*
X361410Y240414D01*
X361057Y241265D01*
X360496Y241996D01*
X359765Y242557D01*
X358914Y242910D01*
X358500Y242964D01*
D02*
G37*
G36*
X357500D02*
X357086Y242910D01*
X356235Y242557D01*
X355504Y241996D01*
X354943Y241265D01*
X354590Y240414D01*
X354536Y240000D01*
X357500D01*
Y242964D01*
D02*
G37*
G36*
X415400Y239701D02*
X409500D01*
Y234951D01*
X415400D01*
Y239701D01*
D02*
G37*
G36*
X408500D02*
X402600D01*
Y234951D01*
X408500D01*
Y239701D01*
D02*
G37*
G36*
X361464Y239000D02*
X354536D01*
X354590Y238586D01*
X354943Y237735D01*
X355504Y237004D01*
X355822Y236760D01*
X355652Y236260D01*
X354000D01*
Y233760D01*
X357500D01*
X361000D01*
Y236260D01*
X360348D01*
X360178Y236760D01*
X360496Y237004D01*
X361057Y237735D01*
X361410Y238586D01*
X361464Y239000D01*
D02*
G37*
G36*
X395937Y237874D02*
X391500D01*
Y233437D01*
X395937D01*
Y237874D01*
D02*
G37*
G36*
X390500D02*
X386063D01*
Y233437D01*
X390500D01*
Y237874D01*
D02*
G37*
%LPD*%
D10*
X361500Y268000D02*
D03*
X369500D02*
D03*
X361500Y277000D02*
D03*
X369500D02*
D03*
X336000Y244000D02*
D03*
X328000D02*
D03*
D12*
X265984Y244516D02*
X316000D01*
X254000Y256500D02*
X265984Y244516D01*
X236500Y256500D02*
X254000D01*
X146000Y286500D02*
Y315500D01*
X145000Y316500D02*
X146000Y315500D01*
Y286500D02*
X156500Y276000D01*
X198000D01*
X214500Y292500D01*
X279500D01*
X221484Y204500D02*
Y226516D01*
X213500Y234500D02*
X221484Y226516D01*
X202468Y204500D02*
Y214032D01*
X198000Y218500D02*
X202468Y214032D01*
X198000Y218500D02*
Y276000D01*
X584500Y258000D02*
X585323D01*
X576000Y249500D02*
X584500Y258000D01*
X576000Y222000D02*
Y249500D01*
D14*
X394500Y254500D02*
X397004D01*
X389000Y249000D02*
X394500Y254500D01*
X376000Y249000D02*
X389000D01*
X367000Y240000D02*
X376000Y249000D01*
X367000Y233000D02*
Y240000D01*
X370500Y252520D02*
X378520D01*
X380500Y254500D01*
X384996D01*
X370500Y256260D02*
X375260D01*
X383500Y264500D01*
X386996D01*
X359870Y252520D02*
Y256260D01*
X357000Y260000D02*
X359870D01*
X354500Y262500D02*
X357000Y260000D01*
X364500Y254500D02*
Y265000D01*
X362520Y252520D02*
X364500Y254500D01*
X359870Y252520D02*
X362520D01*
X361500Y268000D02*
X364500Y265000D01*
X369500Y261000D02*
Y268000D01*
Y261000D02*
X370500Y260000D01*
X359870Y241370D02*
Y252520D01*
X358000Y239500D02*
X359870Y241370D01*
X361500Y268000D02*
Y277000D01*
X377000Y267000D02*
Y271000D01*
X375000Y273000D02*
X377000Y271000D01*
X369500Y273000D02*
X375000D01*
X369500D02*
Y277000D01*
Y268000D02*
Y273000D01*
X399004Y264500D02*
X401500D01*
X406000Y260000D01*
Y252500D02*
Y260000D01*
X403000Y249500D02*
X406000Y252500D01*
X395500Y249500D02*
X403000D01*
X392000Y246000D02*
X395500Y249500D01*
X378500Y246000D02*
X392000D01*
X376500Y244000D02*
X378500Y246000D01*
X376500Y233000D02*
Y244000D01*
D15*
X575500Y339823D02*
Y368000D01*
Y339823D02*
X584323Y331000D01*
D16*
X348244Y183000D02*
X368244Y203000D01*
X269500Y183000D02*
X348244D01*
X285244Y203500D02*
Y220571D01*
X269500Y183000D02*
Y187756D01*
X285244Y203500D01*
D17*
X158000Y335472D02*
X166000Y327472D01*
Y315500D02*
Y327472D01*
Y315500D02*
X189000Y292500D01*
X189500D01*
D19*
X391000Y222626D02*
D03*
Y238374D02*
D03*
X576000Y222000D02*
D03*
Y295000D02*
D03*
X575500Y368000D02*
D03*
X181000Y258500D02*
D03*
X236500Y256500D02*
D03*
D20*
X606512Y222000D02*
D03*
Y295000D02*
D03*
X606012Y368000D02*
D03*
X137000Y335472D02*
D03*
X210528Y267161D02*
D03*
X158000Y335472D02*
D03*
X295555Y256500D02*
D03*
D21*
X142500Y200500D02*
D03*
X427000Y399500D02*
D03*
X350000Y376000D02*
D03*
X345500Y269500D02*
D03*
X389000Y376000D02*
D03*
Y399500D02*
D03*
X478500Y228500D02*
D03*
X623000Y185000D02*
D03*
X601000Y118000D02*
D03*
X269000Y225000D02*
D03*
X428000Y226500D02*
D03*
D22*
X435000Y375500D02*
D03*
D23*
X513740D02*
D03*
D24*
X359000Y335000D02*
D03*
Y325000D02*
D03*
Y315000D02*
D03*
Y305000D02*
D03*
X369000Y335000D02*
D03*
Y325000D02*
D03*
Y315000D02*
D03*
Y305000D02*
D03*
Y295000D02*
D03*
D25*
X359000D02*
D03*
D26*
X135000Y402500D02*
D03*
X136500Y120000D02*
D03*
X619500Y120500D02*
D03*
X620500Y402000D02*
D03*
D27*
X409000Y279000D02*
D03*
X529000D02*
D03*
Y349079D02*
D03*
X409000D02*
D03*
X189500Y352500D02*
D03*
Y292500D02*
D03*
X279500D02*
D03*
X182953Y201500D02*
D03*
X220984D02*
D03*
X201969D02*
D03*
X459571Y244500D02*
D03*
X526500D02*
D03*
X323425Y390500D02*
D03*
D28*
X137000Y365000D02*
D03*
X158000D02*
D03*
D29*
X612000Y164500D02*
D03*
Y144815D02*
D03*
X577000Y128000D02*
D03*
X557315D02*
D03*
X158500Y393000D02*
D03*
X178185D02*
D03*
X197870D02*
D03*
D30*
X575343Y165500D02*
D03*
D31*
X565500D02*
D03*
D32*
X279500Y352500D02*
D03*
X240000Y201500D02*
D03*
X225000Y390500D02*
D03*
D33*
X507500Y204500D02*
D03*
X450000D02*
D03*
D34*
X527500D02*
D03*
X470000D02*
D03*
D35*
X368244Y203000D02*
D03*
X389622D02*
D03*
X285244Y203500D02*
D03*
X306622D02*
D03*
D36*
X411000Y203000D02*
D03*
X328000Y203500D02*
D03*
D37*
X145000Y227917D02*
D03*
X320500Y355083D02*
D03*
D38*
X145000Y316500D02*
D03*
X320500Y266500D02*
D03*
D39*
X180705Y234500D02*
D03*
D40*
X213500D02*
D03*
D41*
X307630Y164000D02*
D03*
X189520D02*
D03*
X386370D02*
D03*
X504480D02*
D03*
D42*
X369604Y218014D02*
D03*
X354500Y262500D02*
D03*
X358000Y239500D02*
D03*
X346500Y305000D02*
D03*
X336000Y237500D02*
D03*
X377000Y267000D02*
D03*
X399000Y243500D02*
D03*
X303000Y225500D02*
D03*
X495000Y330000D02*
D03*
X447000D02*
D03*
X448000Y288000D02*
D03*
X495500Y285500D02*
D03*
X593500Y401000D02*
D03*
X559500D02*
D03*
X523000D02*
D03*
X476500Y405500D02*
D03*
X446000D02*
D03*
X445500Y392000D02*
D03*
X480890Y383785D02*
D03*
X475500Y353000D02*
D03*
X619500Y379000D02*
D03*
X619000Y330500D02*
D03*
X619500Y280000D02*
D03*
X620000Y234500D02*
D03*
X534000Y321000D02*
D03*
X562500Y322500D02*
D03*
X592000Y311000D02*
D03*
X593000Y381000D02*
D03*
X595000Y238500D02*
D03*
X562000Y278000D02*
D03*
X512000Y264500D02*
D03*
X472000Y254500D02*
D03*
X443500Y252000D02*
D03*
X560000Y226000D02*
D03*
X409000Y389500D02*
D03*
X344000Y405000D02*
D03*
X290500D02*
D03*
X254000D02*
D03*
X289500Y383500D02*
D03*
X252000Y383000D02*
D03*
X318500Y331000D02*
D03*
X288500Y332000D02*
D03*
X248500Y334000D02*
D03*
X162500Y219000D02*
D03*
X160000Y254500D02*
D03*
X135000Y253500D02*
D03*
X197500Y321500D02*
D03*
X313500Y292500D02*
D03*
X272500Y270000D02*
D03*
X539370Y157480D02*
D03*
X468504D02*
D03*
X421260D02*
D03*
X350394D02*
D03*
X267717D02*
D03*
X216535D02*
D03*
X181102Y122047D02*
D03*
X244094Y125984D02*
D03*
X314961D02*
D03*
X389764D02*
D03*
X456693D02*
D03*
X527559D02*
D03*
X149606Y165354D02*
D03*
X415354Y254724D02*
D03*
X381496Y281890D02*
D03*
D43*
X367260Y225260D02*
X381740D01*
X383030Y223970D02*
X384374Y222626D01*
X381740Y225260D02*
X383030Y223970D01*
X369604Y218014D02*
X371750Y220161D01*
X379221D01*
X383030Y223970D01*
X357500Y239000D02*
X358000Y239500D01*
X357500Y233260D02*
Y239000D01*
X367000Y225520D02*
X367260Y225260D01*
X357500D02*
X367260D01*
X347500Y233260D02*
X357500D01*
X347500Y225260D02*
X357500D01*
X336000Y237500D02*
Y244000D01*
X391000Y238374D02*
X393874D01*
X399000Y243500D01*
X402299Y240201D02*
X409000D01*
X399000Y243500D02*
X402299Y240201D01*
X384374Y222626D02*
X391000D01*
X408827D01*
X409000Y222799D01*
X410201Y224000D02*
X425500D01*
X409000Y222799D02*
X410201Y224000D01*
X425500D02*
X428000Y226500D01*
D44*
X409000Y222799D02*
D03*
Y240201D02*
D03*
D45*
X399004Y264500D02*
D03*
X386996D02*
D03*
X384996Y254500D02*
D03*
X397004D02*
D03*
D46*
X314000Y244516D02*
D03*
Y221484D02*
D03*
D47*
X357500Y225260D02*
D03*
Y233260D02*
D03*
X347500D02*
D03*
Y225260D02*
D03*
D48*
X359870Y252520D02*
D03*
Y256260D02*
D03*
Y260000D02*
D03*
X370500Y252520D02*
D03*
Y256260D02*
D03*
D49*
Y260000D02*
D03*
D50*
X599677Y331000D02*
D03*
X584323D02*
D03*
X600677Y258000D02*
D03*
X585323D02*
D03*
D51*
X376500Y233000D02*
D03*
Y225520D02*
D03*
X367000Y233000D02*
D03*
Y225520D02*
D03*
D52*
X302000Y222500D02*
D03*
D53*
X322750Y244750D02*
D03*
M02*
