M48
;Layer_Color=9474304
;FILE_FORMAT=2:5
INCH
;TYPE=PLATED
T1F00S00C0.02756
T2F00S00C0.02800
T3F00S00C0.03150
T4F00S00C0.03543
T5F00S00C0.03937
T6F00S00C0.03937
T7F00S00C0.05000
T8F00S00C0.05118
T9F00S00C0.05512
T10F00S00C0.05709
T11F00S00C0.05906
T12F00S00C0.06693
T13F00S00C0.07874
T14F00S00C0.07992
T15F00S00C0.11811
T16F00S00C0.15000
%
T01
X0565500Y0165500
X0575343
T02
X0181102Y0122047
X0244094Y0125984
X0314961
X0389764
X0456693
X0527559
X0539370Y0157480
X0560000Y0226000
X0595000Y0238500
X0620000Y0234500
X0619500Y0280000
X0592000Y0311000
X0562000Y0278000
X0512000Y0264500
X0495500Y0285500
X0472000Y0254500
X0443500Y0252000
X0415354Y0254724
X0399000Y0243500
X0358000Y0239500
X0336000Y0237500
X0354500Y0262500
X0377000Y0267000
X0381496Y0281890
X0346500Y0305000
X0313500Y0292500
X0369604Y0218014
X0350394Y0157480
X0421260
X0468504
X0448000Y0288000
X0272500Y0270000
X0303000Y0225500
X0267717Y0157480
X0216535
X0162500Y0219000
X0160000Y0254500
X0135000Y0253500
X0149606Y0165354
X0197500Y0321500
X0248500Y0334000
X0288500Y0332000
X0289500Y0383500
X0290500Y0405000
X0254000
X0252000Y0383000
X0344000Y0405000
X0409000Y0389500
X0445500Y0392000
X0446000Y0405500
X0447000Y0330000
X0318500Y0331000
X0495000Y0330000
X0475500Y0353000
X0480890Y0383785
X0476500Y0405500
X0523000Y0401000
X0559500
X0593500
X0593000Y0381000
X0619500Y0379000
X0619000Y0330500
X0562500Y0322500
X0534000Y0321000
T03
X0320500Y0266500
X0145000Y0227917
Y0316500
X0320500Y0355083
T04
X0137000Y0335472
Y0365000
X0158000
Y0335472
T05
X0181000Y0258500
X0210528Y0267161
T06
X0576000Y0222000
X0606512
Y0295000
X0576000
X0369000
X0359000
Y0305000
X0369000
X0295555Y0256500
X0236500
X0359000Y0315000
Y0325000
Y0335000
X0369000
Y0325000
Y0315000
X0575500Y0368000
X0606012
T07
X0470000Y0204500
X0507500
X0527500
X0450000
T08
X0557315Y0128000
X0577000
X0612000Y0144815
Y0164500
X0197870Y0393000
X0178185
X0158500
T09
X0180705Y0234500
X0213500
X0225000Y0390500
X0323425
T10
X0435000Y0375500
X0513740
T11
X0529000Y0279000
X0409000
X0279500Y0292500
X0189500
X0182953Y0201500
X0201969
X0220984
X0240000
X0279500Y0352500
X0189500
X0409000Y0349079
X0529000
T12
X0601000Y0118000
X0623000Y0185000
X0478500Y0228500
X0428000Y0226500
X0345500Y0269500
X0269000Y0225000
X0142500Y0200500
X0350000Y0376000
X0389000
Y0399500
X0427000
T13
X0526500Y0244500
X0459571
T14
X0328000Y0203500
X0368244Y0203000
X0389622
X0411000
X0306622Y0203500
X0285244
T15
X0504480Y0164000
X0386370
X0307630
X0189520
T16
X0136500Y0120000
X0619500Y0120500
X0135000Y0402500
X0620500Y0402000
M30
