G04 Layer_Physical_Order=3*
G04 Layer_Color=16440176*
%FSLAX25Y25*%
%MOIN*%
G70*
G01*
G75*
%ADD21C,0.10630*%
%ADD24C,0.06890*%
%ADD25R,0.06890X0.06890*%
%ADD29C,0.10236*%
%ADD31R,0.04724X0.04724*%
%ADD36R,0.11969X0.11969*%
%ADD42C,0.05000*%
%ADD43C,0.03000*%
D21*
X345500Y269500D02*
D03*
D24*
X359000Y315000D02*
D03*
X369000D02*
D03*
Y295000D02*
D03*
D25*
X359000D02*
D03*
D29*
X557315Y128000D02*
D03*
D31*
X565500Y165500D02*
D03*
D36*
X411000Y203000D02*
D03*
X328000Y203500D02*
D03*
D42*
X369604Y218014D02*
D03*
X354500Y262500D02*
D03*
X336000Y237500D02*
D03*
X377000Y267000D02*
D03*
D43*
X332000Y218000D02*
X407000D01*
X355000Y262500D02*
Y275000D01*
X549000Y203500D02*
X565500Y187000D01*
Y165500D02*
Y187000D01*
X336000Y237500D02*
Y266000D01*
X355000Y275000D02*
X369000Y289000D01*
Y295000D01*
X557315Y128000D02*
Y153315D01*
X345500Y267500D02*
Y269500D01*
X342000Y264000D02*
X345500Y267500D01*
X336000Y266000D02*
Y278500D01*
Y266000D02*
X338000Y264000D01*
X342000D01*
X565000Y161000D02*
Y165000D01*
X557315Y153315D02*
X565000Y161000D01*
X352500Y295000D02*
X359000D01*
X336000Y278500D02*
X352500Y295000D01*
X407000Y218000D02*
X411000Y214000D01*
X328000D02*
X332000Y218000D01*
X411000Y202500D02*
Y214000D01*
X328000Y202500D02*
Y214000D01*
X358000Y315500D02*
X449500D01*
X377000Y267000D02*
X498000D01*
X449500Y315500D02*
X498000Y267000D01*
Y256000D02*
Y267000D01*
Y256000D02*
X549000Y205000D01*
Y203500D02*
Y205000D01*
M02*
