M48
;Layer_Color=9474304
;FILE_FORMAT=2:5
INCH,LZ
;TYPE=PLATED
T1F00S00C0.02800
T2F00S00C0.03937
T3F00S00C0.06693
%
T01
X0139764Y0143701
X0159449
X01905Y015
X02065
X0238Y01485
X0265748Y0145669
X0251969Y0173228
X0245Y0185
X025Y0194882
Y0218504
X0246063Y0236221
X0265748
X022441
X0188976
X0161417
X0183071Y0208661
X02025Y0208
X0219Y01715
X01775Y018
X0164Y01795
X0141732Y0236221
T02
X0143Y017
X0153
Y018
Y019
Y02
Y021
X0143
Y02
Y019
Y018
T03
X01745Y0143
X0176Y0229
X02005
X0246Y01595
M30
