G04 Layer_Physical_Order=4*
G04 Layer_Color=16711680*
%FSLAX25Y25*%
%MOIN*%
G70*
G01*
G75*
%ADD14C,0.02000*%
%ADD15C,0.10630*%
G04:AMPARAMS|DCode=16|XSize=433.07mil|YSize=157.48mil|CornerRadius=39.37mil|HoleSize=0mil|Usage=FLASHONLY|Rotation=90.000|XOffset=0mil|YOffset=0mil|HoleType=Round|Shape=RoundedRectangle|*
%AMROUNDEDRECTD16*
21,1,0.43307,0.07874,0,0,90.0*
21,1,0.35433,0.15748,0,0,90.0*
1,1,0.07874,0.03937,0.17717*
1,1,0.07874,0.03937,-0.17717*
1,1,0.07874,-0.03937,-0.17717*
1,1,0.07874,-0.03937,0.17717*
%
%ADD16ROUNDEDRECTD16*%
%ADD17C,0.06000*%
%ADD18R,0.06890X0.06890*%
%ADD19C,0.06890*%
%ADD20C,0.05000*%
G36*
X272500Y212665D02*
X272084Y212387D01*
X271278Y212721D01*
X269937Y212898D01*
X266600D01*
Y190000D01*
Y167102D01*
X269937D01*
X271278Y167279D01*
X272084Y167613D01*
X272500Y167335D01*
Y137500D01*
X180096D01*
X179859Y138000D01*
X180612Y138916D01*
X181291Y140187D01*
X181709Y141566D01*
X181850Y143000D01*
X181709Y144434D01*
X181291Y145813D01*
X180612Y147084D01*
X179698Y148197D01*
X178584Y149112D01*
X177313Y149791D01*
X175934Y150209D01*
X174500Y150350D01*
X173066Y150209D01*
X171687Y149791D01*
X170416Y149112D01*
X169302Y148197D01*
X168388Y147084D01*
X167709Y145813D01*
X167291Y144434D01*
X167150Y143000D01*
X167291Y141566D01*
X167709Y140187D01*
X168388Y138916D01*
X169141Y138000D01*
X168904Y137500D01*
X122500D01*
Y242500D01*
X272500D01*
Y212665D01*
D02*
G37*
%LPC*%
G36*
X266348Y239873D02*
Y236821D01*
X269401D01*
X269353Y237186D01*
X268980Y238086D01*
X268387Y238859D01*
X267614Y239452D01*
X266714Y239825D01*
X266348Y239873D01*
D02*
G37*
G36*
X265148D02*
X264782Y239825D01*
X263882Y239452D01*
X263109Y238859D01*
X262516Y238086D01*
X262143Y237186D01*
X262095Y236821D01*
X265148D01*
Y239873D01*
D02*
G37*
G36*
X246663D02*
Y236821D01*
X249716D01*
X249668Y237186D01*
X249295Y238086D01*
X248702Y238859D01*
X247929Y239452D01*
X247029Y239825D01*
X246663Y239873D01*
D02*
G37*
G36*
X245463D02*
X245097Y239825D01*
X244197Y239452D01*
X243424Y238859D01*
X242831Y238086D01*
X242458Y237186D01*
X242410Y236821D01*
X245463D01*
Y239873D01*
D02*
G37*
G36*
X225009D02*
Y236821D01*
X228062D01*
X228014Y237186D01*
X227641Y238086D01*
X227048Y238859D01*
X226275Y239452D01*
X225375Y239825D01*
X225009Y239873D01*
D02*
G37*
G36*
X223810D02*
X223444Y239825D01*
X222544Y239452D01*
X221771Y238859D01*
X221178Y238086D01*
X220805Y237186D01*
X220757Y236821D01*
X223810D01*
Y239873D01*
D02*
G37*
G36*
X189576D02*
Y236821D01*
X192629D01*
X192581Y237186D01*
X192208Y238086D01*
X191615Y238859D01*
X190842Y239452D01*
X189942Y239825D01*
X189576Y239873D01*
D02*
G37*
G36*
X188376D02*
X188011Y239825D01*
X187110Y239452D01*
X186337Y238859D01*
X185744Y238086D01*
X185372Y237186D01*
X185323Y236821D01*
X188376D01*
Y239873D01*
D02*
G37*
G36*
X162017D02*
Y236821D01*
X165070D01*
X165022Y237186D01*
X164649Y238086D01*
X164056Y238859D01*
X163283Y239452D01*
X162383Y239825D01*
X162017Y239873D01*
D02*
G37*
G36*
X160817D02*
X160451Y239825D01*
X159551Y239452D01*
X158778Y238859D01*
X158185Y238086D01*
X157813Y237186D01*
X157764Y236821D01*
X160817D01*
Y239873D01*
D02*
G37*
G36*
X142332D02*
Y236821D01*
X145385D01*
X145337Y237186D01*
X144964Y238086D01*
X144371Y238859D01*
X143598Y239452D01*
X142698Y239825D01*
X142332Y239873D01*
D02*
G37*
G36*
X141132D02*
X140766Y239825D01*
X139866Y239452D01*
X139093Y238859D01*
X138500Y238086D01*
X138128Y237186D01*
X138079Y236821D01*
X141132D01*
Y239873D01*
D02*
G37*
G36*
X269401Y235620D02*
X266348D01*
Y232568D01*
X266714Y232616D01*
X267614Y232989D01*
X268387Y233582D01*
X268980Y234354D01*
X269353Y235255D01*
X269401Y235620D01*
D02*
G37*
G36*
X265148D02*
X262095D01*
X262143Y235255D01*
X262516Y234354D01*
X263109Y233582D01*
X263882Y232989D01*
X264782Y232616D01*
X265148Y232568D01*
Y235620D01*
D02*
G37*
G36*
X249716D02*
X246663D01*
Y232568D01*
X247029Y232616D01*
X247929Y232989D01*
X248702Y233582D01*
X249295Y234354D01*
X249668Y235255D01*
X249716Y235620D01*
D02*
G37*
G36*
X245463D02*
X242410D01*
X242458Y235255D01*
X242831Y234354D01*
X243424Y233582D01*
X244197Y232989D01*
X245097Y232616D01*
X245463Y232568D01*
Y235620D01*
D02*
G37*
G36*
X228062D02*
X225009D01*
Y232568D01*
X225375Y232616D01*
X226275Y232989D01*
X227048Y233582D01*
X227641Y234354D01*
X228014Y235255D01*
X228062Y235620D01*
D02*
G37*
G36*
X223810D02*
X220757D01*
X220805Y235255D01*
X221178Y234354D01*
X221771Y233582D01*
X222544Y232989D01*
X223444Y232616D01*
X223810Y232568D01*
Y235620D01*
D02*
G37*
G36*
X192629D02*
X189576D01*
Y232568D01*
X189942Y232616D01*
X190842Y232989D01*
X191615Y233582D01*
X192208Y234354D01*
X192581Y235255D01*
X192629Y235620D01*
D02*
G37*
G36*
X188376D02*
X185323D01*
X185372Y235255D01*
X185744Y234354D01*
X186337Y233582D01*
X187110Y232989D01*
X188011Y232616D01*
X188376Y232568D01*
Y235620D01*
D02*
G37*
G36*
X165070D02*
X162017D01*
Y232568D01*
X162383Y232616D01*
X163283Y232989D01*
X164056Y233582D01*
X164649Y234354D01*
X165022Y235255D01*
X165070Y235620D01*
D02*
G37*
G36*
X160817D02*
X157764D01*
X157813Y235255D01*
X158185Y234354D01*
X158778Y233582D01*
X159551Y232989D01*
X160451Y232616D01*
X160817Y232568D01*
Y235620D01*
D02*
G37*
G36*
X145385D02*
X142332D01*
Y232568D01*
X142698Y232616D01*
X143598Y232989D01*
X144371Y233582D01*
X144964Y234354D01*
X145337Y235255D01*
X145385Y235620D01*
D02*
G37*
G36*
X141132D02*
X138079D01*
X138128Y235255D01*
X138500Y234354D01*
X139093Y233582D01*
X139866Y232989D01*
X140766Y232616D01*
X141132Y232568D01*
Y235620D01*
D02*
G37*
G36*
X200500Y236350D02*
X199066Y236209D01*
X197687Y235791D01*
X196416Y235112D01*
X195302Y234197D01*
X194388Y233084D01*
X193709Y231813D01*
X193291Y230434D01*
X193150Y229000D01*
X193291Y227566D01*
X193709Y226187D01*
X194388Y224916D01*
X195302Y223802D01*
X196416Y222888D01*
X197687Y222209D01*
X199066Y221791D01*
X200500Y221650D01*
X201934Y221791D01*
X203313Y222209D01*
X204584Y222888D01*
X205697Y223802D01*
X206612Y224916D01*
X207291Y226187D01*
X207709Y227566D01*
X207850Y229000D01*
X207709Y230434D01*
X207291Y231813D01*
X206612Y233084D01*
X205697Y234197D01*
X204584Y235112D01*
X203313Y235791D01*
X201934Y236209D01*
X200500Y236350D01*
D02*
G37*
G36*
X176000D02*
X174566Y236209D01*
X173187Y235791D01*
X171916Y235112D01*
X170802Y234197D01*
X169888Y233084D01*
X169209Y231813D01*
X168791Y230434D01*
X168650Y229000D01*
X168791Y227566D01*
X169209Y226187D01*
X169888Y224916D01*
X170802Y223802D01*
X171916Y222888D01*
X173187Y222209D01*
X174566Y221791D01*
X176000Y221650D01*
X177434Y221791D01*
X178813Y222209D01*
X180084Y222888D01*
X181198Y223802D01*
X182112Y224916D01*
X182791Y226187D01*
X183209Y227566D01*
X183350Y229000D01*
X183209Y230434D01*
X182791Y231813D01*
X182112Y233084D01*
X181198Y234197D01*
X180084Y235112D01*
X178813Y235791D01*
X177434Y236209D01*
X176000Y236350D01*
D02*
G37*
G36*
X250600Y222157D02*
Y219104D01*
X253653D01*
X253605Y219470D01*
X253232Y220370D01*
X252639Y221143D01*
X251866Y221736D01*
X250966Y222109D01*
X250600Y222157D01*
D02*
G37*
G36*
X249400D02*
X249034Y222109D01*
X248134Y221736D01*
X247361Y221143D01*
X246768Y220370D01*
X246395Y219470D01*
X246347Y219104D01*
X249400D01*
Y222157D01*
D02*
G37*
G36*
X253653Y217904D02*
X250600D01*
Y214851D01*
X250966Y214899D01*
X251866Y215272D01*
X252639Y215865D01*
X253232Y216638D01*
X253605Y217538D01*
X253653Y217904D01*
D02*
G37*
G36*
X249400D02*
X246347D01*
X246395Y217538D01*
X246768Y216638D01*
X247361Y215865D01*
X248134Y215272D01*
X249034Y214899D01*
X249400Y214851D01*
Y217904D01*
D02*
G37*
G36*
X153000Y215492D02*
X151579Y215305D01*
X150254Y214756D01*
X149117Y213883D01*
X148279Y212791D01*
X148000Y212759D01*
X147721Y212791D01*
X146883Y213883D01*
X145746Y214756D01*
X144421Y215305D01*
X143000Y215492D01*
X141579Y215305D01*
X140254Y214756D01*
X139117Y213883D01*
X138244Y212746D01*
X137695Y211421D01*
X137508Y210000D01*
X137695Y208579D01*
X138244Y207254D01*
X139117Y206117D01*
X140209Y205279D01*
X140241Y205000D01*
X140209Y204721D01*
X139117Y203883D01*
X138244Y202746D01*
X137695Y201421D01*
X137508Y200000D01*
X137695Y198579D01*
X138244Y197254D01*
X139117Y196117D01*
X140209Y195279D01*
X140241Y195000D01*
X140209Y194721D01*
X139117Y193883D01*
X138244Y192746D01*
X137695Y191421D01*
X137508Y190000D01*
X137695Y188579D01*
X138244Y187254D01*
X139117Y186117D01*
X140209Y185279D01*
X140241Y185000D01*
X140209Y184721D01*
X139117Y183883D01*
X138244Y182746D01*
X137695Y181421D01*
X137508Y180000D01*
X137695Y178579D01*
X138244Y177254D01*
X139117Y176117D01*
X140209Y175279D01*
X140241Y175000D01*
X140209Y174721D01*
X139117Y173883D01*
X138244Y172746D01*
X137695Y171421D01*
X137508Y170000D01*
X137695Y168579D01*
X138244Y167254D01*
X139117Y166117D01*
X140254Y165244D01*
X141579Y164695D01*
X143000Y164508D01*
X144421Y164695D01*
X145746Y165244D01*
X146883Y166117D01*
X147082Y166375D01*
X147555Y166214D01*
Y164555D01*
X158445D01*
Y166974D01*
X158945D01*
X159728Y167077D01*
X160458Y167379D01*
X161084Y167860D01*
X163198Y169974D01*
X215844D01*
X215943Y169735D01*
X216504Y169004D01*
X217235Y168443D01*
X218086Y168090D01*
X219000Y167970D01*
X219914Y168090D01*
X220765Y168443D01*
X221496Y169004D01*
X222057Y169735D01*
X222410Y170586D01*
X222530Y171500D01*
X222410Y172414D01*
X222057Y173265D01*
X221496Y173996D01*
X220765Y174557D01*
X219914Y174910D01*
X219863Y174917D01*
X219640Y175140D01*
X219013Y175620D01*
X218283Y175923D01*
X217500Y176026D01*
X178881D01*
X178781Y176526D01*
X179366Y176768D01*
X180139Y177361D01*
X180732Y178134D01*
X181105Y179034D01*
X181153Y179400D01*
X173847D01*
X173895Y179034D01*
X174268Y178134D01*
X174861Y177361D01*
X175634Y176768D01*
X176219Y176526D01*
X176119Y176026D01*
X166372D01*
X166202Y176526D01*
X166639Y176861D01*
X167232Y177634D01*
X167605Y178534D01*
X167653Y178900D01*
X160347D01*
X160395Y178534D01*
X160768Y177634D01*
X161361Y176861D01*
X161815Y176513D01*
X161675Y175990D01*
X161162Y175923D01*
X160432Y175620D01*
X159805Y175140D01*
X158907Y174241D01*
X158445Y174433D01*
Y175445D01*
X155447D01*
X155342Y175943D01*
X156313Y176687D01*
X157057Y177657D01*
X157525Y178787D01*
X157606Y179400D01*
X153000D01*
Y180600D01*
X157606D01*
X157525Y181213D01*
X157057Y182343D01*
X156313Y183313D01*
X155342Y184057D01*
X154765Y184296D01*
Y184838D01*
X155746Y185244D01*
X156883Y186117D01*
X157756Y187254D01*
X158305Y188579D01*
X158492Y190000D01*
X158305Y191421D01*
X157756Y192746D01*
X156883Y193883D01*
X155791Y194721D01*
X155759Y195000D01*
X155791Y195279D01*
X156883Y196117D01*
X157756Y197254D01*
X158305Y198579D01*
X158492Y200000D01*
X158305Y201421D01*
X157756Y202746D01*
X156883Y203883D01*
X155791Y204721D01*
X155759Y205000D01*
X155791Y205279D01*
X156883Y206117D01*
X157756Y207254D01*
X158305Y208579D01*
X158492Y210000D01*
X158305Y211421D01*
X157756Y212746D01*
X156883Y213883D01*
X155746Y214756D01*
X154421Y215305D01*
X153000Y215492D01*
D02*
G37*
G36*
X183671Y212314D02*
Y209261D01*
X186724D01*
X186676Y209627D01*
X186303Y210527D01*
X185710Y211300D01*
X184937Y211893D01*
X184037Y212266D01*
X183671Y212314D01*
D02*
G37*
G36*
X182471D02*
X182105Y212266D01*
X181205Y211893D01*
X180432Y211300D01*
X179839Y210527D01*
X179466Y209627D01*
X179418Y209261D01*
X182471D01*
Y212314D01*
D02*
G37*
G36*
X186724Y208061D02*
X183671D01*
Y205009D01*
X184037Y205057D01*
X184937Y205430D01*
X185710Y206023D01*
X186303Y206796D01*
X186676Y207696D01*
X186724Y208061D01*
D02*
G37*
G36*
X182471D02*
X179418D01*
X179466Y207696D01*
X179839Y206796D01*
X180432Y206023D01*
X181205Y205430D01*
X182105Y205057D01*
X182471Y205009D01*
Y208061D01*
D02*
G37*
G36*
X202500Y211530D02*
X201586Y211410D01*
X200735Y211057D01*
X200004Y210496D01*
X199443Y209765D01*
X199090Y208914D01*
X198970Y208000D01*
X199090Y207086D01*
X199443Y206235D01*
X200004Y205504D01*
X200735Y204943D01*
X201586Y204590D01*
X202500Y204470D01*
X203414Y204590D01*
X204265Y204943D01*
X204996Y205504D01*
X205557Y206235D01*
X205910Y207086D01*
X206030Y208000D01*
X205910Y208914D01*
X205557Y209765D01*
X204996Y210496D01*
X204265Y211057D01*
X203414Y211410D01*
X202500Y211530D01*
D02*
G37*
G36*
X173000Y207043D02*
X171695Y206871D01*
X170478Y206367D01*
X169434Y205566D01*
X168632Y204522D01*
X168129Y203305D01*
X167957Y202000D01*
X168129Y200695D01*
X168632Y199478D01*
X169434Y198434D01*
X170478Y197633D01*
X171695Y197129D01*
X173000Y196957D01*
X174305Y197129D01*
X175522Y197633D01*
X176566Y198434D01*
X177367Y199478D01*
X177871Y200695D01*
X178043Y202000D01*
X177871Y203305D01*
X177367Y204522D01*
X176566Y205566D01*
X175522Y206367D01*
X174305Y206871D01*
X173000Y207043D01*
D02*
G37*
G36*
X250600Y198535D02*
Y195482D01*
X253653D01*
X253605Y195848D01*
X253232Y196748D01*
X252639Y197521D01*
X251866Y198114D01*
X250966Y198487D01*
X250600Y198535D01*
D02*
G37*
G36*
X249400D02*
X249034Y198487D01*
X248134Y198114D01*
X247361Y197521D01*
X246768Y196748D01*
X246395Y195848D01*
X246347Y195482D01*
X249400D01*
Y198535D01*
D02*
G37*
G36*
X253653Y194282D02*
X250600D01*
Y191229D01*
X250966Y191277D01*
X251866Y191650D01*
X252639Y192243D01*
X253232Y193016D01*
X253605Y193916D01*
X253653Y194282D01*
D02*
G37*
G36*
X249400D02*
X246347D01*
X246395Y193916D01*
X246768Y193016D01*
X247361Y192243D01*
X248134Y191650D01*
X249034Y191277D01*
X249400Y191229D01*
Y194282D01*
D02*
G37*
G36*
X265400Y212898D02*
X262063D01*
X260722Y212721D01*
X259472Y212204D01*
X258399Y211380D01*
X257576Y210307D01*
X257058Y209058D01*
X256882Y207716D01*
Y190600D01*
X265400D01*
Y212898D01*
D02*
G37*
G36*
X245600Y188653D02*
Y185600D01*
X248653D01*
X248605Y185966D01*
X248232Y186866D01*
X247639Y187639D01*
X246866Y188232D01*
X245966Y188605D01*
X245600Y188653D01*
D02*
G37*
G36*
X244400D02*
X244034Y188605D01*
X243134Y188232D01*
X242361Y187639D01*
X241768Y186866D01*
X241395Y185966D01*
X241347Y185600D01*
X244400D01*
Y188653D01*
D02*
G37*
G36*
X248653Y184400D02*
X245600D01*
Y181347D01*
X245966Y181395D01*
X246866Y181768D01*
X247639Y182361D01*
X248232Y183134D01*
X248605Y184034D01*
X248653Y184400D01*
D02*
G37*
G36*
X244400D02*
X241347D01*
X241395Y184034D01*
X241768Y183134D01*
X242361Y182361D01*
X243134Y181768D01*
X244034Y181395D01*
X244400Y181347D01*
Y184400D01*
D02*
G37*
G36*
X178100Y183653D02*
Y180600D01*
X181153D01*
X181105Y180966D01*
X180732Y181866D01*
X180139Y182639D01*
X179366Y183232D01*
X178466Y183605D01*
X178100Y183653D01*
D02*
G37*
G36*
X176900D02*
X176534Y183605D01*
X175634Y183232D01*
X174861Y182639D01*
X174268Y181866D01*
X173895Y180966D01*
X173847Y180600D01*
X176900D01*
Y183653D01*
D02*
G37*
G36*
X164600Y183153D02*
Y180100D01*
X167653D01*
X167605Y180466D01*
X167232Y181366D01*
X166639Y182139D01*
X165866Y182732D01*
X164966Y183105D01*
X164600Y183153D01*
D02*
G37*
G36*
X163400D02*
X163034Y183105D01*
X162134Y182732D01*
X161361Y182139D01*
X160768Y181366D01*
X160395Y180466D01*
X160347Y180100D01*
X163400D01*
Y183153D01*
D02*
G37*
G36*
X252569Y176881D02*
Y173828D01*
X255621D01*
X255573Y174194D01*
X255201Y175094D01*
X254607Y175867D01*
X253835Y176460D01*
X252934Y176833D01*
X252569Y176881D01*
D02*
G37*
G36*
X251368D02*
X251003Y176833D01*
X250102Y176460D01*
X249330Y175867D01*
X248737Y175094D01*
X248364Y174194D01*
X248316Y173828D01*
X251368D01*
Y176881D01*
D02*
G37*
G36*
X255621Y172628D02*
X252569D01*
Y169575D01*
X252934Y169624D01*
X253835Y169996D01*
X254607Y170589D01*
X255201Y171362D01*
X255573Y172263D01*
X255621Y172628D01*
D02*
G37*
G36*
X251368D02*
X248316D01*
X248364Y172263D01*
X248737Y171362D01*
X249330Y170589D01*
X250102Y169996D01*
X251003Y169624D01*
X251368Y169575D01*
Y172628D01*
D02*
G37*
G36*
X265400Y189400D02*
X256882D01*
Y172283D01*
X257058Y170942D01*
X257576Y169693D01*
X258399Y168620D01*
X259472Y167796D01*
X260722Y167279D01*
X262063Y167102D01*
X265400D01*
Y189400D01*
D02*
G37*
G36*
X246000Y166850D02*
X244566Y166709D01*
X243187Y166291D01*
X241916Y165612D01*
X240803Y164698D01*
X239888Y163584D01*
X239209Y162313D01*
X238791Y160934D01*
X238650Y159500D01*
X238791Y158066D01*
X239209Y156687D01*
X239888Y155416D01*
X240803Y154303D01*
X241916Y153388D01*
X243187Y152709D01*
X244566Y152291D01*
X246000Y152150D01*
X247434Y152291D01*
X248813Y152709D01*
X250084Y153388D01*
X251198Y154303D01*
X252112Y155416D01*
X252791Y156687D01*
X253209Y158066D01*
X253350Y159500D01*
X253209Y160934D01*
X252791Y162313D01*
X252112Y163584D01*
X251198Y164698D01*
X250084Y165612D01*
X248813Y166291D01*
X247434Y166709D01*
X246000Y166850D01*
D02*
G37*
G36*
X207100Y153653D02*
Y150600D01*
X210153D01*
X210105Y150966D01*
X209732Y151866D01*
X209139Y152639D01*
X208366Y153232D01*
X207466Y153605D01*
X207100Y153653D01*
D02*
G37*
G36*
X205900D02*
X205534Y153605D01*
X204634Y153232D01*
X203861Y152639D01*
X203268Y151866D01*
X202895Y150966D01*
X202847Y150600D01*
X205900D01*
Y153653D01*
D02*
G37*
G36*
X191100D02*
Y150600D01*
X194153D01*
X194105Y150966D01*
X193732Y151866D01*
X193139Y152639D01*
X192366Y153232D01*
X191466Y153605D01*
X191100Y153653D01*
D02*
G37*
G36*
X189900D02*
X189534Y153605D01*
X188634Y153232D01*
X187861Y152639D01*
X187268Y151866D01*
X186895Y150966D01*
X186847Y150600D01*
X189900D01*
Y153653D01*
D02*
G37*
G36*
X238600Y152153D02*
Y149100D01*
X241653D01*
X241605Y149466D01*
X241232Y150366D01*
X240639Y151139D01*
X239866Y151732D01*
X238966Y152105D01*
X238600Y152153D01*
D02*
G37*
G36*
X237400D02*
X237034Y152105D01*
X236134Y151732D01*
X235361Y151139D01*
X234768Y150366D01*
X234395Y149466D01*
X234347Y149100D01*
X237400D01*
Y152153D01*
D02*
G37*
G36*
X210153Y149400D02*
X207100D01*
Y146347D01*
X207466Y146395D01*
X208366Y146768D01*
X209139Y147361D01*
X209732Y148134D01*
X210105Y149034D01*
X210153Y149400D01*
D02*
G37*
G36*
X205900D02*
X202847D01*
X202895Y149034D01*
X203268Y148134D01*
X203861Y147361D01*
X204634Y146768D01*
X205534Y146395D01*
X205900Y146347D01*
Y149400D01*
D02*
G37*
G36*
X194153D02*
X191100D01*
Y146347D01*
X191466Y146395D01*
X192366Y146768D01*
X193139Y147361D01*
X193732Y148134D01*
X194105Y149034D01*
X194153Y149400D01*
D02*
G37*
G36*
X189900D02*
X186847D01*
X186895Y149034D01*
X187268Y148134D01*
X187861Y147361D01*
X188634Y146768D01*
X189534Y146395D01*
X189900Y146347D01*
Y149400D01*
D02*
G37*
G36*
X266348Y149322D02*
Y146269D01*
X269401D01*
X269353Y146635D01*
X268980Y147535D01*
X268387Y148308D01*
X267614Y148901D01*
X266714Y149274D01*
X266348Y149322D01*
D02*
G37*
G36*
X265148D02*
X264782Y149274D01*
X263882Y148901D01*
X263109Y148308D01*
X262516Y147535D01*
X262143Y146635D01*
X262095Y146269D01*
X265148D01*
Y149322D01*
D02*
G37*
G36*
X241653Y147900D02*
X238600D01*
Y144847D01*
X238966Y144895D01*
X239866Y145268D01*
X240639Y145861D01*
X241232Y146634D01*
X241605Y147534D01*
X241653Y147900D01*
D02*
G37*
G36*
X237400D02*
X234347D01*
X234395Y147534D01*
X234768Y146634D01*
X235361Y145861D01*
X236134Y145268D01*
X237034Y144895D01*
X237400Y144847D01*
Y147900D01*
D02*
G37*
G36*
X160049Y147354D02*
Y144301D01*
X163102D01*
X163054Y144667D01*
X162681Y145567D01*
X162088Y146340D01*
X161315Y146933D01*
X160415Y147306D01*
X160049Y147354D01*
D02*
G37*
G36*
X158849D02*
X158483Y147306D01*
X157583Y146933D01*
X156810Y146340D01*
X156217Y145567D01*
X155844Y144667D01*
X155796Y144301D01*
X158849D01*
Y147354D01*
D02*
G37*
G36*
X140364D02*
Y144301D01*
X143417D01*
X143369Y144667D01*
X142996Y145567D01*
X142403Y146340D01*
X141630Y146933D01*
X140730Y147306D01*
X140364Y147354D01*
D02*
G37*
G36*
X139164D02*
X138798Y147306D01*
X137898Y146933D01*
X137125Y146340D01*
X136532Y145567D01*
X136159Y144667D01*
X136111Y144301D01*
X139164D01*
Y147354D01*
D02*
G37*
G36*
X269401Y145069D02*
X266348D01*
Y142016D01*
X266714Y142064D01*
X267614Y142437D01*
X268387Y143030D01*
X268980Y143803D01*
X269353Y144703D01*
X269401Y145069D01*
D02*
G37*
G36*
X265148D02*
X262095D01*
X262143Y144703D01*
X262516Y143803D01*
X263109Y143030D01*
X263882Y142437D01*
X264782Y142064D01*
X265148Y142016D01*
Y145069D01*
D02*
G37*
G36*
X163102Y143101D02*
X160049D01*
Y140048D01*
X160415Y140096D01*
X161315Y140469D01*
X162088Y141062D01*
X162681Y141835D01*
X163054Y142735D01*
X163102Y143101D01*
D02*
G37*
G36*
X158849D02*
X155796D01*
X155844Y142735D01*
X156217Y141835D01*
X156810Y141062D01*
X157583Y140469D01*
X158483Y140096D01*
X158849Y140048D01*
Y143101D01*
D02*
G37*
G36*
X143417D02*
X140364D01*
Y140048D01*
X140730Y140096D01*
X141630Y140469D01*
X142403Y141062D01*
X142996Y141835D01*
X143369Y142735D01*
X143417Y143101D01*
D02*
G37*
G36*
X139164D02*
X136111D01*
X136159Y142735D01*
X136532Y141835D01*
X137125Y141062D01*
X137898Y140469D01*
X138798Y140096D01*
X139164Y140048D01*
Y143101D01*
D02*
G37*
%LPD*%
D14*
X217500Y173000D02*
X219000Y171500D01*
X161945Y173000D02*
X217500D01*
X158945Y170000D02*
X161945Y173000D01*
X153000Y170000D02*
X158945D01*
D15*
X200500Y229000D02*
D03*
X246000Y159500D02*
D03*
X176000Y229000D02*
D03*
X174500Y143000D02*
D03*
D16*
X266000Y190000D02*
D03*
D17*
X173000Y202000D02*
D03*
D18*
X153000Y170000D02*
D03*
D19*
Y180000D02*
D03*
Y190000D02*
D03*
Y200000D02*
D03*
Y210000D02*
D03*
X143000Y170000D02*
D03*
Y180000D02*
D03*
Y190000D02*
D03*
Y200000D02*
D03*
Y210000D02*
D03*
D20*
X183071Y208661D02*
D03*
X188976Y236221D02*
D03*
X139764Y143701D02*
D03*
X159449D02*
D03*
X141732Y236221D02*
D03*
X161417D02*
D03*
X251969Y173228D02*
D03*
X250000Y194882D02*
D03*
Y218504D02*
D03*
X265748Y145669D02*
D03*
X224410Y236221D02*
D03*
X246063D02*
D03*
X265748D02*
D03*
X190500Y150000D02*
D03*
X164000Y179500D02*
D03*
X219000Y171500D02*
D03*
X202500Y208000D02*
D03*
X206500Y150000D02*
D03*
X238000Y148500D02*
D03*
X245000Y185000D02*
D03*
X177500Y180000D02*
D03*
M02*
