G04 Layer_Color=8388736*
%FSLAX25Y25*%
%MOIN*%
G70*
G01*
G75*
%ADD30R,0.05800X0.04800*%
%ADD31R,0.10642X0.08674*%
%ADD32R,0.04800X0.05800*%
%ADD33R,0.03162X0.06902*%
%ADD34C,0.11430*%
G04:AMPARAMS|DCode=35|XSize=441.07mil|YSize=165.48mil|CornerRadius=43.37mil|HoleSize=0mil|Usage=FLASHONLY|Rotation=90.000|XOffset=0mil|YOffset=0mil|HoleType=Round|Shape=RoundedRectangle|*
%AMROUNDEDRECTD35*
21,1,0.44107,0.07874,0,0,90.0*
21,1,0.35433,0.16548,0,0,90.0*
1,1,0.08674,0.03937,0.17717*
1,1,0.08674,0.03937,-0.17717*
1,1,0.08674,-0.03937,-0.17717*
1,1,0.08674,-0.03937,0.17717*
%
%ADD35ROUNDEDRECTD35*%
%ADD36C,0.06800*%
%ADD37R,0.07690X0.07690*%
%ADD38C,0.07690*%
D30*
X193500Y193000D02*
D03*
Y185000D02*
D03*
X172500Y193000D02*
D03*
Y185000D02*
D03*
X183000Y193000D02*
D03*
Y185000D02*
D03*
X236500Y213000D02*
D03*
Y221000D02*
D03*
X213000Y166000D02*
D03*
Y158000D02*
D03*
X224000Y213000D02*
D03*
Y221000D02*
D03*
X213000Y213000D02*
D03*
Y221000D02*
D03*
X201000Y166000D02*
D03*
Y158000D02*
D03*
D31*
X227000Y163030D02*
D03*
X227000Y147500D02*
D03*
D32*
X237000Y180000D02*
D03*
X229000D02*
D03*
X190500Y157000D02*
D03*
X182500D02*
D03*
X229000Y191000D02*
D03*
X237000D02*
D03*
Y202500D02*
D03*
X229000D02*
D03*
X190500Y168000D02*
D03*
X182500D02*
D03*
D33*
X218000Y200728D02*
D03*
X213000D02*
D03*
X208000D02*
D03*
X203000D02*
D03*
X218000Y179272D02*
D03*
X213000D02*
D03*
X208000D02*
D03*
X203000D02*
D03*
D34*
X200500Y229000D02*
D03*
X246000Y159500D02*
D03*
X176000Y229000D02*
D03*
X174500Y143000D02*
D03*
D35*
X266000Y190000D02*
D03*
D36*
X173000Y202000D02*
D03*
D37*
X153000Y170000D02*
D03*
D38*
Y180000D02*
D03*
Y190000D02*
D03*
Y200000D02*
D03*
Y210000D02*
D03*
X143000Y170000D02*
D03*
Y180000D02*
D03*
Y190000D02*
D03*
Y200000D02*
D03*
Y210000D02*
D03*
M02*
