G04 Layer_Color=65535*
%FSLAX25Y25*%
%MOIN*%
G70*
G01*
G75*
%ADD22C,0.02362*%
%ADD23C,0.00984*%
%ADD24C,0.00500*%
%ADD25C,0.00315*%
%ADD26C,0.00400*%
%ADD27C,0.00787*%
%ADD28C,0.01000*%
%ADD29C,0.00800*%
D22*
X205776Y187638D02*
G03*
X205776Y187638I-1181J0D01*
G01*
D23*
X200146Y179272D02*
G03*
X200146Y179272I-492J0D01*
G01*
X224500Y156026D02*
X227000D01*
X229500D01*
D24*
X190000Y196000D02*
X197000Y196000D01*
X190000Y182000D02*
X197000D01*
X190000Y196000D02*
X190000Y182000D01*
X197000D02*
Y196000D01*
X240000Y176500D02*
X240000Y183500D01*
X226000Y176500D02*
Y183500D01*
X240000Y183500D01*
X226000Y176500D02*
X240000D01*
X193500Y153500D02*
X193500Y160500D01*
X179500Y153500D02*
Y160500D01*
X193500Y160500D01*
X179500Y153500D02*
X193500D01*
X169000Y196000D02*
X176000Y196000D01*
X169000Y182000D02*
X176000D01*
X169000Y196000D02*
X169000Y182000D01*
X176000D02*
Y196000D01*
X226000Y187500D02*
X226000Y194500D01*
X240000Y187500D02*
Y194500D01*
X226000Y187500D02*
X240000Y187500D01*
X226000Y194500D02*
X240000D01*
X240000Y199000D02*
X240000Y206000D01*
X226000Y199000D02*
Y206000D01*
X240000Y206000D01*
X226000Y199000D02*
X240000D01*
X179500Y196000D02*
X186500Y196000D01*
X179500Y182000D02*
X186500D01*
X179500Y196000D02*
X179500Y182000D01*
X186500D02*
Y196000D01*
X233000Y210000D02*
X240000Y210000D01*
X233000Y224000D02*
X240000D01*
X240000Y210000D01*
X233000Y210000D02*
Y224000D01*
X209500Y169000D02*
X216500Y169000D01*
X209500Y155000D02*
X216500D01*
X209500Y169000D02*
X209500Y155000D01*
X216500D02*
Y169000D01*
X220500Y210000D02*
X227500Y210000D01*
X220500Y224000D02*
X227500D01*
X227500Y210000D01*
X220500Y210000D02*
Y224000D01*
X209500Y210000D02*
X216500Y210000D01*
X209500Y224000D02*
X216500D01*
X216500Y210000D01*
X209500Y210000D02*
Y224000D01*
X193500Y164500D02*
X193500Y171500D01*
X179500Y164500D02*
Y171500D01*
X193500Y171500D01*
X179500Y164500D02*
X193500D01*
X197500Y169000D02*
X204500Y169000D01*
X197500Y155000D02*
X204500D01*
X197500Y169000D02*
X197500Y155000D01*
X204500D02*
Y169000D01*
D25*
X220800Y168000D02*
X233000D01*
D26*
X233102Y142000D02*
Y168800D01*
X230027Y142000D02*
X233102D01*
X220799D02*
X223875D01*
X220799D02*
Y168800D01*
X233102D01*
X223875Y142000D02*
X230027D01*
X224500Y153526D02*
X227000Y156026D01*
X224500Y153526D02*
X227000D01*
Y156026D02*
X229500Y153526D01*
X227000D02*
X229500D01*
D27*
X220342Y183701D02*
Y196299D01*
X200658Y183701D02*
Y196299D01*
X220342D01*
X200658Y183701D02*
X220342D01*
X119000Y230000D02*
X160000D01*
X119000Y150000D02*
X160000D01*
Y230000D01*
X119000Y150000D02*
Y230000D01*
D28*
X225000Y140499D02*
Y136500D01*
X226999D01*
X227666Y137167D01*
Y139832D01*
X226999Y140499D01*
X225000D01*
X228999Y136500D02*
X230332D01*
X229665D01*
Y140499D01*
X228999Y139832D01*
X190666Y177332D02*
X189999Y177999D01*
X188666D01*
X188000Y177332D01*
Y174667D01*
X188666Y174000D01*
X189999D01*
X190666Y174667D01*
X191999Y174000D02*
X193332D01*
X192665D01*
Y177999D01*
X191999Y177332D01*
X195331D02*
X195997Y177999D01*
X197330D01*
X197997Y177332D01*
Y174667D01*
X197330Y174000D01*
X195997D01*
X195331Y174667D01*
Y177332D01*
X208500Y192499D02*
Y189166D01*
X209166Y188500D01*
X210499D01*
X211166Y189166D01*
Y192499D01*
X212499Y188500D02*
X213832D01*
X213165D01*
Y192499D01*
X212499Y191832D01*
X194500Y240999D02*
X197166D01*
X195833D01*
Y237000D01*
X198499D02*
Y240999D01*
X200498D01*
X201165Y240332D01*
Y238999D01*
X200498Y238333D01*
X198499D01*
X205163Y240999D02*
X203830Y240332D01*
X202497Y238999D01*
Y237666D01*
X203164Y237000D01*
X204497D01*
X205163Y237666D01*
Y238333D01*
X204497Y238999D01*
X202497D01*
X240500Y151499D02*
X243166D01*
X241833D01*
Y147500D01*
X244499D02*
Y151499D01*
X246498D01*
X247165Y150832D01*
Y149499D01*
X246498Y148833D01*
X244499D01*
X251163Y151499D02*
X248497D01*
Y149499D01*
X249830Y150166D01*
X250497D01*
X251163Y149499D01*
Y148167D01*
X250497Y147500D01*
X249164D01*
X248497Y148167D01*
X168000Y209999D02*
X170666D01*
X169333D01*
Y206000D01*
X171999D02*
Y209999D01*
X173998D01*
X174664Y209332D01*
Y207999D01*
X173998Y207333D01*
X171999D01*
X177997Y206000D02*
Y209999D01*
X175997Y207999D01*
X178663D01*
X258700Y219099D02*
X261366D01*
X260033D01*
Y215100D01*
X262699D02*
Y219099D01*
X264698D01*
X265365Y218432D01*
Y217099D01*
X264698Y216433D01*
X262699D01*
X266697Y218432D02*
X267364Y219099D01*
X268697D01*
X269363Y218432D01*
Y217766D01*
X268697Y217099D01*
X268030D01*
X268697D01*
X269363Y216433D01*
Y215766D01*
X268697Y215100D01*
X267364D01*
X266697Y215766D01*
X173500Y240999D02*
X176166D01*
X174833D01*
Y237000D01*
X177499D02*
Y240999D01*
X179498D01*
X180165Y240332D01*
Y238999D01*
X179498Y238333D01*
X177499D01*
X181497Y237000D02*
X182830D01*
X182164D01*
Y240999D01*
X181497Y240332D01*
X242500Y201000D02*
Y204999D01*
X244499D01*
X245166Y204332D01*
Y202999D01*
X244499Y202333D01*
X242500D01*
X243833D02*
X245166Y201000D01*
X246499Y204332D02*
X247165Y204999D01*
X248498D01*
X249165Y204332D01*
Y203666D01*
X248498Y202999D01*
X247832D01*
X248498D01*
X249165Y202333D01*
Y201666D01*
X248498Y201000D01*
X247165D01*
X246499Y201666D01*
X171000Y154500D02*
Y158499D01*
X172999D01*
X173666Y157832D01*
Y156499D01*
X172999Y155833D01*
X171000D01*
X172333D02*
X173666Y154500D01*
X174999D02*
X176332D01*
X175665D01*
Y158499D01*
X174999Y157832D01*
X180666Y177332D02*
X179999Y177999D01*
X178666D01*
X178000Y177332D01*
Y174667D01*
X178666Y174000D01*
X179999D01*
X180666Y174667D01*
X181999D02*
X182665Y174000D01*
X183998D01*
X184664Y174667D01*
Y177332D01*
X183998Y177999D01*
X182665D01*
X181999Y177332D01*
Y176666D01*
X182665Y175999D01*
X184664D01*
X170666Y177332D02*
X169999Y177999D01*
X168667D01*
X168000Y177332D01*
Y174667D01*
X168667Y174000D01*
X169999D01*
X170666Y174667D01*
X171999Y177332D02*
X172665Y177999D01*
X173998D01*
X174664Y177332D01*
Y176666D01*
X173998Y175999D01*
X174664Y175333D01*
Y174667D01*
X173998Y174000D01*
X172665D01*
X171999Y174667D01*
Y175333D01*
X172665Y175999D01*
X171999Y176666D01*
Y177332D01*
X172665Y175999D02*
X173998D01*
X237166Y229832D02*
X236499Y230499D01*
X235166D01*
X234500Y229832D01*
Y227166D01*
X235166Y226500D01*
X236499D01*
X237166Y227166D01*
X238499Y230499D02*
X241164D01*
Y229832D01*
X238499Y227166D01*
Y226500D01*
X245166Y192832D02*
X244499Y193499D01*
X243166D01*
X242500Y192832D01*
Y190166D01*
X243166Y189500D01*
X244499D01*
X245166Y190166D01*
X249165Y193499D02*
X247832Y192832D01*
X246499Y191499D01*
Y190166D01*
X247165Y189500D01*
X248498D01*
X249165Y190166D01*
Y190833D01*
X248498Y191499D01*
X246499D01*
X212166Y151332D02*
X211499Y151999D01*
X210166D01*
X209500Y151332D01*
Y148667D01*
X210166Y148000D01*
X211499D01*
X212166Y148667D01*
X216164Y151999D02*
X213499D01*
Y149999D01*
X214832Y150666D01*
X215498D01*
X216164Y149999D01*
Y148667D01*
X215498Y148000D01*
X214165D01*
X213499Y148667D01*
X223666Y230332D02*
X222999Y230999D01*
X221666D01*
X221000Y230332D01*
Y227666D01*
X221666Y227000D01*
X222999D01*
X223666Y227666D01*
X226998Y227000D02*
Y230999D01*
X224999Y228999D01*
X227664D01*
X212166Y230832D02*
X211499Y231499D01*
X210166D01*
X209500Y230832D01*
Y228166D01*
X210166Y227500D01*
X211499D01*
X212166Y228166D01*
X213499Y230832D02*
X214165Y231499D01*
X215498D01*
X216164Y230832D01*
Y230166D01*
X215498Y229499D01*
X214832D01*
X215498D01*
X216164Y228833D01*
Y228166D01*
X215498Y227500D01*
X214165D01*
X213499Y228166D01*
X172666Y169332D02*
X171999Y169999D01*
X170667D01*
X170000Y169332D01*
Y166666D01*
X170667Y166000D01*
X171999D01*
X172666Y166666D01*
X176664Y166000D02*
X173999D01*
X176664Y168666D01*
Y169332D01*
X175998Y169999D01*
X174665D01*
X173999Y169332D01*
X200666Y151332D02*
X199999Y151999D01*
X198667D01*
X198000Y151332D01*
Y148667D01*
X198667Y148000D01*
X199999D01*
X200666Y148667D01*
X201999Y148000D02*
X203332D01*
X202665D01*
Y151999D01*
X201999Y151332D01*
X242500Y177500D02*
Y181499D01*
X244499D01*
X245166Y180832D01*
Y179499D01*
X244499Y178833D01*
X242500D01*
X243833D02*
X245166Y177500D01*
X249165D02*
X246499D01*
X249165Y180166D01*
Y180832D01*
X248498Y181499D01*
X247165D01*
X246499Y180832D01*
X122266Y236732D02*
X121599Y237399D01*
X120266D01*
X119600Y236732D01*
Y234066D01*
X120266Y233400D01*
X121599D01*
X122266Y234066D01*
X123599Y233400D02*
Y237399D01*
X126265Y233400D01*
Y237399D01*
X127597Y233400D02*
X128930D01*
X128264D01*
Y237399D01*
X127597Y236732D01*
X166333Y209000D02*
X167000Y209666D01*
Y210999D01*
X166333Y211666D01*
X163668D01*
X163001Y210999D01*
Y209666D01*
X163668Y209000D01*
X164334D01*
X165001Y209666D01*
Y211666D01*
X166000Y169000D02*
Y170333D01*
Y169667D01*
X162001D01*
X162668Y169000D01*
D29*
X182500Y141499D02*
X185166D01*
X183833D01*
Y137500D01*
X186499D02*
Y141499D01*
X188498D01*
X189164Y140832D01*
Y139499D01*
X188498Y138833D01*
X186499D01*
X193163Y137500D02*
X190497D01*
X193163Y140166D01*
Y140832D01*
X192497Y141499D01*
X191164D01*
X190497Y140832D01*
M02*
